<svg width="36" height="20" viewBox="0 0 36 20" fill="none" xmlns="http://www.w3.org/2000/svg">
<path d="M1.68968 18.7677C2.17332 19.2513 2.73756 19.4932 3.38242 19.4932C4.02727 19.4932 4.59151 19.2513 5.07515 18.7677L18.214 5.62882L31.3529 18.7677C31.8366 19.2513 32.4008 19.4932 33.0457 19.4932C33.6905 19.4932 34.2548 19.2513 34.7384 18.7677C35.222 18.2841 35.4639 17.7198 35.4639 17.075C35.4639 16.4301 35.222 15.8659 34.7384 15.3822L20.2292 0.873021C19.9605 0.604333 19.6521 0.402279 19.3038 0.26686C18.9535 0.13359 18.5902 0.0669547 18.214 0.0669547C17.8379 0.0669547 17.4757 0.13359 17.1275 0.26686C16.7771 0.402279 16.4676 0.604333 16.1989 0.873021L1.68968 15.3822C1.20604 15.8659 0.964215 16.4301 0.964215 17.075C0.964215 17.7198 1.20604 18.2841 1.68968 18.7677Z" fill="#0C53C4"/>
</svg>
