<svg id="Calque_1" data-name="Calque 1" xmlns="http://www.w3.org/2000/svg" viewBox="0 0 224 173"><defs><style>.cls-1{fill:#0c53c4;}.cls-2{fill:#f40044;}</style></defs><title>background_artiste</title><path class="cls-1" d="M195.62,66.56C149.3,52.4,174.18.94,139.69-.39s-20.38,45.6-56.34,48.44S31.58,82.49,50.63,111.58c24.56,37.47,60-1.15,79.26,37.48,20.59,41.29,74.53,2.88,85.39-16.95S233.5,78.15,195.62,66.56Z"/><path class="cls-2" d="M40,85.33c27.87,14.39,39.58-20.7,56.17-5.72S85,110,100.38,127.53s8.44,39.36-13.53,44.21C58.53,178,59.56,144.09,33.17,153.26,5,163.07-2.69,120.89,1.24,106.8S17.17,73.57,40,85.33Z"/></svg>