<svg width="36" height="57" viewBox="0 0 36 57" fill="none" xmlns="http://www.w3.org/2000/svg">
<path d="M1.00271 39.3147L1.50262 39.3237L1.51168 38.819L1.00694 38.8147L1.00271 39.3147ZM35.0212 17.2841H35.5212V16.7841H35.0212V17.2841ZM35.0148 17.2841L34.515 17.2979L34.5285 17.7841H35.0148V17.2841ZM1.00644 17.2841V17.7841H1.49278L1.50624 17.2979L1.00644 17.2841ZM1 17.2841V16.7841H0.5V17.2841H1ZM1 39.3147H0.5V39.8105L0.99577 39.8147L1 39.3147ZM0.502786 39.3057C0.500931 39.4091 0.5 39.5127 0.5 39.6165H1.5C1.5 39.5187 1.50088 39.4211 1.50262 39.3237L0.502786 39.3057ZM0.5 39.6165C0.5 49.1503 8.3471 56.8658 18.0106 56.8658V55.8658C8.88473 55.8658 1.5 48.5835 1.5 39.6165H0.5ZM18.0106 56.8658C27.6741 56.8658 35.5212 49.1503 35.5212 39.6165H34.5212C34.5212 48.5835 27.1365 55.8658 18.0106 55.8658V56.8658ZM35.5212 39.6165V17.7493H34.5212V39.6165H35.5212ZM35.5212 17.7493V17.2841H34.5212V17.7493H35.5212ZM35.0212 16.7841H35.0148V17.7841H35.0212V16.7841ZM35.5146 17.2702C35.2567 7.95806 27.5118 0.5 18.0106 0.5V1.5C26.9828 1.5 34.2724 8.5395 34.515 17.2979L35.5146 17.2702ZM18.0106 0.5C8.50946 0.5 0.764563 7.95806 0.506628 17.2702L1.50624 17.2979C1.74884 8.5395 9.03841 1.5 18.0106 1.5V0.5ZM1.00644 16.7841H1V17.7841H1.00644V16.7841ZM0.5 17.2841V17.7493H1.5V17.2841H0.5ZM0.5 17.7493V39.3147H1.5V17.7493H0.5ZM0.99577 39.8147L0.998475 39.8147L1.00694 38.8147L1.00423 38.8147L0.99577 39.8147Z" fill="#FCF1E3"/>
<ellipse cx="17.8351" cy="13.7916" rx="2.8351" ry="2.79155" fill="#FCF1E3"/>
</svg>
