<svg width="34" height="34" viewBox="0 0 34 34" fill="none" xmlns="http://www.w3.org/2000/svg">
<mask id="mask0_85_1036" style="mask-type:alpha" maskUnits="userSpaceOnUse" x="0" y="0" width="34" height="34">
<rect width="33.8818" height="33.8818" fill="#D9D9D9"/>
</mask>
<g mask="url(#mask0_85_1036)">
<path d="M11.8584 23.9996L16.9407 18.9174L22.0229 23.9996L23.9994 22.0232L18.9171 16.9409L23.9994 11.8586L22.0229 9.8822L16.9407 14.9645L11.8584 9.8822L9.88196 11.8586L14.9642 16.9409L9.88196 22.0232L11.8584 23.9996ZM16.9407 31.0583C14.9878 31.0583 13.1525 30.6875 11.4349 29.9459C9.71726 29.2052 8.22316 28.1996 6.95259 26.929C5.68202 25.6584 4.67639 24.1643 3.9357 22.4467C3.19406 20.7291 2.82324 18.8938 2.82324 16.9409C2.82324 14.988 3.19406 13.1527 3.9357 11.4351C4.67639 9.7175 5.68202 8.2234 6.95259 6.95284C8.22316 5.68227 9.71726 4.67616 11.4349 3.93453C13.1525 3.19383 14.9878 2.82349 16.9407 2.82349C18.8936 2.82349 20.7289 3.19383 22.4465 3.93453C24.1641 4.67616 25.6582 5.68227 26.9288 6.95284C28.1993 8.2234 29.205 9.7175 29.9457 11.4351C30.6873 13.1527 31.0581 14.988 31.0581 16.9409C31.0581 18.8938 30.6873 20.7291 29.9457 22.4467C29.205 24.1643 28.1993 25.6584 26.9288 26.929C25.6582 28.1996 24.1641 29.2052 22.4465 29.9459C20.7289 30.6875 18.8936 31.0583 16.9407 31.0583ZM16.9407 28.2349C20.0936 28.2349 22.7641 27.1408 24.9523 24.9526C27.1405 22.7644 28.2346 20.0938 28.2346 16.9409C28.2346 13.788 27.1405 11.1175 24.9523 8.92928C22.7641 6.74107 20.0936 5.64697 16.9407 5.64697C13.7878 5.64697 11.1172 6.74107 8.92903 8.92928C6.74083 11.1175 5.64673 13.788 5.64673 16.9409C5.64673 20.0938 6.74083 22.7644 8.92903 24.9526C11.1172 27.1408 13.7878 28.2349 16.9407 28.2349Z" fill="#FCF1E3"/>
</g>
</svg>
