<svg width="31" height="30" viewBox="0 0 31 30" fill="none" xmlns="http://www.w3.org/2000/svg">
<g clip-path="url(#clip0_240_502)">
<path d="M8.40796 25.4668H9.01849V23.2802H12.8027V25.4668H13.4143V23.2802H17.3771V25.4668H17.9897V23.2802H22.2059V25.4668H22.8164V23.2802H26.3226V22.6707H22.8164V18.7089H26.3226V18.0974H22.8164V14.4865H26.3226V13.877H22.8164V11.438H22.2059V13.877H17.9897V11.438H17.3771V13.877H13.4143V11.438H12.8027V13.877H9.01746V11.438H8.40796V13.877H4.36719V14.4865H8.40796V18.0974H4.36719V18.7089H8.40796V22.6707H4.36719V23.2802H8.40796V25.4668ZM13.4133 22.6707V18.7089H17.376V22.6707H13.4133ZM22.2059 22.6707H17.9897V18.7089H22.2059V22.6707ZM22.2059 14.4865V18.0974H17.9897V14.4865C17.9897 14.4875 22.2059 14.4875 22.2059 14.4865ZM17.3771 14.4865V18.0974H13.4143V14.4865C13.4143 14.4875 17.3771 14.4875 17.3771 14.4865ZM9.01746 14.4865H12.8017V18.0974H9.01746V14.4865ZM9.01746 18.7089H12.8017V22.6707H9.01746V18.7089Z" fill="#121212"/>
<path d="M30.4917 2.56934L26.2549 2.57344L25.6362 2.57549V5.08738C25.6362 5.75742 25.0883 6.30536 24.4172 6.30536H22.993C22.3198 6.30536 21.774 5.75845 21.774 5.08738V2.5796L20.1496 2.58165V5.08738C20.1496 5.75742 19.6007 6.30536 18.9276 6.30536H17.5033C16.8312 6.30536 16.2843 5.75845 16.2843 5.08738V2.58268L14.5584 2.58678V5.0884C14.5584 5.75845 14.0105 6.30638 13.3384 6.30638H11.9132C11.2431 6.30638 10.6942 5.75947 10.6942 5.0884V2.59088H8.91696V5.0884C8.91696 5.75845 8.37005 6.30638 7.69796 6.30638H6.27374C5.60062 6.30638 5.05371 5.75947 5.05371 5.0884V2.59601L0.522461 2.60012V29.4356H2.667H28.381L30.5225 29.4295L30.4917 2.56934ZM28.381 27.3003H2.667V10.1553H28.381V27.3003Z" fill="#121212"/>
<path d="M6.27355 5.44154H7.69777C7.86503 5.44154 8.0015 5.30507 8.0015 5.13679V0.868227C8.0015 0.698921 7.86503 0.563477 7.69777 0.563477H6.27355C6.10424 0.563477 5.96777 0.698921 5.96777 0.868227V5.13679C5.96777 5.30507 6.10424 5.44154 6.27355 5.44154Z" fill="#121212"/>
<path d="M11.9131 5.44154H13.3384C13.5067 5.44154 13.6431 5.30507 13.6431 5.13679V0.868227C13.6421 0.698921 13.5057 0.563477 13.3374 0.563477H11.9121C11.7449 0.563477 11.6084 0.698921 11.6084 0.868227V5.13679C11.6094 5.30507 11.7459 5.44154 11.9131 5.44154Z" fill="#121212"/>
<path d="M17.503 5.44154H18.9272C19.0975 5.44154 19.234 5.30507 19.234 5.13679V0.868227C19.233 0.698921 19.0975 0.563477 18.9272 0.563477H17.503C17.3347 0.563477 17.1982 0.698921 17.1982 0.868227V5.13679C17.1982 5.30507 17.3347 5.44154 17.503 5.44154Z" fill="#121212"/>
<path d="M22.9932 5.44154H24.4175C24.5857 5.44154 24.7212 5.30507 24.7212 5.13679V0.868227C24.7212 0.698921 24.5857 0.563477 24.4175 0.563477H22.9932C22.8249 0.563477 22.6885 0.698921 22.6885 0.868227V5.13679C22.6895 5.30507 22.8249 5.44154 22.9932 5.44154Z" fill="#121212"/>
</g>
<defs>
<clipPath id="clip0_240_502">
<rect width="30" height="30" fill="white" transform="translate(0.522461)"/>
</clipPath>
</defs>
</svg>
