<svg width="60" height="130" viewBox="0 0 60 130" fill="none" xmlns="http://www.w3.org/2000/svg">
<path d="M5.65332 125.477C6.86328 125.477 7.88867 125.169 8.72266 124.547C9.55664 123.925 10.0967 123.187 10.3359 122.332L8.47656 121.854C8.30566 122.366 7.96387 122.797 7.45117 123.146C6.93848 123.494 6.32324 123.672 5.6123 123.672C4.67578 123.672 3.91699 123.351 3.3291 122.701C2.74121 122.052 2.44727 121.272 2.44727 120.356C2.44727 119.447 2.74121 118.675 3.32227 118.039C3.90332 117.403 4.66895 117.089 5.6123 117.089C6.32324 117.089 6.93164 117.267 7.44434 117.622C7.95703 117.978 8.29883 118.415 8.46973 118.928L10.3496 118.47C10.0967 117.608 9.5498 116.863 8.71582 116.234C7.88184 115.605 6.84277 115.291 5.60547 115.291C4.14941 115.291 2.93262 115.776 1.95508 116.747C0.977539 117.718 0.492188 118.928 0.492188 120.37C0.492188 121.826 0.977539 123.043 1.95508 124.021C2.93262 124.998 4.15625 125.483 5.63281 125.483L5.65332 125.477ZM17.7702 125.278H19.985L17.5514 121.655C18.2213 121.416 18.7477 121.026 19.1237 120.479C19.4996 119.933 19.6911 119.331 19.6911 118.668C19.6911 117.841 19.3834 117.103 18.7682 116.453C18.153 115.804 17.3395 115.482 16.3346 115.482H11.5631V125.285H13.4704V121.854H15.5553L17.7702 125.278ZM13.4704 117.205H16.2799C16.7311 117.205 17.1002 117.349 17.3942 117.636C17.6881 117.923 17.8317 118.271 17.8317 118.675C17.8317 119.099 17.6813 119.454 17.3805 119.741C17.0797 120.028 16.6901 120.172 16.2047 120.172H13.4635L13.4704 117.205ZM28.3762 117.212V115.476H21.1507V125.278H28.3626V123.542H23.0305V121.136H27.6585V119.454H23.0305V117.212H28.3762ZM29.4941 119.358H30.9638L32.0575 115.476H30.1093L29.4941 119.358ZM36.9761 125.477C38.1314 125.477 39.0748 125.183 39.7994 124.595C40.524 124.007 40.8863 123.289 40.8863 122.435C40.8863 121.696 40.6607 121.129 40.2095 120.732C39.7584 120.336 39.1021 120.008 38.2476 119.748L35.814 118.962C35.192 118.777 34.8775 118.47 34.8775 118.039C34.8775 117.745 35.0211 117.492 35.315 117.287C35.6089 117.082 35.9849 116.979 36.4498 116.979C36.9898 116.979 37.4752 117.103 37.9058 117.349C38.3365 117.595 38.6578 117.916 38.8629 118.319L40.647 117.8C40.3668 117.082 39.8472 116.487 39.0884 116.009C38.3296 115.53 37.441 115.291 36.4224 115.291C35.4175 115.291 34.5767 115.564 33.9068 116.111C33.2369 116.658 32.9019 117.321 32.9087 118.094C32.9019 118.702 33.1002 119.215 33.5035 119.639C33.9068 120.062 34.4468 120.384 35.1304 120.596L37.6324 121.382C38.1041 121.525 38.439 121.696 38.6373 121.888C38.8355 122.079 38.9312 122.305 38.9312 122.564C38.9312 122.899 38.7603 123.187 38.4117 123.433C38.063 123.679 37.6119 123.802 37.0582 123.802C36.3814 123.802 35.7935 123.631 35.3013 123.289C34.8091 122.947 34.4605 122.51 34.2554 121.97L32.4166 122.523C32.7173 123.357 33.2642 124.062 34.0572 124.636C34.8502 125.21 35.814 125.497 36.942 125.497L36.9761 125.477ZM46.7756 115.476H42.1818V125.278H44.0891V122.284H46.6936C47.7531 122.284 48.6008 121.942 49.2297 121.259C49.8586 120.575 50.173 119.782 50.173 118.887C50.173 118.012 49.8586 117.226 49.2297 116.528C48.6008 115.831 47.7805 115.482 46.7619 115.482L46.7756 115.476ZM46.6184 120.582H44.0754V117.219H46.7072C47.1652 117.219 47.5412 117.39 47.842 117.725C48.1428 118.06 48.2932 118.449 48.2932 118.894C48.2932 119.338 48.1359 119.728 47.8215 120.062C47.507 120.397 47.1037 120.568 46.6047 120.568L46.6184 120.582ZM57.6346 125.278H59.6375L55.8709 115.476H53.3758L49.6229 125.278H51.6121L52.4256 123.152H56.8348L57.6346 125.278ZM53.0545 121.457L54.62 117.314L56.1922 121.457H53.0545Z" fill="#121212"/>
<g clip-path="url(#clip0_134_20681)">
<g clip-path="url(#clip1_134_20681)">
<path d="M25.117 0.988281V11.5654C15.3944 12.0851 7.64537 20.1492 7.64537 29.9868C7.64537 33.9434 8.90081 37.6131 11.033 40.6216L0.12207 48.6578L0.144456 0.988281H25.117Z" fill="#FFC63C"/>
<path d="M59.9286 0.988281V22.5616H43.0278C40.8061 17.5301 36.3962 13.6722 31.0088 12.1931V0.988281H59.9286Z" fill="#F40044"/>
<path d="M59.9286 28.4424V52.8267H30.9863V47.784C38.8193 45.6455 44.5928 38.4755 44.5928 29.9867C44.5928 29.4669 44.5704 28.9509 44.5275 28.4424H59.9286Z" fill="#0C53C4"/>
<path d="M59.9285 58.707H31.0087V80.9528C31.0087 89.0039 30.4435 90.0582 31.1225 93.4393C31.7511 96.5706 34.2452 96.9339 35.4074 94.3036C36.2972 92.2918 35.3887 90.5444 35.5119 88.3798C35.6424 86.0942 36.7244 84.7436 37.7205 84.7958C40.0561 84.915 38.685 89.4044 39.8602 91.962C40.6661 93.715 42.6975 94.0409 43.5444 92.0664C44.3279 90.2389 43.9436 88.5121 45.2867 85.3509C46.503 82.4859 47.4339 79.8426 48.8889 77.3799C50.3421 74.9173 59.9285 58.7089 59.9285 58.7089V58.707Z" fill="#FFC63C"/>
<path d="M59.9246 70.3183C59.9246 70.3183 59.9265 74.5804 59.9246 79.2803C59.9246 81.7355 59.9395 84.2689 59.9246 86.1243C59.9004 89.2314 59.5422 90.3957 58.6841 91.7761C57.6954 93.3669 56.0501 93.0465 55.7722 91.506C55.4942 89.9654 55.567 87.4506 53.7929 88.8421C53.1792 89.3227 52.821 89.8071 52.6065 91.2601C52.3715 92.8584 52.6606 95.2968 50.743 95.5743C49.398 95.7699 49.1331 93.4396 49.3327 91.2768C49.5323 89.1141 49.6013 88.4155 50.7896 86.1541C53.8284 80.37 59.9228 70.3164 59.9228 70.3164L59.9246 70.3183Z" fill="#0C53C4"/>
<path d="M24.9381 99.198C24.0558 102.417 19.7559 102.786 18.8773 99.6153C17.6219 95.0924 19.2243 94.2932 18.2375 87.0338C17.8439 84.139 14.0663 82.4867 12.3445 86.2626C10.8746 89.4853 12.6523 95.5078 9.22927 94.9769C6.5076 94.554 8.42154 89.8057 6.74451 88.5315C5.7521 87.7789 4.66828 88.8463 4.46122 89.9025C4.25602 90.9606 4.0303 92.2963 4.20938 93.7008C4.42577 95.3867 4.45562 99.6339 1.87572 99.1328C0.443069 98.8552 -0.0419447 96.4839 0.144599 94.8223C0.428145 92.3224 0.144599 91.2997 0.144599 76.8889V55.9359L15.1837 44.8447C17.995 46.9143 21.4124 48.209 25.1153 48.4064C25.1153 48.9895 25.1153 51.7614 25.1153 53.5348V82.9841C25.1153 95.0216 25.6861 96.4671 24.9362 99.198H24.9381Z" fill="#F40044"/>
<path d="M38.7593 29.9866V30.1133C38.7593 30.1543 38.7593 30.1953 38.7593 30.2381C38.7575 30.3219 38.7537 30.4058 38.7519 30.4896C38.7481 30.5715 38.7444 30.6554 38.7388 30.7392C38.7351 30.7895 38.7332 30.8398 38.7295 30.8901L38.7183 31.0186C38.7183 31.0317 38.7183 31.0447 38.7183 31.0577C38.7127 31.1155 38.7071 31.1751 38.7015 31.2328C38.694 31.3074 38.6866 31.3837 38.6773 31.4582C38.6735 31.488 38.6698 31.516 38.6661 31.5458C38.6605 31.6054 38.653 31.6632 38.6437 31.7228C38.6344 31.8047 38.6213 31.8848 38.6082 31.9649C38.597 32.045 38.584 32.1251 38.5691 32.2052C38.556 32.2797 38.5429 32.3524 38.528 32.4269C38.5262 32.4381 38.5224 32.4511 38.5206 32.4623C38.5206 32.4642 38.5206 32.466 38.5187 32.4679C38.5187 32.4809 38.515 32.4921 38.5112 32.5051C38.5112 32.5107 38.5112 32.5145 38.5112 32.52C38.5 32.5741 38.487 32.6281 38.4758 32.6821C38.459 32.7622 38.4403 32.8405 38.4217 32.9187C38.3844 33.0752 38.3452 33.2316 38.3023 33.3863C38.2855 33.4515 38.2669 33.5148 38.2463 33.5781C38.2146 33.6862 38.181 33.7961 38.1456 33.9023C38.127 33.96 38.1083 34.0178 38.0878 34.0736C38.0393 34.2171 37.9889 34.3568 37.9348 34.4965C37.9012 34.5841 37.8677 34.6697 37.8322 34.7554C37.8322 34.7554 37.8322 34.7554 37.8322 34.7592C37.8285 34.7685 37.8248 34.7759 37.821 34.7852C37.8173 34.7964 37.8117 34.8076 37.808 34.8188C37.7576 34.938 37.7072 35.0572 37.655 35.1746C37.6214 35.2472 37.5878 35.3217 37.5524 35.3944C37.5188 35.4652 37.4834 35.5359 37.4479 35.6067C37.4125 35.6775 37.377 35.7483 37.3397 35.8172C37.2689 35.9569 37.1942 36.0948 37.114 36.2308C37.0748 36.2997 37.0357 36.3668 36.9946 36.4357C36.9573 36.5009 36.9181 36.5661 36.8771 36.6294C36.8323 36.7002 36.7876 36.771 36.7428 36.8418C36.657 36.9703 36.5712 37.0989 36.4835 37.2237C36.4387 37.287 36.394 37.3522 36.3473 37.4137C36.3026 37.477 36.2559 37.5403 36.2074 37.6018C36.1608 37.6651 36.1141 37.7266 36.0638 37.7881C36.0153 37.8496 35.9668 37.911 35.9164 37.9707C35.894 38.0005 35.8698 38.0284 35.8455 38.0563C35.7933 38.1215 35.7373 38.1849 35.6832 38.2482C35.631 38.3078 35.5788 38.3674 35.5247 38.427C35.5041 38.4531 35.4818 38.4773 35.4575 38.5016C35.3512 38.6171 35.2449 38.7307 35.1348 38.8406C35.0807 38.8965 35.0247 38.9524 34.9688 39.0064C34.9128 39.0623 34.8568 39.1144 34.8009 39.1684C34.7431 39.2225 34.6852 39.2765 34.6274 39.3268C34.592 39.3584 34.5584 39.3901 34.5229 39.4199C34.4315 39.5056 34.3364 39.5857 34.2412 39.6658C34.1927 39.7068 34.1442 39.7459 34.0957 39.785C33.9745 39.8838 33.8514 39.9806 33.7264 40.0738C33.6798 40.111 33.6313 40.1464 33.5828 40.18C33.5044 40.2377 33.4261 40.2936 33.3458 40.3495C33.2171 40.4389 33.0865 40.5264 32.956 40.6103C32.9187 40.6363 32.8795 40.6606 32.8403 40.6848C32.5474 40.8673 32.2452 41.0406 31.9356 41.2008C31.8703 41.2343 31.805 41.2678 31.7378 41.3014C31.7304 41.3051 31.7229 41.3088 31.7155 41.3107C31.6483 41.3461 31.5793 41.3777 31.5103 41.4094C31.4095 41.4578 31.3088 41.5026 31.2081 41.5491C31.1931 41.5547 31.1782 41.5622 31.1614 41.5696C31.0607 41.6125 30.9599 41.6534 30.8573 41.6944C30.7846 41.7261 30.71 41.754 30.6354 41.782C30.5477 41.8155 30.46 41.8472 30.3723 41.8788C30.3015 41.9049 30.2306 41.9291 30.1597 41.9534C30.1559 41.9552 30.1541 41.9552 30.1504 41.9571C30.0627 41.985 29.975 42.0148 29.8873 42.0409C29.8388 42.0558 29.7903 42.0707 29.7437 42.0838C29.6784 42.1042 29.6112 42.1229 29.5441 42.1415C29.4601 42.1657 29.3743 42.1881 29.2885 42.2104C29.1971 42.2346 29.1057 42.257 29.0124 42.2794C28.9005 42.3054 28.7867 42.3296 28.6748 42.352C28.5797 42.3725 28.4845 42.3893 28.3894 42.4079C28.3856 42.4079 28.38 42.4097 28.3763 42.4097C28.2942 42.4246 28.2122 42.4377 28.1301 42.4507C28.0536 42.4638 27.9771 42.4749 27.8988 42.4861C27.8894 42.4861 27.8801 42.4861 27.8708 42.4898C27.7962 42.501 27.7216 42.5103 27.6469 42.5178C27.5574 42.529 27.466 42.5401 27.3746 42.5476C27.2832 42.5569 27.1918 42.5662 27.1004 42.5718C27.0463 42.5755 26.9922 42.5793 26.9399 42.583C26.8858 42.5867 26.8317 42.5904 26.7776 42.5923C26.7273 42.596 26.675 42.5979 26.6247 42.5998H26.6079C26.5911 42.6016 26.5762 42.6016 26.5594 42.6016C26.4157 42.6072 26.2721 42.6091 26.1266 42.6091C26.0035 42.6091 25.8804 42.6072 25.7572 42.6035C25.664 42.6035 25.5688 42.5979 25.4756 42.5923C25.3935 42.5923 25.3133 42.5849 25.2331 42.5793C25.2069 42.5774 25.179 42.5755 25.1528 42.5718C24.9794 42.5606 24.8077 42.5439 24.638 42.5215C24.5578 42.5122 24.4776 42.5029 24.3973 42.4917C24.3171 42.4805 24.2388 42.4694 24.1586 42.4563C24.0765 42.4451 23.9944 42.4302 23.9123 42.4153C23.8974 42.4135 23.8806 42.4097 23.8638 42.4079C23.8452 42.4042 23.8265 42.4004 23.8079 42.3967C23.7314 42.3837 23.6549 42.3688 23.5784 42.352C23.4833 42.3334 23.3863 42.3129 23.2911 42.2905C23.1829 42.2663 23.0748 42.2402 22.9666 42.2123C22.9292 42.2011 22.8919 42.1918 22.8528 42.1806C22.8397 42.1769 22.8285 42.175 22.8155 42.1713C22.7352 42.1508 22.655 42.1285 22.5767 42.1042C22.573 42.1024 22.5692 42.1024 22.5655 42.1005C22.5468 42.0949 22.5263 42.0893 22.5058 42.0838C22.4256 42.0595 22.3435 42.0353 22.2633 42.0074C22.2334 41.9999 22.2055 41.9906 22.1775 41.9813C22.101 41.9552 22.0245 41.9291 21.948 41.9031C21.948 41.9031 21.9468 41.9024 21.9443 41.9012C21.838 41.8639 21.7316 41.8267 21.6272 41.7857C21.5227 41.7466 21.4201 41.7056 21.3175 41.6628C21.2261 41.6255 21.1366 41.5882 21.047 41.5491C21.034 41.5435 21.0209 41.5379 21.0097 41.5324C20.9071 41.4877 20.8064 41.4411 20.7056 41.3926C20.6553 41.3684 20.6049 41.3461 20.5564 41.32C20.506 41.2958 20.4557 41.2716 20.4072 41.2455C20.4016 41.2436 20.3979 41.2418 20.3941 41.2399C20.299 41.1915 20.2057 41.1412 20.1124 41.0909C20.0136 41.0387 19.9184 40.9847 19.8214 40.9288C19.7804 40.9065 19.7375 40.8804 19.6965 40.8562C19.6535 40.8319 19.6125 40.8059 19.5715 40.7816C19.4987 40.7369 19.426 40.6922 19.3551 40.6475C19.2879 40.6047 19.2208 40.5618 19.1555 40.5171C19.0174 40.4258 18.8813 40.3327 18.7469 40.2358C18.6238 40.1464 18.5007 40.0551 18.3813 39.962C18.2638 39.8726 18.15 39.7794 18.0362 39.6863C18.0306 39.6807 18.0232 39.6751 18.0176 39.6695C18.0064 39.6621 17.9952 39.6528 17.9858 39.6435C17.8982 39.5689 17.8105 39.4944 17.7247 39.4162C17.6911 39.3883 17.6594 39.3585 17.6258 39.3286C17.5176 39.2318 17.4132 39.1312 17.3087 39.0306C17.305 39.0287 17.3012 39.025 17.2994 39.0213C17.1893 38.9151 17.083 38.8052 16.9748 38.6953C16.9748 38.6934 16.9748 38.6916 16.971 38.6897C16.8666 38.5798 16.7659 38.4699 16.6651 38.3563C16.6539 38.3469 16.6446 38.3358 16.639 38.3246C16.6241 38.3078 16.6092 38.2911 16.5942 38.2743C16.5084 38.1774 16.4245 38.0787 16.3424 37.9781C16.2417 37.8552 16.1428 37.7303 16.0477 37.6037H16.0439C16.0271 37.5813 16.0122 37.559 15.9973 37.5385C15.9674 37.4975 15.9357 37.4565 15.9059 37.4155C15.876 37.3745 15.8481 37.3336 15.8182 37.2926C15.7585 37.2106 15.7007 37.1268 15.6447 37.043C15.5869 36.9591 15.5309 36.8753 15.4768 36.7896C15.4768 36.7878 15.4768 36.7859 15.4731 36.784C15.391 36.6555 15.3108 36.5251 15.2325 36.3928C15.225 36.3817 15.2194 36.3705 15.2119 36.3593C15.1467 36.2475 15.0814 36.132 15.0179 36.0166C15.0123 36.0072 15.0067 35.9961 15.0011 35.9868C14.9564 35.9029 14.9116 35.8172 14.8687 35.7334C14.8239 35.6477 14.781 35.5602 14.7381 35.4745C14.7008 35.4 14.6654 35.3236 14.6318 35.2472C14.6019 35.1839 14.574 35.1187 14.546 35.0535C14.5217 34.9995 14.4975 34.9454 14.4751 34.8896C14.4359 34.7983 14.3986 34.707 14.3613 34.6139C14.324 34.5189 14.2867 34.4238 14.2512 34.327C14.2512 34.3214 14.2475 34.3177 14.2456 34.3121C14.2102 34.2171 14.1766 34.1183 14.1449 34.0215C14.1132 33.9283 14.0834 33.8352 14.0535 33.7402C14.0255 33.6545 14.0013 33.5669 13.9752 33.4813C13.9714 33.4701 13.9677 33.457 13.9658 33.4459C13.9397 33.3527 13.9136 33.2596 13.8893 33.1664C13.867 33.0826 13.8464 32.9988 13.8278 32.9131C13.8166 32.8721 13.8073 32.8311 13.7979 32.7902C13.7923 32.7678 13.7886 32.7473 13.7849 32.725C13.7681 32.6598 13.755 32.5927 13.742 32.5275C13.7196 32.4195 13.6991 32.3114 13.6786 32.2034C13.6767 32.1885 13.673 32.1717 13.6711 32.1568C13.6599 32.0953 13.6506 32.0357 13.6412 31.9742C13.6319 31.9258 13.6245 31.8774 13.6189 31.8289C13.6058 31.7433 13.5946 31.6557 13.5834 31.57C13.5573 31.3595 13.5349 31.1472 13.52 30.9329C13.52 30.9255 13.5181 30.918 13.5181 30.9106C13.5181 30.9013 13.5181 30.8919 13.5181 30.8808C13.5144 30.8305 13.5107 30.7802 13.5069 30.728C13.5069 30.715 13.5069 30.7001 13.5069 30.687V30.6759C13.5069 30.6647 13.5051 30.6554 13.5051 30.6442C13.4995 30.5306 13.4957 30.4188 13.492 30.3052C13.4901 30.199 13.4883 30.0928 13.4883 29.9866C13.4883 29.7687 13.4939 29.5526 13.5051 29.3365C13.5107 29.2284 13.5163 29.1223 13.5256 29.0142C13.5405 28.8242 13.5592 28.6342 13.5816 28.4461C13.5946 28.3436 13.6077 28.243 13.6226 28.1443C13.6319 28.0735 13.6431 28.0046 13.6562 27.9357C13.6674 27.8611 13.6786 27.7866 13.6935 27.7121C13.6935 27.7121 13.6935 27.7065 13.6935 27.7047C13.7009 27.66 13.7084 27.6171 13.7177 27.5724C13.7252 27.5296 13.7345 27.4867 13.7438 27.442C13.7532 27.3917 13.7644 27.3414 13.7756 27.293C13.7867 27.2427 13.7979 27.1924 13.8091 27.144C13.8241 27.075 13.8408 27.0061 13.8576 26.9372C13.8782 26.8515 13.9005 26.7677 13.9229 26.6838C13.9248 26.6764 13.9267 26.6689 13.9304 26.6615C13.9323 26.6522 13.936 26.641 13.9379 26.6317C13.9584 26.5534 13.9826 26.4771 14.005 26.3988C14.0069 26.3877 14.0106 26.3765 14.0143 26.3653C14.033 26.3057 14.0498 26.2461 14.0703 26.1865C14.0722 26.1772 14.0759 26.1678 14.0796 26.1585C14.0815 26.1529 14.0834 26.1455 14.0852 26.1399C14.0908 26.1175 14.0983 26.0933 14.1076 26.0691C14.1337 25.9853 14.1617 25.9033 14.1915 25.8214C14.2233 25.7301 14.2568 25.6388 14.2904 25.5475C14.3184 25.4749 14.3464 25.4004 14.3762 25.3277C14.4098 25.242 14.4452 25.1563 14.4807 25.0725C14.5199 24.9775 14.5609 24.8844 14.6038 24.7912C14.6449 24.6981 14.6896 24.6049 14.7325 24.5137C14.7773 24.4205 14.8239 24.3292 14.8706 24.238C14.9359 24.1094 15.0049 23.9809 15.0758 23.8542C15.1224 23.7685 15.1728 23.6828 15.2213 23.599C15.2325 23.5804 15.2437 23.5618 15.2548 23.5431C15.2586 23.5375 15.2623 23.532 15.266 23.5264C15.322 23.4314 15.3798 23.3382 15.4377 23.2469C15.4675 23.1985 15.4992 23.1501 15.5291 23.1035C15.5626 23.0513 15.5981 22.9992 15.6335 22.947C15.6391 22.9414 15.6429 22.934 15.6466 22.9284C15.7511 22.7738 15.8592 22.621 15.9693 22.472C15.9786 22.459 15.988 22.4459 15.9992 22.4329C16.0589 22.3528 16.1204 22.2727 16.1838 22.1926C16.2454 22.1125 16.3088 22.0342 16.3741 21.956C16.4375 21.8778 16.5028 21.8014 16.57 21.725C16.6353 21.6486 16.7024 21.5723 16.7714 21.4978C16.833 21.4307 16.8946 21.3636 16.958 21.2966C17.0345 21.2165 17.111 21.1382 17.1893 21.06C17.2509 20.9985 17.3143 20.9371 17.3777 20.8756C17.3945 20.8588 17.4132 20.842 17.4299 20.8253C17.4952 20.7638 17.5624 20.7023 17.6277 20.6427C17.7023 20.5738 17.7788 20.5067 17.8553 20.4415C17.9317 20.3745 18.0082 20.3093 18.0866 20.2459C18.1649 20.1807 18.2433 20.1174 18.3235 20.0559C18.4037 19.9926 18.4839 19.9311 18.5641 19.8715C18.6052 19.8417 18.6462 19.81 18.6872 19.7802C18.7264 19.7504 18.7675 19.7225 18.8104 19.6927C18.8719 19.648 18.9354 19.6033 18.9988 19.5604C19.0603 19.5176 19.1238 19.4766 19.1872 19.4338C19.314 19.3499 19.4427 19.268 19.5733 19.1897C19.6591 19.1376 19.7468 19.0854 19.8345 19.0351C19.924 18.9848 20.0117 18.9345 20.1012 18.8861C20.3009 18.778 20.5023 18.6756 20.7075 18.5787C20.7187 18.5731 20.7299 18.5675 20.7411 18.5638C20.8027 18.534 20.8642 18.5061 20.9258 18.4781C21.019 18.4353 21.1123 18.3943 21.2075 18.3552C21.3007 18.3142 21.3959 18.2751 21.4929 18.2378C21.5843 18.2024 21.6757 18.167 21.7671 18.1335C21.8398 18.1056 21.9163 18.0795 21.9909 18.0534C22.0189 18.0441 22.0469 18.0348 22.0767 18.0236C22.0805 18.0236 22.0861 18.0217 22.0898 18.0199C22.0935 18.018 22.0973 18.018 22.101 18.0162C22.1887 17.9863 22.2782 17.9565 22.3678 17.9305C22.4871 17.8932 22.6047 17.8578 22.7222 17.8261C22.78 17.8094 22.8397 17.7926 22.8994 17.7777C22.9106 17.774 22.9199 17.7721 22.9311 17.7684C22.9647 17.7609 22.9964 17.7535 23.0281 17.7442C23.1102 17.7237 23.1904 17.7051 23.2725 17.6864C23.3751 17.6622 23.4777 17.6399 23.5803 17.6194C23.6829 17.597 23.7855 17.5784 23.8899 17.5598C23.9944 17.5411 24.0989 17.5244 24.2033 17.5076C24.2947 17.4946 24.3862 17.4815 24.4794 17.4685C24.5018 17.4666 24.5242 17.4629 24.5466 17.4592C24.6417 17.448 24.7387 17.4368 24.8357 17.4275C24.9682 17.4126 25.1006 17.4014 25.2349 17.3921C25.3151 17.3865 25.3954 17.3809 25.4774 17.3791C25.5707 17.3735 25.6658 17.3698 25.7591 17.3679C25.8822 17.3642 26.0054 17.3623 26.1285 17.3623C26.274 17.3623 26.4176 17.3642 26.5613 17.3698C26.578 17.3698 26.593 17.3698 26.6098 17.3716H26.6265C26.6769 17.3716 26.7291 17.3753 26.7795 17.3791C26.8336 17.3828 26.8877 17.3847 26.9418 17.3884C26.994 17.3902 27.0481 17.394 27.1022 17.3996C27.1936 17.407 27.285 17.4145 27.3764 17.4238C27.4679 17.4312 27.5593 17.4424 27.6488 17.4536C27.7234 17.461 27.798 17.4703 27.8727 17.4815C27.882 17.4834 27.8913 17.4834 27.9006 17.4852C27.979 17.4964 28.0555 17.5076 28.1319 17.5206C28.214 17.5337 28.2961 17.5467 28.3782 17.5616C28.3819 17.5616 28.3875 17.5635 28.3912 17.5635C28.4882 17.5821 28.5815 17.5989 28.6767 17.6194C28.7793 17.6399 28.8819 17.6622 28.9845 17.6864C29.0311 17.6976 29.0759 17.7069 29.1225 17.72C29.1337 17.7218 29.1467 17.7237 29.1579 17.7274C29.2755 17.7554 29.3911 17.787 29.5068 17.8187C29.5478 17.8299 29.5889 17.841 29.6299 17.8522C29.6989 17.8727 29.7679 17.8932 29.837 17.9156C29.9284 17.9416 30.0179 17.9714 30.1074 18.0013C30.197 18.0292 30.2847 18.0609 30.3742 18.0925C30.4619 18.1242 30.5496 18.1559 30.6372 18.1894C30.7753 18.2416 30.9133 18.2974 31.0495 18.3552C31.1297 18.3887 31.2099 18.4241 31.2883 18.4595C31.3125 18.4707 31.3368 18.4819 31.361 18.4912C31.4356 18.5266 31.5103 18.5601 31.5849 18.5955C31.667 18.6346 31.749 18.6756 31.8292 18.7166C31.9057 18.7557 31.9822 18.7948 32.0587 18.8358C32.1296 18.873 32.2005 18.9122 32.2695 18.9494C32.2751 18.9532 32.2807 18.955 32.2863 18.9587C32.3329 18.9848 32.3777 19.0109 32.4224 19.037C32.4691 19.0631 32.5157 19.0891 32.5605 19.1171C32.6183 19.1506 32.6761 19.186 32.7321 19.2214C32.8067 19.2642 32.8795 19.3108 32.9522 19.3574C33.0343 19.4095 33.1164 19.4636 33.1966 19.5194C33.2806 19.5753 33.3645 19.6331 33.4466 19.6927C33.5268 19.7486 33.6033 19.8045 33.6816 19.8641C33.6891 19.8678 33.6965 19.8734 33.704 19.8808C33.7805 19.9367 33.857 19.9963 33.9335 20.0559C34.0137 20.1174 34.092 20.1807 34.1704 20.2459C34.2487 20.3093 34.3252 20.3745 34.4017 20.4415C34.4782 20.5067 34.5546 20.5738 34.6293 20.6427C34.6796 20.6874 34.73 20.734 34.7785 20.7806C34.8233 20.8216 34.868 20.8644 34.9109 20.9072C34.9632 20.9575 35.0154 21.0078 35.0676 21.06C35.1199 21.1122 35.1702 21.1643 35.2206 21.2165C35.3139 21.3133 35.4071 21.4121 35.4986 21.5127C35.5116 21.5276 35.5247 21.5425 35.5396 21.5574C35.6273 21.6542 35.7149 21.7548 35.7989 21.8554C35.8959 21.9691 35.991 22.0864 36.0824 22.2038C36.088 22.2112 36.0955 22.2205 36.1011 22.228C36.1011 22.228 36.1017 22.2292 36.103 22.2317C36.1309 22.2652 36.1571 22.2988 36.1813 22.3323C36.2074 22.3658 36.2317 22.3994 36.2578 22.4329C36.31 22.5 36.3585 22.5689 36.407 22.6378C36.5768 22.8725 36.7391 23.1128 36.8902 23.3606C36.9517 23.4574 37.0096 23.5562 37.0674 23.6549C37.1252 23.7536 37.1812 23.8542 37.2371 23.9548C37.2912 24.0554 37.3453 24.1579 37.3976 24.2603C37.4405 24.3441 37.4834 24.428 37.5226 24.5118C37.53 24.5286 37.5393 24.5472 37.5468 24.564C37.6513 24.78 37.7483 24.998 37.8378 25.2197C37.8788 25.3203 37.9199 25.4227 37.9572 25.5252C37.9982 25.6332 38.0393 25.7431 38.0766 25.853C38.1083 25.9424 38.1381 26.0319 38.1661 26.1231C38.1717 26.138 38.1755 26.1548 38.181 26.1697C38.1866 26.1883 38.1941 26.2088 38.1997 26.2275C38.2296 26.3243 38.2594 26.4212 38.2874 26.5199C38.3191 26.6317 38.3489 26.7453 38.3788 26.8589C38.4105 26.9838 38.4403 27.1086 38.4683 27.2334C38.4907 27.3377 38.5112 27.442 38.5336 27.5463V27.5501C38.5336 27.5594 38.5373 27.5705 38.5392 27.5799C38.5392 27.5817 38.5392 27.5836 38.5411 27.5854C38.5616 27.6898 38.5803 27.7941 38.597 27.9003C38.6344 28.1331 38.6679 28.3678 38.694 28.6044C38.7071 28.7162 38.7164 28.8261 38.7258 28.9378C38.7276 28.9434 38.7276 28.949 38.7276 28.9546C38.7276 28.9751 38.7314 28.9937 38.7314 29.0142C38.7314 29.0384 38.7351 29.0627 38.7369 29.0869C38.7519 29.2694 38.7593 29.4539 38.7649 29.6383C38.7668 29.7538 38.7687 29.8711 38.7687 29.9866H38.7593Z" fill="#121212"/>
</g>
</g>
<defs>
<clipPath id="clip0_134_20681">
<rect width="60" height="101.727" fill="white" transform="translate(0 0.988281)"/>
</clipPath>
<clipPath id="clip1_134_20681">
<rect width="59.8245" height="100.823" fill="white" transform="translate(0.107422 0.988281)"/>
</clipPath>
</defs>
</svg>
