<svg width="290" height="352" viewBox="0 0 290 352" fill="none" xmlns="http://www.w3.org/2000/svg">
<g clip-path="url(#clip0_134_20829)">
<path d="M134.782 0V25.2826C111.542 26.525 93.0193 45.8009 93.0193 69.3158C93.0193 78.7734 96.0202 87.5453 101.117 94.7365L75.0361 113.946L75.0896 0H134.782Z" fill="#FFC63C"/>
<path d="M217.991 0V51.5672H177.593C172.282 39.5403 161.741 30.3187 148.863 26.7832V0H217.991Z" fill="#F40044"/>
<path d="M217.991 65.6245V123.911H148.81V111.857C167.533 106.745 181.333 89.6069 181.333 69.3158C181.333 68.0735 181.28 66.8401 181.177 65.6245H217.991Z" fill="#0C53C4"/>
<path d="M217.991 137.968H148.863V191.143C148.863 210.387 147.512 212.908 149.135 220.989C150.638 228.474 156.6 229.343 159.378 223.055C161.505 218.247 159.333 214.07 159.627 208.896C159.939 203.432 162.526 200.204 164.907 200.329C170.489 200.614 167.212 211.345 170.021 217.458C171.947 221.648 176.803 222.428 178.828 217.708C180.701 213.34 179.782 209.212 182.992 201.656C185.9 194.807 188.125 188.489 191.603 182.602C195.076 176.716 217.991 137.973 217.991 137.973V137.968Z" fill="#FFC63C"/>
<path d="M217.982 165.722C217.982 165.722 217.987 175.91 217.982 187.144C217.982 193.013 218.018 199.069 217.982 203.503C217.924 210.931 217.068 213.714 215.017 217.013C212.654 220.816 208.721 220.05 208.057 216.367C207.392 212.685 207.566 206.674 203.326 210C201.859 211.149 201.002 212.307 200.49 215.78C199.928 219.6 200.619 225.429 196.035 226.092C192.82 226.56 192.187 220.989 192.664 215.82C193.141 210.65 193.306 208.98 196.147 203.575C203.41 189.749 217.978 165.718 217.978 165.718L217.982 165.722Z" fill="#0C53C4"/>
<path d="M134.354 234.753C132.245 242.447 121.967 243.329 119.866 235.75C116.866 224.939 120.696 223.029 118.337 205.676C117.396 198.757 108.367 194.807 104.251 203.833C100.737 211.536 104.987 225.932 96.8046 224.663C90.2989 223.652 94.8738 212.302 90.8652 209.256C88.493 207.458 85.9023 210.009 85.4074 212.534C84.9169 215.063 84.3773 218.255 84.8054 221.613C85.3226 225.643 85.394 235.795 79.2272 234.597C75.8027 233.934 74.6433 228.265 75.0892 224.293C75.767 218.318 75.0892 215.873 75.0892 181.427V131.342L111.038 104.831C117.757 109.778 125.926 112.872 134.777 113.344C134.777 114.738 134.777 121.364 134.777 125.603V195.996C134.777 224.77 136.142 228.225 134.349 234.753H134.354Z" fill="#F40044"/>
<path d="M167.39 69.3158V69.6186C167.39 69.7165 167.39 69.8145 167.39 69.9169C167.386 70.1173 167.377 70.3176 167.373 70.518C167.364 70.7139 167.355 70.9143 167.341 71.1147C167.332 71.2349 167.328 71.3551 167.319 71.4754L167.292 71.7826C167.292 71.8138 167.292 71.8449 167.292 71.8761C167.279 72.0141 167.266 72.1566 167.252 72.2947C167.234 72.4728 167.216 72.6553 167.194 72.8334C167.185 72.9047 167.176 72.9715 167.167 73.0427C167.154 73.1852 167.136 73.3232 167.114 73.4657C167.092 73.6617 167.06 73.8531 167.029 74.0446C167.002 74.236 166.971 74.4275 166.936 74.619C166.904 74.7971 166.873 74.9708 166.837 75.1489C166.833 75.1756 166.824 75.2068 166.82 75.2335C166.82 75.2379 166.82 75.2424 166.815 75.2468C166.815 75.278 166.806 75.3047 166.797 75.3359C166.797 75.3492 166.797 75.3581 166.797 75.3715C166.771 75.5006 166.739 75.6298 166.713 75.7589C166.672 75.9504 166.628 76.1374 166.583 76.3244C166.494 76.6984 166.4 77.0724 166.298 77.442C166.258 77.5979 166.213 77.7493 166.164 77.9007C166.088 78.1589 166.008 78.4216 165.923 78.6754C165.879 78.8135 165.834 78.9515 165.785 79.0851C165.669 79.4279 165.549 79.7619 165.42 80.0959C165.339 80.3051 165.259 80.51 165.174 80.7148C165.174 80.7148 165.174 80.7148 165.174 80.7237C165.165 80.746 165.156 80.7638 165.148 80.786C165.139 80.8127 165.125 80.8395 165.116 80.8662C164.996 81.1512 164.876 81.4361 164.751 81.7167C164.67 81.8903 164.59 82.0684 164.505 82.2421C164.425 82.4113 164.34 82.5805 164.256 82.7497C164.171 82.9189 164.086 83.0881 163.997 83.2528C163.828 83.5868 163.649 83.9163 163.458 84.2414C163.364 84.4061 163.27 84.5664 163.172 84.7312C163.083 84.887 162.989 85.0429 162.891 85.1942C162.784 85.3634 162.677 85.5326 162.57 85.7019C162.365 86.0091 162.16 86.3163 161.95 86.6147C161.843 86.7661 161.736 86.9219 161.625 87.0688C161.518 87.2202 161.406 87.3716 161.29 87.5186C161.179 87.67 161.068 87.8169 160.947 87.9638C160.831 88.1108 160.715 88.2577 160.595 88.4002C160.541 88.4715 160.483 88.5382 160.425 88.605C160.301 88.7609 160.167 88.9123 160.038 89.0637C159.913 89.2062 159.788 89.3486 159.658 89.4911C159.609 89.5535 159.556 89.6114 159.498 89.6692C159.244 89.9453 158.99 90.2169 158.727 90.4796C158.597 90.6132 158.463 90.7468 158.33 90.8759C158.196 91.0095 158.062 91.1342 157.928 91.2633C157.79 91.3925 157.652 91.5216 157.514 91.6418C157.429 91.7175 157.349 91.7932 157.264 91.8644C157.046 92.0693 156.818 92.2607 156.591 92.4522C156.475 92.5502 156.359 92.6437 156.243 92.7372C155.953 92.9732 155.659 93.2047 155.36 93.4274C155.249 93.5164 155.133 93.601 155.017 93.6812C154.829 93.8192 154.642 93.9528 154.45 94.0864C154.143 94.3001 153.831 94.5094 153.518 94.7097C153.429 94.7721 153.336 94.83 153.242 94.8879C152.542 95.3242 151.82 95.7383 151.079 96.1213C150.923 96.2014 150.767 96.2816 150.607 96.3617C150.589 96.3706 150.571 96.3795 150.553 96.384C150.393 96.4686 150.228 96.5443 150.063 96.62C149.822 96.7357 149.581 96.8426 149.34 96.9539C149.305 96.9673 149.269 96.9851 149.229 97.0029C148.988 97.1053 148.747 97.2033 148.502 97.3012C148.328 97.3769 148.15 97.4437 147.971 97.5105C147.762 97.5907 147.552 97.6664 147.343 97.7421C147.173 97.8044 147.004 97.8623 146.834 97.9202C146.826 97.9246 146.821 97.9246 146.812 97.9291C146.603 97.9959 146.393 98.0671 146.183 98.1295C146.067 98.1651 145.952 98.2007 145.84 98.2319C145.684 98.2808 145.523 98.3254 145.363 98.3699C145.162 98.4278 144.957 98.4812 144.752 98.5346C144.534 98.5925 144.315 98.646 144.092 98.6994C143.825 98.7617 143.553 98.8196 143.285 98.8731C143.058 98.922 142.83 98.9621 142.603 99.0066C142.594 99.0066 142.581 99.0111 142.572 99.0111C142.375 99.0467 142.179 99.0779 141.983 99.109C141.8 99.1402 141.617 99.1669 141.43 99.1936C141.408 99.1936 141.386 99.1936 141.363 99.2025C141.185 99.2293 141.007 99.2515 140.828 99.2694C140.614 99.2961 140.396 99.3228 140.177 99.3406C139.959 99.3629 139.74 99.3851 139.522 99.3985C139.392 99.4074 139.263 99.4163 139.138 99.4252C139.009 99.4341 138.88 99.443 138.75 99.4475C138.63 99.4564 138.505 99.4608 138.385 99.4653H138.344C138.304 99.4697 138.269 99.4697 138.229 99.4697C137.885 99.4831 137.542 99.4875 137.194 99.4875C136.9 99.4875 136.605 99.4831 136.311 99.4742C136.088 99.4742 135.861 99.4608 135.638 99.4475C135.442 99.4475 135.25 99.4296 135.058 99.4163C134.996 99.4118 134.929 99.4074 134.866 99.3985C134.452 99.3718 134.042 99.3317 133.636 99.2783C133.444 99.256 133.252 99.2337 133.061 99.207C132.869 99.1803 132.682 99.1536 132.49 99.1224C132.294 99.0957 132.097 99.0601 131.901 99.0244C131.866 99.02 131.825 99.0111 131.785 99.0066C131.741 98.9977 131.696 98.9888 131.652 98.9799C131.469 98.9487 131.286 98.9131 131.103 98.8731C130.876 98.8285 130.644 98.7795 130.416 98.7261C130.158 98.6682 129.899 98.6059 129.641 98.5391C129.551 98.5124 129.462 98.4901 129.369 98.4634C129.337 98.4545 129.311 98.45 129.279 98.4411C129.088 98.3922 128.896 98.3387 128.709 98.2808C128.7 98.2764 128.691 98.2764 128.682 98.2719C128.637 98.2586 128.588 98.2452 128.539 98.2319C128.347 98.174 128.151 98.1161 127.959 98.0493C127.888 98.0315 127.821 98.0092 127.754 97.987C127.572 97.9246 127.389 97.8623 127.206 97.7999C127.206 97.7999 127.203 97.7985 127.197 97.7955C126.943 97.7064 126.689 97.6174 126.439 97.5194C126.189 97.4259 125.944 97.328 125.699 97.2255C125.48 97.1365 125.266 97.0474 125.052 96.9539C125.021 96.9406 124.99 96.9272 124.963 96.9138C124.718 96.807 124.477 96.6957 124.236 96.5799C124.116 96.522 123.995 96.4686 123.88 96.4062C123.759 96.3483 123.639 96.2905 123.523 96.2281C123.509 96.2237 123.5 96.2192 123.492 96.2148C123.264 96.099 123.041 95.9788 122.818 95.8586C122.582 95.7339 122.355 95.6047 122.123 95.4712C122.025 95.4177 121.922 95.3554 121.824 95.2975C121.721 95.2396 121.623 95.1773 121.525 95.1194C121.351 95.0125 121.177 94.9057 121.008 94.7988C120.847 94.6964 120.687 94.594 120.531 94.4871C120.201 94.2689 119.875 94.0463 119.554 93.8147C119.26 93.601 118.966 93.3828 118.68 93.1602C118.399 92.9465 118.127 92.7238 117.855 92.5012C117.842 92.4878 117.824 92.4745 117.811 92.4611C117.784 92.4433 117.757 92.421 117.735 92.3988C117.525 92.2207 117.316 92.0425 117.111 91.8555C117.03 91.7887 116.955 91.7175 116.874 91.6463C116.616 91.4147 116.366 91.1743 116.116 90.9338C116.107 90.9294 116.099 90.9205 116.094 90.9116C115.831 90.6578 115.577 90.395 115.318 90.1323C115.318 90.1279 115.318 90.1234 115.309 90.119C115.06 89.8563 114.819 89.5936 114.578 89.3219C114.551 89.2997 114.529 89.2729 114.516 89.2462C114.48 89.2062 114.444 89.1661 114.409 89.126C114.203 88.8945 114.003 88.6585 113.807 88.418C113.566 88.1241 113.33 87.8258 113.102 87.523H113.093C113.053 87.4696 113.017 87.4162 112.982 87.3672C112.91 87.2692 112.835 87.1713 112.763 87.0733C112.692 86.9753 112.625 86.8774 112.554 86.7794C112.411 86.5835 112.273 86.3831 112.139 86.1828C112.001 85.9824 111.867 85.782 111.738 85.5772C111.738 85.5727 111.738 85.5683 111.729 85.5638C111.533 85.2566 111.341 84.9449 111.154 84.6287C111.136 84.602 111.122 84.5753 111.104 84.5486C110.948 84.2814 110.792 84.0054 110.641 83.7293C110.627 83.707 110.614 83.6803 110.601 83.6581C110.494 83.4577 110.387 83.2528 110.284 83.0525C110.177 82.8477 110.074 82.6384 109.972 82.4335C109.883 82.2554 109.798 82.0729 109.718 81.8903C109.646 81.7389 109.58 81.5831 109.513 81.4272C109.455 81.2981 109.397 81.169 109.343 81.0354C109.25 80.8172 109.16 80.599 109.071 80.3764C108.982 80.1493 108.893 79.9222 108.808 79.6907C108.808 79.6773 108.799 79.6684 108.795 79.655C108.71 79.4279 108.63 79.192 108.554 78.9604C108.478 78.7378 108.407 78.5151 108.335 78.288C108.269 78.0832 108.211 77.8739 108.148 77.6691C108.139 77.6424 108.13 77.6112 108.126 77.5845C108.063 77.3619 108.001 77.1392 107.943 76.9166C107.89 76.7162 107.841 76.5159 107.796 76.311C107.769 76.2131 107.747 76.1151 107.725 76.0172C107.711 75.9637 107.702 75.9147 107.693 75.8613C107.653 75.7055 107.622 75.5452 107.591 75.3893C107.537 75.1311 107.488 74.8728 107.439 74.6145C107.435 74.5789 107.426 74.5388 107.421 74.5032C107.395 74.3563 107.372 74.2138 107.35 74.0668C107.328 73.9511 107.31 73.8353 107.297 73.7195C107.265 73.5147 107.239 73.3054 107.212 73.1006C107.149 72.5974 107.096 72.0898 107.06 71.5778C107.06 71.56 107.056 71.5421 107.056 71.5243C107.056 71.5021 107.056 71.4798 107.056 71.4531C107.047 71.3329 107.038 71.2126 107.029 71.088C107.029 71.0568 107.029 71.0212 107.029 70.99V70.9633C107.029 70.9366 107.025 70.9143 107.025 70.8876C107.011 70.616 107.002 70.3488 106.993 70.0772C106.989 69.8234 106.984 69.5696 106.984 69.3158C106.984 68.7948 106.998 68.2783 107.025 67.7618C107.038 67.5035 107.051 67.2497 107.074 66.9914C107.109 66.5373 107.154 66.0831 107.207 65.6334C107.239 65.3885 107.27 65.148 107.305 64.912C107.328 64.7428 107.354 64.5781 107.386 64.4133C107.412 64.2352 107.439 64.0571 107.475 63.879C107.475 63.879 107.475 63.8656 107.475 63.8612C107.493 63.7543 107.511 63.6519 107.533 63.545C107.551 63.4426 107.573 63.3402 107.595 63.2333C107.618 63.1131 107.644 62.9929 107.671 62.8771C107.698 62.7569 107.725 62.6367 107.751 62.5209C107.787 62.3561 107.827 62.1914 107.867 62.0266C107.916 61.8218 107.97 61.6214 108.023 61.4211C108.028 61.4033 108.032 61.3855 108.041 61.3676C108.046 61.3454 108.055 61.3187 108.059 61.2964C108.108 61.1094 108.166 60.9268 108.22 60.7398C108.224 60.7131 108.233 60.6864 108.242 60.6597C108.286 60.5172 108.327 60.3747 108.376 60.2322C108.38 60.2099 108.389 60.1877 108.398 60.1654C108.402 60.152 108.407 60.1342 108.411 60.1209C108.425 60.0674 108.442 60.0096 108.465 59.9517C108.527 59.7513 108.594 59.5554 108.665 59.3595C108.741 59.1413 108.821 58.9231 108.902 58.7049C108.969 58.5312 109.036 58.3531 109.107 58.1795C109.187 57.9747 109.272 57.7698 109.357 57.5695C109.45 57.3424 109.548 57.1197 109.651 56.8971C109.749 56.6745 109.856 56.4518 109.959 56.2336C110.066 56.011 110.177 55.7928 110.288 55.5746C110.445 55.2674 110.61 54.9601 110.779 54.6574C110.89 54.4525 111.011 54.2477 111.127 54.0473C111.154 54.0028 111.18 53.9583 111.207 53.9138C111.216 53.9004 111.225 53.887 111.234 53.8737C111.368 53.6466 111.506 53.424 111.644 53.2058C111.715 53.09 111.791 52.9742 111.863 52.8629C111.943 52.7382 112.027 52.6136 112.112 52.4889C112.126 52.4755 112.135 52.4577 112.143 52.4444C112.393 52.0748 112.652 51.7097 112.915 51.3534C112.937 51.3223 112.959 51.2911 112.986 51.2599C113.129 51.0685 113.276 50.877 113.428 50.6855C113.575 50.4941 113.726 50.307 113.882 50.12C114.034 49.933 114.19 49.7504 114.351 49.5679C114.507 49.3853 114.667 49.2028 114.832 49.0246C114.979 48.8644 115.127 48.7041 115.278 48.5438C115.461 48.3523 115.644 48.1653 115.831 47.9783C115.978 47.8313 116.13 47.6844 116.281 47.5374C116.322 47.4974 116.366 47.4573 116.406 47.4172C116.562 47.2703 116.723 47.1233 116.879 46.9808C117.057 46.8161 117.24 46.6558 117.423 46.4999C117.606 46.3396 117.789 46.1838 117.976 46.0324C118.163 45.8766 118.35 45.7252 118.542 45.5782C118.734 45.4268 118.926 45.2799 119.117 45.1374C119.215 45.0662 119.313 44.9905 119.412 44.9192C119.505 44.848 119.603 44.7812 119.706 44.7099C119.853 44.6031 120.005 44.4962 120.156 44.3938C120.303 44.2914 120.455 44.1934 120.607 44.091C120.91 43.8906 121.217 43.6947 121.53 43.5077C121.735 43.383 121.944 43.2584 122.154 43.1381C122.368 43.0179 122.577 42.8977 122.792 42.7819C123.269 42.5237 123.75 42.2788 124.241 42.0472C124.267 42.0339 124.294 42.0205 124.321 42.0116C124.468 41.9403 124.615 41.8736 124.762 41.8068C124.985 41.7043 125.208 41.6064 125.436 41.5129C125.659 41.4149 125.886 41.3214 126.118 41.2324C126.336 41.1478 126.555 41.0632 126.773 40.983C126.947 40.9162 127.13 40.8539 127.308 40.7915C127.375 40.7693 127.442 40.747 127.514 40.7203C127.523 40.7203 127.536 40.7158 127.545 40.7114C127.554 40.7069 127.563 40.7069 127.572 40.7025C127.781 40.6312 127.995 40.56 128.209 40.4977C128.495 40.4086 128.775 40.324 129.056 40.2483C129.195 40.2082 129.337 40.1682 129.48 40.1325C129.507 40.1236 129.529 40.1192 129.556 40.1103C129.636 40.0925 129.712 40.0746 129.788 40.0524C129.984 40.0034 130.176 39.9589 130.372 39.9143C130.617 39.8565 130.862 39.803 131.108 39.754C131.353 39.7006 131.598 39.6561 131.848 39.6116C132.097 39.567 132.347 39.527 132.597 39.4869C132.815 39.4557 133.034 39.4245 133.257 39.3934C133.31 39.3889 133.364 39.38 133.417 39.3711C133.645 39.3444 133.877 39.3177 134.108 39.2954C134.425 39.2598 134.742 39.2331 135.063 39.2108C135.254 39.1975 135.446 39.1841 135.642 39.1796C135.865 39.1663 136.093 39.1574 136.316 39.1529C136.61 39.144 136.904 39.1396 137.199 39.1396C137.546 39.1396 137.89 39.144 138.233 39.1574C138.273 39.1574 138.309 39.1574 138.349 39.1618H138.389C138.509 39.1618 138.634 39.1707 138.755 39.1796C138.884 39.1886 139.013 39.193 139.143 39.2019C139.268 39.2064 139.397 39.2153 139.526 39.2286C139.745 39.2464 139.963 39.2642 140.182 39.2865C140.4 39.3043 140.619 39.331 140.833 39.3578C141.011 39.3756 141.189 39.3978 141.368 39.4245C141.39 39.429 141.412 39.429 141.435 39.4335C141.622 39.4602 141.805 39.4869 141.987 39.5181C142.184 39.5492 142.38 39.5804 142.576 39.616C142.585 39.616 142.598 39.6205 142.607 39.6205C142.839 39.665 143.062 39.7051 143.29 39.754C143.535 39.803 143.78 39.8565 144.025 39.9143C144.137 39.9411 144.244 39.9633 144.355 39.9945C144.382 39.9989 144.413 40.0034 144.44 40.0123C144.721 40.0791 144.997 40.1548 145.274 40.2305C145.372 40.2572 145.47 40.2839 145.568 40.3106C145.733 40.3596 145.898 40.4086 146.063 40.462C146.282 40.5244 146.496 40.5956 146.71 40.6669C146.924 40.7337 147.133 40.8093 147.347 40.885C147.557 40.9607 147.766 41.0364 147.976 41.1166C148.306 41.2413 148.636 41.3748 148.961 41.5129C149.153 41.593 149.345 41.6776 149.532 41.7622C149.59 41.789 149.648 41.8157 149.706 41.8379C149.884 41.9225 150.063 42.0027 150.241 42.0873C150.437 42.1808 150.633 42.2788 150.825 42.3767C151.008 42.4702 151.191 42.5637 151.374 42.6617C151.543 42.7507 151.713 42.8442 151.878 42.9333C151.891 42.9422 151.904 42.9467 151.918 42.9556C152.029 43.0179 152.136 43.0802 152.243 43.1426C152.355 43.2049 152.466 43.2673 152.573 43.3341C152.711 43.4142 152.85 43.4988 152.983 43.5834C153.162 43.6858 153.336 43.7971 153.51 43.9085C153.706 44.0331 153.902 44.1623 154.094 44.2958C154.294 44.4294 154.495 44.5675 154.691 44.7099C154.883 44.8435 155.066 44.9771 155.253 45.1196C155.271 45.1285 155.289 45.1419 155.307 45.1597C155.489 45.2933 155.672 45.4357 155.855 45.5782C156.047 45.7252 156.234 45.8766 156.421 46.0324C156.609 46.1838 156.791 46.3396 156.974 46.4999C157.157 46.6558 157.34 46.8161 157.518 46.9808C157.639 47.0877 157.759 47.199 157.875 47.3103C157.982 47.4083 158.089 47.5107 158.191 47.6131C158.316 47.7334 158.441 47.8536 158.566 47.9783C158.691 48.1029 158.811 48.2276 158.932 48.3523C159.155 48.5838 159.378 48.8198 159.596 49.0603C159.627 49.0959 159.658 49.1315 159.694 49.1671C159.904 49.3987 160.113 49.6391 160.314 49.8796C160.546 50.1512 160.773 50.4317 160.992 50.7122C161.005 50.73 161.023 50.7523 161.036 50.7701C161.036 50.7701 161.038 50.7731 161.041 50.779C161.108 50.8592 161.17 50.9393 161.228 51.0195C161.29 51.0996 161.348 51.1798 161.411 51.2599C161.536 51.4202 161.652 51.585 161.768 51.7497C162.173 52.3108 162.561 52.8852 162.922 53.4774C163.07 53.7089 163.208 53.9449 163.346 54.1809C163.484 54.4169 163.618 54.6574 163.752 54.8978C163.881 55.1383 164.01 55.3832 164.135 55.6281C164.238 55.8284 164.34 56.0288 164.434 56.2292C164.452 56.2693 164.474 56.3138 164.492 56.3539C164.742 56.8704 164.974 57.3913 165.188 57.9212C165.286 58.1617 165.384 58.4066 165.473 58.6515C165.571 58.9097 165.669 59.1724 165.758 59.4352C165.834 59.6489 165.906 59.8626 165.972 60.0808C165.986 60.1164 165.995 60.1565 166.008 60.1921C166.021 60.2366 166.039 60.2856 166.053 60.3302C166.124 60.5617 166.195 60.7932 166.262 61.0292C166.338 61.2964 166.409 61.568 166.481 61.8396C166.557 62.138 166.628 62.4363 166.695 62.7346C166.748 62.984 166.797 63.2333 166.851 63.4827V63.4916C166.851 63.5139 166.86 63.5406 166.864 63.5628C166.864 63.5673 166.864 63.5717 166.869 63.5762C166.918 63.8256 166.962 64.0749 167.002 64.3287C167.092 64.8853 167.172 65.4463 167.234 66.0118C167.266 66.279 167.288 66.5417 167.31 66.8089C167.315 66.8222 167.315 66.8356 167.315 66.849C167.315 66.8979 167.324 66.9425 167.324 66.9914C167.324 67.0493 167.332 67.1072 167.337 67.1651C167.373 67.6015 167.39 68.0423 167.404 68.4831C167.408 68.7592 167.413 69.0397 167.413 69.3158H167.39Z" fill="#FCF1E3"/>
</g>
<path d="M29.0166 335.159C34.7207 335.159 39.5547 333.709 43.4863 330.777C47.418 327.844 49.9639 324.364 51.0918 320.335L42.3262 318.079C41.5205 320.496 39.9092 322.527 37.4922 324.17C35.0752 325.814 32.1748 326.652 28.8232 326.652C24.4082 326.652 20.8311 325.137 18.0596 322.075C15.2881 319.014 13.9023 315.34 13.9023 311.022C13.9023 306.736 15.2881 303.094 18.0273 300.097C20.7666 297.1 24.376 295.617 28.8232 295.617C32.1748 295.617 35.043 296.455 37.46 298.131C39.877 299.807 41.4883 301.869 42.2939 304.286L51.1562 302.127C49.9639 298.067 47.3857 294.554 43.4541 291.589C39.5225 288.624 34.624 287.142 28.791 287.142C21.9268 287.142 16.1904 289.43 11.582 294.006C6.97363 298.582 4.68555 304.286 4.68555 311.086C4.68555 317.95 6.97363 323.687 11.582 328.295C16.1904 332.904 21.959 335.192 28.9199 335.192L29.0166 335.159ZM86.7988 334.225H97.2402L85.7676 317.145C88.9258 316.017 91.4072 314.18 93.1797 311.602C94.9521 309.024 95.8545 306.188 95.8545 303.062C95.8545 299.162 94.4043 295.682 91.5039 292.62C88.6035 289.559 84.7686 288.044 80.0312 288.044H57.5371V334.257H66.5283V318.079H76.3574L86.7988 334.225ZM66.5283 296.165H79.7734C81.9004 296.165 83.6406 296.842 85.0264 298.196C86.4121 299.549 87.0889 301.193 87.0889 303.094C87.0889 305.092 86.3799 306.768 84.9619 308.121C83.5439 309.475 81.707 310.152 79.4189 310.152H66.4961L66.5283 296.165ZM137.459 296.198V288.012H103.396V334.225H137.395V326.039H112.258V314.696H134.075V306.768H112.258V296.198H137.459ZM143.389 306.317H150.317L155.474 288.012H146.289L143.389 306.317ZM179.321 335.159C184.768 335.159 189.215 333.774 192.631 331.002C196.047 328.231 197.755 324.847 197.755 320.819C197.755 317.338 196.691 314.663 194.564 312.794C192.438 310.925 189.344 309.378 185.315 308.154L173.843 304.448C170.91 303.577 169.428 302.127 169.428 300.097C169.428 298.711 170.104 297.519 171.49 296.552C172.876 295.585 174.648 295.102 176.84 295.102C179.386 295.102 181.674 295.682 183.704 296.842C185.734 298.002 187.249 299.517 188.216 301.418L196.627 298.969C195.306 295.585 192.856 292.782 189.279 290.526C185.702 288.27 181.513 287.142 176.711 287.142C171.974 287.142 168.01 288.431 164.852 291.009C161.693 293.587 160.114 296.713 160.146 300.355C160.114 303.223 161.049 305.64 162.95 307.638C164.852 309.636 167.397 311.151 170.62 312.15L182.415 315.856C184.639 316.533 186.218 317.338 187.152 318.241C188.087 319.143 188.538 320.206 188.538 321.431C188.538 323.01 187.732 324.364 186.089 325.524C184.445 326.684 182.318 327.264 179.708 327.264C176.518 327.264 173.746 326.458 171.426 324.847C169.105 323.236 167.462 321.173 166.495 318.627L157.826 321.238C159.244 325.169 161.822 328.489 165.561 331.196C169.299 333.903 173.843 335.256 179.16 335.256L179.321 335.159ZM226.179 288.012H204.522V334.225H213.514V320.11H225.792C230.787 320.11 234.783 318.498 237.748 315.276C240.713 312.053 242.195 308.315 242.195 304.093C242.195 299.968 240.713 296.262 237.748 292.975C234.783 289.688 230.916 288.044 226.114 288.044L226.179 288.012ZM225.438 312.085H213.449V296.23H225.856C228.016 296.23 229.788 297.035 231.206 298.615C232.624 300.194 233.333 302.031 233.333 304.125C233.333 306.22 232.592 308.057 231.109 309.636C229.627 311.215 227.726 312.021 225.373 312.021L225.438 312.085ZM278.031 334.225H287.474L269.717 288.012H257.954L240.262 334.225H249.64L253.475 324.202H274.261L278.031 334.225ZM256.439 316.21L263.819 296.681L271.231 316.21H256.439Z" fill="#FCF1E3"/>
<defs>
<clipPath id="clip0_134_20829">
<rect width="143" height="241" fill="white" transform="translate(75)"/>
</clipPath>
</defs>
</svg>
