<svg width="330" height="352" viewBox="0 0 330 352" fill="none" xmlns="http://www.w3.org/2000/svg">
<g clip-path="url(#clip0_134_20829)">
<path d="M154.782 0V25.2826C131.542 26.525 113.019 45.8009 113.019 69.3158C113.019 78.7734 116.02 87.5453 121.117 94.7365L95.0361 113.946L95.0896 0H154.782Z" fill="#FFC63C"/>
<path d="M237.991 0V51.5672H197.593C192.282 39.5403 181.741 30.3187 168.863 26.7832V0H237.991Z" fill="#F40044"/>
<path d="M237.991 65.6245V123.911H168.81V111.857C187.533 106.745 201.333 89.6069 201.333 69.3158C201.333 68.0735 201.28 66.84 201.177 65.6245H237.991Z" fill="#0C53C4"/>
<path d="M237.991 137.968H168.863V191.143C168.863 210.387 167.512 212.908 169.135 220.989C170.638 228.474 176.6 229.343 179.378 223.055C181.505 218.246 179.333 214.07 179.627 208.896C179.939 203.432 182.526 200.204 184.907 200.329C190.489 200.614 187.212 211.345 190.021 217.458C191.947 221.648 196.803 222.428 198.828 217.708C200.701 213.34 199.782 209.212 202.992 201.656C205.9 194.807 208.125 188.489 211.603 182.602C215.076 176.716 237.991 137.973 237.991 137.973V137.968Z" fill="#FFC63C"/>
<path d="M237.982 165.722C237.982 165.722 237.987 175.91 237.982 187.144C237.982 193.013 238.018 199.069 237.982 203.503C237.924 210.931 237.068 213.714 235.017 217.013C232.654 220.816 228.721 220.05 228.057 216.367C227.392 212.685 227.566 206.674 223.326 210C221.859 211.149 221.002 212.307 220.49 215.78C219.928 219.6 220.619 225.429 216.035 226.092C212.82 226.56 212.187 220.989 212.664 215.82C213.141 210.65 213.306 208.98 216.147 203.575C223.41 189.749 237.978 165.718 237.978 165.718L237.982 165.722Z" fill="#0C53C4"/>
<path d="M154.354 234.753C152.245 242.447 141.967 243.329 139.866 235.75C136.866 224.939 140.696 223.029 138.337 205.676C137.396 198.757 128.367 194.807 124.251 203.833C120.737 211.536 124.987 225.932 116.805 224.663C110.299 223.652 114.874 212.302 110.865 209.256C108.493 207.458 105.902 210.009 105.407 212.534C104.917 215.063 104.377 218.255 104.805 221.613C105.323 225.643 105.394 235.795 99.2272 234.597C95.8027 233.934 94.6433 228.265 95.0892 224.293C95.767 218.318 95.0892 215.873 95.0892 181.427V131.342L131.038 104.831C137.757 109.778 145.926 112.872 154.777 113.344C154.777 114.738 154.777 121.364 154.777 125.603V195.996C154.777 224.77 156.142 228.225 154.349 234.753H154.354Z" fill="#F40044"/>
<path d="M187.39 69.3158V69.6186C187.39 69.7165 187.39 69.8145 187.39 69.9169C187.386 70.1173 187.377 70.3177 187.373 70.518C187.364 70.714 187.355 70.9143 187.341 71.1147C187.332 71.2349 187.328 71.3551 187.319 71.4754L187.292 71.7826C187.292 71.8138 187.292 71.8449 187.292 71.8761C187.279 72.0142 187.266 72.1566 187.252 72.2947C187.234 72.4728 187.216 72.6553 187.194 72.8335C187.185 72.9047 187.176 72.9715 187.167 73.0427C187.154 73.1852 187.136 73.3233 187.114 73.4657C187.092 73.6617 187.06 73.8531 187.029 74.0446C187.002 74.2361 186.971 74.4275 186.936 74.619C186.904 74.7971 186.873 74.9708 186.837 75.1489C186.833 75.1756 186.824 75.2068 186.82 75.2335C186.82 75.2379 186.82 75.2424 186.815 75.2468C186.815 75.278 186.806 75.3047 186.797 75.3359C186.797 75.3493 186.797 75.3582 186.797 75.3715C186.771 75.5006 186.739 75.6298 186.713 75.7589C186.672 75.9504 186.628 76.1374 186.583 76.3244C186.494 76.6984 186.4 77.0725 186.298 77.442C186.258 77.5979 186.213 77.7493 186.164 77.9007C186.088 78.1589 186.008 78.4216 185.923 78.6754C185.879 78.8135 185.834 78.9515 185.785 79.0851C185.669 79.428 185.549 79.7619 185.42 80.0959C185.339 80.3052 185.259 80.51 185.174 80.7148C185.174 80.7148 185.174 80.7148 185.174 80.7237C185.165 80.746 185.156 80.7638 185.148 80.786C185.139 80.8128 185.125 80.8395 185.116 80.8662C184.996 81.1512 184.876 81.4361 184.751 81.7167C184.67 81.8903 184.59 82.0684 184.505 82.2421C184.425 82.4113 184.34 82.5805 184.256 82.7497C184.171 82.9189 184.086 83.0881 183.997 83.2529C183.828 83.5868 183.649 83.9163 183.458 84.2414C183.364 84.4061 183.27 84.5664 183.172 84.7312C183.083 84.887 182.989 85.0429 182.891 85.1943C182.784 85.3635 182.677 85.5327 182.57 85.7019C182.365 86.0091 182.16 86.3163 181.95 86.6147C181.843 86.7661 181.736 86.9219 181.625 87.0689C181.518 87.2202 181.406 87.3716 181.29 87.5186C181.179 87.67 181.068 87.8169 180.947 87.9639C180.831 88.1108 180.715 88.2577 180.595 88.4002C180.541 88.4715 180.483 88.5383 180.425 88.6051C180.301 88.7609 180.167 88.9123 180.038 89.0637C179.913 89.2062 179.788 89.3487 179.658 89.4911C179.609 89.5535 179.556 89.6114 179.498 89.6693C179.244 89.9453 178.99 90.2169 178.727 90.4797C178.597 90.6132 178.463 90.7468 178.33 90.8759C178.196 91.0095 178.062 91.1342 177.928 91.2633C177.79 91.3925 177.652 91.5216 177.514 91.6418C177.429 91.7175 177.349 91.7932 177.264 91.8645C177.046 92.0693 176.818 92.2608 176.591 92.4522C176.475 92.5502 176.359 92.6437 176.243 92.7372C175.953 92.9732 175.659 93.2047 175.36 93.4274C175.249 93.5164 175.133 93.601 175.017 93.6812C174.829 93.8192 174.642 93.9528 174.45 94.0864C174.143 94.3001 173.831 94.5094 173.518 94.7098C173.429 94.7721 173.336 94.83 173.242 94.8879C172.542 95.3242 171.82 95.7383 171.079 96.1213C170.923 96.2014 170.767 96.2816 170.607 96.3617C170.589 96.3706 170.571 96.3795 170.553 96.384C170.393 96.4686 170.228 96.5443 170.063 96.62C169.822 96.7358 169.581 96.8426 169.34 96.9539C169.305 96.9673 169.269 96.9851 169.229 97.0029C168.988 97.1053 168.747 97.2033 168.502 97.3013C168.328 97.3769 168.15 97.4437 167.971 97.5105C167.762 97.5907 167.552 97.6664 167.343 97.7421C167.173 97.8044 167.004 97.8623 166.834 97.9202C166.826 97.9246 166.821 97.9246 166.812 97.9291C166.603 97.9959 166.393 98.0671 166.183 98.1295C166.067 98.1651 165.952 98.2007 165.84 98.2319C165.684 98.2809 165.523 98.3254 165.363 98.3699C165.162 98.4278 164.957 98.4812 164.752 98.5347C164.534 98.5925 164.315 98.646 164.092 98.6994C163.825 98.7618 163.553 98.8196 163.285 98.8731C163.058 98.922 162.83 98.9621 162.603 99.0067C162.594 99.0067 162.581 99.0111 162.572 99.0111C162.375 99.0467 162.179 99.0779 161.983 99.1091C161.8 99.1402 161.617 99.167 161.43 99.1937C161.408 99.1937 161.386 99.1937 161.363 99.2026C161.185 99.2293 161.007 99.2516 160.828 99.2694C160.614 99.2961 160.396 99.3228 160.177 99.3406C159.959 99.3629 159.74 99.3851 159.522 99.3985C159.392 99.4074 159.263 99.4163 159.138 99.4252C159.009 99.4341 158.88 99.443 158.75 99.4475C158.63 99.4564 158.505 99.4608 158.385 99.4653H158.344C158.304 99.4697 158.269 99.4697 158.229 99.4697C157.885 99.4831 157.542 99.4875 157.194 99.4875C156.9 99.4875 156.605 99.4831 156.311 99.4742C156.088 99.4742 155.861 99.4608 155.638 99.4475C155.442 99.4475 155.25 99.4297 155.058 99.4163C154.996 99.4118 154.929 99.4074 154.866 99.3985C154.452 99.3718 154.042 99.3317 153.636 99.2783C153.444 99.256 153.252 99.2337 153.061 99.207C152.869 99.1803 152.682 99.1536 152.49 99.1224C152.294 99.0957 152.097 99.0601 151.901 99.0245C151.866 99.02 151.825 99.0111 151.785 99.0067C151.741 98.9978 151.696 98.9888 151.652 98.9799C151.469 98.9488 151.286 98.9131 151.103 98.8731C150.876 98.8285 150.644 98.7796 150.416 98.7261C150.158 98.6682 149.899 98.6059 149.641 98.5391C149.551 98.5124 149.462 98.4901 149.369 98.4634C149.337 98.4545 149.311 98.4501 149.279 98.4412C149.088 98.3922 148.896 98.3387 148.709 98.2809C148.7 98.2764 148.691 98.2764 148.682 98.2719C148.637 98.2586 148.588 98.2452 148.539 98.2319C148.347 98.174 148.151 98.1161 147.959 98.0493C147.888 98.0315 147.821 98.0092 147.754 97.987C147.572 97.9246 147.389 97.8623 147.206 97.8C147.206 97.8 147.203 97.7985 147.197 97.7955C146.943 97.7065 146.689 97.6174 146.439 97.5194C146.189 97.4259 145.944 97.328 145.699 97.2256C145.48 97.1365 145.266 97.0474 145.052 96.9539C145.021 96.9406 144.99 96.9272 144.963 96.9139C144.718 96.807 144.477 96.6957 144.236 96.5799C144.116 96.522 143.995 96.4686 143.88 96.4062C143.759 96.3484 143.639 96.2905 143.523 96.2281C143.509 96.2237 143.5 96.2192 143.492 96.2148C143.264 96.099 143.041 95.9788 142.818 95.8586C142.582 95.7339 142.355 95.6048 142.123 95.4712C142.025 95.4177 141.922 95.3554 141.824 95.2975C141.721 95.2396 141.623 95.1773 141.525 95.1194C141.351 95.0125 141.177 94.9057 141.008 94.7988C140.847 94.6964 140.687 94.594 140.531 94.4871C140.201 94.2689 139.875 94.0463 139.554 93.8148C139.26 93.601 138.966 93.3828 138.68 93.1602C138.399 92.9465 138.127 92.7238 137.855 92.5012C137.842 92.4878 137.824 92.4745 137.811 92.4611C137.784 92.4433 137.757 92.4211 137.735 92.3988C137.525 92.2207 137.316 92.0426 137.111 91.8556C137.03 91.7888 136.955 91.7175 136.874 91.6463C136.616 91.4147 136.366 91.1743 136.116 90.9338C136.107 90.9294 136.099 90.9205 136.094 90.9116C135.831 90.6578 135.577 90.3951 135.318 90.1323C135.318 90.1279 135.318 90.1234 135.309 90.119C135.06 89.8563 134.819 89.5936 134.578 89.3219C134.551 89.2997 134.529 89.273 134.516 89.2462C134.48 89.2062 134.444 89.1661 134.409 89.126C134.203 88.8945 134.003 88.6585 133.807 88.418C133.566 88.1242 133.33 87.8258 133.102 87.523H133.093C133.053 87.4696 133.017 87.4162 132.982 87.3672C132.91 87.2692 132.835 87.1713 132.763 87.0733C132.692 86.9754 132.625 86.8774 132.554 86.7794C132.411 86.5835 132.273 86.3831 132.139 86.1828C132.001 85.9824 131.867 85.782 131.738 85.5772C131.738 85.5727 131.738 85.5683 131.729 85.5638C131.533 85.2566 131.341 84.9449 131.154 84.6288C131.136 84.602 131.122 84.5753 131.104 84.5486C130.948 84.2814 130.792 84.0054 130.641 83.7293C130.627 83.707 130.614 83.6803 130.601 83.6581C130.494 83.4577 130.387 83.2529 130.284 83.0525C130.177 82.8477 130.074 82.6384 129.972 82.4336C129.883 82.2555 129.798 82.0729 129.718 81.8903C129.646 81.7389 129.58 81.5831 129.513 81.4272C129.455 81.2981 129.397 81.169 129.343 81.0354C129.25 80.8172 129.16 80.599 129.071 80.3764C128.982 80.1493 128.893 79.9222 128.808 79.6907C128.808 79.6773 128.799 79.6684 128.795 79.6551C128.71 79.428 128.63 79.192 128.554 78.9604C128.478 78.7378 128.407 78.5152 128.335 78.2881C128.269 78.0832 128.211 77.874 128.148 77.6691C128.139 77.6424 128.13 77.6112 128.126 77.5845C128.063 77.3619 128.001 77.1393 127.943 76.9166C127.89 76.7162 127.841 76.5159 127.796 76.311C127.769 76.2131 127.747 76.1151 127.725 76.0172C127.711 75.9637 127.702 75.9147 127.693 75.8613C127.653 75.7055 127.622 75.5452 127.591 75.3893C127.537 75.1311 127.488 74.8728 127.439 74.6146C127.435 74.5789 127.426 74.5389 127.421 74.5032C127.395 74.3563 127.372 74.2138 127.35 74.0669C127.328 73.9511 127.31 73.8353 127.297 73.7196C127.265 73.5147 127.239 73.3054 127.212 73.1006C127.149 72.5975 127.096 72.0898 127.06 71.5778C127.06 71.56 127.056 71.5422 127.056 71.5244C127.056 71.5021 127.056 71.4798 127.056 71.4531C127.047 71.3329 127.038 71.2127 127.029 71.088C127.029 71.0568 127.029 71.0212 127.029 70.99V70.9633C127.029 70.9366 127.025 70.9143 127.025 70.8876C127.011 70.616 127.002 70.3488 126.993 70.0772C126.989 69.8234 126.984 69.5696 126.984 69.3158C126.984 68.7948 126.998 68.2783 127.025 67.7618C127.038 67.5035 127.051 67.2497 127.074 66.9915C127.109 66.5373 127.154 66.0831 127.207 65.6334C127.239 65.3885 127.27 65.148 127.305 64.912C127.328 64.7428 127.354 64.5781 127.386 64.4133C127.412 64.2352 127.439 64.0571 127.475 63.879C127.475 63.879 127.475 63.8656 127.475 63.8612C127.493 63.7543 127.511 63.6519 127.533 63.545C127.551 63.4426 127.573 63.3402 127.595 63.2334C127.618 63.1131 127.644 62.9929 127.671 62.8771C127.698 62.7569 127.725 62.6367 127.751 62.5209C127.787 62.3562 127.827 62.1914 127.867 62.0267C127.916 61.8218 127.97 61.6215 128.023 61.4211C128.028 61.4033 128.032 61.3855 128.041 61.3677C128.046 61.3454 128.055 61.3187 128.059 61.2964C128.108 61.1094 128.166 60.9268 128.22 60.7398C128.224 60.7131 128.233 60.6864 128.242 60.6597C128.286 60.5172 128.327 60.3747 128.376 60.2322C128.38 60.2099 128.389 60.1877 128.398 60.1654C128.402 60.1521 128.407 60.1342 128.411 60.1209C128.425 60.0675 128.442 60.0096 128.465 59.9517C128.527 59.7513 128.594 59.5554 128.665 59.3595C128.741 59.1413 128.821 58.9231 128.902 58.7049C128.969 58.5313 129.036 58.3532 129.107 58.1795C129.187 57.9747 129.272 57.7698 129.357 57.5695C129.45 57.3424 129.548 57.1197 129.651 56.8971C129.749 56.6745 129.856 56.4518 129.959 56.2336C130.066 56.011 130.177 55.7928 130.288 55.5746C130.445 55.2674 130.61 54.9602 130.779 54.6574C130.89 54.4526 131.011 54.2477 131.127 54.0474C131.154 54.0028 131.18 53.9583 131.207 53.9138C131.216 53.9004 131.225 53.8871 131.234 53.8737C131.368 53.6466 131.506 53.424 131.644 53.2058C131.715 53.09 131.791 52.9742 131.863 52.8629C131.943 52.7382 132.027 52.6136 132.112 52.4889C132.126 52.4755 132.135 52.4577 132.143 52.4444C132.393 52.0748 132.652 51.7097 132.915 51.3534C132.937 51.3223 132.959 51.2911 132.986 51.2599C133.129 51.0685 133.276 50.877 133.428 50.6855C133.575 50.4941 133.726 50.3071 133.882 50.12C134.034 49.933 134.19 49.7505 134.351 49.5679C134.507 49.3853 134.667 49.2028 134.832 49.0247C134.979 48.8644 135.127 48.7041 135.278 48.5438C135.461 48.3523 135.644 48.1653 135.831 47.9783C135.978 47.8313 136.13 47.6844 136.281 47.5375C136.322 47.4974 136.366 47.4573 136.406 47.4172C136.562 47.2703 136.723 47.1233 136.879 46.9809C137.057 46.8161 137.24 46.6558 137.423 46.5C137.606 46.3397 137.789 46.1838 137.976 46.0324C138.163 45.8766 138.35 45.7252 138.542 45.5782C138.734 45.4269 138.926 45.2799 139.117 45.1374C139.215 45.0662 139.313 44.9905 139.412 44.9192C139.505 44.848 139.603 44.7812 139.706 44.71C139.853 44.6031 140.005 44.4962 140.156 44.3938C140.303 44.2914 140.455 44.1934 140.607 44.091C140.91 43.8907 141.217 43.6947 141.53 43.5077C141.735 43.383 141.944 43.2584 142.154 43.1381C142.368 43.0179 142.577 42.8977 142.792 42.7819C143.269 42.5237 143.75 42.2788 144.241 42.0472C144.267 42.0339 144.294 42.0205 144.321 42.0116C144.468 41.9404 144.615 41.8736 144.762 41.8068C144.985 41.7044 145.208 41.6064 145.436 41.5129C145.659 41.4149 145.886 41.3214 146.118 41.2324C146.336 41.1478 146.555 41.0632 146.773 40.983C146.947 40.9162 147.13 40.8539 147.308 40.7916C147.375 40.7693 147.442 40.747 147.514 40.7203C147.523 40.7203 147.536 40.7159 147.545 40.7114C147.554 40.707 147.563 40.707 147.572 40.7025C147.781 40.6313 147.995 40.56 148.209 40.4977C148.495 40.4086 148.775 40.324 149.056 40.2483C149.195 40.2082 149.337 40.1682 149.48 40.1325C149.507 40.1236 149.529 40.1192 149.556 40.1103C149.636 40.0925 149.712 40.0747 149.788 40.0524C149.984 40.0034 150.176 39.9589 150.372 39.9144C150.617 39.8565 150.862 39.803 151.108 39.7541C151.353 39.7006 151.598 39.6561 151.848 39.6116C152.097 39.567 152.347 39.527 152.597 39.4869C152.815 39.4557 153.034 39.4246 153.257 39.3934C153.31 39.3889 153.364 39.38 153.417 39.3711C153.645 39.3444 153.877 39.3177 154.108 39.2954C154.425 39.2598 154.742 39.2331 155.063 39.2108C155.254 39.1975 155.446 39.1841 155.642 39.1797C155.865 39.1663 156.093 39.1574 156.316 39.1529C156.61 39.144 156.904 39.1396 157.199 39.1396C157.546 39.1396 157.89 39.144 158.233 39.1574C158.273 39.1574 158.309 39.1574 158.349 39.1618H158.389C158.509 39.1618 158.634 39.1708 158.755 39.1797C158.884 39.1886 159.013 39.193 159.143 39.2019C159.268 39.2064 159.397 39.2153 159.526 39.2286C159.745 39.2465 159.963 39.2643 160.182 39.2865C160.4 39.3043 160.619 39.3311 160.833 39.3578C161.011 39.3756 161.189 39.3978 161.368 39.4246C161.39 39.429 161.412 39.429 161.435 39.4335C161.622 39.4602 161.805 39.4869 161.987 39.5181C162.184 39.5492 162.38 39.5804 162.576 39.616C162.585 39.616 162.598 39.6205 162.607 39.6205C162.839 39.665 163.062 39.7051 163.29 39.7541C163.535 39.803 163.78 39.8565 164.025 39.9144C164.137 39.9411 164.244 39.9633 164.355 39.9945C164.382 39.999 164.413 40.0034 164.44 40.0123C164.721 40.0791 164.997 40.1548 165.274 40.2305C165.372 40.2572 165.47 40.2839 165.568 40.3107C165.733 40.3596 165.898 40.4086 166.063 40.4621C166.282 40.5244 166.496 40.5956 166.71 40.6669C166.924 40.7337 167.133 40.8094 167.347 40.8851C167.557 40.9608 167.766 41.0365 167.976 41.1166C168.306 41.2413 168.636 41.3749 168.961 41.5129C169.153 41.593 169.345 41.6776 169.532 41.7622C169.59 41.789 169.648 41.8157 169.706 41.8379C169.884 41.9225 170.063 42.0027 170.241 42.0873C170.437 42.1808 170.633 42.2788 170.825 42.3767C171.008 42.4702 171.191 42.5637 171.374 42.6617C171.543 42.7508 171.713 42.8443 171.878 42.9333C171.891 42.9422 171.904 42.9467 171.918 42.9556C172.029 43.0179 172.136 43.0803 172.243 43.1426C172.355 43.2049 172.466 43.2673 172.573 43.3341C172.711 43.4142 172.85 43.4988 172.983 43.5834C173.162 43.6858 173.336 43.7972 173.51 43.9085C173.706 44.0331 173.902 44.1623 174.094 44.2959C174.294 44.4294 174.495 44.5675 174.691 44.71C174.883 44.8435 175.066 44.9771 175.253 45.1196C175.271 45.1285 175.289 45.1419 175.307 45.1597C175.489 45.2933 175.672 45.4358 175.855 45.5782C176.047 45.7252 176.234 45.8766 176.421 46.0324C176.609 46.1838 176.791 46.3397 176.974 46.5C177.157 46.6558 177.34 46.8161 177.518 46.9809C177.639 47.0877 177.759 47.199 177.875 47.3104C177.982 47.4083 178.089 47.5107 178.191 47.6131C178.316 47.7334 178.441 47.8536 178.566 47.9783C178.691 48.1029 178.811 48.2276 178.932 48.3523C179.155 48.5838 179.378 48.8198 179.596 49.0603C179.627 49.0959 179.658 49.1315 179.694 49.1672C179.904 49.3987 180.113 49.6391 180.314 49.8796C180.546 50.1512 180.773 50.4317 180.992 50.7123C181.005 50.7301 181.023 50.7523 181.036 50.7701C181.036 50.7701 181.038 50.7731 181.041 50.779C181.108 50.8592 181.17 50.9393 181.228 51.0195C181.29 51.0996 181.348 51.1798 181.411 51.2599C181.536 51.4202 181.652 51.585 181.768 51.7497C182.173 52.3108 182.561 52.8852 182.922 53.4774C183.07 53.7089 183.208 53.9449 183.346 54.1809C183.484 54.4169 183.618 54.6574 183.752 54.8978C183.881 55.1383 184.01 55.3832 184.135 55.6281C184.238 55.8284 184.34 56.0288 184.434 56.2292C184.452 56.2693 184.474 56.3138 184.492 56.3539C184.742 56.8704 184.974 57.3914 185.188 57.9212C185.286 58.1617 185.384 58.4066 185.473 58.6515C185.571 58.9097 185.669 59.1725 185.758 59.4352C185.834 59.6489 185.906 59.8626 185.972 60.0808C185.986 60.1164 185.995 60.1565 186.008 60.1921C186.021 60.2367 186.039 60.2856 186.053 60.3302C186.124 60.5617 186.195 60.7933 186.262 61.0292C186.338 61.2964 186.409 61.568 186.481 61.8396C186.557 62.138 186.628 62.4363 186.695 62.7346C186.748 62.984 186.797 63.2334 186.851 63.4827V63.4916C186.851 63.5139 186.86 63.5406 186.864 63.5629C186.864 63.5673 186.864 63.5718 186.869 63.5762C186.918 63.8256 186.962 64.0749 187.002 64.3287C187.092 64.8853 187.172 65.4464 187.234 66.0119C187.266 66.279 187.288 66.5417 187.31 66.8089C187.315 66.8223 187.315 66.8356 187.315 66.849C187.315 66.898 187.324 66.9425 187.324 66.9915C187.324 67.0493 187.332 67.1072 187.337 67.1651C187.373 67.6015 187.39 68.0423 187.404 68.4831C187.408 68.7592 187.413 69.0397 187.413 69.3158H187.39Z" fill="#FCF1E3"/>
</g>
<path d="M47.8564 322.435H57.4922C57.2988 325.593 56.4287 328.396 54.8818 330.846C53.3564 333.295 51.2188 335.207 48.4688 336.582C45.7402 337.957 42.4531 338.645 38.6074 338.645C35.5996 338.645 32.9033 338.129 30.5186 337.098C28.1338 336.045 26.0928 334.541 24.3955 332.586C22.7197 330.631 21.4414 328.268 20.5605 325.496C19.6797 322.725 19.2393 319.62 19.2393 316.183V312.928C19.2393 309.49 19.6904 306.386 20.5928 303.614C21.5166 300.821 22.8271 298.447 24.5244 296.492C26.2432 294.537 28.2949 293.033 30.6797 291.98C33.0645 290.928 35.7285 290.401 38.6719 290.401C42.582 290.401 45.8799 291.11 48.5654 292.528C51.2725 293.946 53.3672 295.901 54.8496 298.394C56.3535 300.886 57.2559 303.722 57.5566 306.901H47.8887C47.7812 305.011 47.4053 303.41 46.7607 302.1C46.1162 300.768 45.1387 299.769 43.8281 299.103C42.5391 298.415 40.8203 298.071 38.6719 298.071C37.0605 298.071 35.6533 298.372 34.4502 298.974C33.2471 299.575 32.2373 300.488 31.4209 301.713C30.6045 302.938 29.9922 304.484 29.584 306.354C29.1973 308.201 29.0039 310.371 29.0039 312.863V316.183C29.0039 318.61 29.1865 320.748 29.5518 322.596C29.917 324.422 30.4756 325.969 31.2275 327.236C32.001 328.482 32.9893 329.428 34.1924 330.072C35.417 330.695 36.8887 331.007 38.6074 331.007C40.627 331.007 42.292 330.685 43.6025 330.04C44.9131 329.396 45.9121 328.439 46.5996 327.172C47.3086 325.904 47.7275 324.325 47.8564 322.435ZM63.8408 291.078H81.3398C84.9277 291.078 88.0107 291.615 90.5889 292.689C93.1885 293.764 95.1865 295.354 96.583 297.459C97.9795 299.564 98.6777 302.153 98.6777 305.226C98.6777 307.739 98.248 309.898 97.3887 311.703C96.5508 313.486 95.3584 314.979 93.8115 316.183C92.2861 317.364 90.4922 318.31 88.4297 319.019L85.3682 320.63H70.1572L70.0928 313.089H81.4043C83.1016 313.089 84.5088 312.788 85.626 312.187C86.7432 311.585 87.5811 310.747 88.1396 309.673C88.7197 308.599 89.0098 307.353 89.0098 305.935C89.0098 304.431 88.7305 303.131 88.1719 302.035C87.6133 300.939 86.7646 300.102 85.626 299.521C84.4873 298.941 83.0586 298.651 81.3398 298.651H73.5088V338H63.8408V291.078ZM90.0732 338L79.374 317.085L89.5898 317.021L100.418 337.549V338H90.0732ZM137.607 330.459V338H112.632V330.459H137.607ZM115.79 291.078V338H106.122V291.078H115.79ZM134.353 310.188V317.536H112.632V310.188H134.353ZM137.575 291.078V298.651H112.632V291.078H137.575ZM151.143 288.5V293.398C151.143 294.795 150.874 296.234 150.337 297.717C149.821 299.199 149.123 300.606 148.242 301.938C147.361 303.249 146.395 304.366 145.342 305.29L140.991 302.776C141.786 301.509 142.463 300.134 143.021 298.651C143.58 297.147 143.859 295.407 143.859 293.431V288.5H151.143ZM189.879 330.459V338H164.903V330.459H189.879ZM168.062 291.078V338H158.394V291.078H168.062ZM186.624 310.188V317.536H164.903V310.188H186.624ZM189.847 291.078V298.651H164.903V291.078H189.847ZM219.946 325.722C219.946 324.884 219.817 324.132 219.56 323.466C219.323 322.778 218.872 322.155 218.206 321.597C217.54 321.017 216.605 320.447 215.402 319.889C214.199 319.33 212.642 318.75 210.729 318.148C208.603 317.461 206.583 316.688 204.671 315.828C202.78 314.969 201.104 313.97 199.644 312.831C198.204 311.671 197.065 310.328 196.228 308.803C195.411 307.277 195.003 305.505 195.003 303.485C195.003 301.53 195.433 299.758 196.292 298.168C197.151 296.557 198.354 295.182 199.901 294.043C201.448 292.883 203.274 291.991 205.38 291.368C207.507 290.745 209.838 290.434 212.373 290.434C215.832 290.434 218.851 291.057 221.429 292.303C224.007 293.549 226.005 295.257 227.423 297.427C228.862 299.597 229.582 302.078 229.582 304.871H219.979C219.979 303.496 219.688 302.293 219.108 301.262C218.55 300.209 217.69 299.382 216.53 298.78C215.392 298.179 213.952 297.878 212.212 297.878C210.536 297.878 209.14 298.136 208.022 298.651C206.905 299.146 206.067 299.822 205.509 300.682C204.95 301.52 204.671 302.465 204.671 303.518C204.671 304.312 204.864 305.032 205.251 305.677C205.659 306.321 206.261 306.923 207.056 307.481C207.851 308.04 208.828 308.566 209.988 309.061C211.148 309.555 212.491 310.038 214.017 310.511C216.573 311.284 218.818 312.154 220.752 313.121C222.707 314.088 224.34 315.173 225.65 316.376C226.961 317.579 227.949 318.943 228.615 320.469C229.281 321.994 229.614 323.724 229.614 325.657C229.614 327.698 229.217 329.524 228.422 331.136C227.627 332.747 226.478 334.111 224.974 335.229C223.47 336.346 221.676 337.194 219.592 337.774C217.508 338.354 215.177 338.645 212.599 338.645C210.278 338.645 207.99 338.344 205.734 337.742C203.479 337.119 201.427 336.185 199.579 334.938C197.753 333.692 196.292 332.103 195.196 330.169C194.101 328.235 193.553 325.947 193.553 323.305H203.253C203.253 324.766 203.479 326.001 203.93 327.011C204.381 328.021 205.015 328.837 205.831 329.46C206.669 330.083 207.657 330.534 208.796 330.813C209.956 331.093 211.224 331.232 212.599 331.232C214.274 331.232 215.649 330.996 216.724 330.523C217.819 330.051 218.625 329.396 219.141 328.558C219.678 327.72 219.946 326.774 219.946 325.722ZM254.461 321.274H242.505V313.733H254.461C256.309 313.733 257.812 313.433 258.973 312.831C260.133 312.208 260.981 311.349 261.519 310.253C262.056 309.157 262.324 307.922 262.324 306.547C262.324 305.15 262.056 303.851 261.519 302.647C260.981 301.444 260.133 300.478 258.973 299.747C257.812 299.017 256.309 298.651 254.461 298.651H245.856V338H236.188V291.078H254.461C258.135 291.078 261.282 291.744 263.903 293.076C266.546 294.387 268.565 296.202 269.962 298.522C271.358 300.843 272.057 303.496 272.057 306.482C272.057 309.512 271.358 312.133 269.962 314.346C268.565 316.559 266.546 318.267 263.903 319.47C261.282 320.673 258.135 321.274 254.461 321.274ZM292.456 299.103L279.694 338H269.414L286.849 291.078H293.391L292.456 299.103ZM303.059 338L290.265 299.103L289.233 291.078H295.84L313.371 338H303.059ZM302.479 320.533V328.106H277.696V320.533H302.479Z" fill="#FCF1E3"/>
<defs>
<clipPath id="clip0_134_20829">
<rect width="143" height="241" fill="white" transform="translate(95)"/>
</clipPath>
</defs>
</svg>
