<svg id="Calque_1" data-name="Calque 1" xmlns="http://www.w3.org/2000/svg" viewBox="0 0 513 513"><defs><style>.cls-1{fill:#ffc63c;}.cls-2{fill:#f40044;}.cls-3{fill:#0c53c4;}</style></defs><title>logo</title><path class="cls-1" d="M245.11,44.5v46c-62.82,1.16-99.78,80.34-61,129.28L135.7,256V44.5Z"/><path class="cls-2" d="M397.62,44.5V139H324a81.55,81.55,0,0,0-52.38-45.61V44.5Z"/><path class="cls-3" d="M397.62,164.77V271.58h-126V249.67c36.25-9.93,62.4-45.78,58.9-84.9Z"/><path class="cls-1" d="M397.62,296.83h-126v98c-.23,20.79-3.43,41.36,1.64,61.74,2.13,8.58,10.78,13,14.61,4.6,5-10.93,2.23-24.33,2.77-33.81.57-10,5.32-15.93,9.68-15.7,10.23.52,10.43,28.8,18.54,32.14,10.27,4.25,12-12.87,17.57-31a153.43,153.43,0,0,1,15.12-34.24c6.36-10.79,46.06-78,46.06-78v-3.68Z"/><path class="cls-3" d="M397.61,343.66s0,23.22,0,43.81c0,10.75-2.1,18.88-3,25.26-1.87,13.59-.26,22.39-4.89,27.79-9,10.46-9.53-21-22.37-10.89a19.41,19.41,0,0,0-5.83,9.05c-2.15,6.94-.86,20.66-6.3,20.66-4.15,0-7.37-10.14-6-19.54,1.34-9,3.31-16.62,6.68-23.06,12.47-23.84,41.66-73.09,41.66-73.09Z"/><path class="cls-2" d="M244.55,404.3c-3.8,26.47,3.78,49.62-2.71,73.86-3,11.37-13.68,12.41-20.2,4.89-13.9-16.33-3.1-43.7-6.67-61.63-2.65-12.51-18.27-19.92-25.82-3.38-6.44,14.12-.88,40.15-13.64,38.18-10.76-1.68-3.53-22.65-10.89-28.24-4.35-3.29-9.1,1.38-10,6s-1.89,10.49-1.11,16.64c1,7.38,1.8,22.7-9.59,21-6.1-1.6-7.2-9.67-7.06-16,1.21-24.85-1.16-45.39-1.16-78.72V285.2l65.62-48.26A81.16,81.16,0,0,0,245.1,252.6c-1.25,50.13,4.59,101.9-.56,151.7Z"/></svg>