<svg width="41" height="68" viewBox="0 0 41 68" fill="none" xmlns="http://www.w3.org/2000/svg">
<path d="M16.864 0V7.07589C7.1967 7.25429 1.50901 19.4461 7.47089 26.9806L0.0273438 32.5652V0H16.864Z" fill="#FFC63C"/>
<path d="M40.335 0V14.55H29.0074C27.5371 11.1654 24.531 8.52825 20.9463 7.52693V0H40.335Z" fill="#F40044"/>
<path d="M40.335 18.5177V34.9624H20.9463V31.589C26.5245 30.06 30.5494 24.5407 30.0099 18.5177H40.335Z" fill="#0C53C4"/>
<path d="M40.3355 38.8508H20.9468V53.9323C20.9468 59.3623 20.455 60.0734 20.9128 62.3537C21.3367 64.4657 23.0183 64.7107 23.8019 62.9367C24.4019 61.5798 23.7894 60.4013 23.8724 58.9414C23.9604 57.3998 24.6899 56.489 25.3616 56.5242C26.9363 56.6046 26.0119 59.6324 26.8043 61.3574C27.3476 62.5397 28.7173 62.7595 29.2884 61.4278C29.8166 60.1953 29.5575 59.0306 30.4631 56.8986C31.2832 54.9663 32.2643 53.0917 33.2441 51.4308C34.2239 49.7699 40.3329 39.4174 40.3329 39.4174L40.3342 38.8508H40.3355Z" fill="#FFC63C"/>
<path d="M40.3321 46.0599C40.3321 46.0599 40.3333 49.6355 40.3321 52.8054C40.3321 54.4613 40.3421 56.1699 40.3321 57.4213C40.3157 59.5169 40.0591 60.2921 39.4956 61.2331C38.9321 62.1741 37.7196 62.09 37.5322 61.0509C37.3448 60.0119 36.8744 58.3585 35.6783 59.297C35.2645 59.6212 35.0682 60.174 34.9123 60.6753C34.5815 61.7432 34.6494 63.8715 33.8117 63.8715C32.974 63.8715 32.759 62.3199 32.8935 60.8625C33.0281 59.4051 33.4017 58.3045 33.9211 57.312C35.8405 53.6421 40.3321 46.0587 40.3321 46.0587V46.0599Z" fill="#0C53C4"/>
<path d="M16.7769 55.3972C16.7769 63.5159 17.2485 64.3954 16.7429 66.2372C16.148 68.4082 13.2488 68.657 12.6551 66.5186C11.8099 63.4682 12.8903 62.9279 12.2249 58.0331C11.9596 56.0807 9.41255 54.9663 8.25161 57.513C7.26048 59.6865 8.45915 63.7483 6.15112 63.3903C4.31727 63.1051 5.60776 59.9038 4.47575 59.0432C3.80662 58.5356 3.07584 59.2555 2.93623 59.9679C2.79662 60.6828 2.64568 61.5836 2.76643 62.5296C2.91233 63.6667 2.93246 66.5312 1.19295 66.1932C0.22697 66.006 -0.100053 64.4067 0.0257253 63.2872C0.21565 61.6012 0.0257253 60.9114 0.0257253 51.1909V37.0592L10.1244 29.629C12.0627 31.0613 14.4223 31.9119 16.8611 32.04C16.6687 39.7592 16.7756 49.9282 16.7756 55.3972H16.7769Z" fill="#F40044"/>
</svg>
