<svg width="42" height="69" viewBox="0 0 42 69" fill="none" xmlns="http://www.w3.org/2000/svg">
<path d="M17.8464 0.387451V7.50713C8.11743 7.68663 2.39346 19.9539 8.39338 27.535L0.902344 33.1541V0.387451H17.8464Z" fill="#FCF1E3"/>
<path d="M41.4684 0.387451V15.0275H30.0686C28.5889 11.6219 25.5636 8.96848 21.9561 7.96095V0.387451H41.4684Z" fill="#FCF1E3"/>
<path d="M41.4684 19.0198V35.5662H21.9561V32.172C27.5699 30.6335 31.6205 25.0801 31.0774 19.0198H41.4684Z" fill="#FCF1E3"/>
<path d="M41.4675 39.4785H21.9551V54.6533C21.9551 60.117 21.4601 60.8325 21.9209 63.1269C22.3475 65.2519 24.0398 65.4984 24.8284 63.7135C25.4322 62.3482 24.8158 61.1624 24.8993 59.6935C24.9879 58.1424 25.7221 57.2259 26.398 57.2613C27.9828 57.3422 27.0525 60.3888 27.8499 62.1244C28.3967 63.314 29.7752 63.5352 30.3499 62.1952C30.8815 60.9551 30.6208 59.7832 31.5321 57.638C32.3575 55.6937 33.3448 53.8076 34.3308 52.1364C35.3169 50.4652 41.4649 40.0486 41.4649 40.0486L41.4662 39.4785H41.4675Z" fill="#FCF1E3"/>
<path d="M41.4647 46.7323C41.4647 46.7323 41.466 50.3301 41.4647 53.5195C41.4647 55.1857 41.4748 56.9049 41.4647 58.164C41.4483 60.2726 41.19 61.0526 40.623 61.9994C40.0559 62.9463 38.8356 62.8616 38.647 61.8161C38.4584 60.7707 37.985 59.1071 36.7812 60.0514C36.3648 60.3775 36.1673 60.9338 36.0104 61.4382C35.6775 62.5127 35.7458 64.6541 34.9028 64.6541C34.0598 64.6541 33.8433 63.0929 33.9787 61.6265C34.1142 60.1601 34.4901 59.0527 35.0129 58.054C36.9445 54.3615 41.4647 46.7311 41.4647 46.7311V46.7323Z" fill="#FCF1E3"/>
<path d="M17.7589 56.1274C17.7589 64.2963 18.2336 65.1812 17.7247 67.0344C17.126 69.2189 14.2083 69.4692 13.6108 67.3176C12.7602 64.2482 13.8475 63.7047 13.1779 58.7795C12.9108 56.8151 10.3476 55.6938 9.17925 58.2562C8.1818 60.4432 9.38811 64.5301 7.06536 64.1699C5.21982 63.8829 6.51853 60.6619 5.37931 59.7959C4.7059 59.2852 3.97047 60.0096 3.82996 60.7263C3.68946 61.4456 3.53756 62.352 3.65908 63.3039C3.80591 64.448 3.82616 67.3302 2.07556 66.9902C1.10342 66.8018 0.774309 65.1926 0.900889 64.0662C1.09203 62.3697 0.900889 61.6757 0.900889 51.895V37.6759L11.064 30.1997C13.0146 31.6408 15.3893 32.4967 17.8437 32.6256C17.65 40.3925 17.7576 50.6245 17.7576 56.1274H17.7589Z" fill="#FCF1E3"/>
<path d="M21.955 29.0394C20.8904 29.4464 19.7335 29.6689 18.5259 29.6689C18.2968 29.6689 18.0702 29.6613 17.8462 29.6449C17.0398 29.5893 16.2614 29.4325 15.5234 29.1898C13.6475 28.5742 12.0273 27.3998 10.8614 25.8613H10.8589C9.63742 24.2495 8.91211 22.2433 8.91211 20.0664C8.91211 14.9922 12.8538 10.8356 17.8462 10.488C18.0702 10.4716 18.2968 10.464 18.5259 10.464C19.7347 10.464 20.8904 10.6865 21.955 11.0935C23.9397 11.8508 25.6093 13.2451 26.7119 15.0276C27.4448 16.2108 27.927 17.5672 28.084 19.0197C28.122 19.3636 28.141 19.7125 28.141 20.0664C28.141 24.1623 25.5726 27.6614 21.955 29.0394Z" fill="#FCF1E3"/>
</svg>
