<svg width="61" height="124" viewBox="0 0 61 124" fill="none" xmlns="http://www.w3.org/2000/svg">
<path d="M5.40471 123.982C6.43733 123.982 7.31244 123.711 8.02419 123.162C8.73595 122.614 9.19684 121.962 9.40103 121.209L7.81417 120.787C7.66832 121.239 7.37661 121.619 6.93906 121.926C6.50151 122.234 5.97644 122.39 5.3697 122.39C4.57044 122.39 3.92286 122.107 3.42113 121.534C2.9194 120.962 2.66854 120.275 2.66854 119.467C2.66854 118.665 2.9194 117.984 3.4153 117.423C3.91119 116.863 4.5646 116.585 5.3697 116.585C5.97644 116.585 6.49567 116.742 6.93323 117.056C7.37078 117.369 7.66248 117.755 7.80833 118.207L9.4127 117.803C9.19684 117.044 8.73011 116.386 8.01836 115.832C7.30661 115.277 6.41983 115 5.36387 115C4.12122 115 3.08275 115.428 2.24849 116.284C1.41422 117.14 1 118.207 1 119.479C1 120.763 1.41422 121.836 2.24849 122.698C3.08275 123.56 4.12705 123.988 5.3872 123.988L5.40471 123.982Z" fill="#121212"/>
<path d="M15.7457 123.807H17.6359L15.559 120.612C16.1307 120.401 16.5799 120.058 16.9008 119.575C17.2217 119.093 17.385 118.563 17.385 117.978C17.385 117.248 17.1225 116.597 16.5974 116.025C16.0724 115.452 15.3781 115.169 14.5205 115.169H10.4484V123.813H12.0761V120.787H13.8554L15.7457 123.807ZM12.0761 116.688H14.4738C14.8589 116.688 15.1739 116.814 15.4248 117.068C15.6757 117.321 15.7982 117.628 15.7982 117.984C15.7982 118.358 15.6698 118.671 15.4131 118.924C15.1564 119.177 14.8239 119.304 14.4097 119.304H12.0702L12.0761 116.688Z" fill="#121212"/>
<path d="M24.7973 116.694V115.163H18.6307V123.807H24.7856V122.276H20.2351V120.154H24.1847V118.671H20.2351V116.694H24.7973Z" fill="#121212"/>
<path d="M25.7513 118.587H27.0056L27.9391 115.163H26.2764L25.7513 118.587Z" fill="#121212"/>
<path d="M35.3047 116.694V115.163H29.1381V123.807H35.293V122.276H30.7424V120.154H34.6921V118.671H30.7424V116.694H35.3047Z" fill="#121212"/>
<path d="M39.6599 123.982C40.6459 123.982 41.451 123.723 42.0694 123.204C42.6878 122.686 42.997 122.053 42.997 121.299C42.997 120.648 42.8044 120.148 42.4194 119.798C42.0344 119.449 41.4743 119.159 40.745 118.93L38.6681 118.237C38.1372 118.074 37.8688 117.803 37.8688 117.423C37.8688 117.164 37.9914 116.941 38.2422 116.76C38.4931 116.579 38.814 116.489 39.2107 116.489C39.6716 116.489 40.0858 116.597 40.4533 116.814C40.8209 117.031 41.0951 117.315 41.2701 117.67L42.7928 117.212C42.5536 116.579 42.1102 116.055 41.4626 115.633C40.815 115.211 40.0566 115 39.1873 115C38.3297 115 37.6121 115.241 37.0404 115.723C36.4687 116.206 36.1828 116.79 36.1886 117.472C36.1828 118.008 36.352 118.46 36.6962 118.834C37.0404 119.208 37.5013 119.491 38.0847 119.678L40.22 120.371C40.6225 120.498 40.9084 120.648 41.0776 120.817C41.2468 120.986 41.3284 121.185 41.3284 121.414C41.3284 121.709 41.1826 121.962 40.885 122.18C40.5875 122.397 40.2025 122.505 39.7299 122.505C39.1523 122.505 38.6506 122.354 38.2306 122.053C37.8105 121.752 37.513 121.366 37.3379 120.889L35.7686 121.378C36.0253 122.113 36.492 122.734 37.1688 123.24C37.8455 123.747 38.6681 124 39.6307 124L39.6599 123.982Z" fill="#121212"/>
<path d="M48.0231 115.163H44.1026V123.807H45.7303V121.167H47.9531C48.8574 121.167 49.5808 120.865 50.1175 120.263C50.6543 119.66 50.9226 118.96 50.9226 118.171C50.9226 117.399 50.6543 116.706 50.1175 116.091C49.5808 115.476 48.8807 115.169 48.0115 115.169L48.0231 115.163ZM47.8889 119.666H45.7187V116.7H47.9648C48.3557 116.7 48.6765 116.851 48.9332 117.146C49.1899 117.441 49.3183 117.785 49.3183 118.177C49.3183 118.569 49.1841 118.912 48.9157 119.208C48.6474 119.503 48.3032 119.654 47.8773 119.654L47.8889 119.666Z" fill="#121212"/>
<path d="M57.2906 123.807H59L55.7854 115.163H53.656L50.4531 123.807H52.1508L52.8451 121.932H56.608L57.2906 123.807ZM53.3818 120.437L54.7178 116.784L56.0596 120.437H53.3818Z" fill="#121212"/>
<g clip-path="url(#clip0_134_20681)">
<g clip-path="url(#clip1_134_20681)">
<path d="M25.6395 0.557129V11.1342C15.9169 11.6539 8.16783 19.7181 8.16783 29.5556C8.16783 33.5122 9.42327 37.182 11.5555 40.1904L0.644531 48.2266L0.666916 0.557129H25.6395Z" fill="#FFC63C"/>
<path d="M60.4511 0.557129V22.1304H43.5503C41.3285 17.0989 36.9186 13.2411 31.5312 11.762V0.557129H60.4511Z" fill="#F40044"/>
<path d="M60.451 28.0112V52.3955H31.5088V47.3529C39.3418 45.2143 45.1153 38.0444 45.1153 29.5555C45.1153 29.0358 45.0929 28.5198 45.05 28.0112H60.451Z" fill="#0C53C4"/>
<path d="M60.451 58.2764H31.5312V80.5221C31.5312 88.5732 30.9659 89.6276 31.6449 93.0086C32.2736 96.14 34.7677 96.5032 35.9299 93.8729C36.8197 91.8611 35.9112 90.1138 36.0343 87.9492C36.1649 85.6635 37.2469 84.313 38.243 84.3651C40.5785 84.4843 39.2074 88.9737 40.3826 91.5314C41.1885 93.2843 43.22 93.6103 44.0669 91.6357C44.8504 89.8083 44.4661 88.0814 45.8092 84.9202C47.0255 82.0552 47.9563 79.4119 49.4114 76.9492C50.8645 74.4866 60.451 58.2782 60.451 58.2782V58.2764Z" fill="#FFC63C"/>
<path d="M60.4471 69.8876C60.4471 69.8876 60.449 74.1497 60.4471 78.8496C60.4471 81.3048 60.462 83.8382 60.4471 85.6936C60.4228 88.8008 60.0647 89.965 59.2066 91.3454C58.2179 92.9362 56.5726 92.6158 56.2946 91.0753C56.0167 89.5347 56.0894 87.0199 54.3154 88.4115C53.7017 88.8921 53.3435 89.3764 53.129 90.8294C52.8939 92.4277 53.1831 94.8661 51.2654 95.1437C49.9204 95.3393 49.6555 93.0089 49.8551 90.8462C50.0547 88.6834 50.1238 87.9849 51.312 85.7234C54.3508 79.9394 60.4452 69.8857 60.4452 69.8857L60.4471 69.8876Z" fill="#0C53C4"/>
<path d="M25.4606 98.7669C24.5782 101.986 20.2784 102.355 19.3998 99.1841C18.1443 94.6612 19.7467 93.8621 18.7599 86.6027C18.3663 83.7078 14.5888 82.0555 12.867 85.8315C11.397 89.0541 13.1748 95.0766 9.75173 94.5457C7.03006 94.1229 8.944 89.3745 7.26697 88.1004C6.27456 87.3478 5.19074 88.4152 4.98368 89.4714C4.77848 90.5295 4.55276 91.8651 4.73184 93.2697C4.94823 94.9555 4.97808 99.2028 2.39818 98.7017C0.965529 98.4241 0.480516 96.0527 0.66706 94.3911C0.950606 91.8912 0.66706 90.8685 0.66706 76.4578V55.5048L15.7062 44.4136C18.5174 46.4832 21.9349 47.7778 25.6378 47.9753C25.6378 48.5583 25.6378 51.3302 25.6378 53.1036V82.5529C25.6378 94.5904 26.2086 96.036 25.4587 98.7669H25.4606Z" fill="#F40044"/>
<path d="M39.2818 29.5555V29.6821C39.2818 29.7231 39.2818 29.7641 39.2818 29.8069C39.2799 29.8908 39.2762 29.9746 39.2743 30.0584C39.2706 30.1404 39.2669 30.2242 39.2613 30.308C39.2575 30.3583 39.2557 30.4086 39.2519 30.4589L39.2408 30.5875C39.2408 30.6005 39.2408 30.6135 39.2408 30.6266C39.2352 30.6843 39.2296 30.7439 39.224 30.8017C39.2165 30.8762 39.209 30.9526 39.1997 31.0271C39.196 31.0569 39.1923 31.0848 39.1885 31.1146C39.1829 31.1743 39.1755 31.232 39.1661 31.2916C39.1568 31.3736 39.1438 31.4537 39.1307 31.5338C39.1195 31.6139 39.1064 31.694 39.0915 31.7741C39.0785 31.8486 39.0654 31.9212 39.0505 31.9958C39.0486 32.0069 39.0449 32.02 39.043 32.0311C39.043 32.033 39.043 32.0349 39.0412 32.0367C39.0412 32.0498 39.0374 32.061 39.0337 32.074C39.0337 32.0796 39.0337 32.0833 39.0337 32.0889C39.0225 32.1429 39.0094 32.1969 38.9982 32.251C38.9815 32.3311 38.9628 32.4093 38.9442 32.4875C38.9068 32.644 38.8677 32.8005 38.8248 32.9551C38.808 33.0203 38.7893 33.0836 38.7688 33.147C38.7371 33.255 38.7035 33.3649 38.6681 33.4711C38.6494 33.5289 38.6308 33.5866 38.6102 33.6425C38.5617 33.7859 38.5114 33.9256 38.4573 34.0653C38.4237 34.1529 38.3901 34.2386 38.3547 34.3243C38.3547 34.3243 38.3547 34.3243 38.3547 34.328C38.3509 34.3373 38.3472 34.3448 38.3435 34.3541C38.3398 34.3653 38.3342 34.3764 38.3304 34.3876C38.2801 34.5068 38.2297 34.6261 38.1775 34.7434C38.1439 34.8161 38.1103 34.8906 38.0749 34.9632C38.0413 35.034 38.0058 35.1048 37.9704 35.1756C37.935 35.2464 37.8995 35.3172 37.8622 35.3861C37.7913 35.5258 37.7167 35.6636 37.6365 35.7996C37.5973 35.8686 37.5581 35.9356 37.5171 36.0045C37.4798 36.0697 37.4406 36.1349 37.3996 36.1983C37.3548 36.2691 37.31 36.3398 37.2653 36.4106C37.1794 36.5392 37.0936 36.6677 37.006 36.7925C36.9612 36.8558 36.9164 36.921 36.8698 36.9825C36.825 37.0459 36.7784 37.1092 36.7299 37.1707C36.6832 37.234 36.6366 37.2955 36.5862 37.3569C36.5377 37.4184 36.4892 37.4799 36.4389 37.5395C36.4165 37.5693 36.3922 37.5972 36.368 37.6252C36.3158 37.6904 36.2598 37.7537 36.2057 37.8171C36.1535 37.8767 36.1012 37.9363 36.0471 37.9959C36.0266 38.022 36.0042 38.0462 35.98 38.0704C35.8736 38.1859 35.7673 38.2995 35.6573 38.4094C35.6032 38.4653 35.5472 38.5212 35.4912 38.5752C35.4353 38.6311 35.3793 38.6833 35.3233 38.7373C35.2655 38.7913 35.2077 38.8453 35.1499 38.8956C35.1144 38.9273 35.0808 38.959 35.0454 38.9888C34.954 39.0745 34.8588 39.1546 34.7637 39.2347C34.7152 39.2756 34.6667 39.3148 34.6182 39.3539C34.497 39.4526 34.3738 39.5495 34.2488 39.6426C34.2022 39.6799 34.1537 39.7153 34.1052 39.7488C34.0269 39.8065 33.9485 39.8624 33.8683 39.9183C33.7396 40.0077 33.609 40.0953 33.4784 40.1791C33.4411 40.2052 33.4019 40.2294 33.3628 40.2536C33.0699 40.4362 32.7677 40.6094 32.458 40.7696C32.3927 40.8032 32.3275 40.8367 32.2603 40.8702C32.2528 40.8739 32.2454 40.8777 32.2379 40.8795C32.1708 40.9149 32.1017 40.9466 32.0327 40.9783C31.932 41.0267 31.8312 41.0714 31.7305 41.118C31.7156 41.1236 31.7007 41.131 31.6839 41.1385C31.5831 41.1813 31.4824 41.2223 31.3798 41.2633C31.3071 41.2949 31.2324 41.3229 31.1578 41.3508C31.0701 41.3844 30.9825 41.416 30.8948 41.4477C30.8239 41.4738 30.753 41.498 30.6821 41.5222C30.6784 41.5241 30.6765 41.5241 30.6728 41.5259C30.5851 41.5539 30.4975 41.5837 30.4098 41.6098C30.3613 41.6247 30.3128 41.6396 30.2661 41.6526C30.2009 41.6731 30.1337 41.6917 30.0665 41.7103C29.9826 41.7346 29.8968 41.7569 29.811 41.7793C29.7196 41.8035 29.6282 41.8258 29.5349 41.8482C29.423 41.8743 29.3092 41.8985 29.1973 41.9208C29.1021 41.9413 29.007 41.9581 28.9118 41.9767C28.9081 41.9767 28.9025 41.9786 28.8988 41.9786C28.8167 41.9935 28.7346 42.0065 28.6525 42.0196C28.5761 42.0326 28.4996 42.0438 28.4212 42.055C28.4119 42.055 28.4026 42.055 28.3932 42.0587C28.3186 42.0699 28.244 42.0792 28.1694 42.0866C28.0799 42.0978 27.9884 42.109 27.897 42.1164C27.8056 42.1258 27.7142 42.1351 27.6228 42.1407C27.5687 42.1444 27.5146 42.1481 27.4624 42.1518C27.4083 42.1556 27.3542 42.1593 27.3001 42.1611C27.2497 42.1649 27.1975 42.1667 27.1471 42.1686H27.1303C27.1136 42.1705 27.0986 42.1705 27.0818 42.1705C26.9382 42.1761 26.7946 42.1779 26.6491 42.1779C26.5259 42.1779 26.4028 42.1761 26.2797 42.1723C26.1864 42.1723 26.0913 42.1667 25.998 42.1611C25.916 42.1611 25.8357 42.1537 25.7555 42.1481C25.7294 42.1462 25.7014 42.1444 25.6753 42.1407C25.5018 42.1295 25.3302 42.1127 25.1604 42.0904C25.0802 42.081 25 42.0717 24.9198 42.0606C24.8396 42.0494 24.7612 42.0382 24.681 42.0252C24.599 42.014 24.5169 41.9991 24.4348 41.9842C24.4199 41.9823 24.4031 41.9786 24.3863 41.9767C24.3676 41.973 24.349 41.9693 24.3303 41.9656C24.2538 41.9525 24.1774 41.9376 24.1009 41.9208C24.0057 41.9022 23.9087 41.8817 23.8136 41.8594C23.7054 41.8352 23.5972 41.8091 23.489 41.7811C23.4517 41.77 23.4144 41.7606 23.3752 41.7495C23.3622 41.7457 23.351 41.7439 23.3379 41.7402C23.2577 41.7197 23.1775 41.6973 23.0991 41.6731C23.0954 41.6712 23.0917 41.6712 23.0879 41.6694C23.0693 41.6638 23.0488 41.6582 23.0283 41.6526C22.948 41.6284 22.866 41.6042 22.7857 41.5762C22.7559 41.5688 22.7279 41.5595 22.6999 41.5501C22.6235 41.5241 22.547 41.498 22.4705 41.4719C22.4705 41.4719 22.4692 41.4713 22.4668 41.47C22.3604 41.4328 22.2541 41.3955 22.1496 41.3545C22.0452 41.3154 21.9426 41.2745 21.84 41.2316C21.7486 41.1943 21.659 41.1571 21.5695 41.118C21.5564 41.1124 21.5434 41.1068 21.5322 41.1012C21.4296 41.0565 21.3288 41.0099 21.2281 40.9615C21.1777 40.9373 21.1274 40.9149 21.0789 40.8888C21.0285 40.8646 20.9781 40.8404 20.9296 40.8143C20.924 40.8125 20.9203 40.8106 20.9166 40.8087C20.8214 40.7603 20.7282 40.71 20.6349 40.6597C20.536 40.6076 20.4409 40.5535 20.3439 40.4977C20.3029 40.4753 20.26 40.4492 20.2189 40.425C20.176 40.4008 20.135 40.3747 20.0939 40.3505C20.0212 40.3058 19.9484 40.2611 19.8775 40.2164C19.8104 40.1735 19.7432 40.1307 19.6779 40.086C19.5399 39.9947 19.4037 39.9016 19.2694 39.8047C19.1463 39.7153 19.0232 39.624 18.9038 39.5309C18.7863 39.4414 18.6725 39.3483 18.5587 39.2552C18.5531 39.2496 18.5456 39.244 18.54 39.2384C18.5288 39.2309 18.5176 39.2216 18.5083 39.2123C18.4206 39.1378 18.333 39.0633 18.2471 38.985C18.2136 38.9571 18.1819 38.9273 18.1483 38.8975C18.0401 38.8006 17.9356 38.7 17.8312 38.5994C17.8274 38.5976 17.8237 38.5939 17.8218 38.5901C17.7118 38.4839 17.6054 38.374 17.4972 38.2641C17.4972 38.2623 17.4972 38.2604 17.4935 38.2585C17.389 38.1486 17.2883 38.0387 17.1876 37.9251C17.1764 37.9158 17.1671 37.9046 17.1615 37.8934C17.1465 37.8767 17.1316 37.8599 17.1167 37.8431C17.0309 37.7463 16.9469 37.6475 16.8649 37.547C16.7641 37.424 16.6653 37.2992 16.5701 37.1725H16.5664C16.5496 37.1502 16.5347 37.1278 16.5198 37.1073C16.4899 37.0663 16.4582 37.0254 16.4283 36.9844C16.3985 36.9434 16.3705 36.9024 16.3407 36.8614C16.281 36.7795 16.2231 36.6956 16.1672 36.6118C16.1094 36.528 16.0534 36.4442 15.9993 36.3585C15.9993 36.3566 15.9993 36.3547 15.9956 36.3529C15.9135 36.2244 15.8333 36.094 15.7549 35.9617C15.7475 35.9505 15.7419 35.9393 15.7344 35.9282C15.6691 35.8164 15.6038 35.7009 15.5404 35.5854C15.5348 35.5761 15.5292 35.5649 15.5236 35.5556C15.4788 35.4718 15.4341 35.3861 15.3912 35.3023C15.3464 35.2166 15.3035 35.129 15.2606 35.0433C15.2233 34.9688 15.1878 34.8924 15.1543 34.8161C15.1244 34.7527 15.0964 34.6875 15.0684 34.6223C15.0442 34.5683 15.0199 34.5143 14.9976 34.4584C14.9584 34.3671 14.9211 34.2758 14.8838 34.1827C14.8465 34.0877 14.8091 33.9927 14.7737 33.8958C14.7737 33.8902 14.77 33.8865 14.7681 33.8809C14.7327 33.7859 14.6991 33.6872 14.6674 33.5903C14.6357 33.4972 14.6058 33.404 14.576 33.309C14.548 33.2234 14.5237 33.1358 14.4976 33.0501C14.4939 33.0389 14.4902 33.0259 14.4883 33.0147C14.4622 32.9216 14.4361 32.8284 14.4118 32.7353C14.3894 32.6515 14.3689 32.5676 14.3503 32.482C14.3391 32.441 14.3297 32.4 14.3204 32.359C14.3148 32.3367 14.3111 32.3162 14.3073 32.2938C14.2906 32.2286 14.2775 32.1615 14.2644 32.0963C14.2421 31.9883 14.2215 31.8803 14.201 31.7722C14.1992 31.7573 14.1954 31.7406 14.1936 31.7256C14.1824 31.6642 14.173 31.6046 14.1637 31.5431C14.1544 31.4947 14.1469 31.4462 14.1413 31.3978C14.1283 31.3121 14.1171 31.2245 14.1059 31.1389C14.0798 30.9284 14.0574 30.716 14.0425 30.5018C14.0425 30.4943 14.0406 30.4869 14.0406 30.4794C14.0406 30.4701 14.0406 30.4608 14.0406 30.4496C14.0369 30.3993 14.0331 30.349 14.0294 30.2969C14.0294 30.2838 14.0294 30.2689 14.0294 30.2559V30.2447C14.0294 30.2335 14.0275 30.2242 14.0275 30.213C14.0219 30.0994 14.0182 29.9876 14.0145 29.874C14.0126 29.7678 14.0107 29.6616 14.0107 29.5555C14.0107 29.3375 14.0163 29.1214 14.0275 28.9053C14.0331 28.7973 14.0387 28.6911 14.0481 28.5831C14.063 28.3931 14.0816 28.2031 14.104 28.0149C14.1171 27.9125 14.1301 27.8119 14.1451 27.7131C14.1544 27.6424 14.1656 27.5734 14.1786 27.5045C14.1898 27.43 14.201 27.3555 14.2159 27.281C14.2159 27.281 14.2159 27.2754 14.2159 27.2735C14.2234 27.2288 14.2309 27.186 14.2402 27.1413C14.2477 27.0984 14.257 27.0556 14.2663 27.0109C14.2756 26.9606 14.2868 26.9103 14.298 26.8618C14.3092 26.8115 14.3204 26.7612 14.3316 26.7128C14.3465 26.6439 14.3633 26.575 14.3801 26.506C14.4006 26.4203 14.423 26.3365 14.4454 26.2527C14.4473 26.2452 14.4491 26.2378 14.4528 26.2303C14.4547 26.221 14.4584 26.2098 14.4603 26.2005C14.4808 26.1223 14.5051 26.0459 14.5275 25.9677C14.5293 25.9565 14.5331 25.9453 14.5368 25.9341C14.5554 25.8745 14.5722 25.8149 14.5928 25.7553C14.5946 25.746 14.5984 25.7367 14.6021 25.7274C14.604 25.7218 14.6058 25.7143 14.6077 25.7087C14.6133 25.6864 14.6207 25.6622 14.6301 25.638C14.6562 25.5541 14.6842 25.4722 14.714 25.3902C14.7457 25.2989 14.7793 25.2076 14.8129 25.1164C14.8409 25.0437 14.8688 24.9692 14.8987 24.8966C14.9323 24.8109 14.9677 24.7252 15.0032 24.6414C15.0423 24.5463 15.0834 24.4532 15.1263 24.3601C15.1673 24.2669 15.2121 24.1738 15.255 24.0825C15.2998 23.9894 15.3464 23.8981 15.393 23.8068C15.4583 23.6783 15.5273 23.5497 15.5982 23.4231C15.6449 23.3374 15.6952 23.2517 15.7437 23.1679C15.7549 23.1492 15.7661 23.1306 15.7773 23.112C15.781 23.1064 15.7848 23.1008 15.7885 23.0952C15.8445 23.0002 15.9023 22.9071 15.9601 22.8158C15.99 22.7674 16.0217 22.7189 16.0515 22.6724C16.0851 22.6202 16.1205 22.568 16.156 22.5159C16.1616 22.5103 16.1653 22.5028 16.1691 22.4972C16.2735 22.3426 16.3817 22.1899 16.4918 22.0409C16.5011 22.0278 16.5104 22.0148 16.5216 22.0017C16.5813 21.9216 16.6429 21.8415 16.7063 21.7614C16.7679 21.6813 16.8313 21.6031 16.8966 21.5249C16.96 21.4466 17.0253 21.3702 17.0924 21.2939C17.1577 21.2175 17.2249 21.1411 17.2939 21.0666C17.3555 20.9995 17.417 20.9325 17.4805 20.8654C17.5569 20.7853 17.6334 20.7071 17.7118 20.6288C17.7733 20.5674 17.8367 20.5059 17.9002 20.4444C17.917 20.4277 17.9356 20.4109 17.9524 20.3941C18.0177 20.3327 18.0849 20.2712 18.1501 20.2116C18.2248 20.1426 18.3012 20.0756 18.3777 20.0104C18.4542 19.9433 18.5307 19.8781 18.609 19.8148C18.6874 19.7496 18.7657 19.6863 18.846 19.6248C18.9262 19.5615 19.0064 19.5 19.0866 19.4404C19.1276 19.4106 19.1687 19.3789 19.2097 19.3491C19.2489 19.3193 19.2899 19.2913 19.3328 19.2615C19.3944 19.2168 19.4578 19.1721 19.5212 19.1293C19.5828 19.0864 19.6462 19.0454 19.7096 19.0026C19.8365 18.9188 19.9652 18.8368 20.0958 18.7586C20.1816 18.7064 20.2693 18.6543 20.357 18.604C20.4465 18.5537 20.5342 18.5034 20.6237 18.4549C20.8233 18.3469 21.0248 18.2444 21.23 18.1476C21.2412 18.142 21.2524 18.1364 21.2636 18.1327C21.3251 18.1029 21.3867 18.0749 21.4482 18.047C21.5415 18.0041 21.6348 17.9632 21.7299 17.924C21.8232 17.8831 21.9183 17.8439 22.0153 17.8067C22.1067 17.7713 22.1981 17.7359 22.2895 17.7024C22.3623 17.6744 22.4388 17.6483 22.5134 17.6223C22.5414 17.6129 22.5694 17.6036 22.5992 17.5925C22.6029 17.5925 22.6085 17.5906 22.6123 17.5887C22.616 17.5869 22.6197 17.5869 22.6235 17.585C22.7111 17.5552 22.8007 17.5254 22.8902 17.4993C23.0096 17.4621 23.1271 17.4267 23.2446 17.395C23.3025 17.3782 23.3622 17.3615 23.4219 17.3466C23.4331 17.3428 23.4424 17.341 23.4536 17.3372C23.4872 17.3298 23.5189 17.3223 23.5506 17.313C23.6327 17.2925 23.7129 17.2739 23.795 17.2553C23.8975 17.2311 24.0001 17.2087 24.1027 17.1882C24.2053 17.1659 24.3079 17.1472 24.4124 17.1286C24.5169 17.11 24.6213 17.0932 24.7258 17.0765C24.8172 17.0634 24.9086 17.0504 25.0019 17.0373C25.0243 17.0355 25.0467 17.0317 25.069 17.028C25.1642 17.0168 25.2612 17.0057 25.3582 16.9964C25.4906 16.9814 25.6231 16.9703 25.7574 16.961C25.8376 16.9554 25.9178 16.9498 25.9999 16.9479C26.0932 16.9423 26.1883 16.9386 26.2816 16.9367C26.4047 16.933 26.5278 16.9312 26.6509 16.9312C26.7964 16.9312 26.9401 16.933 27.0837 16.9386C27.1005 16.9386 27.1154 16.9386 27.1322 16.9405H27.149C27.1994 16.9405 27.2516 16.9442 27.302 16.9479C27.3561 16.9516 27.4102 16.9535 27.4643 16.9572C27.5165 16.9591 27.5706 16.9628 27.6247 16.9684C27.7161 16.9759 27.8075 16.9833 27.8989 16.9926C27.9903 17.0001 28.0817 17.0113 28.1713 17.0224C28.2459 17.0299 28.3205 17.0392 28.3951 17.0504C28.4044 17.0522 28.4138 17.0522 28.4231 17.0541C28.5014 17.0653 28.5779 17.0765 28.6544 17.0895C28.7365 17.1025 28.8186 17.1156 28.9006 17.1305C28.9044 17.1305 28.91 17.1323 28.9137 17.1323C29.0107 17.151 29.104 17.1677 29.1991 17.1882C29.3017 17.2087 29.4043 17.2311 29.5069 17.2553C29.5535 17.2665 29.5983 17.2758 29.645 17.2888C29.6561 17.2907 29.6692 17.2925 29.6804 17.2963C29.7979 17.3242 29.9136 17.3559 30.0292 17.3875C30.0703 17.3987 30.1113 17.4099 30.1524 17.4211C30.2214 17.4416 30.2904 17.4621 30.3594 17.4844C30.4508 17.5105 30.5404 17.5403 30.6299 17.5701C30.7194 17.598 30.8071 17.6297 30.8967 17.6614C30.9843 17.693 31.072 17.7247 31.1597 17.7582C31.2977 17.8104 31.4358 17.8663 31.5719 17.924C31.6522 17.9576 31.7324 17.993 31.8107 18.0284C31.835 18.0395 31.8592 18.0507 31.8835 18.06C31.9581 18.0954 32.0327 18.1289 32.1073 18.1643C32.1894 18.2035 32.2715 18.2444 32.3517 18.2854C32.4282 18.3245 32.5047 18.3637 32.5812 18.4046C32.652 18.4419 32.7229 18.481 32.7919 18.5183C32.7975 18.522 32.8031 18.5239 32.8087 18.5276C32.8554 18.5537 32.9001 18.5797 32.9449 18.6058C32.9915 18.6319 33.0382 18.658 33.083 18.6859C33.1408 18.7195 33.1986 18.7548 33.2546 18.7902C33.3292 18.8331 33.4019 18.8797 33.4747 18.9262C33.5568 18.9784 33.6389 19.0324 33.7191 19.0883C33.803 19.1442 33.887 19.2019 33.969 19.2615C34.0492 19.3174 34.1257 19.3733 34.2041 19.4329C34.2115 19.4366 34.219 19.4422 34.2265 19.4497C34.3029 19.5056 34.3794 19.5652 34.4559 19.6248C34.5361 19.6863 34.6145 19.7496 34.6928 19.8148C34.7712 19.8781 34.8477 19.9433 34.9241 20.0104C35.0006 20.0756 35.0771 20.1426 35.1517 20.2116C35.2021 20.2563 35.2525 20.3029 35.301 20.3494C35.3457 20.3904 35.3905 20.4332 35.4334 20.4761C35.4856 20.5264 35.5379 20.5767 35.5901 20.6288C35.6423 20.681 35.6927 20.7332 35.7431 20.7853C35.8363 20.8822 35.9296 20.9809 36.021 21.0815C36.0341 21.0964 36.0471 21.1113 36.0621 21.1262C36.1497 21.2231 36.2374 21.3237 36.3214 21.4243C36.4184 21.5379 36.5135 21.6553 36.6049 21.7726C36.6105 21.7801 36.618 21.7894 36.6235 21.7968C36.6235 21.7968 36.6242 21.7981 36.6254 21.8006C36.6534 21.8341 36.6795 21.8676 36.7038 21.9011C36.7299 21.9347 36.7541 21.9682 36.7802 22.0017C36.8325 22.0688 36.881 22.1377 36.9295 22.2067C37.0992 22.4414 37.2615 22.6817 37.4126 22.9294C37.4742 23.0263 37.532 23.125 37.5898 23.2237C37.6477 23.3225 37.7036 23.4231 37.7596 23.5237C37.8137 23.6243 37.8678 23.7267 37.92 23.8292C37.9629 23.913 38.0058 23.9968 38.045 24.0806C38.0525 24.0974 38.0618 24.116 38.0693 24.1328C38.1737 24.3489 38.2707 24.5668 38.3603 24.7885C38.4013 24.8891 38.4423 24.9916 38.4797 25.094C38.5207 25.2021 38.5617 25.312 38.599 25.4219C38.6308 25.5113 38.6606 25.6007 38.6886 25.692C38.6942 25.7069 38.6979 25.7236 38.7035 25.7386C38.7091 25.7572 38.7166 25.7777 38.7222 25.7963C38.752 25.8932 38.7819 25.99 38.8098 26.0888C38.8416 26.2005 38.8714 26.3142 38.9012 26.4278C38.933 26.5526 38.9628 26.6774 38.9908 26.8022C39.0132 26.9065 39.0337 27.0109 39.0561 27.1152V27.1189C39.0561 27.1282 39.0598 27.1394 39.0617 27.1487C39.0617 27.1506 39.0617 27.1524 39.0635 27.1543C39.0841 27.2586 39.1027 27.3629 39.1195 27.4691C39.1568 27.702 39.1904 27.9367 39.2165 28.1733C39.2296 28.285 39.2389 28.3949 39.2482 28.5067C39.2501 28.5123 39.2501 28.5179 39.2501 28.5235C39.2501 28.544 39.2538 28.5626 39.2538 28.5831C39.2538 28.6073 39.2575 28.6315 39.2594 28.6557C39.2743 28.8383 39.2818 29.0227 39.2874 29.2071C39.2893 29.3226 39.2911 29.44 39.2911 29.5555H39.2818Z" fill="#121212"/>
</g>
</g>
<defs>
<clipPath id="clip0_134_20681">
<rect width="60" height="101.727" fill="white" transform="translate(0.522461 0.557129)"/>
</clipPath>
<clipPath id="clip1_134_20681">
<rect width="59.8245" height="100.823" fill="white" transform="translate(0.629883 0.557129)"/>
</clipPath>
</defs>
</svg>
