<svg width="219" height="59" viewBox="0 0 219 59" fill="none" xmlns="http://www.w3.org/2000/svg">
<g clip-path="url(#clip0_524_4418)">
<path d="M13.0645 2.55219V8.09237C7.98731 8.36432 3.93739 12.5866 3.93739 17.7398C3.93739 19.8108 4.59206 21.7354 5.7064 23.3113L0.00585938 27.5196L0.0197886 2.55219H13.0645Z" fill="#FFC63C"/>
<path d="M31.2459 2.55219V13.8522H22.4183C21.2586 11.2163 18.9534 9.19762 16.1396 8.42359V2.55219H31.2459Z" fill="#F40044"/>
<path d="M31.2466 16.9309V29.7022H16.1299V27.0629C20.2216 25.9437 23.2373 22.1886 23.2373 17.7432C23.2373 17.4713 23.2268 17.1993 23.2025 16.9343H31.2466V16.9309Z" fill="#0C53C4"/>
<path d="M31.2463 32.7844H16.14V44.4365C16.14 48.6518 15.844 49.2062 16.1992 50.9774C16.5266 52.6161 17.829 52.8078 18.4384 51.4306C18.9015 50.3777 18.4279 49.4607 18.4941 48.3276C18.5637 47.1317 19.1279 46.4239 19.6467 46.4518C20.8655 46.5145 20.1517 48.8645 20.7645 50.2033C21.1859 51.1203 22.2445 51.2912 22.6903 50.2591C23.1012 49.3038 22.8992 48.3973 23.5991 46.7412C24.2329 45.2419 24.7204 43.8578 25.4796 42.5677C26.2387 41.2777 31.2463 32.7879 31.2463 32.7879V32.7844Z" fill="#FFC63C"/>
<path d="M31.246 38.865C31.246 38.865 31.246 41.0964 31.246 43.5579C31.246 44.8445 31.2529 46.1694 31.246 47.1421C31.2321 48.7704 31.0475 49.3805 30.5983 50.1022C30.0829 50.9355 29.2228 50.7682 29.0765 49.9593C28.9302 49.1504 28.9686 47.836 28.0423 48.5646C27.7219 48.8157 27.5338 49.0702 27.4224 49.8303C27.3005 50.6671 27.4503 51.9431 26.4508 52.0896C25.7474 52.1907 25.6081 50.9704 25.7126 49.8407C25.8171 48.7111 25.8519 48.3415 26.4717 47.1561C28.0597 44.1262 31.2425 38.8615 31.2425 38.8615L31.246 38.865Z" fill="#0C53C4"/>
<path d="M12.9712 53.9898C12.5115 55.6773 10.2654 55.8691 9.80575 54.2094C9.15108 51.842 9.98683 51.4237 9.47145 47.6198C9.26599 46.1031 7.29152 45.2385 6.39309 47.2153C5.62698 48.9029 6.55327 52.0582 4.76685 51.7793C3.34607 51.5561 4.34549 49.0702 3.46795 48.4043C2.94908 48.0103 2.38495 48.5681 2.27352 49.1225C2.16556 49.6769 2.04717 50.3777 2.14119 51.1134C2.25262 51.9955 2.27003 54.2199 0.922379 53.9584C0.173682 53.812 -0.0805262 52.5707 0.0169785 51.6991C0.166718 50.3881 0.0169785 49.8547 0.0169785 42.3062V31.334L7.87307 25.5253C9.3426 26.6096 11.1255 27.286 13.0617 27.3906C13.0617 27.6974 13.0617 29.1479 13.0617 30.0753V45.4999C13.0617 51.8037 13.3612 52.5603 12.9677 53.9933L12.9712 53.9898Z" fill="#F40044"/>
<path d="M20.1899 17.7397V17.806C20.1899 17.8269 20.1899 17.8478 20.1899 17.8722C20.1899 17.9176 20.1899 17.9594 20.1864 18.0047C20.1864 18.0466 20.1829 18.0919 20.1794 18.1337C20.1794 18.1616 20.1794 18.186 20.176 18.2139L20.169 18.2802C20.169 18.2802 20.169 18.2941 20.169 18.3011C20.169 18.3325 20.162 18.3638 20.1585 18.3917C20.1551 18.4301 20.1516 18.4719 20.1446 18.5103C20.1446 18.5242 20.1411 18.5417 20.1377 18.5556C20.1377 18.587 20.1307 18.6184 20.1272 18.6497C20.1237 18.6916 20.1168 18.7334 20.1098 18.7753C20.1028 18.8171 20.0959 18.8589 20.0889 18.9008C20.0819 18.9391 20.075 18.9775 20.068 19.0158C20.068 19.0228 20.068 19.0298 20.0645 19.0333C20.0645 19.0402 20.0645 19.0472 20.061 19.0542C20.061 19.0542 20.061 19.0577 20.061 19.0612C20.0541 19.0891 20.0471 19.1169 20.0436 19.1448C20.0332 19.1867 20.0262 19.2285 20.0158 19.2704C19.9949 19.354 19.9775 19.4342 19.9531 19.5144C19.9426 19.5493 19.9357 19.5807 19.9252 19.6155C19.9078 19.6713 19.8904 19.7306 19.873 19.7864C19.8625 19.8178 19.8521 19.8456 19.8417 19.877C19.8173 19.9537 19.7894 20.0269 19.7616 20.1002C19.7441 20.1455 19.7267 20.1908 19.7093 20.2361C19.7093 20.2396 19.7058 20.2466 19.7024 20.2501C19.7024 20.2571 19.6989 20.2605 19.6954 20.2675C19.6675 20.3303 19.6432 20.393 19.6153 20.4523C19.5979 20.4907 19.5805 20.529 19.5631 20.5674C19.5457 20.6057 19.5282 20.6406 19.5074 20.6789C19.4865 20.7173 19.469 20.7522 19.4516 20.7905C19.4133 20.8637 19.375 20.9369 19.3332 21.0067C19.3123 21.0415 19.2914 21.0764 19.2706 21.1148C19.2497 21.1496 19.2322 21.1845 19.2079 21.2159C19.1835 21.2542 19.1626 21.2891 19.1382 21.3274C19.093 21.3937 19.0477 21.4634 19.0024 21.5262C18.978 21.561 18.9571 21.5924 18.9328 21.6273C18.9084 21.6622 18.884 21.6935 18.8596 21.7249C18.8353 21.7598 18.8109 21.7912 18.783 21.8225C18.7587 21.8539 18.7308 21.8853 18.7064 21.9167C18.696 21.9306 18.682 21.9481 18.6681 21.962C18.6403 21.9969 18.6124 22.0282 18.5845 22.0631C18.5567 22.0945 18.5288 22.1259 18.501 22.1573C18.4905 22.1712 18.4801 22.1851 18.4661 22.1956C18.4104 22.2549 18.3547 22.3141 18.299 22.3734C18.2711 22.4013 18.2398 22.4327 18.2119 22.4606C18.1841 22.4885 18.1527 22.5164 18.1249 22.5443C18.0935 22.5722 18.0657 22.6 18.0343 22.6279C18.0169 22.6454 17.9995 22.6628 17.9786 22.6768C17.9299 22.7221 17.8811 22.7639 17.8324 22.8058C17.808 22.8267 17.7801 22.8476 17.7558 22.8685C17.6931 22.9208 17.6269 22.9696 17.5642 23.0184C17.5398 23.0394 17.5155 23.0568 17.4876 23.0742C17.4458 23.1056 17.404 23.1335 17.3622 23.1614C17.2961 23.2067 17.2264 23.2555 17.1603 23.2974C17.1394 23.3113 17.122 23.3253 17.1011 23.3357C16.9479 23.4299 16.7912 23.5205 16.6275 23.6077C16.5927 23.6251 16.5578 23.6425 16.523 23.66C16.5195 23.66 16.516 23.6635 16.5126 23.6635C16.4777 23.6809 16.4429 23.6983 16.4046 23.7158C16.3524 23.7402 16.3001 23.7646 16.2479 23.789C16.2409 23.789 16.234 23.7959 16.2235 23.7994C16.1713 23.8204 16.1191 23.8448 16.0633 23.8657C16.025 23.8831 15.9867 23.8971 15.9484 23.911C15.9032 23.9284 15.8579 23.9459 15.8126 23.9633C15.7743 23.9773 15.7395 23.9912 15.7012 24.0017C15.7012 24.0017 15.7012 24.0017 15.6977 24.0017C15.6524 24.0156 15.6072 24.033 15.5619 24.047C15.5375 24.054 15.5097 24.0609 15.4853 24.0679C15.4505 24.0784 15.4156 24.0888 15.3808 24.0993C15.3355 24.1132 15.2938 24.1237 15.2485 24.1341C15.1997 24.1481 15.1545 24.1586 15.1057 24.169C15.0465 24.183 14.9873 24.1969 14.9281 24.2074C14.8794 24.2178 14.8271 24.2283 14.7784 24.2353C14.7784 24.2353 14.7749 24.2353 14.7714 24.2353C14.7296 24.2422 14.6844 24.2492 14.6426 24.2562C14.6043 24.2631 14.5625 24.2701 14.5207 24.2736C14.5172 24.2736 14.5102 24.2736 14.5068 24.2736C14.4684 24.2806 14.4301 24.2841 14.3884 24.2876C14.3431 24.2945 14.2943 24.298 14.2456 24.3015C14.1968 24.305 14.1516 24.312 14.1028 24.3154C14.0749 24.3154 14.0471 24.3189 14.0192 24.3224C13.9914 24.3224 13.9635 24.3259 13.9357 24.3259C13.9078 24.3259 13.8834 24.3259 13.8556 24.3294H13.8451C13.8451 24.3294 13.8277 24.3294 13.8207 24.3294C13.7441 24.3294 13.671 24.3329 13.5944 24.3329C13.5317 24.3329 13.4655 24.3329 13.4029 24.3329C13.3541 24.3329 13.3054 24.3329 13.2566 24.3259C13.2148 24.3259 13.173 24.3224 13.1312 24.3189C13.1173 24.3189 13.1034 24.3189 13.0895 24.3154C12.9989 24.3085 12.9084 24.3015 12.8213 24.2876C12.7795 24.2841 12.7377 24.2771 12.696 24.2736C12.6542 24.2666 12.6124 24.2631 12.5706 24.2562C12.5288 24.2492 12.4835 24.2422 12.4417 24.2353C12.4348 24.2353 12.4243 24.2353 12.4174 24.2318C12.4069 24.2318 12.3965 24.2283 12.3895 24.2248C12.3512 24.2178 12.3094 24.2109 12.2711 24.2004C12.2224 24.1899 12.1701 24.1795 12.1214 24.169C12.0657 24.1551 12.0099 24.1411 11.9507 24.1272C11.9298 24.1202 11.9124 24.1167 11.8915 24.1097C11.8846 24.1097 11.8776 24.1097 11.8706 24.1063C11.8289 24.0958 11.7871 24.0853 11.7453 24.0714C11.7453 24.0714 11.7418 24.0714 11.7383 24.0714C11.7279 24.0714 11.7174 24.0644 11.707 24.0609C11.6652 24.047 11.6234 24.0365 11.5816 24.0226C11.5677 24.0191 11.5503 24.0121 11.5363 24.0086C11.498 23.9947 11.4563 23.9807 11.4179 23.9668C11.3622 23.9459 11.3065 23.9284 11.2508 23.9075C11.1951 23.8866 11.1428 23.8657 11.0906 23.8448C11.0419 23.8238 10.9966 23.8064 10.9478 23.7855C10.9409 23.7855 10.9339 23.7785 10.9269 23.775C10.8747 23.7506 10.8225 23.7262 10.7668 23.7018C10.7389 23.6879 10.7145 23.6774 10.6901 23.6635C10.6623 23.6495 10.6379 23.6391 10.6135 23.6251C10.6135 23.6251 10.61 23.6251 10.6066 23.6251C10.5578 23.6007 10.5091 23.5728 10.4603 23.5484C10.4081 23.5205 10.3593 23.4926 10.3071 23.4647C10.2862 23.4543 10.2618 23.4403 10.2409 23.4264C10.22 23.4124 10.1957 23.3985 10.1748 23.388C10.1365 23.3636 10.0982 23.3427 10.0633 23.3183C10.0285 23.2974 9.99368 23.273 9.95886 23.2486C9.88573 23.1997 9.81608 23.1509 9.74644 23.1021C9.68376 23.0568 9.61759 23.008 9.55491 22.9592C9.49223 22.9138 9.43303 22.865 9.37383 22.8162C9.37383 22.8162 9.36686 22.8092 9.36338 22.8058C9.35642 22.8023 9.35294 22.7953 9.34597 22.7918C9.3007 22.7535 9.25543 22.7151 9.21016 22.6733C9.19275 22.6593 9.17534 22.6419 9.15793 22.6279C9.10221 22.5756 9.04649 22.5233 8.99078 22.471C8.99078 22.471 8.98729 22.471 8.98729 22.4676C8.92809 22.4118 8.87586 22.356 8.81666 22.2967C8.76094 22.2374 8.70871 22.1817 8.65647 22.1224C8.64951 22.1189 8.64603 22.1119 8.64254 22.105C8.63558 22.0945 8.62862 22.0875 8.61817 22.0771C8.5729 22.0248 8.53111 21.9759 8.48584 21.9237C8.43361 21.8609 8.38137 21.7946 8.33262 21.7284C8.33262 21.7284 8.31521 21.704 8.30824 21.6935C8.29431 21.6726 8.2769 21.6517 8.25949 21.6308C8.24556 21.6099 8.22815 21.5889 8.21422 21.568C8.18288 21.5262 8.15154 21.4809 8.12368 21.439C8.09234 21.3937 8.06448 21.3519 8.03662 21.3065C7.99484 21.2403 7.95305 21.1705 7.91126 21.1008C7.90778 21.0938 7.9043 21.0904 7.90081 21.0834C7.86599 21.0241 7.83117 20.9648 7.79983 20.9056C7.79983 20.9021 7.79286 20.8951 7.78938 20.8916C7.765 20.8463 7.74411 20.8045 7.71973 20.7591C7.69536 20.7138 7.67446 20.6685 7.65009 20.6232C7.62919 20.5848 7.61178 20.543 7.59437 20.5046C7.58044 20.4697 7.56303 20.4384 7.5491 20.4035C7.53517 20.3756 7.52472 20.3477 7.51079 20.3163C7.4899 20.2675 7.47249 20.2222 7.45159 20.1734C7.4307 20.1246 7.41329 20.0723 7.3924 20.0235C7.3924 20.0235 7.3924 20.02 7.3924 20.0165C7.37498 19.9677 7.35757 19.9154 7.34016 19.8631C7.32275 19.8143 7.30882 19.7655 7.29141 19.7166C7.27748 19.6713 7.26355 19.626 7.24962 19.5807C7.24962 19.5737 7.24614 19.5667 7.24614 19.5632C7.23221 19.5144 7.21828 19.4656 7.20783 19.4168C7.19739 19.3715 7.18694 19.3296 7.17649 19.2843C7.16953 19.2634 7.16605 19.2425 7.16256 19.2215C7.16256 19.2111 7.15908 19.2006 7.1556 19.1867C7.14515 19.1518 7.14167 19.1169 7.1347 19.0821C7.12426 19.0263 7.11381 18.9705 7.09988 18.9112C7.09988 18.9043 7.09988 18.8938 7.0964 18.8868C7.08943 18.8555 7.08595 18.8241 7.08247 18.7927C7.07899 18.7683 7.07202 18.7404 7.07202 18.716C7.06506 18.6707 7.05809 18.6253 7.05461 18.58C7.04068 18.4684 7.03024 18.3569 7.01979 18.2453C7.01979 18.2418 7.01979 18.2383 7.01979 18.2348C7.01979 18.2314 7.01979 18.2244 7.01979 18.2209C7.01979 18.193 7.01631 18.1686 7.01282 18.1407C7.01282 18.1337 7.01282 18.1268 7.01282 18.1198V18.1128C7.01282 18.1128 7.01282 18.1024 7.01282 18.0954C7.01282 18.0361 7.00934 17.9768 7.00586 17.9176C7.00586 17.8618 7.00586 17.806 7.00586 17.7502C7.00586 17.6351 7.00586 17.5236 7.01631 17.4085C7.01631 17.3527 7.02327 17.297 7.02675 17.2412C7.03372 17.1401 7.04416 17.0424 7.05461 16.9448C7.06158 16.8925 7.06854 16.8402 7.07551 16.7879C7.07899 16.7496 7.08595 16.7147 7.09292 16.6798C7.09988 16.6415 7.10336 16.6031 7.11381 16.5613C7.11381 16.5613 7.11381 16.5613 7.11381 16.5578C7.11729 16.5334 7.12078 16.5125 7.12774 16.4881C7.13122 16.4671 7.13819 16.4427 7.14167 16.4183C7.14515 16.3904 7.15212 16.366 7.15908 16.3416C7.16605 16.3137 7.16953 16.2893 7.17649 16.2649C7.18346 16.2301 7.1939 16.1917 7.20087 16.1568C7.21132 16.1115 7.22176 16.0697 7.23569 16.0243C7.23569 16.0209 7.23569 16.0174 7.23917 16.0139C7.23917 16.0104 7.23917 16.0034 7.24266 15.9999C7.2531 15.9581 7.26703 15.9198 7.27748 15.8779C7.27748 15.8709 7.27748 15.8675 7.28096 15.8605C7.29141 15.8291 7.29837 15.7977 7.30882 15.7663C7.30882 15.7629 7.30882 15.7559 7.3123 15.7524C7.3123 15.7524 7.3123 15.7454 7.3123 15.7419C7.3123 15.7315 7.31927 15.7175 7.32275 15.7036C7.33668 15.6583 7.35061 15.6164 7.36802 15.5746C7.38543 15.5258 7.40284 15.4804 7.42025 15.4316C7.43418 15.3933 7.44811 15.3549 7.46552 15.3166C7.48294 15.2712 7.50035 15.2259 7.52124 15.1841C7.54213 15.1353 7.56303 15.0865 7.58392 15.0376C7.60482 14.9888 7.62919 14.94 7.65009 14.8912C7.67446 14.8424 7.69884 14.7936 7.72322 14.7483C7.75804 14.682 7.79286 14.6123 7.83117 14.546C7.85554 14.5007 7.8834 14.4554 7.90778 14.4135C7.91474 14.4031 7.91822 14.3926 7.92519 14.3857C7.92519 14.3857 7.92867 14.3787 7.93215 14.3752C7.96001 14.3264 7.99135 14.2776 8.02269 14.2288C8.03662 14.2044 8.05403 14.1765 8.07145 14.1521C8.08886 14.1242 8.10627 14.0963 8.12716 14.0684C8.12716 14.0684 8.13065 14.0614 8.13413 14.0579C8.18984 13.9777 8.24556 13.8975 8.30128 13.8173C8.30476 13.8104 8.31173 13.8034 8.31521 13.7964C8.34655 13.7546 8.37789 13.7127 8.41271 13.6709C8.44405 13.6291 8.47888 13.5872 8.5137 13.5454C8.54852 13.5035 8.57986 13.4652 8.61469 13.4234C8.64951 13.385 8.68433 13.3432 8.71916 13.3048C8.7505 13.2699 8.78184 13.2351 8.81666 13.2002C8.85497 13.1584 8.89675 13.1165 8.93854 13.0747C8.96988 13.0433 9.00471 13.0119 9.03605 12.9771C9.04649 12.9666 9.05346 12.9596 9.0639 12.9492C9.09873 12.9178 9.13355 12.8864 9.16837 12.855C9.20668 12.8202 9.24847 12.7853 9.28677 12.7504C9.32508 12.7156 9.36687 12.6807 9.40865 12.6493C9.45044 12.6145 9.49223 12.5831 9.53402 12.5482C9.5758 12.5134 9.61759 12.482 9.65938 12.4506C9.68027 12.4367 9.70117 12.4192 9.72206 12.4018C9.74295 12.3878 9.76385 12.3704 9.78474 12.3565C9.81608 12.3321 9.85091 12.3111 9.88225 12.2867C9.91359 12.2658 9.94841 12.2414 9.97975 12.2205C10.0459 12.1752 10.1121 12.1333 10.1817 12.0915C10.227 12.0636 10.2723 12.0357 10.3175 12.0113C10.3628 11.9834 10.4116 11.959 10.4568 11.9346C10.5613 11.8788 10.6658 11.823 10.7737 11.7742C10.7807 11.7742 10.7842 11.7672 10.7911 11.7672C10.8225 11.7533 10.8538 11.7358 10.8886 11.7219C10.9374 11.701 10.9861 11.6766 11.0349 11.6591C11.0836 11.6382 11.1324 11.6173 11.1846 11.5964C11.2334 11.579 11.2787 11.558 11.3274 11.5406C11.3657 11.5267 11.404 11.5127 11.4458 11.4988C11.4597 11.4953 11.4737 11.4883 11.4911 11.4848C11.4911 11.4848 11.4946 11.4848 11.498 11.4848C11.5015 11.4848 11.5015 11.4848 11.505 11.4848C11.5503 11.4709 11.599 11.4534 11.6443 11.4395C11.707 11.4186 11.7697 11.4011 11.8289 11.3837C11.8602 11.3732 11.8915 11.3663 11.9229 11.3593C11.9298 11.3593 11.9333 11.3593 11.9403 11.3558C11.9577 11.3523 11.9751 11.3488 11.9925 11.3419C12.0343 11.3314 12.0761 11.3209 12.1214 11.3105C12.1736 11.2965 12.2293 11.2861 12.2816 11.2756C12.3338 11.2652 12.3895 11.2547 12.4417 11.2442C12.4975 11.2338 12.5497 11.2268 12.6054 11.2163C12.6542 11.2094 12.6994 11.2024 12.7482 11.1954C12.7586 11.1954 12.7726 11.1954 12.783 11.1919C12.8318 11.185 12.884 11.1815 12.9328 11.1745C13.0024 11.1675 13.072 11.1606 13.1417 11.1571C13.1835 11.1571 13.2253 11.1501 13.2671 11.1501C13.3158 11.1501 13.3646 11.1466 13.4133 11.1431C13.476 11.1431 13.5422 11.1431 13.6048 11.1431C13.6814 11.1431 13.7546 11.1431 13.8312 11.1466C13.8416 11.1466 13.8486 11.1466 13.8556 11.1466H13.866C13.8939 11.1466 13.9182 11.1466 13.9461 11.1501C13.974 11.1501 14.0018 11.1501 14.0297 11.1536C14.0575 11.1536 14.0854 11.1536 14.1133 11.1606C14.162 11.164 14.2073 11.1675 14.256 11.1745C14.3048 11.178 14.35 11.185 14.3988 11.1885C14.4371 11.1919 14.4754 11.1989 14.5172 11.2024C14.5207 11.2024 14.5276 11.2024 14.5311 11.2024C14.5729 11.2094 14.6112 11.2129 14.653 11.2198C14.6948 11.2268 14.7401 11.2338 14.7819 11.2408C14.7819 11.2408 14.7853 11.2408 14.7888 11.2408C14.8411 11.2512 14.8898 11.2582 14.9386 11.2686C14.9908 11.2791 15.0465 11.2896 15.0987 11.3035C15.1231 11.3105 15.1475 11.314 15.1719 11.3209C15.1788 11.3209 15.1858 11.3209 15.1893 11.3244C15.252 11.3384 15.3112 11.3558 15.3704 11.3732C15.3913 11.3802 15.4122 11.3837 15.433 11.3907C15.4679 11.4011 15.5062 11.4116 15.541 11.4255C15.5898 11.4395 15.635 11.4534 15.6838 11.4709C15.729 11.4848 15.7778 11.5022 15.8231 11.5197C15.8683 11.5371 15.9136 11.5545 15.9589 11.572C16.032 11.5999 16.1017 11.6278 16.1748 11.6591C16.2166 11.6766 16.2584 11.694 16.3001 11.7149C16.3141 11.7219 16.3245 11.7254 16.3384 11.7324C16.3768 11.7498 16.4151 11.7672 16.4568 11.7881C16.4986 11.8091 16.5439 11.83 16.5857 11.8509C16.624 11.8718 16.6658 11.8927 16.7041 11.9137C16.7424 11.9346 16.7772 11.952 16.8155 11.9729C16.8155 11.9729 16.8225 11.9729 16.826 11.9764C16.8503 11.9904 16.8747 12.0043 16.8956 12.0183C16.92 12.0322 16.9444 12.0462 16.9687 12.0601C17.0001 12.0775 17.0279 12.095 17.0593 12.1159C17.0976 12.1368 17.1359 12.1612 17.1742 12.1856C17.216 12.2135 17.2613 12.2414 17.303 12.2693C17.3483 12.2972 17.3901 12.3286 17.4319 12.3599C17.4737 12.3878 17.5155 12.4192 17.5538 12.4506C17.5573 12.4506 17.5607 12.4541 17.5642 12.4611C17.6025 12.489 17.6443 12.5203 17.6826 12.5517C17.7244 12.5831 17.7662 12.618 17.808 12.6528C17.8498 12.6877 17.8881 12.7191 17.9299 12.7539C17.9682 12.7888 18.01 12.8237 18.0483 12.8585C18.0761 12.8829 18.1005 12.9073 18.1249 12.9317C18.1493 12.9527 18.1701 12.9771 18.1945 12.998C18.2224 13.0259 18.2502 13.0503 18.2781 13.0782C18.306 13.1061 18.3303 13.134 18.3582 13.1619C18.4069 13.2142 18.4557 13.263 18.5044 13.3153C18.5114 13.3222 18.5184 13.3292 18.5253 13.3397C18.5706 13.392 18.6159 13.4443 18.6612 13.4966C18.7134 13.5558 18.7621 13.6186 18.8109 13.6779C18.8109 13.6814 18.8179 13.6883 18.8213 13.6918C18.8353 13.7093 18.8492 13.7267 18.8631 13.7441C18.8771 13.7616 18.891 13.779 18.9014 13.7964C18.9293 13.8313 18.9537 13.8662 18.978 13.9045C19.0651 14.0265 19.1522 14.1521 19.2288 14.2845C19.2601 14.3368 19.2914 14.3857 19.3228 14.438C19.3541 14.4902 19.382 14.5425 19.4098 14.5948C19.4377 14.6471 19.4656 14.7029 19.4934 14.7552C19.5143 14.8006 19.5387 14.8424 19.5596 14.8877C19.5631 14.8982 19.57 14.9052 19.5735 14.9156C19.6292 15.0272 19.678 15.1422 19.7267 15.2573C19.7476 15.3096 19.7685 15.3619 19.7894 15.4177C19.8103 15.4735 19.8312 15.5327 19.8521 15.5885C19.8695 15.6338 19.8834 15.6827 19.8974 15.7315C19.8974 15.7384 19.9009 15.7489 19.9043 15.7559C19.9043 15.7663 19.9113 15.7768 19.9148 15.7873C19.9287 15.8396 19.9461 15.8884 19.9601 15.9407C19.9775 15.9999 19.9914 16.0592 20.0088 16.1185C20.0262 16.1847 20.0401 16.2475 20.0541 16.3137C20.0645 16.3695 20.075 16.4218 20.0889 16.4776C20.0889 16.4776 20.0889 16.4916 20.0889 16.495C20.0993 16.5508 20.1098 16.6031 20.1168 16.6589C20.1377 16.7809 20.1551 16.903 20.169 17.0285C20.176 17.0878 20.1794 17.1435 20.1864 17.2028C20.1864 17.2028 20.1864 17.2098 20.1864 17.2133C20.1864 17.2237 20.1864 17.2342 20.1864 17.2447C20.1864 17.2586 20.1864 17.2691 20.1864 17.283C20.1934 17.3771 20.1968 17.4748 20.2003 17.5724C20.2003 17.6317 20.2003 17.6944 20.2003 17.7537L20.1899 17.7397Z" fill="#121212"/>
<path d="M65.3938 20.3233C65.1744 23.3532 64.0566 25.738 62.0438 27.4778C60.0275 29.2176 57.374 30.0892 54.0763 30.0892C50.4721 30.0892 47.634 28.8759 45.569 26.4423C43.504 24.0086 42.4697 20.6755 42.4697 16.4358V14.7134C42.4697 12.0078 42.9468 9.61949 43.8975 7.55892C44.8481 5.49835 46.2132 3.91195 47.9822 2.81019C49.7512 1.70843 51.8093 1.15755 54.1529 1.15755C57.3984 1.15755 60.0101 2.02919 61.995 3.769C63.9765 5.50881 65.1256 7.9529 65.4321 11.0978H59.6375C59.4947 9.28129 58.9898 7.96336 58.1227 7.14401C57.2521 6.32467 55.9323 5.91674 54.1529 5.91674C52.2202 5.91674 50.775 6.61057 49.8174 7.99474C48.8598 9.37892 48.3653 11.5301 48.3409 14.4449V16.5717C48.3409 19.6155 48.8006 21.84 49.7234 23.2416C50.6427 24.6467 52.0948 25.3475 54.0797 25.3475C55.8697 25.3475 57.2069 24.9395 58.0879 24.1202C58.9689 23.3009 59.4738 22.0352 59.6027 20.3198H65.3973L65.3938 20.3233Z" fill="black"/>
<path d="M79.6084 19.3959H74.9909V29.7022H69.1963V1.54805H79.6467C82.9688 1.54805 85.5318 2.29069 87.3356 3.77249C89.1395 5.25429 90.0379 7.34973 90.0379 10.0588C90.0379 11.9799 89.6235 13.5803 88.7912 14.8633C87.9625 16.1464 86.7019 17.168 85.0164 17.928L91.1 29.4338V29.7057H84.8806L79.6084 19.3994V19.3959ZM74.9909 14.696H79.6641C81.1197 14.696 82.2445 14.3264 83.0454 13.5837C83.8429 12.8446 84.2433 11.8195 84.2433 10.519C84.2433 9.21854 83.8673 8.14816 83.1151 7.38808C82.3629 6.62801 81.2068 6.24797 79.6467 6.24797H74.9909V14.6995V14.696Z" fill="black"/>
<path d="M111.364 17.5027H100.238V25.0442H113.293V29.7057H94.4434V1.54805H113.255V6.24797H100.238V12.9596H111.364V17.5062V17.5027Z" fill="black"/>
<path d="M117.931 10.1913L115.306 8.66416C116.413 6.92436 116.988 5.12528 117.026 3.27042V0H121.469V2.99846C121.469 4.1595 121.149 5.41467 120.505 6.77095C119.861 8.12374 119.004 9.26386 117.935 10.1948L117.931 10.1913Z" fill="black"/>
<path d="M142.691 17.5027H131.565V25.0442H144.62V29.7057H125.771V1.54805H144.582V6.24797H131.565V12.9596H142.691V17.5062V17.5027Z" fill="black"/>
<path d="M162.606 22.3176C162.606 21.2228 162.219 20.3826 161.446 19.7933C160.673 19.2076 159.284 18.587 157.275 17.9385C155.265 17.2865 153.674 16.645 152.504 16.0139C149.31 14.2845 147.716 11.959 147.716 9.03374C147.716 7.51359 148.144 6.15731 149.001 4.9649C149.857 3.77249 151.086 2.84157 152.688 2.16866C154.29 1.49923 156.091 1.16452 158.086 1.16452C160.081 1.16452 161.885 1.53061 163.456 2.25582C165.026 2.98452 166.245 4.01306 167.116 5.34145C167.986 6.66984 168.418 8.17953 168.418 9.86704H162.623C162.623 8.577 162.216 7.57635 161.408 6.8616C160.597 6.14685 159.458 5.78773 157.988 5.78773C156.519 5.78773 155.471 6.08758 154.687 6.68727C153.9 7.28696 153.51 8.07493 153.51 9.05466C153.51 9.96815 153.97 10.7352 154.893 11.3558C155.815 11.9764 157.17 12.5552 158.96 13.0956C162.254 14.0893 164.657 15.3201 166.165 16.7879C167.673 18.2558 168.425 20.0897 168.425 22.2793C168.425 24.7164 167.506 26.6271 165.663 28.0147C163.821 29.3989 161.342 30.0927 158.229 30.0927C156.066 30.0927 154.095 29.6953 152.319 28.9038C150.543 28.1123 149.185 27.0245 148.255 25.6438C147.322 24.2632 146.855 22.6663 146.855 20.8498H152.667C152.667 23.9563 154.524 25.5113 158.229 25.5113C159.608 25.5113 160.68 25.2324 161.453 24.6711C162.226 24.1097 162.613 23.3253 162.613 22.3211L162.606 22.3176Z" fill="black"/>
<path d="M178.133 19.7829V29.7022H172.339V1.54805H183.308C185.418 1.54805 187.278 1.93506 188.88 2.70908C190.482 3.4831 191.714 4.58138 192.578 6.00739C193.442 7.43341 193.873 9.05467 193.873 10.8712C193.873 13.6291 192.93 15.8047 191.042 17.3981C189.155 18.9914 186.547 19.7864 183.211 19.7864H178.13L178.133 19.7829ZM178.133 15.083H183.308C184.84 15.083 186.01 14.7204 186.815 13.9986C187.619 13.2769 188.023 12.2449 188.023 10.9026C188.023 9.56022 187.616 8.40965 186.804 7.55544C185.993 6.70471 184.872 6.2654 183.444 6.24099H178.133V15.0795V15.083Z" fill="black"/>
<path d="M210.293 23.9005H200.135L198.202 29.7022H192.042L202.51 1.54456H207.88L218.407 29.7022H212.246L210.296 23.9005H210.293ZM201.698 19.2006H208.729L205.195 8.66068L201.698 19.2006Z" fill="black"/>
<path d="M50.9774 52.0233H45.6425L44.4446 55.36H42.7139L47.5752 42.6096H49.0447L53.9165 55.36H52.1927L50.9774 52.0233ZM46.1509 50.6496H50.4794L48.3099 44.6876L46.1509 50.6496Z" fill="black"/>
<path d="M60.8883 52.8462C60.8883 52.4069 60.7246 52.0687 60.3938 51.8246C60.063 51.584 59.4884 51.3748 58.6701 51.197C57.8517 51.0227 57.2005 50.81 56.72 50.566C56.2394 50.3219 55.8842 50.029 55.6544 49.6908C55.4245 49.3526 55.3096 48.9482 55.3096 48.481C55.3096 47.7035 55.637 47.048 56.2951 46.5111C56.9498 45.9741 57.789 45.7057 58.8094 45.7057C59.8819 45.7057 60.7525 45.9811 61.4211 46.539C62.0897 47.0968 62.424 47.8046 62.424 48.6658H60.7977C60.7977 48.223 60.6097 47.8394 60.2336 47.5187C59.8575 47.1979 59.3839 47.0375 58.8128 47.0375C58.2417 47.0375 57.7647 47.1665 57.4304 47.4245C57.0995 47.6826 56.9324 48.0173 56.9324 48.4322C56.9324 48.8227 57.0856 49.119 57.3955 49.3178C57.7055 49.5165 58.2626 49.7048 59.0705 49.8861C59.8784 50.0674 60.5331 50.2835 61.0345 50.5346C61.536 50.7856 61.9086 51.0889 62.1489 51.4411C62.3892 51.7932 62.511 52.2256 62.511 52.7346C62.511 53.5819 62.1733 54.2617 61.4977 54.7708C60.8221 55.2833 59.9446 55.5378 58.8651 55.5378C58.1059 55.5378 57.4373 55.4053 56.8523 55.1334C56.2707 54.8649 55.8111 54.4884 55.4837 54.0072C55.1529 53.5261 54.9893 53.0031 54.9893 52.4452H56.6085C56.6364 52.9891 56.8558 53.418 57.2597 53.7388C57.6637 54.056 58.1999 54.2164 58.8651 54.2164C59.478 54.2164 59.969 54.0909 60.3381 53.8433C60.7072 53.5958 60.8918 53.2646 60.8918 52.8497L60.8883 52.8462Z" fill="black"/>
<path d="M70.1227 52.8462C70.1227 52.4069 69.959 52.0687 69.6282 51.8246C69.2974 51.584 68.7228 51.3748 67.9044 51.197C67.0861 51.0227 66.4349 50.81 65.9543 50.566C65.4738 50.3219 65.1186 50.029 64.8888 49.6908C64.6589 49.3526 64.544 48.9482 64.544 48.481C64.544 47.7035 64.8713 47.048 65.5295 46.5111C66.1842 45.9741 67.0234 45.7057 68.0437 45.7057C69.1163 45.7057 69.9869 45.9811 70.6555 46.539C71.3241 47.0968 71.6584 47.8046 71.6584 48.6658H70.0321C70.0321 48.223 69.8441 47.8394 69.468 47.5187C69.0919 47.1979 68.6183 47.0375 68.0472 47.0375C67.4761 47.0375 66.999 47.1665 66.6647 47.4245C66.3339 47.6826 66.1668 48.0173 66.1668 48.4322C66.1668 48.8227 66.32 49.119 66.6299 49.3178C66.9398 49.5165 67.497 49.7048 68.3049 49.8861C69.1128 50.0674 69.7675 50.2835 70.2689 50.5346C70.7704 50.7856 71.143 51.0889 71.3833 51.4411C71.6235 51.7932 71.7454 52.2256 71.7454 52.7346C71.7454 53.5819 71.4076 54.2617 70.7321 54.7708C70.0565 55.2833 69.179 55.5378 68.0994 55.5378C67.3403 55.5378 66.6717 55.4053 66.0867 55.1334C65.5051 54.8649 65.0455 54.4884 64.7181 54.0072C64.3873 53.5261 64.2236 53.0031 64.2236 52.4452H65.8429C65.8708 52.9891 66.0902 53.418 66.4941 53.7388C66.898 54.056 67.4343 54.2164 68.0994 54.2164C68.7123 54.2164 69.2033 54.0909 69.5725 53.8433C69.9416 53.5958 70.1262 53.2646 70.1262 52.8497L70.1227 52.8462Z" fill="black"/>
<path d="M73.4209 50.5346C73.4209 49.6071 73.602 48.7704 73.9676 48.0312C74.3333 47.2886 74.8382 46.7168 75.4894 46.3158C76.1406 45.9114 76.8823 45.7126 77.7146 45.7126C79.003 45.7126 80.0443 46.1589 80.8417 47.0515C81.6391 47.944 82.0361 49.133 82.0361 50.6148V50.7298C82.0361 51.6538 81.8585 52.4801 81.5068 53.2123C81.1551 53.9445 80.6502 54.5163 79.9955 54.9242C79.3408 55.3321 78.5852 55.5378 77.7355 55.5378C76.454 55.5378 75.4128 55.0915 74.6188 54.199C73.8214 53.3064 73.4244 52.1245 73.4244 50.6531V50.5381L73.4209 50.5346ZM75.0471 50.7263C75.0471 51.7758 75.2909 52.6196 75.7784 53.2576C76.2659 53.8956 76.9171 54.2129 77.732 54.2129C78.5469 54.2129 79.2085 53.8922 79.6925 53.2437C80.1766 52.5986 80.4169 51.6956 80.4169 50.5346C80.4169 49.4956 80.1696 48.6518 79.6786 48.0068C79.1841 47.3618 78.5329 47.0375 77.7146 47.0375C76.8962 47.0375 76.2729 47.3548 75.7819 47.9929C75.2909 48.6309 75.0471 49.5409 75.0471 50.7263Z" fill="black"/>
<path d="M87.8616 54.2129C88.4397 54.2129 88.9446 54.0386 89.3764 53.6865C89.8082 53.3378 90.045 52.8985 90.0938 52.372H91.626C91.5981 52.9159 91.4101 53.4319 91.0653 53.9235C90.7206 54.4151 90.2609 54.8056 89.6863 55.0985C89.1118 55.3914 88.5024 55.5378 87.8616 55.5378C86.5732 55.5378 85.5494 55.109 84.7867 54.2478C84.0241 53.3866 83.6445 52.2081 83.6445 50.7159V50.4439C83.6445 49.52 83.8152 48.7006 84.153 47.9824C84.4907 47.2642 84.9783 46.7063 85.6086 46.3088C86.2423 45.9114 86.9875 45.7126 87.8512 45.7126C88.9133 45.7126 89.7943 46.0299 90.4977 46.668C91.2011 47.306 91.5737 48.1288 91.6225 49.1469H90.0903C90.045 48.5333 89.8117 48.0312 89.3938 47.6372C88.9759 47.2432 88.464 47.0445 87.8512 47.0445C87.0293 47.0445 86.3921 47.3409 85.9394 47.9336C85.4867 48.5263 85.2603 49.384 85.2603 50.5032V50.81C85.2603 51.9013 85.4832 52.7416 85.9324 53.3308C86.3816 53.9201 87.0224 54.2164 87.8581 54.2164L87.8616 54.2129Z" fill="black"/>
<path d="M93.4512 43.3696C93.4512 43.1081 93.5313 42.885 93.6915 42.7037C93.8516 42.5224 94.0884 42.4317 94.4053 42.4317C94.7222 42.4317 94.959 42.5224 95.1227 42.7037C95.2864 42.885 95.3664 43.1081 95.3664 43.3696C95.3664 43.6311 95.2864 43.8508 95.1227 44.0251C94.959 44.1994 94.7187 44.2866 94.4053 44.2866C94.0919 44.2866 93.8516 44.1994 93.6915 44.0251C93.5313 43.8508 93.4512 43.6311 93.4512 43.3696ZM95.1993 55.3565H93.58V45.88H95.1993V55.3565Z" fill="black"/>
<path d="M103.633 55.36C103.539 55.1717 103.463 54.8405 103.407 54.3628C102.655 55.1438 101.757 55.5378 100.712 55.5378C99.7786 55.5378 99.0125 55.2728 98.417 54.7464C97.818 54.2164 97.5186 53.547 97.5186 52.7381C97.5186 51.7514 97.8946 50.9843 98.6433 50.4404C99.392 49.8965 100.447 49.6211 101.805 49.6211H103.379V48.8785C103.379 48.3136 103.209 47.8604 102.871 47.5257C102.533 47.1909 102.035 47.0236 101.377 47.0236C100.799 47.0236 100.315 47.17 99.9248 47.4629C99.5348 47.7558 99.3398 48.1079 99.3398 48.5228H97.7136C97.7136 48.0486 97.8807 47.5919 98.215 47.1526C98.5493 46.7133 99.0055 46.3646 99.5801 46.1066C100.155 45.8486 100.785 45.7196 101.474 45.7196C102.564 45.7196 103.418 45.9916 104.037 46.5389C104.654 47.0863 104.978 47.836 104.999 48.7948V53.1565C104.999 54.0281 105.11 54.7185 105.329 55.231V55.3705H103.633V55.36ZM100.949 54.1258C101.457 54.1258 101.938 53.9933 102.39 53.7318C102.846 53.4703 103.174 53.1286 103.379 52.7067V50.7612H102.112C100.13 50.7612 99.1378 51.3435 99.1378 52.5045C99.1378 53.0135 99.3085 53.411 99.6462 53.6969C99.984 53.9828 100.419 54.1258 100.949 54.1258Z" fill="black"/>
<path d="M109.728 43.5893V45.8835H111.493V47.1352H109.728V53.0205C109.728 53.4005 109.808 53.6864 109.965 53.8747C110.121 54.063 110.389 54.1606 110.769 54.1606C110.957 54.1606 111.211 54.1258 111.539 54.056V55.3635C111.114 55.4785 110.699 55.5378 110.295 55.5378C109.571 55.5378 109.028 55.3182 108.659 54.8823C108.29 54.443 108.109 53.8224 108.109 53.017V47.1421H106.385V45.8904H108.109V43.5963H109.728V43.5893Z" fill="black"/>
<path d="M113.395 43.3696C113.395 43.1081 113.475 42.885 113.635 42.7037C113.795 42.5224 114.032 42.4317 114.349 42.4317C114.666 42.4317 114.902 42.5224 115.066 42.7037C115.23 42.885 115.31 43.1081 115.31 43.3696C115.31 43.6311 115.23 43.8508 115.066 44.0251C114.902 44.1994 114.662 44.2866 114.349 44.2866C114.035 44.2866 113.795 44.1994 113.635 44.0251C113.475 43.8508 113.395 43.6311 113.395 43.3696ZM115.143 55.3565H113.523V45.88H115.143V55.3565Z" fill="black"/>
<path d="M117.305 50.5346C117.305 49.6071 117.486 48.7704 117.851 48.0312C118.217 47.2886 118.722 46.7168 119.373 46.3158C120.024 45.9114 120.766 45.7126 121.598 45.7126C122.887 45.7126 123.928 46.1589 124.725 47.0515C125.523 47.944 125.92 49.133 125.92 50.6148V50.7298C125.92 51.6538 125.742 52.4801 125.391 53.2123C125.039 53.9445 124.534 54.5163 123.879 54.9242C123.225 55.3321 122.469 55.5378 121.619 55.5378C120.338 55.5378 119.297 55.0915 118.503 54.199C117.705 53.3064 117.308 52.1245 117.308 50.6531V50.5381L117.305 50.5346ZM118.931 50.7263C118.931 51.7758 119.175 52.6196 119.662 53.2576C120.15 53.8956 120.801 54.2129 121.616 54.2129C122.431 54.2129 123.092 53.8922 123.576 53.2437C124.06 52.5986 124.301 51.6956 124.301 50.5346C124.301 49.4956 124.053 48.6518 123.562 48.0068C123.068 47.3618 122.417 47.0375 121.598 47.0375C120.78 47.0375 120.157 47.3548 119.666 47.9929C119.175 48.6309 118.931 49.5409 118.931 50.7263Z" fill="black"/>
<path d="M129.479 45.8835L129.532 47.0759C130.256 46.1659 131.2 45.7091 132.366 45.7091C134.365 45.7091 135.375 46.8388 135.392 49.0981V55.36H133.773V49.0911C133.766 48.4078 133.613 47.9022 133.307 47.5745C133 47.2467 132.523 47.0828 131.875 47.0828C131.349 47.0828 130.89 47.2223 130.493 47.5047C130.096 47.7871 129.786 48.1532 129.567 48.61V55.3635H127.947V45.887H129.479V45.8835Z" fill="black"/>
<path d="M149.552 52.0233H144.217L143.019 55.36H141.288L146.149 42.6096H147.619L152.491 55.36H150.767L149.552 52.0233ZM144.725 50.6496H149.054L146.884 44.6876L144.725 50.6496Z" fill="black"/>
<path d="M158.525 47.3374C158.281 47.2955 158.017 47.2746 157.728 47.2746C156.665 47.2746 155.945 47.7279 155.568 48.6309V55.3565H153.949V45.88H155.523L155.551 46.9748C156.08 46.1275 156.833 45.7057 157.808 45.7057C158.121 45.7057 158.361 45.7475 158.525 45.8277V47.3339V47.3374Z" fill="black"/>
<path d="M162.645 43.5893V45.8835H164.41V47.1352H162.645V53.0205C162.645 53.4005 162.725 53.6864 162.882 53.8747C163.038 54.063 163.306 54.1606 163.686 54.1606C163.874 54.1606 164.128 54.1258 164.456 54.056V55.3635C164.031 55.4785 163.616 55.5378 163.212 55.5378C162.488 55.5378 161.945 55.3182 161.576 54.8823C161.207 54.443 161.026 53.8224 161.026 53.017V47.1421H159.302V45.8904H161.026V43.5963H162.645V43.5893Z" fill="black"/>
<path d="M166.308 43.3696C166.308 43.1081 166.388 42.885 166.548 42.7037C166.708 42.5224 166.945 42.4317 167.262 42.4317C167.579 42.4317 167.815 42.5224 167.979 42.7037C168.143 42.885 168.223 43.1081 168.223 43.3696C168.223 43.6311 168.143 43.8508 167.979 44.0251C167.815 44.1994 167.575 44.2866 167.262 44.2866C166.948 44.2866 166.708 44.1994 166.548 44.0251C166.388 43.8508 166.308 43.6311 166.308 43.3696ZM168.056 55.3565H166.436V45.88H168.056V55.3565Z" fill="black"/>
<path d="M176.16 52.8462C176.16 52.4069 175.996 52.0687 175.665 51.8246C175.334 51.584 174.76 51.3748 173.942 51.197C173.123 51.0227 172.472 50.81 171.991 50.566C171.511 50.3219 171.156 50.029 170.926 49.6908C170.696 49.3526 170.581 48.9482 170.581 48.481C170.581 47.7035 170.908 47.048 171.567 46.5111C172.221 45.9741 173.061 45.7057 174.081 45.7057C175.153 45.7057 176.024 45.9811 176.693 46.539C177.361 47.0968 177.695 47.8046 177.695 48.6658H176.069C176.069 48.223 175.881 47.8394 175.505 47.5187C175.129 47.1979 174.655 47.0375 174.084 47.0375C173.513 47.0375 173.036 47.1665 172.702 47.4245C172.371 47.6826 172.204 48.0173 172.204 48.4322C172.204 48.8227 172.357 49.119 172.667 49.3178C172.977 49.5165 173.534 49.7048 174.342 49.8861C175.15 50.0674 175.805 50.2835 176.306 50.5346C176.807 50.7856 177.18 51.0889 177.42 51.4411C177.661 51.7932 177.783 52.2256 177.783 52.7346C177.783 53.5819 177.445 54.2617 176.769 54.7708C176.094 55.2833 175.216 55.5378 174.137 55.5378C173.377 55.5378 172.709 55.4053 172.124 55.1334C171.542 54.8649 171.083 54.4884 170.755 54.0072C170.424 53.5261 170.261 53.0031 170.261 52.4452H171.88C171.908 52.9891 172.127 53.418 172.531 53.7388C172.935 54.056 173.471 54.2164 174.137 54.2164C174.749 54.2164 175.24 54.0909 175.61 53.8433C175.979 53.5958 176.163 53.2646 176.163 52.8497L176.16 52.8462Z" fill="black"/>
<path d="M182.079 43.5893V45.8835H183.845V47.1352H182.079V53.0205C182.079 53.4005 182.159 53.6864 182.316 53.8747C182.473 54.063 182.741 54.1606 183.121 54.1606C183.309 54.1606 183.563 54.1258 183.89 54.056V55.3635C183.465 55.4785 183.051 55.5378 182.647 55.5378C181.923 55.5378 181.379 55.3182 181.01 54.8823C180.641 54.443 180.46 53.8224 180.46 53.017V47.1421H178.736V45.8904H180.46V43.5963H182.079V43.5893Z" fill="black"/>
<path d="M185.743 43.3696C185.743 43.1081 185.823 42.885 185.983 42.7037C186.144 42.5224 186.38 42.4317 186.697 42.4317C187.014 42.4317 187.251 42.5224 187.415 42.7037C187.578 42.885 187.658 43.1081 187.658 43.3696C187.658 43.6311 187.578 43.8508 187.415 44.0251C187.251 44.1994 187.011 44.2866 186.697 44.2866C186.384 44.2866 186.144 44.1994 185.983 44.0251C185.823 43.8508 185.743 43.6311 185.743 43.3696ZM187.491 55.3565H185.872V45.88H187.491V55.3565Z" fill="black"/>
<path d="M189.688 50.5415C189.688 49.0528 190.029 47.8743 190.712 47.0096C191.394 46.1415 192.31 45.7091 193.459 45.7091C194.609 45.7091 195.462 46.0857 196.109 46.8388L196.179 45.8835H197.666V59H196.047V54.4814C195.392 55.1822 194.525 55.5308 193.438 55.5308C192.296 55.5308 191.384 55.0846 190.705 54.1955C190.026 53.3064 189.685 52.1245 189.685 50.6531V50.5381L189.688 50.5415ZM191.307 50.7263C191.307 51.8141 191.537 52.6649 191.993 53.282C192.45 53.9026 193.066 54.2094 193.842 54.2094C194.804 54.2094 195.538 53.7841 196.047 52.9299V48.2892C195.535 47.4559 194.804 47.0375 193.86 47.0375C193.08 47.0375 192.456 47.3478 191.997 47.9684C191.537 48.5891 191.307 49.5095 191.307 50.7228V50.7263Z" fill="black"/>
<path d="M206.108 54.4221C205.477 55.1648 204.555 55.5343 203.336 55.5343C202.326 55.5343 201.56 55.2415 201.03 54.6557C200.501 54.07 200.236 53.2018 200.229 52.0512V45.887H201.849V52.0094C201.849 53.4459 202.43 54.1641 203.597 54.1641C204.833 54.1641 205.655 53.7039 206.062 52.7799V45.887H207.682V55.3635H206.142L206.108 54.4256V54.4221Z" fill="black"/>
<path d="M214.065 55.5343C212.783 55.5343 211.738 55.1125 210.934 54.2687C210.13 53.4249 209.726 52.2953 209.726 50.8832V50.5869C209.726 49.6455 209.903 48.8087 210.262 48.0696C210.621 47.3304 211.122 46.7516 211.766 46.3367C212.41 45.9183 213.11 45.7091 213.863 45.7091C215.092 45.7091 216.049 46.1136 216.732 46.926C217.415 47.7383 217.756 48.8994 217.756 50.4125V51.0855H211.345C211.369 52.0199 211.641 52.773 212.163 53.3482C212.686 53.9235 213.347 54.2094 214.152 54.2094C214.723 54.2094 215.207 54.0944 215.604 53.8608C216.001 53.6272 216.345 53.3169 216.645 52.9333L217.634 53.7039C216.84 54.9242 215.652 55.5343 214.065 55.5343ZM213.863 47.041C213.208 47.041 212.661 47.2781 212.219 47.7558C211.777 48.2334 211.502 48.8994 211.397 49.7571H216.137V49.635C216.091 48.8122 215.868 48.1741 215.471 47.7209C215.074 47.2676 214.538 47.041 213.863 47.041Z" fill="black"/>
</g>
<defs>
<clipPath id="clip0_524_4418">
<rect width="218.404" height="59" fill="white"/>
</clipPath>
</defs>
</svg>
