<svg width="34" height="34" viewBox="0 0 34 34" fill="none" xmlns="http://www.w3.org/2000/svg">
<mask id="mask0_240_513" style="mask-type:alpha" maskUnits="userSpaceOnUse" x="0" y="0" width="34" height="34">
<rect x="0.34375" width="33.2681" height="34" fill="#D9D9D9"/>
</mask>
<g mask="url(#mask0_240_513)">
<path d="M16.978 17.0002C17.7404 17.0002 18.3933 16.7225 18.9367 16.1672C19.4791 15.6128 19.7504 14.946 19.7504 14.1668C19.7504 13.3877 19.4791 12.7204 18.9367 12.1651C18.3933 11.6107 17.7404 11.3335 16.978 11.3335C16.2156 11.3335 15.5632 11.6107 15.0208 12.1651C14.4774 12.7204 14.2057 13.3877 14.2057 14.1668C14.2057 14.946 14.4774 15.6128 15.0208 16.1672C15.5632 16.7225 16.2156 17.0002 16.978 17.0002ZM16.978 31.1668C13.2585 27.9321 10.4806 24.9274 8.64438 22.1526C6.80724 19.3787 5.88867 16.8113 5.88867 14.4502C5.88867 10.9085 7.00361 8.08697 9.2335 5.98558C11.4625 3.88419 14.044 2.8335 16.978 2.8335C19.9121 2.8335 22.4936 3.88419 24.7225 5.98558C26.9524 8.08697 28.0674 10.9085 28.0674 14.4502C28.0674 16.8113 27.1493 19.3787 25.3131 22.1526C23.4759 24.9274 20.6976 27.9321 16.978 31.1668Z" fill="#121212"/>
</g>
</svg>
