<?xml version="1.0" encoding="utf-8"?>
<!-- Generator: Adobe Illustrator 17.0.1, SVG Export Plug-In . SVG Version: 6.00 Build 0)  -->
<!DOCTYPE svg PUBLIC "-//W3C//DTD SVG 1.1//EN" "http://www.w3.org/Graphics/SVG/1.1/DTD/svg11.dtd">
<svg version="1.1" id="Calque_1" xmlns="http://www.w3.org/2000/svg" xmlns:xlink="http://www.w3.org/1999/xlink" x="0px" y="0px"
	 width="486px" height="237px" viewBox="0 0 486 237" enable-background="new 0 0 486 237" xml:space="preserve">
<g>
	<path fill="#FFFFFF" d="M23.915,26.955C33.804,10.338,48.84,2.029,69.018,2.029c9.89,0,19.037,2.624,27.448,7.863
		c8.406,5.244,14.985,12.611,19.732,22.106c6.723-12.463,17.21-21.364,31.454-26.706c5.735-2.174,12.212-3.264,19.436-3.264
		c7.219,0,14.141,1.438,20.771,4.303c6.625,2.87,12.509,6.973,17.655,12.314c11.077,11.869,16.617,26.705,16.617,44.51v89.612
		h-22.255v-89.02c0-12.263-3.463-22.352-10.386-30.267c-6.927-7.516-15.727-11.275-26.409-11.275
		c-11.275,0-20.674,3.663-28.189,10.979c-7.914,7.521-11.869,17.805-11.869,30.86v88.723h-22.255v-89.02
		c0-12.263-3.463-22.352-10.385-30.267c-6.927-7.516-15.727-11.275-26.409-11.275c-11.276,0-20.674,3.663-28.189,10.979
		c-7.915,7.521-11.869,17.805-11.869,30.86v88.723H1.66V4.403h22.255V26.955z"/>
	<path fill="#FFFFFF" d="M254.771,26.955c9.889-16.617,24.925-24.926,45.103-24.926c9.89,0,19.037,2.624,27.448,7.863
		c8.406,5.244,14.985,12.611,19.732,22.106c6.723-12.463,17.21-21.364,31.454-26.706c5.735-2.174,12.212-3.264,19.436-3.264
		c7.219,0,14.141,1.438,20.771,4.303c6.625,2.87,12.509,6.973,17.655,12.314c11.077,11.869,16.617,26.705,16.617,44.51v89.612
		h-22.255v-89.02c0-12.263-3.463-22.352-10.386-30.267c-6.927-7.516-15.727-11.275-26.409-11.275
		c-11.275,0-20.674,3.663-28.189,10.979c-7.914,7.521-11.869,17.805-11.869,30.86v88.723h-22.255v-89.02
		c0-12.263-3.463-22.352-10.385-30.267c-6.927-7.516-15.727-11.275-26.409-11.275c-11.276,0-20.674,3.663-28.189,10.979
		c-7.915,7.521-11.869,17.805-11.869,30.86v88.723h-22.255V4.403h22.255V26.955z"/>
	<path fill="#FFFFFF" d="M463.372,4.403h22.255v148.365h-22.255V4.403z"/>
</g>
<g>
	<rect x="3.013" y="217.388" fill="none" width="506.218" height="36.158"/>
	<path fill="#FFFFFF" d="M13.379,232.344h0.069l5.404-13.747H21.7v16.92h-2.289v-12.679l-0.07-0.012l-5.125,12.69h-1.592
		l-5.276-13.108l-0.069,0.012v13.097h-2.29v-16.92h3.01L13.379,232.344z"/>
	<path fill="#FFFFFF" d="M34.806,227.673h-6.949v6.054h8.135v1.79H25.567v-16.92h10.296v1.801h-8.007v5.474h6.949V227.673z
		 M31.889,213.866h2.673l0.023,0.07l-3.126,3.021h-1.72L31.889,213.866z"/>
	<path fill="#FFFFFF" d="M50.434,220.397h-5.578v15.119h-2.289v-15.119h-5.508v-1.801h13.375V220.397z"/>
	<path fill="#FFFFFF" d="M55.278,235.517h-2.301v-16.92h2.301V235.517z"/>
	<path fill="#FFFFFF" d="M68.617,227.673h-6.949v6.054h8.135v1.79H59.378v-16.92h10.296v1.801h-8.007v5.474h6.949V227.673z"/>
	<path fill="#FFFFFF" d="M74.704,228.184v7.333h-2.29v-16.908h5.787c1.852,0,3.266,0.41,4.242,1.231
		c0.977,0.821,1.464,2.015,1.464,3.579c0,0.868-0.227,1.623-0.68,2.267c-0.453,0.643-1.114,1.154-1.981,1.533
		c0.93,0.303,1.598,0.793,2.005,1.471c0.406,0.678,0.61,1.517,0.61,2.516v1.592c0,0.527,0.058,1,0.174,1.418
		c0.116,0.419,0.317,0.76,0.604,1.022v0.279h-2.359c-0.302-0.264-0.496-0.65-0.581-1.162s-0.128-1.038-0.128-1.58v-1.546
		c0-0.914-0.267-1.65-0.802-2.208s-1.251-0.837-2.15-0.837H74.704z M74.704,226.383h3.265c1.294,0,2.226-0.246,2.795-0.738
		s0.854-1.241,0.854-2.249c0-0.953-0.277-1.69-0.831-2.214c-0.554-0.522-1.416-0.784-2.586-0.784h-3.498V226.383z"/>
	<path fill="#FFFFFF" d="M96.479,231.252c0-0.768-0.275-1.41-0.825-1.93c-0.55-0.519-1.519-0.96-2.905-1.324
		c-1.72-0.427-3.062-1.054-4.027-1.883c-0.964-0.829-1.447-1.871-1.447-3.126c0-1.325,0.519-2.429,1.557-3.313
		c1.038-0.883,2.386-1.324,4.044-1.324c1.782,0,3.202,0.505,4.259,1.517c1.057,1.011,1.57,2.19,1.54,3.538l-0.035,0.07h-2.185
		c0-0.961-0.335-1.755-1.005-2.383c-0.67-0.627-1.528-0.941-2.574-0.941c-1.069,0-1.889,0.26-2.458,0.779
		c-0.569,0.519-0.854,1.192-0.854,2.021c0,0.736,0.312,1.351,0.936,1.842c0.624,0.492,1.636,0.924,3.039,1.296
		c1.705,0.441,3.002,1.093,3.893,1.952c0.891,0.86,1.336,1.922,1.336,3.185c0,1.363-0.536,2.46-1.609,3.289
		s-2.474,1.243-4.201,1.243c-1.635,0-3.078-0.457-4.329-1.371c-1.251-0.914-1.857-2.139-1.819-3.673l0.023-0.069h2.185
		c0,1.062,0.403,1.881,1.208,2.458s1.716,0.865,2.731,0.865c1.085,0,1.943-0.244,2.574-0.731
		C96.164,232.751,96.479,232.089,96.479,231.252z"/>
	<path fill="#FFFFFF" d="M107.736,235.517v-16.92h5.322c2.208,0,3.984,0.68,5.329,2.039c1.344,1.359,2.016,3.116,2.016,5.271v2.313
		c0,2.161-0.672,3.918-2.016,5.27c-1.344,1.353-3.121,2.028-5.329,2.028H107.736z M110.025,220.397v13.329h3.033
		c1.565,0,2.799-0.515,3.702-1.545c0.902-1.03,1.354-2.352,1.354-3.963v-2.336c0-1.596-0.451-2.909-1.354-3.939
		c-0.903-1.03-2.137-1.546-3.702-1.546H110.025z"/>
	<path fill="#FFFFFF" d="M136.24,218.597v11.237c0,1.859-0.604,3.312-1.813,4.357c-1.208,1.046-2.766,1.569-4.671,1.569
		c-1.836,0-3.339-0.524-4.509-1.575c-1.17-1.049-1.754-2.5-1.754-4.352v-11.237h2.289v11.237c0,1.294,0.37,2.307,1.11,3.039
		c0.74,0.731,1.695,1.098,2.865,1.098c1.239,0,2.249-0.366,3.027-1.098c0.778-0.732,1.168-1.745,1.168-3.039v-11.237H136.24z"/>
	<path fill="#FFFFFF" d="M153.981,232.344h0.069l5.404-13.747h2.847v16.92h-2.289v-12.679l-0.07-0.012l-5.125,12.69h-1.592
		l-5.276-13.108l-0.069,0.012v13.097h-2.29v-16.92h3.01L153.981,232.344z"/>
	<path fill="#FFFFFF" d="M178.65,218.597v11.237c0,1.859-0.604,3.312-1.813,4.357c-1.208,1.046-2.766,1.569-4.671,1.569
		c-1.836,0-3.339-0.524-4.509-1.575c-1.17-1.049-1.754-2.5-1.754-4.352v-11.237h2.289v11.237c0,1.294,0.37,2.307,1.11,3.039
		c0.74,0.731,1.695,1.098,2.865,1.098c1.239,0,2.249-0.366,3.027-1.098c0.778-0.732,1.168-1.745,1.168-3.039v-11.237H178.65z"/>
	<path fill="#FFFFFF" d="M184.471,233.727h8.251v1.79h-10.541v-16.92h2.29V233.727z"/>
	<path fill="#FFFFFF" d="M203.806,220.397h-5.578v15.119h-2.289v-15.119h-5.508v-1.801h13.375V220.397z"/>
	<path fill="#FFFFFF" d="M208.649,235.517h-2.301v-16.92h2.301V235.517z"/>
	<path fill="#FFFFFF" d="M221.14,232.344h0.069l5.404-13.747h2.847v16.92h-2.289v-12.679l-0.07-0.012l-5.125,12.69h-1.592
		l-5.276-13.108l-0.069,0.012v13.097h-2.29v-16.92h3.01L221.14,232.344z"/>
	<path fill="#FFFFFF" d="M242.567,227.673h-6.949v6.054h8.135v1.79h-10.424v-16.92h10.296v1.801h-8.007v5.474h6.949V227.673z
		 M239.65,213.866h2.673l0.023,0.07l-3.126,3.021h-1.72L239.65,213.866z"/>
	<path fill="#FFFFFF" d="M246.365,235.517v-16.92h5.322c2.208,0,3.984,0.68,5.329,2.039c1.344,1.359,2.016,3.116,2.016,5.271v2.313
		c0,2.161-0.672,3.918-2.016,5.27c-1.344,1.353-3.121,2.028-5.329,2.028H246.365z M248.655,220.397v13.329h3.033
		c1.565,0,2.799-0.515,3.702-1.545c0.902-1.03,1.354-2.352,1.354-3.963v-2.336c0-1.596-0.451-2.909-1.354-3.939
		c-0.903-1.03-2.137-1.546-3.702-1.546H248.655z"/>
	<path fill="#FFFFFF" d="M264.922,235.517h-2.301v-16.92h2.301V235.517z"/>
	<path fill="#FFFFFF" d="M277.97,231.159h-6.369l-1.511,4.357h-2.336l6.101-16.92h1.964l5.973,16.92h-2.336L277.97,231.159z
		 M272.264,229.241h5.055l-2.464-7.264h-0.07L272.264,229.241z"/>
	<path fill="#FFFFFF" d="M299.244,227.673h-6.949v6.054h8.135v1.79h-10.424v-16.92h10.296v1.801h-8.007v5.474h6.949V227.673z"/>
	<path fill="#FFFFFF" d="M314.872,220.397h-5.578v15.119h-2.289v-15.119h-5.508v-1.801h13.375V220.397z"/>
	<path fill="#FFFFFF" d="M323.002,235.517v-16.92h5.322c2.208,0,3.984,0.68,5.329,2.039c1.344,1.359,2.016,3.116,2.016,5.271v2.313
		c0,2.161-0.672,3.918-2.016,5.27c-1.344,1.353-3.121,2.028-5.329,2.028H323.002z M325.292,220.397v13.329h3.033
		c1.565,0,2.799-0.515,3.702-1.545c0.902-1.03,1.354-2.352,1.354-3.963v-2.336c0-1.596-0.451-2.909-1.354-3.939
		c-0.903-1.03-2.137-1.546-3.702-1.546H325.292z"/>
	<path fill="#FFFFFF" d="M348.264,227.673h-6.949v6.054h8.135v1.79h-10.424v-16.92h10.296v1.801h-8.007v5.474h6.949V227.673z"/>
	<path fill="#FFFFFF" d="M360.171,233.727h8.251v1.79h-10.541v-16.92h2.29V233.727z"/>
	<path fill="#FFFFFF" d="M371.453,220.839l-1.173,4.021h-1.127l0.012-3.986v-2.277h2.289V220.839z"/>
	<path fill="#FFFFFF" d="M377.703,235.517h-2.301v-16.92h2.301V235.517z"/>
	<path fill="#FFFFFF" d="M394.598,235.517h-2.29l-8.146-12.923l-0.069,0.023v12.899h-2.29v-16.92h2.29l8.146,12.91l0.07-0.022
		v-12.888h2.29V235.517z"/>
	<path fill="#FFFFFF" d="M409.959,220.397h-5.578v15.119h-2.289v-15.119h-5.508v-1.801h13.375V220.397z"/>
	<path fill="#FFFFFF" d="M421.508,227.673h-6.949v6.054h8.135v1.79H412.27v-16.92h10.296v1.801h-8.007v5.474h6.949V227.673z"/>
	<path fill="#FFFFFF" d="M427.596,228.184v7.333h-2.29v-16.908h5.787c1.852,0,3.266,0.41,4.242,1.231
		c0.977,0.821,1.464,2.015,1.464,3.579c0,0.868-0.227,1.623-0.68,2.267c-0.453,0.643-1.114,1.154-1.981,1.533
		c0.93,0.303,1.598,0.793,2.005,1.471c0.406,0.678,0.61,1.517,0.61,2.516v1.592c0,0.527,0.058,1,0.174,1.418
		c0.116,0.419,0.317,0.76,0.604,1.022v0.279h-2.359c-0.302-0.264-0.496-0.65-0.581-1.162s-0.128-1.038-0.128-1.58v-1.546
		c0-0.914-0.267-1.65-0.802-2.208s-1.251-0.837-2.15-0.837H427.596z M427.596,226.383h3.265c1.294,0,2.226-0.246,2.795-0.738
		s0.854-1.241,0.854-2.249c0-0.953-0.277-1.69-0.831-2.214c-0.554-0.522-1.416-0.784-2.586-0.784h-3.498V226.383z"/>
	<path fill="#FFFFFF" d="M453.148,235.517h-2.29l-8.146-12.923l-0.069,0.023v12.899h-2.29v-16.92h2.29l8.146,12.91l0.07-0.022
		v-12.888h2.29V235.517z"/>
	<path fill="#FFFFFF" d="M466.254,227.673h-6.949v6.054h8.135v1.79h-10.424v-16.92h10.296v1.801h-8.007v5.474h6.949V227.673z"/>
	<path fill="#FFFFFF" d="M481.882,220.397h-5.578v15.119h-2.289v-15.119h-5.508v-1.801h13.375V220.397z"/>
</g>
<g>
	<rect y="173.821" fill="none" width="483.721" height="37.055"/>
	<path fill="#FFFFFF" d="M25.912,197.268l0.043,0.129c0.057,2.929-0.972,5.379-3.086,7.351c-2.115,1.972-4.908,2.958-8.38,2.958
		c-3.529,0-6.405-1.25-8.626-3.751c-2.222-2.5-3.333-5.672-3.333-9.516v-5.551c0-3.844,1.11-7.02,3.333-9.527
		c2.222-2.508,5.097-3.762,8.626-3.762s6.337,0.94,8.423,2.819c2.086,1.879,3.1,4.369,3.043,7.469l-0.043,0.128h-4.051
		c0-2.186-0.643-3.915-1.929-5.187c-1.286-1.272-3.101-1.908-5.444-1.908c-2.357,0-4.236,0.95-5.637,2.851s-2.1,4.258-2.1,7.073
		v5.594c0,2.844,0.7,5.216,2.1,7.116c1.4,1.9,3.279,2.851,5.637,2.851c2.343,0,4.158-0.632,5.444-1.897
		c1.286-1.264,1.929-3.011,1.929-5.24H25.912z"/>
	<path fill="#FFFFFF" d="M58.375,207.256h-4.222v-13.781H39v13.781h-4.222V176.05H39v14.103h15.153V176.05h4.222V207.256z"/>
	<path fill="#FFFFFF" d="M85.501,199.219H73.756l-2.786,8.037h-4.308l11.252-31.206h3.622l11.016,31.206h-4.308L85.501,199.219z
		 M74.978,195.682h9.323l-4.543-13.396h-0.129L74.978,195.682z"/>
	<path fill="#FFFFFF" d="M115.95,201.405h0.128l9.966-25.355h5.251v31.206h-4.222v-23.383l-0.129-0.021l-9.452,23.404h-2.937
		l-9.73-24.176l-0.128,0.021v24.155h-4.222V176.05h5.551L115.95,201.405z"/>
	<path fill="#FFFFFF" d="M141.94,207.256V176.05h10.181c3.258,0,5.808,0.704,7.651,2.111s2.765,3.519,2.765,6.333
		c0,1.343-0.415,2.547-1.243,3.612s-1.929,1.875-3.3,2.433c2.043,0.286,3.661,1.171,4.854,2.657c1.193,1.486,1.79,3.236,1.79,5.251
		c0,2.858-0.929,5.04-2.786,6.547c-1.858,1.508-4.373,2.261-7.544,2.261H141.94z M146.162,189.317h6.837
		c1.572,0,2.851-0.432,3.836-1.297c0.986-0.864,1.479-2.068,1.479-3.611c0-1.686-0.532-2.947-1.597-3.783
		c-1.064-0.836-2.597-1.254-4.597-1.254h-5.958V189.317z M146.162,192.617v11.338h8.145c1.929,0,3.425-0.475,4.49-1.425
		c1.064-0.95,1.597-2.296,1.597-4.04c0-1.729-0.543-3.122-1.629-4.179c-1.086-1.057-2.551-1.622-4.394-1.693h-0.279H146.162z"/>
	<path fill="#FFFFFF" d="M190.22,192.789h-12.817v11.166h15.003v3.301h-19.225V176.05h18.989v3.322h-14.767v10.095h12.817V192.789z
		 M184.84,167.327h4.93l0.043,0.129l-5.766,5.572h-3.172L184.84,167.327z"/>
	<path fill="#FFFFFF" d="M204.958,193.732v13.524h-4.222v-31.185h10.673c3.415,0,6.022,0.758,7.823,2.272
		c1.8,1.515,2.7,3.715,2.7,6.601c0,1.601-0.418,2.994-1.254,4.18c-0.835,1.186-2.054,2.129-3.654,2.829
		c1.715,0.557,2.947,1.461,3.697,2.711c0.75,1.25,1.125,2.797,1.125,4.64v2.937c0,0.972,0.107,1.843,0.321,2.615
		s0.586,1.4,1.115,1.886v0.514h-4.351c-0.557-0.485-0.915-1.2-1.072-2.143c-0.157-0.943-0.235-1.915-0.235-2.915v-2.851
		c0-1.686-0.493-3.043-1.479-4.072s-2.308-1.543-3.965-1.543H204.958z M204.958,190.41h6.022c2.386,0,4.104-0.453,5.155-1.361
		c1.05-0.907,1.575-2.29,1.575-4.147c0-1.757-0.511-3.118-1.532-4.083c-1.022-0.965-2.612-1.447-4.769-1.447h-6.451V190.41z"/>
	<path fill="#FFFFFF" d="M241.15,191.91l8.144-15.86h4.823l-10.952,20.232v10.974h-4.201v-11.295l-10.78-19.911h4.822L241.15,191.91
		z"/>
</g>
<circle fill="#30AA53" cx="288.945" cy="189.285" r="15.044"/>
<circle fill="#39A9E1" cx="333.959" cy="188.534" r="15.044"/>
<circle fill="#7D4392" cx="378.973" cy="188.534" r="15.044"/>
<circle fill="#D01230" cx="423.988" cy="188.534" r="15.044"/>
<circle fill="#E95C1B" cx="469.002" cy="188.534" r="15.044"/>
<g>
</g>
<g>
</g>
<g>
</g>
<g>
</g>
<g>
</g>
<g>
</g>
<g>
</g>
<g>
</g>
<g>
</g>
<g>
</g>
<g>
</g>
<g>
</g>
<g>
</g>
<g>
</g>
<g>
</g>
</svg>
