<svg id="Calque_1" data-name="Calque 1" xmlns="http://www.w3.org/2000/svg" viewBox="0 0 2203.4 2128.82"><defs><style>.cls-1{fill:none;stroke:#934192;stroke-miterlimit:10;stroke-width:6px;stroke-dasharray:0 12;}</style></defs><title>motif</title><g id="Layer_2-2" data-name="Layer 2-2"><g id="Calque_1-2" data-name="Calque 1-2"><path class="cls-1" d="M2026.56,344.41c-2.49.81-5,1.59-7.47,2.38"/><path class="cls-1" d="M1970.25,624.33c-2.49.81-5,1.59-7.46,2.38"/><path class="cls-1" d="M304.44,361.65c137.17,186.7,248.12,236.2,335.35,226,31.72-3.71,60.3-15.33,85.88-31.15C895.8,451.27,985.58,128.37,1118.9,155.9c80.42,16.6,110.78,147.11,156.52,247.21,84.8,185.57,258.42,345.48,648.57,235.25q11.79-3.33,23.86-7"/><path class="cls-1" d="M299.87,355.39l-4.56-6.31"/><path class="cls-1" d="M1963.25,659.62c-2.49.81-5,1.59-7.46,2.38"/><path class="cls-1" d="M1940.83,666.65q-24.32,7.36-47.54,13.41c-373.53,97.23-541.83-59.89-624.88-241.67-45.73-100.1-76.1-230.62-156.51-247.22C978.58,163.66,888.8,486.54,718.67,591.74c-30.81,19-66,32-105.78,32.43C528.87,625,424.4,569.75,297.43,397"/><path class="cls-1" d="M292.86,390.68l-4.56-6.31"/><path class="cls-1" d="M1959.06,691c-2.49.82-5,1.6-7.46,2.39"/><path class="cls-1" d="M1936.65,698q-36.57,11.1-70.71,19.18c-357.37,84.91-520.4-69.47-601.73-247.44-45.73-100.1-76.09-230.62-156.51-247.21C974.39,195.05,884.6,517.94,714.48,623.14,679,645.07,637.72,659,590.31,654.85c-80.73-7-179.2-66.1-297.07-226.49"/><path class="cls-1" d="M288.67,422.08l-4.56-6.31"/><path class="cls-1" d="M1950.81,763.32c-2.49.81-5,1.59-7.46,2.38"/><path class="cls-1" d="M1928.4,770.33a1099.5,1099.5,0,0,1-123.86,30.35C1483.92,858.62,1333.15,711,1256,542.07c-45.74-100.1-76.1-230.61-156.52-247.21-133.31-27.52-223.1,295.37-393.22,400.56-45,27.83-99.35,42.71-163.69,24.34C469.8,699,384.29,635.75,285,500.63"/><path class="cls-1" d="M280.43,494.37c-1.52-2.09-3-4.2-4.56-6.31"/><path class="cls-1" d="M1937,828.53c-2.49.82-5,1.6-7.46,2.39"/><path class="cls-1" d="M1914.63,835.57C1855.8,853.43,1801.75,865.33,1752,872c-294.17,39.62-435.82-102.77-509.83-264.71-45.73-100.1-76.1-230.62-156.51-247.22C952.39,332.57,862.6,655.47,692.47,760.66,641.25,792.32,578,807.23,501.58,775.44c-66.61-27.73-143.18-91-230.33-209.58"/><path class="cls-1" d="M266.66,559.6l-4.56-6.31"/><path class="cls-1" d="M1919.58,883.55c-2.49.82-5,1.6-7.47,2.39"/><path class="cls-1" d="M1897.16,890.58c-68.92,20.95-131.32,33.68-187.8,39.45-277.13,28.38-412.77-110.44-484.62-267.71-45.73-100.1-76.1-230.61-156.51-247.21C934.91,387.6,845.12,710.48,675,815.67c-55,34-124,48.7-208.13,6.93-62.51-31-133.38-93.18-213.12-201.71"/><path class="cls-1" d="M249.19,614.63l-4.56-6.3"/><path class="cls-1" d="M1899.85,930.74c-2.49.81-5,1.59-7.46,2.38"/><path class="cls-1" d="M1877.45,937.76c-75.53,23-143.21,36-203.89,40.92-266.31,21.46-398.08-115-468.53-269.18-45.73-100.1-76.1-230.62-156.51-247.22C915.21,434.76,825.41,757.66,655.29,862.85c-57.36,35.46-129.9,49.9-219,1.27-59.83-32.67-127.1-93.77-202.26-196.06"/><path class="cls-1" d="M229.48,661.79l-4.56-6.31"/><path class="cls-1" d="M1879.38,972.42c-2.5.82-5,1.6-7.47,2.39"/><path class="cls-1" d="M1857,979.44c-80,24.33-151.23,37.55-214.65,41.72-259.11,17-388.29-117.88-457.77-270C1138.79,651.08,1108.43,520.57,1028,504,894.7,476.45,804.91,799.34,634.8,904.54,575.9,941,501,955.21,408.64,901.77c-58-33.54-122.92-93.79-195.08-192"/><path class="cls-1" d="M209,703.47l-4.55-6.31"/><path class="cls-1" d="M1859.57,1011c-2.49.82-5,1.6-7.46,2.39"/><path class="cls-1" d="M1837.15,1018c-83.8,25.46-157.92,38.79-223.58,42.24-253.14,13.31-380.14-120.17-448.84-270.5-45.73-100.1-76.09-230.61-156.51-247.22C874.91,515,785.12,837.89,615,943.09c-60.16,37.19-137,51.26-232.13-6.31C326.38,902.6,263.46,843.16,193.75,748.3"/><path class="cls-1" d="M189.18,742l-4.56-6.3"/><path class="cls-1" d="M1841.91,1048.74c-2.5.81-5,1.6-7.47,2.39"/><path class="cls-1" d="M1819.49,1055.79c-88.3,26.82-165.88,40.18-234.1,42.71-246.18,9.11-370.58-122.73-438.32-271-45.74-100.1-76.1-230.62-156.52-247.22-133.31-27.52-223.1,295.38-393.22,400.57-61.63,38.1-140.76,51.93-239.09-10.64-54.69-34.78-115.3-93.19-182.16-184.16"/><path class="cls-1" d="M171.52,779.82c-1.52-2.09-3-4.2-4.56-6.31"/><path class="cls-1" d="M1827.86,1088.13q-3.73,1.21-7.46,2.38"/><path class="cls-1" d="M1805.45,1095.14c-94.93,28.85-177.46,42.12-249.28,43.1C1320,1141.49,1199.36,1012.05,1133,866.88c-45.74-100.09-76.1-230.61-156.52-247.21C843.2,592.15,753.41,915,583.3,1020.24c-63.71,39.4-146.13,52.86-249.14-17.24-52-35.39-109.31-92.1-172.1-177.54"/><path class="cls-1" d="M157.47,819.19l-4.56-6.31"/><path class="cls-1" d="M1818.89,1131.45q-3.75,1.21-7.47,2.38"/><path class="cls-1" d="M1796.47,1138.48c-105.15,32-195.07,44.79-272.12,43-221.14-5.16-336.15-130.87-400.3-271.26C1078.31,810.12,1048,679.6,967.53,663c-133.31-27.52-223.1,295.38-393.22,400.57-66.79,41.29-154.11,54.07-264.16-28-48-35.75-100.27-89.53-157.08-166.82"/><path class="cls-1" d="M148.5,862.51c-1.52-2.09-3-4.2-4.56-6.31"/><path class="cls-1" d="M1816.44,1181.09c-2.5.81-5,1.59-7.47,2.38"/><path class="cls-1" d="M1794,1188.1c-120.47,36.61-220.94,48.12-304.94,41.29-199.87-16.23-306.59-136.27-367.48-269.55-45.74-100.1-76.1-230.61-156.52-247.21C831.78,685.11,742,1008,571.86,1113.19c-71.06,43.94-165.43,55.6-285.68-45-42-35.11-87.13-83.9-135.55-149.78"/><path class="cls-1" d="M146.06,912.15c-1.52-2.08-3-4.19-4.56-6.3"/><path class="cls-1" d="M1818.14,1241.08c-2.5.81-5,1.59-7.47,2.38"/><path class="cls-1" d="M1795.73,1248.11c-141.26,42.92-255,51.36-347,36.15-173-28.57-269-140.79-325.41-264.41-45.74-100.1-76.1-230.62-156.52-247.22C833.46,745.12,743.68,1068,573.55,1173.2c-76.45,47.25-179.81,57.19-313.36-69.72-34-32.28-69.93-73.42-107.88-125.06"/><path class="cls-1" d="M147.74,972.15c-1.52-2.09-3-4.19-4.56-6.31"/><path class="cls-1" d="M1822.46,1297.31c-2.49.82-5,1.6-7.46,2.39"/><path class="cls-1" d="M1800,1304.35c-162.23,49.3-288.24,53.1-386.58,27.85-148.37-38.08-233.82-142.27-285.84-256.11C1081.88,976,1051.52,845.48,971.1,828.88,837.79,801.36,748,1124.25,577.88,1229.45c-81.38,50.32-193.28,58.31-339.66-96.08-26.09-27.51-53.28-60.19-81.59-98.7"/><path class="cls-1" d="M152.07,1028.39q-2.26-3.14-4.55-6.31"/><path class="cls-1" d="M1829.9,1347.57c-2.49.81-5,1.59-7.46,2.38"/><path class="cls-1" d="M1807.48,1354.59c-182.93,55.59-319.77,53.32-422.87,16.8-126.29-44.71-201.94-140.84-249.55-245.06-45.73-100.1-76.1-230.61-156.51-247.21-133.31-27.52-223.11,295.37-393.23,400.56-47.94,29.65-106.5,44.6-176.45,20.31s-151.26-87.8-244.78-215.1"/><path class="cls-1" d="M159.51,1078.63l-4.56-6.31"/><path class="cls-1" d="M1839.75,1393.48c-2.5.82-5,1.6-7.47,2.39"/><path class="cls-1" d="M1817.33,1400.5c-203.55,61.86-350,52.09-456.48,3.18s-172.7-136.81-215.94-231.44c-45.73-100.1-76.1-230.61-156.51-247.22-133.32-27.5-223.11,295.38-393.23,400.57-34.22,21.16-73.84,34.84-119.14,32.09-81.66-4.9-181.79-63.13-302.1-226.87"/><path class="cls-1" d="M169.36,1124.55q-2.27-3.13-4.55-6.31"/><path class="cls-1" d="M1851.31,1436.76c-2.5.82-5,1.6-7.47,2.39"/><path class="cls-1" d="M1828.9,1443.8c-224.42,68.18-379.49,49.32-488-13-88.24-50.73-145.65-130.28-184.45-215.21-45.74-100.1-76.09-230.63-156.52-247.22-133.31-27.52-223.1,295.38-393.21,400.57-24.52,15.16-51.81,26.48-82,30.67-87.81,12.23-200-35.93-339.28-225.44"/><path class="cls-1" d="M180.92,1167.83l-4.55-6.31"/><path class="cls-1" d="M1863.88,1479.07q-3.74,1.22-7.46,2.38"/><path class="cls-1" d="M1841.47,1486.1c-245.78,74.68-408.39,45-517.71-32-71.68-50.47-120.45-121.26-154.71-196.25-45.73-100.1-76.1-230.61-156.51-247.21C879.22,983.12,789.43,1306,619.31,1411.19a224.07,224.07,0,0,1-52.77,24.23c-91.69,27.84-213.27-7.8-368.47-219"/><path class="cls-1" d="M193.48,1210.14q-2.26-3.14-4.55-6.31"/><path class="cls-1" d="M1876.75,1522.09c-2.5.81-5,1.59-7.47,2.38"/><path class="cls-1" d="M1854.33,1529.12c-268,81.41-437.1,38.72-546-54-56.52-48.07-96.84-109.61-126.38-174.25-45.73-100.1-76.09-230.61-156.51-247.21C892.09,1026.13,802.3,1349,632.18,1454.22a238.41,238.41,0,0,1-26.95,14.44c-94.25,42.86-224,22.42-394.29-209.24"/><path class="cls-1" d="M206.37,1253.16l-4.55-6.31"/><path class="cls-1" d="M1889.22,1567.49c-2.49.81-5,1.59-7.47,2.38"/><path class="cls-1" d="M1866.81,1574.5c-291.38,88.53-465.89,30.34-573.25-79.37-42.59-43.5-74.61-95.11-99.18-148.87-45.73-100.1-76.1-230.62-156.52-247.21-133.31-27.52-223.1,295.38-393.22,400.57-.67.42-1.32.82-2,1.21-95.81,58.08-233.44,56.85-419.25-196"/><path class="cls-1" d="M218.84,1298.55l-4.56-6.3"/><path class="cls-1" d="M1900.59,1616.93c-2.49.81-5,1.59-7.47,2.38"/><path class="cls-1" d="M234.78,1354.27C421.87,1608.88,560.12,1608.35,656,1549.05a286.65,286.65,0,0,0,23.69-16.41c155-118.64,242.55-410.36,369.54-384.16,80.41,16.61,110.78,147.12,156.51,247.22,19.25,42.14,43.09,82.94,73,119.57,104.47,127.94,283,204.82,599.44,108.69"/><path class="cls-1" d="M230.2,1348l-4.56-6.3"/><path class="cls-1" d="M1910.16,1672.11c-2.49.82-5,1.6-7.46,2.39"/><path class="cls-1" d="M239.77,1403.17l-4.56-6.31"/><path class="cls-1" d="M1913.51,1707.7c-2.5.82-5,1.6-7.47,2.39"/><path class="cls-1" d="M243.13,1438.75l-4.56-6.3"/><path class="cls-1" d="M1913.41,1748.61c-2.49.81-5,1.59-7.47,2.38"/><path class="cls-1" d="M243,1479.66c-1.52-2.09-3-4.2-4.56-6.31"/><path class="cls-1" d="M1910.38,1798.06c-2.49.81-5,1.59-7.46,2.38"/><path class="cls-1" d="M240,1529.12l-4.56-6.31"/><path class="cls-1" d="M1904.12,1853.54c-2.49.81-5,1.59-7.46,2.38"/><path class="cls-1" d="M233.73,1584.61c-1.51-2.08-3-4.19-4.55-6.3"/><path class="cls-1" d="M1894.36,1912.54c-2.49.81-5,1.59-7.46,2.38"/><path class="cls-1" d="M224,1643.61c-1.51-2.08-3-4.19-4.55-6.3"/><path class="cls-1" d="M1880.84,1972.53c-2.5.81-5,1.59-7.47,2.38"/><path class="cls-1" d="M210.45,1703.59l-4.55-6.3"/><path class="cls-1" d="M1863.27,2031c-2.5.81-5,1.59-7.47,2.38"/><path class="cls-1" d="M192.88,1762c-1.52-2.08-3-4.19-4.56-6.3"/><path class="cls-1" d="M1841.39,2085.34c-2.5.82-5,1.6-7.47,2.39"/><path class="cls-1" d="M171,1816.4l-4.56-6.31"/><path class="cls-1" d="M144.54,1864.19l-4.55-6.3"/><path class="cls-1" d="M113.23,1902.85l-4.56-6.3"/><path class="cls-1" d="M76.79,1929.9l-4.56-6.31"/><path class="cls-1" d="M34.94,1942.76c-1.51-2.08-3-4.19-4.55-6.3"/></g></g></svg>