<svg width="25" height="25" viewBox="0 0 25 25" fill="none" xmlns="http://www.w3.org/2000/svg">
<path d="M19.1616 25H19.1985C19.8931 25 20.5496 24.7263 21.0468 24.2288L24.6144 20.659C24.7366 20.5368 24.8337 20.3917 24.8998 20.2322C24.9661 20.0724 25 19.9013 25 19.7283C25 19.5555 24.9661 19.3844 24.8998 19.2246C24.8337 19.0649 24.7366 18.92 24.6144 18.7978L20.5177 14.9432C20.3956 14.8208 20.2507 14.7238 20.0911 14.6576C19.9315 14.5913 19.7604 14.5572 19.5877 14.5572C19.4149 14.5572 19.2438 14.5913 19.0842 14.6576C18.9245 14.7238 18.7797 14.8208 18.6575 14.9432L15.1715 18.4314C14.1993 18.1418 11.22 16.0731 10.0703 14.9227C8.92053 13.7723 7.08314 10.7768 6.79372 9.80402L10.2798 6.31582C10.4021 6.19368 10.4991 6.04862 10.5653 5.88893C10.6315 5.72926 10.6655 5.55808 10.6655 5.3852C10.6655 5.21233 10.6315 5.04115 10.5653 4.88148C10.4991 4.72179 10.4021 4.57673 10.2798 4.45459L6.19754 0.369829C5.94606 0.132324 5.61331 0 5.2675 0C4.92167 0 4.58893 0.132324 4.33744 0.369829L0.771165 3.93958C0.271287 4.43978 -0.0102328 5.12688 0.000284506 5.82845C0.0305538 7.70284 0.526486 14.2131 5.65425 19.3441C10.782 24.4748 17.2884 24.9698 19.1616 25Z" fill="#F40044"/>
</svg>
