<svg width="170" height="196" viewBox="0 0 170 196" fill="none" xmlns="http://www.w3.org/2000/svg">
<mask id="mask0_134_20189" style="mask-type:luminance" maskUnits="userSpaceOnUse" x="0" y="0" width="170" height="196">
<path d="M169.389 0H0.713867V195.55H169.389V0Z" fill="white"/>
</mask>
<g mask="url(#mask0_134_20189)">
<path d="M3.87092 6.49452C5.61451 6.49452 7.02797 5.04067 7.02797 3.24726C7.02797 1.45385 5.61451 0 3.87092 0C2.12733 0 0.713867 1.45385 0.713867 3.24726C0.713867 5.04067 2.12733 6.49452 3.87092 6.49452Z" fill="#FDC53D"/>
<path d="M16.2342 6.49452C17.9778 6.49452 19.3913 5.04067 19.3913 3.24726C19.3913 1.45385 17.9778 0 16.2342 0C14.4906 0 13.0771 1.45385 13.0771 3.24726C13.0771 5.04067 14.4906 6.49452 16.2342 6.49452Z" fill="#FDC53D"/>
<path d="M28.5838 6.49452C30.3274 6.49452 31.7409 5.04067 31.7409 3.24726C31.7409 1.45385 30.3274 0 28.5838 0C26.8402 0 25.4268 1.45385 25.4268 3.24726C25.4268 5.04067 26.8402 6.49452 28.5838 6.49452Z" fill="#FDC53D"/>
<path d="M40.9481 6.49452C42.6917 6.49452 44.1051 5.04067 44.1051 3.24726C44.1051 1.45385 42.6917 0 40.9481 0C39.2045 0 37.791 1.45385 37.791 3.24726C37.791 5.04067 39.2045 6.49452 40.9481 6.49452Z" fill="#FDC53D"/>
<path d="M53.3104 6.49452C55.054 6.49452 56.4674 5.04067 56.4674 3.24726C56.4674 1.45385 55.054 0 53.3104 0C51.5668 0 50.1533 1.45385 50.1533 3.24726C50.1533 5.04067 51.5668 6.49452 53.3104 6.49452Z" fill="#FDC53D"/>
<path d="M65.6737 6.49452C67.4172 6.49452 68.8307 5.04067 68.8307 3.24726C68.8307 1.45385 67.4172 0 65.6737 0C63.9301 0 62.5166 1.45385 62.5166 3.24726C62.5166 5.04067 63.9301 6.49452 65.6737 6.49452Z" fill="#FDC53D"/>
<path d="M78.0242 6.49452C79.7678 6.49452 81.1813 5.04067 81.1813 3.24726C81.1813 1.45385 79.7678 0 78.0242 0C76.2806 0 74.8672 1.45385 74.8672 3.24726C74.8672 5.04067 76.2806 6.49452 78.0242 6.49452Z" fill="#FDC53D"/>
<path d="M90.3865 6.49452C92.1301 6.49452 93.5436 5.04067 93.5436 3.24726C93.5436 1.45385 92.1301 0 90.3865 0C88.643 0 87.2295 1.45385 87.2295 3.24726C87.2295 5.04067 88.643 6.49452 90.3865 6.49452Z" fill="#FDC53D"/>
<path d="M102.75 6.49452C104.493 6.49452 105.907 5.04067 105.907 3.24726C105.907 1.45385 104.493 0 102.75 0C101.006 0 99.5928 1.45385 99.5928 3.24726C99.5928 5.04067 101.006 6.49452 102.75 6.49452Z" fill="#FDC53D"/>
<path d="M115.113 6.49452C116.857 6.49452 118.27 5.04067 118.27 3.24726C118.27 1.45385 116.857 0 115.113 0C113.37 0 111.956 1.45385 111.956 3.24726C111.956 5.04067 113.37 6.49452 115.113 6.49452Z" fill="#FDC53D"/>
<path d="M127.464 6.49452C129.207 6.49452 130.621 5.04067 130.621 3.24726C130.621 1.45385 129.207 0 127.464 0C125.72 0 124.307 1.45385 124.307 3.24726C124.307 5.04067 125.72 6.49452 127.464 6.49452Z" fill="#FDC53D"/>
<path d="M139.827 6.49452C141.571 6.49452 142.984 5.04067 142.984 3.24726C142.984 1.45385 141.571 0 139.827 0C138.083 0 136.67 1.45385 136.67 3.24726C136.67 5.04067 138.083 6.49452 139.827 6.49452Z" fill="#FDC53D"/>
<path d="M152.189 6.49452C153.933 6.49452 155.346 5.04067 155.346 3.24726C155.346 1.45385 153.933 0 152.189 0C150.446 0 149.032 1.45385 149.032 3.24726C149.032 5.04067 150.446 6.49452 152.189 6.49452Z" fill="#FDC53D"/>
<path d="M164.54 6.49452C166.283 6.49452 167.697 5.04067 167.697 3.24726C167.697 1.45385 166.283 0 164.54 0C162.796 0 161.383 1.45385 161.383 3.24726C161.383 5.04067 162.796 6.49452 164.54 6.49452Z" fill="#FDC53D"/>
<path d="M3.87092 18.3016C5.61451 18.3016 7.02797 16.8478 7.02797 15.0544C7.02797 13.261 5.61451 11.8071 3.87092 11.8071C2.12733 11.8071 0.713867 13.261 0.713867 15.0544C0.713867 16.8478 2.12733 18.3016 3.87092 18.3016Z" fill="#FDC53D"/>
<path d="M16.2342 18.3016C17.9778 18.3016 19.3913 16.8478 19.3913 15.0544C19.3913 13.261 17.9778 11.8071 16.2342 11.8071C14.4906 11.8071 13.0771 13.261 13.0771 15.0544C13.0771 16.8478 14.4906 18.3016 16.2342 18.3016Z" fill="#FDC53D"/>
<path d="M28.5838 18.3016C30.3274 18.3016 31.7409 16.8478 31.7409 15.0544C31.7409 13.261 30.3274 11.8071 28.5838 11.8071C26.8402 11.8071 25.4268 13.261 25.4268 15.0544C25.4268 16.8478 26.8402 18.3016 28.5838 18.3016Z" fill="#FDC53D"/>
<path d="M40.9481 18.3016C42.6917 18.3016 44.1051 16.8478 44.1051 15.0544C44.1051 13.261 42.6917 11.8071 40.9481 11.8071C39.2045 11.8071 37.791 13.261 37.791 15.0544C37.791 16.8478 39.2045 18.3016 40.9481 18.3016Z" fill="#FDC53D"/>
<path d="M53.3104 18.3016C55.054 18.3016 56.4674 16.8478 56.4674 15.0544C56.4674 13.261 55.054 11.8071 53.3104 11.8071C51.5668 11.8071 50.1533 13.261 50.1533 15.0544C50.1533 16.8478 51.5668 18.3016 53.3104 18.3016Z" fill="#FDC53D"/>
<path d="M65.6737 18.3016C67.4172 18.3016 68.8307 16.8478 68.8307 15.0544C68.8307 13.261 67.4172 11.8071 65.6737 11.8071C63.9301 11.8071 62.5166 13.261 62.5166 15.0544C62.5166 16.8478 63.9301 18.3016 65.6737 18.3016Z" fill="#FDC53D"/>
<path d="M78.0242 18.3016C79.7678 18.3016 81.1813 16.8478 81.1813 15.0544C81.1813 13.261 79.7678 11.8071 78.0242 11.8071C76.2806 11.8071 74.8672 13.261 74.8672 15.0544C74.8672 16.8478 76.2806 18.3016 78.0242 18.3016Z" fill="#FDC53D"/>
<path d="M90.3865 18.3016C92.1301 18.3016 93.5436 16.8478 93.5436 15.0544C93.5436 13.261 92.1301 11.8071 90.3865 11.8071C88.643 11.8071 87.2295 13.261 87.2295 15.0544C87.2295 16.8478 88.643 18.3016 90.3865 18.3016Z" fill="#FDC53D"/>
<path d="M102.75 18.3016C104.493 18.3016 105.907 16.8478 105.907 15.0544C105.907 13.261 104.493 11.8071 102.75 11.8071C101.006 11.8071 99.5928 13.261 99.5928 15.0544C99.5928 16.8478 101.006 18.3016 102.75 18.3016Z" fill="#FDC53D"/>
<path d="M115.113 18.3016C116.857 18.3016 118.27 16.8478 118.27 15.0544C118.27 13.261 116.857 11.8071 115.113 11.8071C113.37 11.8071 111.956 13.261 111.956 15.0544C111.956 16.8478 113.37 18.3016 115.113 18.3016Z" fill="#FDC53D"/>
<path d="M127.464 18.3016C129.207 18.3016 130.621 16.8478 130.621 15.0544C130.621 13.261 129.207 11.8071 127.464 11.8071C125.72 11.8071 124.307 13.261 124.307 15.0544C124.307 16.8478 125.72 18.3016 127.464 18.3016Z" fill="#FDC53D"/>
<path d="M139.827 18.3016C141.571 18.3016 142.984 16.8478 142.984 15.0544C142.984 13.261 141.571 11.8071 139.827 11.8071C138.083 11.8071 136.67 13.261 136.67 15.0544C136.67 16.8478 138.083 18.3016 139.827 18.3016Z" fill="#FDC53D"/>
<path d="M152.189 18.3016C153.933 18.3016 155.346 16.8478 155.346 15.0544C155.346 13.261 153.933 11.8071 152.189 11.8071C150.446 11.8071 149.032 13.261 149.032 15.0544C149.032 16.8478 150.446 18.3016 152.189 18.3016Z" fill="#FDC53D"/>
<path d="M164.54 18.3016C166.283 18.3016 167.697 16.8478 167.697 15.0544C167.697 13.261 166.283 11.8071 164.54 11.8071C162.796 11.8071 161.383 13.261 161.383 15.0544C161.383 16.8478 162.796 18.3016 164.54 18.3016Z" fill="#FDC53D"/>
<path d="M3.87092 30.0956C5.61451 30.0956 7.02797 28.6417 7.02797 26.8483C7.02797 25.0549 5.61451 23.6011 3.87092 23.6011C2.12733 23.6011 0.713867 25.0549 0.713867 26.8483C0.713867 28.6417 2.12733 30.0956 3.87092 30.0956Z" fill="#FDC53D"/>
<path d="M16.2342 30.0956C17.9778 30.0956 19.3913 28.6417 19.3913 26.8483C19.3913 25.0549 17.9778 23.6011 16.2342 23.6011C14.4906 23.6011 13.0771 25.0549 13.0771 26.8483C13.0771 28.6417 14.4906 30.0956 16.2342 30.0956Z" fill="#FDC53D"/>
<path d="M28.5838 30.0956C30.3274 30.0956 31.7409 28.6417 31.7409 26.8483C31.7409 25.0549 30.3274 23.6011 28.5838 23.6011C26.8402 23.6011 25.4268 25.0549 25.4268 26.8483C25.4268 28.6417 26.8402 30.0956 28.5838 30.0956Z" fill="#FDC53D"/>
<path d="M40.9481 30.0956C42.6917 30.0956 44.1051 28.6417 44.1051 26.8483C44.1051 25.0549 42.6917 23.6011 40.9481 23.6011C39.2045 23.6011 37.791 25.0549 37.791 26.8483C37.791 28.6417 39.2045 30.0956 40.9481 30.0956Z" fill="#FDC53D"/>
<path d="M53.3104 30.0956C55.054 30.0956 56.4674 28.6417 56.4674 26.8483C56.4674 25.0549 55.054 23.6011 53.3104 23.6011C51.5668 23.6011 50.1533 25.0549 50.1533 26.8483C50.1533 28.6417 51.5668 30.0956 53.3104 30.0956Z" fill="#FDC53D"/>
<path d="M65.6737 30.0956C67.4172 30.0956 68.8307 28.6417 68.8307 26.8483C68.8307 25.0549 67.4172 23.6011 65.6737 23.6011C63.9301 23.6011 62.5166 25.0549 62.5166 26.8483C62.5166 28.6417 63.9301 30.0956 65.6737 30.0956Z" fill="#FDC53D"/>
<path d="M78.0242 30.0956C79.7678 30.0956 81.1813 28.6417 81.1813 26.8483C81.1813 25.0549 79.7678 23.6011 78.0242 23.6011C76.2806 23.6011 74.8672 25.0549 74.8672 26.8483C74.8672 28.6417 76.2806 30.0956 78.0242 30.0956Z" fill="#FDC53D"/>
<path d="M90.3865 30.0956C92.1301 30.0956 93.5436 28.6417 93.5436 26.8483C93.5436 25.0549 92.1301 23.6011 90.3865 23.6011C88.643 23.6011 87.2295 25.0549 87.2295 26.8483C87.2295 28.6417 88.643 30.0956 90.3865 30.0956Z" fill="#FDC53D"/>
<path d="M102.75 30.0956C104.493 30.0956 105.907 28.6417 105.907 26.8483C105.907 25.0549 104.493 23.6011 102.75 23.6011C101.006 23.6011 99.5928 25.0549 99.5928 26.8483C99.5928 28.6417 101.006 30.0956 102.75 30.0956Z" fill="#FDC53D"/>
<path d="M115.113 30.0956C116.857 30.0956 118.27 28.6417 118.27 26.8483C118.27 25.0549 116.857 23.6011 115.113 23.6011C113.37 23.6011 111.956 25.0549 111.956 26.8483C111.956 28.6417 113.37 30.0956 115.113 30.0956Z" fill="#FDC53D"/>
<path d="M127.464 30.0956C129.207 30.0956 130.621 28.6417 130.621 26.8483C130.621 25.0549 129.207 23.6011 127.464 23.6011C125.72 23.6011 124.307 25.0549 124.307 26.8483C124.307 28.6417 125.72 30.0956 127.464 30.0956Z" fill="#FDC53D"/>
<path d="M139.827 30.0956C141.571 30.0956 142.984 28.6417 142.984 26.8483C142.984 25.0549 141.571 23.6011 139.827 23.6011C138.083 23.6011 136.67 25.0549 136.67 26.8483C136.67 28.6417 138.083 30.0956 139.827 30.0956Z" fill="#FDC53D"/>
<path d="M152.189 30.0956C153.933 30.0956 155.346 28.6417 155.346 26.8483C155.346 25.0549 153.933 23.6011 152.189 23.6011C150.446 23.6011 149.032 25.0549 149.032 26.8483C149.032 28.6417 150.446 30.0956 152.189 30.0956Z" fill="#FDC53D"/>
<path d="M164.54 30.0956C166.283 30.0956 167.697 28.6417 167.697 26.8483C167.697 25.0549 166.283 23.6011 164.54 23.6011C162.796 23.6011 161.383 25.0549 161.383 26.8483C161.383 28.6417 162.796 30.0956 164.54 30.0956Z" fill="#FDC53D"/>
<path d="M3.87092 41.9027C5.61451 41.9027 7.02797 40.4489 7.02797 38.6555C7.02797 36.8621 5.61451 35.4082 3.87092 35.4082C2.12733 35.4082 0.713867 36.8621 0.713867 38.6555C0.713867 40.4489 2.12733 41.9027 3.87092 41.9027Z" fill="#FDC53D"/>
<path d="M16.2342 41.9027C17.9778 41.9027 19.3913 40.4489 19.3913 38.6555C19.3913 36.8621 17.9778 35.4082 16.2342 35.4082C14.4906 35.4082 13.0771 36.8621 13.0771 38.6555C13.0771 40.4489 14.4906 41.9027 16.2342 41.9027Z" fill="#FDC53D"/>
<path d="M28.5838 41.9027C30.3274 41.9027 31.7409 40.4489 31.7409 38.6555C31.7409 36.8621 30.3274 35.4082 28.5838 35.4082C26.8402 35.4082 25.4268 36.8621 25.4268 38.6555C25.4268 40.4489 26.8402 41.9027 28.5838 41.9027Z" fill="#FDC53D"/>
<path d="M40.9481 41.9027C42.6917 41.9027 44.1051 40.4489 44.1051 38.6555C44.1051 36.8621 42.6917 35.4082 40.9481 35.4082C39.2045 35.4082 37.791 36.8621 37.791 38.6555C37.791 40.4489 39.2045 41.9027 40.9481 41.9027Z" fill="#FDC53D"/>
<path d="M53.3104 41.9027C55.054 41.9027 56.4674 40.4489 56.4674 38.6555C56.4674 36.8621 55.054 35.4082 53.3104 35.4082C51.5668 35.4082 50.1533 36.8621 50.1533 38.6555C50.1533 40.4489 51.5668 41.9027 53.3104 41.9027Z" fill="#FDC53D"/>
<path d="M65.6737 41.9027C67.4172 41.9027 68.8307 40.4489 68.8307 38.6555C68.8307 36.8621 67.4172 35.4082 65.6737 35.4082C63.9301 35.4082 62.5166 36.8621 62.5166 38.6555C62.5166 40.4489 63.9301 41.9027 65.6737 41.9027Z" fill="#FDC53D"/>
<path d="M78.0242 41.9027C79.7678 41.9027 81.1813 40.4489 81.1813 38.6555C81.1813 36.8621 79.7678 35.4082 78.0242 35.4082C76.2806 35.4082 74.8672 36.8621 74.8672 38.6555C74.8672 40.4489 76.2806 41.9027 78.0242 41.9027Z" fill="#FDC53D"/>
<path d="M90.3865 41.9027C92.1301 41.9027 93.5436 40.4489 93.5436 38.6555C93.5436 36.8621 92.1301 35.4082 90.3865 35.4082C88.643 35.4082 87.2295 36.8621 87.2295 38.6555C87.2295 40.4489 88.643 41.9027 90.3865 41.9027Z" fill="#FDC53D"/>
<path d="M102.75 41.9027C104.493 41.9027 105.907 40.4489 105.907 38.6555C105.907 36.8621 104.493 35.4082 102.75 35.4082C101.006 35.4082 99.5928 36.8621 99.5928 38.6555C99.5928 40.4489 101.006 41.9027 102.75 41.9027Z" fill="#FDC53D"/>
<path d="M115.113 41.9027C116.857 41.9027 118.27 40.4489 118.27 38.6555C118.27 36.8621 116.857 35.4082 115.113 35.4082C113.37 35.4082 111.956 36.8621 111.956 38.6555C111.956 40.4489 113.37 41.9027 115.113 41.9027Z" fill="#FDC53D"/>
<path d="M127.464 41.9027C129.207 41.9027 130.621 40.4489 130.621 38.6555C130.621 36.8621 129.207 35.4082 127.464 35.4082C125.72 35.4082 124.307 36.8621 124.307 38.6555C124.307 40.4489 125.72 41.9027 127.464 41.9027Z" fill="#FDC53D"/>
<path d="M139.827 41.9027C141.571 41.9027 142.984 40.4489 142.984 38.6555C142.984 36.8621 141.571 35.4082 139.827 35.4082C138.083 35.4082 136.67 36.8621 136.67 38.6555C136.67 40.4489 138.083 41.9027 139.827 41.9027Z" fill="#FDC53D"/>
<path d="M152.189 41.9027C153.933 41.9027 155.346 40.4489 155.346 38.6555C155.346 36.8621 153.933 35.4082 152.189 35.4082C150.446 35.4082 149.032 36.8621 149.032 38.6555C149.032 40.4489 150.446 41.9027 152.189 41.9027Z" fill="#FDC53D"/>
<path d="M164.54 41.9027C166.283 41.9027 167.697 40.4489 167.697 38.6555C167.697 36.8621 166.283 35.4082 164.54 35.4082C162.796 35.4082 161.383 36.8621 161.383 38.6555C161.383 40.4489 162.796 41.9027 164.54 41.9027Z" fill="#FDC53D"/>
<path d="M3.87092 53.6969C5.61451 53.6969 7.02797 52.2431 7.02797 50.4497C7.02797 48.6562 5.61451 47.2024 3.87092 47.2024C2.12733 47.2024 0.713867 48.6562 0.713867 50.4497C0.713867 52.2431 2.12733 53.6969 3.87092 53.6969Z" fill="#FDC53D"/>
<path d="M16.2342 53.6969C17.9778 53.6969 19.3913 52.2431 19.3913 50.4497C19.3913 48.6562 17.9778 47.2024 16.2342 47.2024C14.4906 47.2024 13.0771 48.6562 13.0771 50.4497C13.0771 52.2431 14.4906 53.6969 16.2342 53.6969Z" fill="#FDC53D"/>
<path d="M28.5838 53.6969C30.3274 53.6969 31.7409 52.2431 31.7409 50.4497C31.7409 48.6562 30.3274 47.2024 28.5838 47.2024C26.8402 47.2024 25.4268 48.6562 25.4268 50.4497C25.4268 52.2431 26.8402 53.6969 28.5838 53.6969Z" fill="#FDC53D"/>
<path d="M40.9481 53.6969C42.6917 53.6969 44.1051 52.2431 44.1051 50.4497C44.1051 48.6562 42.6917 47.2024 40.9481 47.2024C39.2045 47.2024 37.791 48.6562 37.791 50.4497C37.791 52.2431 39.2045 53.6969 40.9481 53.6969Z" fill="#FDC53D"/>
<path d="M53.3104 53.6969C55.054 53.6969 56.4674 52.2431 56.4674 50.4497C56.4674 48.6562 55.054 47.2024 53.3104 47.2024C51.5668 47.2024 50.1533 48.6562 50.1533 50.4497C50.1533 52.2431 51.5668 53.6969 53.3104 53.6969Z" fill="#FDC53D"/>
<path d="M65.6737 53.6969C67.4172 53.6969 68.8307 52.2431 68.8307 50.4497C68.8307 48.6562 67.4172 47.2024 65.6737 47.2024C63.9301 47.2024 62.5166 48.6562 62.5166 50.4497C62.5166 52.2431 63.9301 53.6969 65.6737 53.6969Z" fill="#FDC53D"/>
<path d="M78.0242 53.6969C79.7678 53.6969 81.1813 52.2431 81.1813 50.4497C81.1813 48.6562 79.7678 47.2024 78.0242 47.2024C76.2806 47.2024 74.8672 48.6562 74.8672 50.4497C74.8672 52.2431 76.2806 53.6969 78.0242 53.6969Z" fill="#FDC53D"/>
<path d="M90.3865 53.6969C92.1301 53.6969 93.5436 52.2431 93.5436 50.4497C93.5436 48.6562 92.1301 47.2024 90.3865 47.2024C88.643 47.2024 87.2295 48.6562 87.2295 50.4497C87.2295 52.2431 88.643 53.6969 90.3865 53.6969Z" fill="#FDC53D"/>
<path d="M102.75 53.6969C104.493 53.6969 105.907 52.2431 105.907 50.4497C105.907 48.6562 104.493 47.2024 102.75 47.2024C101.006 47.2024 99.5928 48.6562 99.5928 50.4497C99.5928 52.2431 101.006 53.6969 102.75 53.6969Z" fill="#FDC53D"/>
<path d="M115.113 53.6969C116.857 53.6969 118.27 52.2431 118.27 50.4497C118.27 48.6562 116.857 47.2024 115.113 47.2024C113.37 47.2024 111.956 48.6562 111.956 50.4497C111.956 52.2431 113.37 53.6969 115.113 53.6969Z" fill="#FDC53D"/>
<path d="M127.464 53.6969C129.207 53.6969 130.621 52.2431 130.621 50.4497C130.621 48.6562 129.207 47.2024 127.464 47.2024C125.72 47.2024 124.307 48.6562 124.307 50.4497C124.307 52.2431 125.72 53.6969 127.464 53.6969Z" fill="#FDC53D"/>
<path d="M139.827 53.6969C141.571 53.6969 142.984 52.2431 142.984 50.4497C142.984 48.6562 141.571 47.2024 139.827 47.2024C138.083 47.2024 136.67 48.6562 136.67 50.4497C136.67 52.2431 138.083 53.6969 139.827 53.6969Z" fill="#FDC53D"/>
<path d="M152.189 53.6969C153.933 53.6969 155.346 52.2431 155.346 50.4497C155.346 48.6562 153.933 47.2024 152.189 47.2024C150.446 47.2024 149.032 48.6562 149.032 50.4497C149.032 52.2431 150.446 53.6969 152.189 53.6969Z" fill="#FDC53D"/>
<path d="M164.54 53.6969C166.283 53.6969 167.697 52.2431 167.697 50.4497C167.697 48.6562 166.283 47.2024 164.54 47.2024C162.796 47.2024 161.383 48.6562 161.383 50.4497C161.383 52.2431 162.796 53.6969 164.54 53.6969Z" fill="#FDC53D"/>
<path d="M3.87092 65.5036C5.61451 65.5036 7.02797 64.0497 7.02797 62.2563C7.02797 60.4629 5.61451 59.009 3.87092 59.009C2.12733 59.009 0.713867 60.4629 0.713867 62.2563C0.713867 64.0497 2.12733 65.5036 3.87092 65.5036Z" fill="#FDC53D"/>
<path d="M16.2342 65.5036C17.9778 65.5036 19.3913 64.0497 19.3913 62.2563C19.3913 60.4629 17.9778 59.009 16.2342 59.009C14.4906 59.009 13.0771 60.4629 13.0771 62.2563C13.0771 64.0497 14.4906 65.5036 16.2342 65.5036Z" fill="#FDC53D"/>
<path d="M28.5838 65.5036C30.3274 65.5036 31.7409 64.0497 31.7409 62.2563C31.7409 60.4629 30.3274 59.009 28.5838 59.009C26.8402 59.009 25.4268 60.4629 25.4268 62.2563C25.4268 64.0497 26.8402 65.5036 28.5838 65.5036Z" fill="#FDC53D"/>
<path d="M40.9481 65.5036C42.6917 65.5036 44.1051 64.0497 44.1051 62.2563C44.1051 60.4629 42.6917 59.009 40.9481 59.009C39.2045 59.009 37.791 60.4629 37.791 62.2563C37.791 64.0497 39.2045 65.5036 40.9481 65.5036Z" fill="#FDC53D"/>
<path d="M53.3104 65.5036C55.054 65.5036 56.4674 64.0497 56.4674 62.2563C56.4674 60.4629 55.054 59.009 53.3104 59.009C51.5668 59.009 50.1533 60.4629 50.1533 62.2563C50.1533 64.0497 51.5668 65.5036 53.3104 65.5036Z" fill="#FDC53D"/>
<path d="M65.6737 65.5036C67.4172 65.5036 68.8307 64.0497 68.8307 62.2563C68.8307 60.4629 67.4172 59.009 65.6737 59.009C63.9301 59.009 62.5166 60.4629 62.5166 62.2563C62.5166 64.0497 63.9301 65.5036 65.6737 65.5036Z" fill="#FDC53D"/>
<path d="M78.0242 65.5036C79.7678 65.5036 81.1813 64.0497 81.1813 62.2563C81.1813 60.4629 79.7678 59.009 78.0242 59.009C76.2806 59.009 74.8672 60.4629 74.8672 62.2563C74.8672 64.0497 76.2806 65.5036 78.0242 65.5036Z" fill="#FDC53D"/>
<path d="M90.3865 65.5036C92.1301 65.5036 93.5436 64.0497 93.5436 62.2563C93.5436 60.4629 92.1301 59.009 90.3865 59.009C88.643 59.009 87.2295 60.4629 87.2295 62.2563C87.2295 64.0497 88.643 65.5036 90.3865 65.5036Z" fill="#FDC53D"/>
<path d="M102.75 65.5036C104.493 65.5036 105.907 64.0497 105.907 62.2563C105.907 60.4629 104.493 59.009 102.75 59.009C101.006 59.009 99.5928 60.4629 99.5928 62.2563C99.5928 64.0497 101.006 65.5036 102.75 65.5036Z" fill="#FDC53D"/>
<path d="M115.113 65.5036C116.857 65.5036 118.27 64.0497 118.27 62.2563C118.27 60.4629 116.857 59.009 115.113 59.009C113.37 59.009 111.956 60.4629 111.956 62.2563C111.956 64.0497 113.37 65.5036 115.113 65.5036Z" fill="#FDC53D"/>
<path d="M127.464 65.5036C129.207 65.5036 130.621 64.0497 130.621 62.2563C130.621 60.4629 129.207 59.009 127.464 59.009C125.72 59.009 124.307 60.4629 124.307 62.2563C124.307 64.0497 125.72 65.5036 127.464 65.5036Z" fill="#FDC53D"/>
<path d="M139.827 65.5036C141.571 65.5036 142.984 64.0497 142.984 62.2563C142.984 60.4629 141.571 59.009 139.827 59.009C138.083 59.009 136.67 60.4629 136.67 62.2563C136.67 64.0497 138.083 65.5036 139.827 65.5036Z" fill="#FDC53D"/>
<path d="M152.189 65.5036C153.933 65.5036 155.346 64.0497 155.346 62.2563C155.346 60.4629 153.933 59.009 152.189 59.009C150.446 59.009 149.032 60.4629 149.032 62.2563C149.032 64.0497 150.446 65.5036 152.189 65.5036Z" fill="#FDC53D"/>
<path d="M164.54 65.5036C166.283 65.5036 167.697 64.0497 167.697 62.2563C167.697 60.4629 166.283 59.009 164.54 59.009C162.796 59.009 161.383 60.4629 161.383 62.2563C161.383 64.0497 162.796 65.5036 164.54 65.5036Z" fill="#FDC53D"/>
<path d="M3.87092 77.2977C5.61451 77.2977 7.02797 75.8439 7.02797 74.0505C7.02797 72.2571 5.61451 70.8032 3.87092 70.8032C2.12733 70.8032 0.713867 72.2571 0.713867 74.0505C0.713867 75.8439 2.12733 77.2977 3.87092 77.2977Z" fill="#FDC53D"/>
<path d="M16.2342 77.2977C17.9778 77.2977 19.3913 75.8439 19.3913 74.0505C19.3913 72.2571 17.9778 70.8032 16.2342 70.8032C14.4906 70.8032 13.0771 72.2571 13.0771 74.0505C13.0771 75.8439 14.4906 77.2977 16.2342 77.2977Z" fill="#FDC53D"/>
<path d="M28.5838 77.2977C30.3274 77.2977 31.7409 75.8439 31.7409 74.0505C31.7409 72.2571 30.3274 70.8032 28.5838 70.8032C26.8402 70.8032 25.4268 72.2571 25.4268 74.0505C25.4268 75.8439 26.8402 77.2977 28.5838 77.2977Z" fill="#FDC53D"/>
<path d="M40.9481 77.2977C42.6917 77.2977 44.1051 75.8439 44.1051 74.0505C44.1051 72.2571 42.6917 70.8032 40.9481 70.8032C39.2045 70.8032 37.791 72.2571 37.791 74.0505C37.791 75.8439 39.2045 77.2977 40.9481 77.2977Z" fill="#FDC53D"/>
<path d="M53.3104 77.2977C55.054 77.2977 56.4674 75.8439 56.4674 74.0505C56.4674 72.2571 55.054 70.8032 53.3104 70.8032C51.5668 70.8032 50.1533 72.2571 50.1533 74.0505C50.1533 75.8439 51.5668 77.2977 53.3104 77.2977Z" fill="#FDC53D"/>
<path d="M65.6737 77.2977C67.4172 77.2977 68.8307 75.8439 68.8307 74.0505C68.8307 72.2571 67.4172 70.8032 65.6737 70.8032C63.9301 70.8032 62.5166 72.2571 62.5166 74.0505C62.5166 75.8439 63.9301 77.2977 65.6737 77.2977Z" fill="#FDC53D"/>
<path d="M78.0242 77.2977C79.7678 77.2977 81.1813 75.8439 81.1813 74.0505C81.1813 72.2571 79.7678 70.8032 78.0242 70.8032C76.2806 70.8032 74.8672 72.2571 74.8672 74.0505C74.8672 75.8439 76.2806 77.2977 78.0242 77.2977Z" fill="#FDC53D"/>
<path d="M90.3865 77.2977C92.1301 77.2977 93.5436 75.8439 93.5436 74.0505C93.5436 72.2571 92.1301 70.8032 90.3865 70.8032C88.643 70.8032 87.2295 72.2571 87.2295 74.0505C87.2295 75.8439 88.643 77.2977 90.3865 77.2977Z" fill="#FDC53D"/>
<path d="M102.75 77.2977C104.493 77.2977 105.907 75.8439 105.907 74.0505C105.907 72.2571 104.493 70.8032 102.75 70.8032C101.006 70.8032 99.5928 72.2571 99.5928 74.0505C99.5928 75.8439 101.006 77.2977 102.75 77.2977Z" fill="#FDC53D"/>
<path d="M115.113 77.2977C116.857 77.2977 118.27 75.8439 118.27 74.0505C118.27 72.2571 116.857 70.8032 115.113 70.8032C113.37 70.8032 111.956 72.2571 111.956 74.0505C111.956 75.8439 113.37 77.2977 115.113 77.2977Z" fill="#FDC53D"/>
<path d="M127.464 77.2977C129.207 77.2977 130.621 75.8439 130.621 74.0505C130.621 72.2571 129.207 70.8032 127.464 70.8032C125.72 70.8032 124.307 72.2571 124.307 74.0505C124.307 75.8439 125.72 77.2977 127.464 77.2977Z" fill="#FDC53D"/>
<path d="M139.827 77.2977C141.571 77.2977 142.984 75.8439 142.984 74.0505C142.984 72.2571 141.571 70.8032 139.827 70.8032C138.083 70.8032 136.67 72.2571 136.67 74.0505C136.67 75.8439 138.083 77.2977 139.827 77.2977Z" fill="#FDC53D"/>
<path d="M152.189 77.2977C153.933 77.2977 155.346 75.8439 155.346 74.0505C155.346 72.2571 153.933 70.8032 152.189 70.8032C150.446 70.8032 149.032 72.2571 149.032 74.0505C149.032 75.8439 150.446 77.2977 152.189 77.2977Z" fill="#FDC53D"/>
<path d="M164.54 77.2977C166.283 77.2977 167.697 75.8439 167.697 74.0505C167.697 72.2571 166.283 70.8032 164.54 70.8032C162.796 70.8032 161.383 72.2571 161.383 74.0505C161.383 75.8439 162.796 77.2977 164.54 77.2977Z" fill="#FDC53D"/>
<path d="M3.87092 89.1049C5.61451 89.1049 7.02797 87.651 7.02797 85.8576C7.02797 84.0642 5.61451 82.6104 3.87092 82.6104C2.12733 82.6104 0.713867 84.0642 0.713867 85.8576C0.713867 87.651 2.12733 89.1049 3.87092 89.1049Z" fill="#FDC53D"/>
<path d="M16.2342 89.1049C17.9778 89.1049 19.3913 87.651 19.3913 85.8576C19.3913 84.0642 17.9778 82.6104 16.2342 82.6104C14.4906 82.6104 13.0771 84.0642 13.0771 85.8576C13.0771 87.651 14.4906 89.1049 16.2342 89.1049Z" fill="#FDC53D"/>
<path d="M28.5838 89.1049C30.3274 89.1049 31.7409 87.651 31.7409 85.8576C31.7409 84.0642 30.3274 82.6104 28.5838 82.6104C26.8402 82.6104 25.4268 84.0642 25.4268 85.8576C25.4268 87.651 26.8402 89.1049 28.5838 89.1049Z" fill="#FDC53D"/>
<path d="M40.9481 89.1049C42.6917 89.1049 44.1051 87.651 44.1051 85.8576C44.1051 84.0642 42.6917 82.6104 40.9481 82.6104C39.2045 82.6104 37.791 84.0642 37.791 85.8576C37.791 87.651 39.2045 89.1049 40.9481 89.1049Z" fill="#FDC53D"/>
<path d="M53.3104 89.1049C55.054 89.1049 56.4674 87.651 56.4674 85.8576C56.4674 84.0642 55.054 82.6104 53.3104 82.6104C51.5668 82.6104 50.1533 84.0642 50.1533 85.8576C50.1533 87.651 51.5668 89.1049 53.3104 89.1049Z" fill="#FDC53D"/>
<path d="M65.6737 89.1049C67.4172 89.1049 68.8307 87.651 68.8307 85.8576C68.8307 84.0642 67.4172 82.6104 65.6737 82.6104C63.9301 82.6104 62.5166 84.0642 62.5166 85.8576C62.5166 87.651 63.9301 89.1049 65.6737 89.1049Z" fill="#FDC53D"/>
<path d="M78.0242 89.1049C79.7678 89.1049 81.1813 87.651 81.1813 85.8576C81.1813 84.0642 79.7678 82.6104 78.0242 82.6104C76.2806 82.6104 74.8672 84.0642 74.8672 85.8576C74.8672 87.651 76.2806 89.1049 78.0242 89.1049Z" fill="#FDC53D"/>
<path d="M90.3865 89.1049C92.1301 89.1049 93.5436 87.651 93.5436 85.8576C93.5436 84.0642 92.1301 82.6104 90.3865 82.6104C88.643 82.6104 87.2295 84.0642 87.2295 85.8576C87.2295 87.651 88.643 89.1049 90.3865 89.1049Z" fill="#FDC53D"/>
<path d="M102.75 89.1049C104.493 89.1049 105.907 87.651 105.907 85.8576C105.907 84.0642 104.493 82.6104 102.75 82.6104C101.006 82.6104 99.5928 84.0642 99.5928 85.8576C99.5928 87.651 101.006 89.1049 102.75 89.1049Z" fill="#FDC53D"/>
<path d="M115.113 89.1049C116.857 89.1049 118.27 87.651 118.27 85.8576C118.27 84.0642 116.857 82.6104 115.113 82.6104C113.37 82.6104 111.956 84.0642 111.956 85.8576C111.956 87.651 113.37 89.1049 115.113 89.1049Z" fill="#FDC53D"/>
<path d="M127.464 89.1049C129.207 89.1049 130.621 87.651 130.621 85.8576C130.621 84.0642 129.207 82.6104 127.464 82.6104C125.72 82.6104 124.307 84.0642 124.307 85.8576C124.307 87.651 125.72 89.1049 127.464 89.1049Z" fill="#FDC53D"/>
<path d="M139.827 89.1049C141.571 89.1049 142.984 87.651 142.984 85.8576C142.984 84.0642 141.571 82.6104 139.827 82.6104C138.083 82.6104 136.67 84.0642 136.67 85.8576C136.67 87.651 138.083 89.1049 139.827 89.1049Z" fill="#FDC53D"/>
<path d="M152.189 89.1049C153.933 89.1049 155.346 87.651 155.346 85.8576C155.346 84.0642 153.933 82.6104 152.189 82.6104C150.446 82.6104 149.032 84.0642 149.032 85.8576C149.032 87.651 150.446 89.1049 152.189 89.1049Z" fill="#FDC53D"/>
<path d="M164.54 89.1049C166.283 89.1049 167.697 87.651 167.697 85.8576C167.697 84.0642 166.283 82.6104 164.54 82.6104C162.796 82.6104 161.383 84.0642 161.383 85.8576C161.383 87.651 162.796 89.1049 164.54 89.1049Z" fill="#FDC53D"/>
<path d="M3.87092 100.899C5.61451 100.899 7.02797 99.445 7.02797 97.6516C7.02797 95.8581 5.61451 94.4043 3.87092 94.4043C2.12733 94.4043 0.713867 95.8581 0.713867 97.6516C0.713867 99.445 2.12733 100.899 3.87092 100.899Z" fill="#FDC53D"/>
<path d="M16.2342 100.899C17.9778 100.899 19.3913 99.445 19.3913 97.6516C19.3913 95.8581 17.9778 94.4043 16.2342 94.4043C14.4906 94.4043 13.0771 95.8581 13.0771 97.6516C13.0771 99.445 14.4906 100.899 16.2342 100.899Z" fill="#FDC53D"/>
<path d="M28.5838 100.899C30.3274 100.899 31.7409 99.445 31.7409 97.6516C31.7409 95.8581 30.3274 94.4043 28.5838 94.4043C26.8402 94.4043 25.4268 95.8581 25.4268 97.6516C25.4268 99.445 26.8402 100.899 28.5838 100.899Z" fill="#FDC53D"/>
<path d="M40.9481 100.899C42.6917 100.899 44.1051 99.445 44.1051 97.6516C44.1051 95.8581 42.6917 94.4043 40.9481 94.4043C39.2045 94.4043 37.791 95.8581 37.791 97.6516C37.791 99.445 39.2045 100.899 40.9481 100.899Z" fill="#FDC53D"/>
<path d="M53.3104 100.899C55.054 100.899 56.4674 99.445 56.4674 97.6516C56.4674 95.8581 55.054 94.4043 53.3104 94.4043C51.5668 94.4043 50.1533 95.8581 50.1533 97.6516C50.1533 99.445 51.5668 100.899 53.3104 100.899Z" fill="#FDC53D"/>
<path d="M65.6737 100.899C67.4172 100.899 68.8307 99.445 68.8307 97.6516C68.8307 95.8581 67.4172 94.4043 65.6737 94.4043C63.9301 94.4043 62.5166 95.8581 62.5166 97.6516C62.5166 99.445 63.9301 100.899 65.6737 100.899Z" fill="#FDC53D"/>
<path d="M78.0242 100.899C79.7678 100.899 81.1813 99.445 81.1813 97.6516C81.1813 95.8581 79.7678 94.4043 78.0242 94.4043C76.2806 94.4043 74.8672 95.8581 74.8672 97.6516C74.8672 99.445 76.2806 100.899 78.0242 100.899Z" fill="#FDC53D"/>
<path d="M90.3865 100.899C92.1301 100.899 93.5436 99.445 93.5436 97.6516C93.5436 95.8581 92.1301 94.4043 90.3865 94.4043C88.643 94.4043 87.2295 95.8581 87.2295 97.6516C87.2295 99.445 88.643 100.899 90.3865 100.899Z" fill="#FDC53D"/>
<path d="M102.75 100.899C104.493 100.899 105.907 99.445 105.907 97.6516C105.907 95.8581 104.493 94.4043 102.75 94.4043C101.006 94.4043 99.5928 95.8581 99.5928 97.6516C99.5928 99.445 101.006 100.899 102.75 100.899Z" fill="#FDC53D"/>
<path d="M115.113 100.899C116.857 100.899 118.27 99.445 118.27 97.6516C118.27 95.8581 116.857 94.4043 115.113 94.4043C113.37 94.4043 111.956 95.8581 111.956 97.6516C111.956 99.445 113.37 100.899 115.113 100.899Z" fill="#FDC53D"/>
<path d="M127.464 100.899C129.207 100.899 130.621 99.445 130.621 97.6516C130.621 95.8581 129.207 94.4043 127.464 94.4043C125.72 94.4043 124.307 95.8581 124.307 97.6516C124.307 99.445 125.72 100.899 127.464 100.899Z" fill="#FDC53D"/>
<path d="M139.827 100.899C141.571 100.899 142.984 99.445 142.984 97.6516C142.984 95.8581 141.571 94.4043 139.827 94.4043C138.083 94.4043 136.67 95.8581 136.67 97.6516C136.67 99.445 138.083 100.899 139.827 100.899Z" fill="#FDC53D"/>
<path d="M152.189 100.899C153.933 100.899 155.346 99.445 155.346 97.6516C155.346 95.8581 153.933 94.4043 152.189 94.4043C150.446 94.4043 149.032 95.8581 149.032 97.6516C149.032 99.445 150.446 100.899 152.189 100.899Z" fill="#FDC53D"/>
<path d="M164.54 100.899C166.283 100.899 167.697 99.445 167.697 97.6516C167.697 95.8581 166.283 94.4043 164.54 94.4043C162.796 94.4043 161.383 95.8581 161.383 97.6516C161.383 99.445 162.796 100.899 164.54 100.899Z" fill="#FDC53D"/>
<path d="M3.87092 112.706C5.61451 112.706 7.02797 111.252 7.02797 109.459C7.02797 107.665 5.61451 106.211 3.87092 106.211C2.12733 106.211 0.713867 107.665 0.713867 109.459C0.713867 111.252 2.12733 112.706 3.87092 112.706Z" fill="#FDC53D"/>
<path d="M16.2342 112.706C17.9778 112.706 19.3913 111.252 19.3913 109.459C19.3913 107.665 17.9778 106.211 16.2342 106.211C14.4906 106.211 13.0771 107.665 13.0771 109.459C13.0771 111.252 14.4906 112.706 16.2342 112.706Z" fill="#FDC53D"/>
<path d="M28.5838 112.706C30.3274 112.706 31.7409 111.252 31.7409 109.459C31.7409 107.665 30.3274 106.211 28.5838 106.211C26.8402 106.211 25.4268 107.665 25.4268 109.459C25.4268 111.252 26.8402 112.706 28.5838 112.706Z" fill="#FDC53D"/>
<path d="M40.9481 112.706C42.6917 112.706 44.1051 111.252 44.1051 109.459C44.1051 107.665 42.6917 106.211 40.9481 106.211C39.2045 106.211 37.791 107.665 37.791 109.459C37.791 111.252 39.2045 112.706 40.9481 112.706Z" fill="#FDC53D"/>
<path d="M53.3104 112.706C55.054 112.706 56.4674 111.252 56.4674 109.459C56.4674 107.665 55.054 106.211 53.3104 106.211C51.5668 106.211 50.1533 107.665 50.1533 109.459C50.1533 111.252 51.5668 112.706 53.3104 112.706Z" fill="#FDC53D"/>
<path d="M65.6737 112.706C67.4172 112.706 68.8307 111.252 68.8307 109.459C68.8307 107.665 67.4172 106.211 65.6737 106.211C63.9301 106.211 62.5166 107.665 62.5166 109.459C62.5166 111.252 63.9301 112.706 65.6737 112.706Z" fill="#FDC53D"/>
<path d="M78.0242 112.706C79.7678 112.706 81.1813 111.252 81.1813 109.459C81.1813 107.665 79.7678 106.211 78.0242 106.211C76.2806 106.211 74.8672 107.665 74.8672 109.459C74.8672 111.252 76.2806 112.706 78.0242 112.706Z" fill="#FDC53D"/>
<path d="M90.3865 112.706C92.1301 112.706 93.5436 111.252 93.5436 109.459C93.5436 107.665 92.1301 106.211 90.3865 106.211C88.643 106.211 87.2295 107.665 87.2295 109.459C87.2295 111.252 88.643 112.706 90.3865 112.706Z" fill="#FDC53D"/>
<path d="M102.75 112.706C104.493 112.706 105.907 111.252 105.907 109.459C105.907 107.665 104.493 106.211 102.75 106.211C101.006 106.211 99.5928 107.665 99.5928 109.459C99.5928 111.252 101.006 112.706 102.75 112.706Z" fill="#FDC53D"/>
<path d="M115.113 112.706C116.857 112.706 118.27 111.252 118.27 109.459C118.27 107.665 116.857 106.211 115.113 106.211C113.37 106.211 111.956 107.665 111.956 109.459C111.956 111.252 113.37 112.706 115.113 112.706Z" fill="#FDC53D"/>
<path d="M127.464 112.706C129.207 112.706 130.621 111.252 130.621 109.459C130.621 107.665 129.207 106.211 127.464 106.211C125.72 106.211 124.307 107.665 124.307 109.459C124.307 111.252 125.72 112.706 127.464 112.706Z" fill="#FDC53D"/>
<path d="M139.827 112.706C141.571 112.706 142.984 111.252 142.984 109.459C142.984 107.665 141.571 106.211 139.827 106.211C138.083 106.211 136.67 107.665 136.67 109.459C136.67 111.252 138.083 112.706 139.827 112.706Z" fill="#FDC53D"/>
<path d="M152.189 112.706C153.933 112.706 155.346 111.252 155.346 109.459C155.346 107.665 153.933 106.211 152.189 106.211C150.446 106.211 149.032 107.665 149.032 109.459C149.032 111.252 150.446 112.706 152.189 112.706Z" fill="#FDC53D"/>
<path d="M164.54 112.706C166.283 112.706 167.697 111.252 167.697 109.459C167.697 107.665 166.283 106.211 164.54 106.211C162.796 106.211 161.383 107.665 161.383 109.459C161.383 111.252 162.796 112.706 164.54 112.706Z" fill="#FDC53D"/>
<path d="M3.87092 124.5C5.61451 124.5 7.02797 123.046 7.02797 121.253C7.02797 119.459 5.61451 118.006 3.87092 118.006C2.12733 118.006 0.713867 119.459 0.713867 121.253C0.713867 123.046 2.12733 124.5 3.87092 124.5Z" fill="#FDC53D"/>
<path d="M16.2342 124.5C17.9778 124.5 19.3913 123.046 19.3913 121.253C19.3913 119.459 17.9778 118.006 16.2342 118.006C14.4906 118.006 13.0771 119.459 13.0771 121.253C13.0771 123.046 14.4906 124.5 16.2342 124.5Z" fill="#FDC53D"/>
<path d="M28.5838 124.5C30.3274 124.5 31.7409 123.046 31.7409 121.253C31.7409 119.459 30.3274 118.006 28.5838 118.006C26.8402 118.006 25.4268 119.459 25.4268 121.253C25.4268 123.046 26.8402 124.5 28.5838 124.5Z" fill="#FDC53D"/>
<path d="M40.9481 124.5C42.6917 124.5 44.1051 123.046 44.1051 121.253C44.1051 119.459 42.6917 118.006 40.9481 118.006C39.2045 118.006 37.791 119.459 37.791 121.253C37.791 123.046 39.2045 124.5 40.9481 124.5Z" fill="#FDC53D"/>
<path d="M53.3104 124.5C55.054 124.5 56.4674 123.046 56.4674 121.253C56.4674 119.459 55.054 118.006 53.3104 118.006C51.5668 118.006 50.1533 119.459 50.1533 121.253C50.1533 123.046 51.5668 124.5 53.3104 124.5Z" fill="#FDC53D"/>
<path d="M65.6737 124.5C67.4172 124.5 68.8307 123.046 68.8307 121.253C68.8307 119.459 67.4172 118.006 65.6737 118.006C63.9301 118.006 62.5166 119.459 62.5166 121.253C62.5166 123.046 63.9301 124.5 65.6737 124.5Z" fill="#FDC53D"/>
<path d="M78.0242 124.5C79.7678 124.5 81.1813 123.046 81.1813 121.253C81.1813 119.459 79.7678 118.006 78.0242 118.006C76.2806 118.006 74.8672 119.459 74.8672 121.253C74.8672 123.046 76.2806 124.5 78.0242 124.5Z" fill="#FDC53D"/>
<path d="M90.3865 124.5C92.1301 124.5 93.5436 123.046 93.5436 121.253C93.5436 119.459 92.1301 118.006 90.3865 118.006C88.643 118.006 87.2295 119.459 87.2295 121.253C87.2295 123.046 88.643 124.5 90.3865 124.5Z" fill="#FDC53D"/>
<path d="M102.75 124.5C104.493 124.5 105.907 123.046 105.907 121.253C105.907 119.459 104.493 118.006 102.75 118.006C101.006 118.006 99.5928 119.459 99.5928 121.253C99.5928 123.046 101.006 124.5 102.75 124.5Z" fill="#FDC53D"/>
<path d="M115.113 124.5C116.857 124.5 118.27 123.046 118.27 121.253C118.27 119.459 116.857 118.006 115.113 118.006C113.37 118.006 111.956 119.459 111.956 121.253C111.956 123.046 113.37 124.5 115.113 124.5Z" fill="#FDC53D"/>
<path d="M127.464 124.5C129.207 124.5 130.621 123.046 130.621 121.253C130.621 119.459 129.207 118.006 127.464 118.006C125.72 118.006 124.307 119.459 124.307 121.253C124.307 123.046 125.72 124.5 127.464 124.5Z" fill="#FDC53D"/>
<path d="M139.827 124.5C141.571 124.5 142.984 123.046 142.984 121.253C142.984 119.459 141.571 118.006 139.827 118.006C138.083 118.006 136.67 119.459 136.67 121.253C136.67 123.046 138.083 124.5 139.827 124.5Z" fill="#FDC53D"/>
<path d="M152.189 124.5C153.933 124.5 155.346 123.046 155.346 121.253C155.346 119.459 153.933 118.006 152.189 118.006C150.446 118.006 149.032 119.459 149.032 121.253C149.032 123.046 150.446 124.5 152.189 124.5Z" fill="#FDC53D"/>
<path d="M164.54 124.5C166.283 124.5 167.697 123.046 167.697 121.253C167.697 119.459 166.283 118.006 164.54 118.006C162.796 118.006 161.383 119.459 161.383 121.253C161.383 123.046 162.796 124.5 164.54 124.5Z" fill="#FDC53D"/>
<path d="M3.87092 136.307C5.61451 136.307 7.02797 134.853 7.02797 133.06C7.02797 131.266 5.61451 129.812 3.87092 129.812C2.12733 129.812 0.713867 131.266 0.713867 133.06C0.713867 134.853 2.12733 136.307 3.87092 136.307Z" fill="#FDC53D"/>
<path d="M16.2342 136.307C17.9778 136.307 19.3913 134.853 19.3913 133.06C19.3913 131.266 17.9778 129.812 16.2342 129.812C14.4906 129.812 13.0771 131.266 13.0771 133.06C13.0771 134.853 14.4906 136.307 16.2342 136.307Z" fill="#FDC53D"/>
<path d="M28.5838 136.307C30.3274 136.307 31.7409 134.853 31.7409 133.06C31.7409 131.266 30.3274 129.812 28.5838 129.812C26.8402 129.812 25.4268 131.266 25.4268 133.06C25.4268 134.853 26.8402 136.307 28.5838 136.307Z" fill="#FDC53D"/>
<path d="M40.9481 136.307C42.6917 136.307 44.1051 134.853 44.1051 133.06C44.1051 131.266 42.6917 129.812 40.9481 129.812C39.2045 129.812 37.791 131.266 37.791 133.06C37.791 134.853 39.2045 136.307 40.9481 136.307Z" fill="#FDC53D"/>
<path d="M53.3104 136.307C55.054 136.307 56.4674 134.853 56.4674 133.06C56.4674 131.266 55.054 129.812 53.3104 129.812C51.5668 129.812 50.1533 131.266 50.1533 133.06C50.1533 134.853 51.5668 136.307 53.3104 136.307Z" fill="#FDC53D"/>
<path d="M65.6737 136.307C67.4172 136.307 68.8307 134.853 68.8307 133.06C68.8307 131.266 67.4172 129.812 65.6737 129.812C63.9301 129.812 62.5166 131.266 62.5166 133.06C62.5166 134.853 63.9301 136.307 65.6737 136.307Z" fill="#FDC53D"/>
<path d="M78.0242 136.307C79.7678 136.307 81.1813 134.853 81.1813 133.06C81.1813 131.266 79.7678 129.812 78.0242 129.812C76.2806 129.812 74.8672 131.266 74.8672 133.06C74.8672 134.853 76.2806 136.307 78.0242 136.307Z" fill="#FDC53D"/>
<path d="M90.3865 136.307C92.1301 136.307 93.5436 134.853 93.5436 133.06C93.5436 131.266 92.1301 129.812 90.3865 129.812C88.643 129.812 87.2295 131.266 87.2295 133.06C87.2295 134.853 88.643 136.307 90.3865 136.307Z" fill="#FDC53D"/>
<path d="M102.75 136.307C104.493 136.307 105.907 134.853 105.907 133.06C105.907 131.266 104.493 129.812 102.75 129.812C101.006 129.812 99.5928 131.266 99.5928 133.06C99.5928 134.853 101.006 136.307 102.75 136.307Z" fill="#FDC53D"/>
<path d="M115.113 136.307C116.857 136.307 118.27 134.853 118.27 133.06C118.27 131.266 116.857 129.812 115.113 129.812C113.37 129.812 111.956 131.266 111.956 133.06C111.956 134.853 113.37 136.307 115.113 136.307Z" fill="#FDC53D"/>
<path d="M127.464 136.307C129.207 136.307 130.621 134.853 130.621 133.06C130.621 131.266 129.207 129.812 127.464 129.812C125.72 129.812 124.307 131.266 124.307 133.06C124.307 134.853 125.72 136.307 127.464 136.307Z" fill="#FDC53D"/>
<path d="M139.827 136.307C141.571 136.307 142.984 134.853 142.984 133.06C142.984 131.266 141.571 129.812 139.827 129.812C138.083 129.812 136.67 131.266 136.67 133.06C136.67 134.853 138.083 136.307 139.827 136.307Z" fill="#FDC53D"/>
<path d="M152.189 136.307C153.933 136.307 155.346 134.853 155.346 133.06C155.346 131.266 153.933 129.812 152.189 129.812C150.446 129.812 149.032 131.266 149.032 133.06C149.032 134.853 150.446 136.307 152.189 136.307Z" fill="#FDC53D"/>
<path d="M164.54 136.307C166.283 136.307 167.697 134.853 167.697 133.06C167.697 131.266 166.283 129.812 164.54 129.812C162.796 129.812 161.383 131.266 161.383 133.06C161.383 134.853 162.796 136.307 164.54 136.307Z" fill="#FDC53D"/>
<path d="M3.87092 148.101C5.61451 148.101 7.02797 146.647 7.02797 144.854C7.02797 143.06 5.61451 141.606 3.87092 141.606C2.12733 141.606 0.713867 143.06 0.713867 144.854C0.713867 146.647 2.12733 148.101 3.87092 148.101Z" fill="#FDC53D"/>
<path d="M16.2342 148.101C17.9778 148.101 19.3913 146.647 19.3913 144.854C19.3913 143.06 17.9778 141.606 16.2342 141.606C14.4906 141.606 13.0771 143.06 13.0771 144.854C13.0771 146.647 14.4906 148.101 16.2342 148.101Z" fill="#FDC53D"/>
<path d="M28.5838 148.101C30.3274 148.101 31.7409 146.647 31.7409 144.854C31.7409 143.06 30.3274 141.606 28.5838 141.606C26.8402 141.606 25.4268 143.06 25.4268 144.854C25.4268 146.647 26.8402 148.101 28.5838 148.101Z" fill="#FDC53D"/>
<path d="M40.9481 148.101C42.6917 148.101 44.1051 146.647 44.1051 144.854C44.1051 143.06 42.6917 141.606 40.9481 141.606C39.2045 141.606 37.791 143.06 37.791 144.854C37.791 146.647 39.2045 148.101 40.9481 148.101Z" fill="#FDC53D"/>
<path d="M53.3104 148.101C55.054 148.101 56.4674 146.647 56.4674 144.854C56.4674 143.06 55.054 141.606 53.3104 141.606C51.5668 141.606 50.1533 143.06 50.1533 144.854C50.1533 146.647 51.5668 148.101 53.3104 148.101Z" fill="#FDC53D"/>
<path d="M65.6737 148.101C67.4172 148.101 68.8307 146.647 68.8307 144.854C68.8307 143.06 67.4172 141.606 65.6737 141.606C63.9301 141.606 62.5166 143.06 62.5166 144.854C62.5166 146.647 63.9301 148.101 65.6737 148.101Z" fill="#FDC53D"/>
<path d="M78.0242 148.101C79.7678 148.101 81.1813 146.647 81.1813 144.854C81.1813 143.06 79.7678 141.606 78.0242 141.606C76.2806 141.606 74.8672 143.06 74.8672 144.854C74.8672 146.647 76.2806 148.101 78.0242 148.101Z" fill="#FDC53D"/>
<path d="M90.3865 148.101C92.1301 148.101 93.5436 146.647 93.5436 144.854C93.5436 143.06 92.1301 141.606 90.3865 141.606C88.643 141.606 87.2295 143.06 87.2295 144.854C87.2295 146.647 88.643 148.101 90.3865 148.101Z" fill="#FDC53D"/>
<path d="M102.75 148.101C104.493 148.101 105.907 146.647 105.907 144.854C105.907 143.06 104.493 141.606 102.75 141.606C101.006 141.606 99.5928 143.06 99.5928 144.854C99.5928 146.647 101.006 148.101 102.75 148.101Z" fill="#FDC53D"/>
<path d="M115.113 148.101C116.857 148.101 118.27 146.647 118.27 144.854C118.27 143.06 116.857 141.606 115.113 141.606C113.37 141.606 111.956 143.06 111.956 144.854C111.956 146.647 113.37 148.101 115.113 148.101Z" fill="#FDC53D"/>
<path d="M127.464 148.101C129.207 148.101 130.621 146.647 130.621 144.854C130.621 143.06 129.207 141.606 127.464 141.606C125.72 141.606 124.307 143.06 124.307 144.854C124.307 146.647 125.72 148.101 127.464 148.101Z" fill="#FDC53D"/>
<path d="M139.827 148.101C141.571 148.101 142.984 146.647 142.984 144.854C142.984 143.06 141.571 141.606 139.827 141.606C138.083 141.606 136.67 143.06 136.67 144.854C136.67 146.647 138.083 148.101 139.827 148.101Z" fill="#FDC53D"/>
<path d="M152.189 148.101C153.933 148.101 155.346 146.647 155.346 144.854C155.346 143.06 153.933 141.606 152.189 141.606C150.446 141.606 149.032 143.06 149.032 144.854C149.032 146.647 150.446 148.101 152.189 148.101Z" fill="#FDC53D"/>
<path d="M164.54 148.101C166.283 148.101 167.697 146.647 167.697 144.854C167.697 143.06 166.283 141.606 164.54 141.606C162.796 141.606 161.383 143.06 161.383 144.854C161.383 146.647 162.796 148.101 164.54 148.101Z" fill="#FDC53D"/>
<path d="M3.87092 159.908C5.61451 159.908 7.02797 158.454 7.02797 156.661C7.02797 154.867 5.61451 153.413 3.87092 153.413C2.12733 153.413 0.713867 154.867 0.713867 156.661C0.713867 158.454 2.12733 159.908 3.87092 159.908Z" fill="#FDC53D"/>
<path d="M16.2342 159.908C17.9778 159.908 19.3913 158.454 19.3913 156.661C19.3913 154.867 17.9778 153.413 16.2342 153.413C14.4906 153.413 13.0771 154.867 13.0771 156.661C13.0771 158.454 14.4906 159.908 16.2342 159.908Z" fill="#FDC53D"/>
<path d="M28.5838 159.908C30.3274 159.908 31.7409 158.454 31.7409 156.661C31.7409 154.867 30.3274 153.413 28.5838 153.413C26.8402 153.413 25.4268 154.867 25.4268 156.661C25.4268 158.454 26.8402 159.908 28.5838 159.908Z" fill="#FDC53D"/>
<path d="M40.9481 159.908C42.6917 159.908 44.1051 158.454 44.1051 156.661C44.1051 154.867 42.6917 153.413 40.9481 153.413C39.2045 153.413 37.791 154.867 37.791 156.661C37.791 158.454 39.2045 159.908 40.9481 159.908Z" fill="#FDC53D"/>
<path d="M53.3104 159.908C55.054 159.908 56.4674 158.454 56.4674 156.661C56.4674 154.867 55.054 153.413 53.3104 153.413C51.5668 153.413 50.1533 154.867 50.1533 156.661C50.1533 158.454 51.5668 159.908 53.3104 159.908Z" fill="#FDC53D"/>
<path d="M65.6737 159.908C67.4172 159.908 68.8307 158.454 68.8307 156.661C68.8307 154.867 67.4172 153.413 65.6737 153.413C63.9301 153.413 62.5166 154.867 62.5166 156.661C62.5166 158.454 63.9301 159.908 65.6737 159.908Z" fill="#FDC53D"/>
<path d="M78.0242 159.908C79.7678 159.908 81.1813 158.454 81.1813 156.661C81.1813 154.867 79.7678 153.413 78.0242 153.413C76.2806 153.413 74.8672 154.867 74.8672 156.661C74.8672 158.454 76.2806 159.908 78.0242 159.908Z" fill="#FDC53D"/>
<path d="M90.3865 159.908C92.1301 159.908 93.5436 158.454 93.5436 156.661C93.5436 154.867 92.1301 153.413 90.3865 153.413C88.643 153.413 87.2295 154.867 87.2295 156.661C87.2295 158.454 88.643 159.908 90.3865 159.908Z" fill="#FDC53D"/>
<path d="M102.75 159.908C104.493 159.908 105.907 158.454 105.907 156.661C105.907 154.867 104.493 153.413 102.75 153.413C101.006 153.413 99.5928 154.867 99.5928 156.661C99.5928 158.454 101.006 159.908 102.75 159.908Z" fill="#FDC53D"/>
<path d="M115.113 159.908C116.857 159.908 118.27 158.454 118.27 156.661C118.27 154.867 116.857 153.413 115.113 153.413C113.37 153.413 111.956 154.867 111.956 156.661C111.956 158.454 113.37 159.908 115.113 159.908Z" fill="#FDC53D"/>
<path d="M127.464 159.908C129.207 159.908 130.621 158.454 130.621 156.661C130.621 154.867 129.207 153.413 127.464 153.413C125.72 153.413 124.307 154.867 124.307 156.661C124.307 158.454 125.72 159.908 127.464 159.908Z" fill="#FDC53D"/>
<path d="M139.827 159.908C141.571 159.908 142.984 158.454 142.984 156.661C142.984 154.867 141.571 153.413 139.827 153.413C138.083 153.413 136.67 154.867 136.67 156.661C136.67 158.454 138.083 159.908 139.827 159.908Z" fill="#FDC53D"/>
<path d="M152.189 159.908C153.933 159.908 155.346 158.454 155.346 156.661C155.346 154.867 153.933 153.413 152.189 153.413C150.446 153.413 149.032 154.867 149.032 156.661C149.032 158.454 150.446 159.908 152.189 159.908Z" fill="#FDC53D"/>
<path d="M164.54 159.908C166.283 159.908 167.697 158.454 167.697 156.661C167.697 154.867 166.283 153.413 164.54 153.413C162.796 153.413 161.383 154.867 161.383 156.661C161.383 158.454 162.796 159.908 164.54 159.908Z" fill="#FDC53D"/>
<path d="M3.87092 171.702C5.61451 171.702 7.02797 170.248 7.02797 168.455C7.02797 166.661 5.61451 165.208 3.87092 165.208C2.12733 165.208 0.713867 166.661 0.713867 168.455C0.713867 170.248 2.12733 171.702 3.87092 171.702Z" fill="#FDC53D"/>
<path d="M16.2342 171.702C17.9778 171.702 19.3913 170.248 19.3913 168.455C19.3913 166.661 17.9778 165.208 16.2342 165.208C14.4906 165.208 13.0771 166.661 13.0771 168.455C13.0771 170.248 14.4906 171.702 16.2342 171.702Z" fill="#FDC53D"/>
<path d="M28.5838 171.702C30.3274 171.702 31.7409 170.248 31.7409 168.455C31.7409 166.661 30.3274 165.208 28.5838 165.208C26.8402 165.208 25.4268 166.661 25.4268 168.455C25.4268 170.248 26.8402 171.702 28.5838 171.702Z" fill="#FDC53D"/>
<path d="M40.9481 171.702C42.6917 171.702 44.1051 170.248 44.1051 168.455C44.1051 166.661 42.6917 165.208 40.9481 165.208C39.2045 165.208 37.791 166.661 37.791 168.455C37.791 170.248 39.2045 171.702 40.9481 171.702Z" fill="#FDC53D"/>
<path d="M53.3104 171.702C55.054 171.702 56.4674 170.248 56.4674 168.455C56.4674 166.661 55.054 165.208 53.3104 165.208C51.5668 165.208 50.1533 166.661 50.1533 168.455C50.1533 170.248 51.5668 171.702 53.3104 171.702Z" fill="#FDC53D"/>
<path d="M65.6737 171.702C67.4172 171.702 68.8307 170.248 68.8307 168.455C68.8307 166.661 67.4172 165.208 65.6737 165.208C63.9301 165.208 62.5166 166.661 62.5166 168.455C62.5166 170.248 63.9301 171.702 65.6737 171.702Z" fill="#FDC53D"/>
<path d="M78.0242 171.702C79.7678 171.702 81.1813 170.248 81.1813 168.455C81.1813 166.661 79.7678 165.208 78.0242 165.208C76.2806 165.208 74.8672 166.661 74.8672 168.455C74.8672 170.248 76.2806 171.702 78.0242 171.702Z" fill="#FDC53D"/>
<path d="M90.3865 171.702C92.1301 171.702 93.5436 170.248 93.5436 168.455C93.5436 166.661 92.1301 165.208 90.3865 165.208C88.643 165.208 87.2295 166.661 87.2295 168.455C87.2295 170.248 88.643 171.702 90.3865 171.702Z" fill="#FDC53D"/>
<path d="M102.75 171.702C104.493 171.702 105.907 170.248 105.907 168.455C105.907 166.661 104.493 165.208 102.75 165.208C101.006 165.208 99.5928 166.661 99.5928 168.455C99.5928 170.248 101.006 171.702 102.75 171.702Z" fill="#FDC53D"/>
<path d="M115.113 171.702C116.857 171.702 118.27 170.248 118.27 168.455C118.27 166.661 116.857 165.208 115.113 165.208C113.37 165.208 111.956 166.661 111.956 168.455C111.956 170.248 113.37 171.702 115.113 171.702Z" fill="#FDC53D"/>
<path d="M127.464 171.702C129.207 171.702 130.621 170.248 130.621 168.455C130.621 166.661 129.207 165.208 127.464 165.208C125.72 165.208 124.307 166.661 124.307 168.455C124.307 170.248 125.72 171.702 127.464 171.702Z" fill="#FDC53D"/>
<path d="M139.827 171.702C141.571 171.702 142.984 170.248 142.984 168.455C142.984 166.661 141.571 165.208 139.827 165.208C138.083 165.208 136.67 166.661 136.67 168.455C136.67 170.248 138.083 171.702 139.827 171.702Z" fill="#FDC53D"/>
<path d="M152.189 171.702C153.933 171.702 155.346 170.248 155.346 168.455C155.346 166.661 153.933 165.208 152.189 165.208C150.446 165.208 149.032 166.661 149.032 168.455C149.032 170.248 150.446 171.702 152.189 171.702Z" fill="#FDC53D"/>
<path d="M164.54 171.702C166.283 171.702 167.697 170.248 167.697 168.455C167.697 166.661 166.283 165.208 164.54 165.208C162.796 165.208 161.383 166.661 161.383 168.455C161.383 170.248 162.796 171.702 164.54 171.702Z" fill="#FDC53D"/>
<path d="M3.87092 183.509C5.61451 183.509 7.02797 182.055 7.02797 180.262C7.02797 178.468 5.61451 177.015 3.87092 177.015C2.12733 177.015 0.713867 178.468 0.713867 180.262C0.713867 182.055 2.12733 183.509 3.87092 183.509Z" fill="#FDC53D"/>
<path d="M16.2342 183.509C17.9778 183.509 19.3913 182.055 19.3913 180.262C19.3913 178.468 17.9778 177.015 16.2342 177.015C14.4906 177.015 13.0771 178.468 13.0771 180.262C13.0771 182.055 14.4906 183.509 16.2342 183.509Z" fill="#FDC53D"/>
<path d="M28.5838 183.509C30.3274 183.509 31.7409 182.055 31.7409 180.262C31.7409 178.468 30.3274 177.015 28.5838 177.015C26.8402 177.015 25.4268 178.468 25.4268 180.262C25.4268 182.055 26.8402 183.509 28.5838 183.509Z" fill="#FDC53D"/>
<path d="M40.9481 183.509C42.6917 183.509 44.1051 182.055 44.1051 180.262C44.1051 178.468 42.6917 177.015 40.9481 177.015C39.2045 177.015 37.791 178.468 37.791 180.262C37.791 182.055 39.2045 183.509 40.9481 183.509Z" fill="#FDC53D"/>
<path d="M53.3104 183.509C55.054 183.509 56.4674 182.055 56.4674 180.262C56.4674 178.468 55.054 177.015 53.3104 177.015C51.5668 177.015 50.1533 178.468 50.1533 180.262C50.1533 182.055 51.5668 183.509 53.3104 183.509Z" fill="#FDC53D"/>
<path d="M65.6737 183.509C67.4172 183.509 68.8307 182.055 68.8307 180.262C68.8307 178.468 67.4172 177.015 65.6737 177.015C63.9301 177.015 62.5166 178.468 62.5166 180.262C62.5166 182.055 63.9301 183.509 65.6737 183.509Z" fill="#FDC53D"/>
<path d="M78.0242 183.509C79.7678 183.509 81.1813 182.055 81.1813 180.262C81.1813 178.468 79.7678 177.015 78.0242 177.015C76.2806 177.015 74.8672 178.468 74.8672 180.262C74.8672 182.055 76.2806 183.509 78.0242 183.509Z" fill="#FDC53D"/>
<path d="M90.3865 183.509C92.1301 183.509 93.5436 182.055 93.5436 180.262C93.5436 178.468 92.1301 177.015 90.3865 177.015C88.643 177.015 87.2295 178.468 87.2295 180.262C87.2295 182.055 88.643 183.509 90.3865 183.509Z" fill="#FDC53D"/>
<path d="M102.75 183.509C104.493 183.509 105.907 182.055 105.907 180.262C105.907 178.468 104.493 177.015 102.75 177.015C101.006 177.015 99.5928 178.468 99.5928 180.262C99.5928 182.055 101.006 183.509 102.75 183.509Z" fill="#FDC53D"/>
<path d="M115.113 183.509C116.857 183.509 118.27 182.055 118.27 180.262C118.27 178.468 116.857 177.015 115.113 177.015C113.37 177.015 111.956 178.468 111.956 180.262C111.956 182.055 113.37 183.509 115.113 183.509Z" fill="#FDC53D"/>
<path d="M127.464 183.509C129.207 183.509 130.621 182.055 130.621 180.262C130.621 178.468 129.207 177.015 127.464 177.015C125.72 177.015 124.307 178.468 124.307 180.262C124.307 182.055 125.72 183.509 127.464 183.509Z" fill="#FDC53D"/>
<path d="M139.827 183.509C141.571 183.509 142.984 182.055 142.984 180.262C142.984 178.468 141.571 177.015 139.827 177.015C138.083 177.015 136.67 178.468 136.67 180.262C136.67 182.055 138.083 183.509 139.827 183.509Z" fill="#FDC53D"/>
<path d="M152.189 183.509C153.933 183.509 155.346 182.055 155.346 180.262C155.346 178.468 153.933 177.015 152.189 177.015C150.446 177.015 149.032 178.468 149.032 180.262C149.032 182.055 150.446 183.509 152.189 183.509Z" fill="#FDC53D"/>
<path d="M164.54 183.509C166.283 183.509 167.697 182.055 167.697 180.262C167.697 178.468 166.283 177.015 164.54 177.015C162.796 177.015 161.383 178.468 161.383 180.262C161.383 182.055 162.796 183.509 164.54 183.509Z" fill="#FDC53D"/>
<path d="M3.87092 195.303C5.61451 195.303 7.02797 193.849 7.02797 192.056C7.02797 190.262 5.61451 188.809 3.87092 188.809C2.12733 188.809 0.713867 190.262 0.713867 192.056C0.713867 193.849 2.12733 195.303 3.87092 195.303Z" fill="#FDC53D"/>
<path d="M16.2342 195.303C17.9778 195.303 19.3913 193.849 19.3913 192.056C19.3913 190.262 17.9778 188.809 16.2342 188.809C14.4906 188.809 13.0771 190.262 13.0771 192.056C13.0771 193.849 14.4906 195.303 16.2342 195.303Z" fill="#FDC53D"/>
<path d="M28.5838 195.303C30.3274 195.303 31.7409 193.849 31.7409 192.056C31.7409 190.262 30.3274 188.809 28.5838 188.809C26.8402 188.809 25.4268 190.262 25.4268 192.056C25.4268 193.849 26.8402 195.303 28.5838 195.303Z" fill="#FDC53D"/>
<path d="M40.9481 195.303C42.6917 195.303 44.1051 193.849 44.1051 192.056C44.1051 190.262 42.6917 188.809 40.9481 188.809C39.2045 188.809 37.791 190.262 37.791 192.056C37.791 193.849 39.2045 195.303 40.9481 195.303Z" fill="#FDC53D"/>
<path d="M53.3104 195.303C55.054 195.303 56.4674 193.849 56.4674 192.056C56.4674 190.262 55.054 188.809 53.3104 188.809C51.5668 188.809 50.1533 190.262 50.1533 192.056C50.1533 193.849 51.5668 195.303 53.3104 195.303Z" fill="#FDC53D"/>
<path d="M65.6737 195.303C67.4172 195.303 68.8307 193.849 68.8307 192.056C68.8307 190.262 67.4172 188.809 65.6737 188.809C63.9301 188.809 62.5166 190.262 62.5166 192.056C62.5166 193.849 63.9301 195.303 65.6737 195.303Z" fill="#FDC53D"/>
<path d="M78.0242 195.303C79.7678 195.303 81.1813 193.849 81.1813 192.056C81.1813 190.262 79.7678 188.809 78.0242 188.809C76.2806 188.809 74.8672 190.262 74.8672 192.056C74.8672 193.849 76.2806 195.303 78.0242 195.303Z" fill="#FDC53D"/>
<path d="M90.3865 195.303C92.1301 195.303 93.5436 193.849 93.5436 192.056C93.5436 190.262 92.1301 188.809 90.3865 188.809C88.643 188.809 87.2295 190.262 87.2295 192.056C87.2295 193.849 88.643 195.303 90.3865 195.303Z" fill="#FDC53D"/>
<path d="M102.75 195.303C104.493 195.303 105.907 193.849 105.907 192.056C105.907 190.262 104.493 188.809 102.75 188.809C101.006 188.809 99.5928 190.262 99.5928 192.056C99.5928 193.849 101.006 195.303 102.75 195.303Z" fill="#FDC53D"/>
<path d="M115.113 195.303C116.857 195.303 118.27 193.849 118.27 192.056C118.27 190.262 116.857 188.809 115.113 188.809C113.37 188.809 111.956 190.262 111.956 192.056C111.956 193.849 113.37 195.303 115.113 195.303Z" fill="#FDC53D"/>
<path d="M127.464 195.303C129.207 195.303 130.621 193.849 130.621 192.056C130.621 190.262 129.207 188.809 127.464 188.809C125.72 188.809 124.307 190.262 124.307 192.056C124.307 193.849 125.72 195.303 127.464 195.303Z" fill="#FDC53D"/>
<path d="M139.827 195.303C141.571 195.303 142.984 193.849 142.984 192.056C142.984 190.262 141.571 188.809 139.827 188.809C138.083 188.809 136.67 190.262 136.67 192.056C136.67 193.849 138.083 195.303 139.827 195.303Z" fill="#FDC53D"/>
<path d="M152.189 195.303C153.933 195.303 155.346 193.849 155.346 192.056C155.346 190.262 153.933 188.809 152.189 188.809C150.446 188.809 149.032 190.262 149.032 192.056C149.032 193.849 150.446 195.303 152.189 195.303Z" fill="#FDC53D"/>
<path d="M164.54 195.303C166.283 195.303 167.697 193.849 167.697 192.056C167.697 190.262 166.283 188.809 164.54 188.809C162.796 188.809 161.383 190.262 161.383 192.056C161.383 193.849 162.796 195.303 164.54 195.303Z" fill="#FDC53D"/>
</g>
</svg>
