<svg width="169" height="196" viewBox="0 0 169 196" fill="none" xmlns="http://www.w3.org/2000/svg">
<path d="M3.72618 6.49452C5.48099 6.49452 6.90354 5.04067 6.90354 3.24726C6.90354 1.45385 5.48099 0 3.72618 0C1.97138 0 0.548828 1.45385 0.548828 3.24726C0.548828 5.04067 1.97138 6.49452 3.72618 6.49452Z" fill="#2956A3"/>
<path d="M16.1695 6.49452C17.9243 6.49452 19.3469 5.04067 19.3469 3.24726C19.3469 1.45385 17.9243 0 16.1695 0C14.4147 0 12.9922 1.45385 12.9922 3.24726C12.9922 5.04067 14.4147 6.49452 16.1695 6.49452Z" fill="#2956A3"/>
<path d="M28.5983 6.49452C30.3531 6.49452 31.7756 5.04067 31.7756 3.24726C31.7756 1.45385 30.3531 0 28.5983 0C26.8434 0 25.4209 1.45385 25.4209 3.24726C25.4209 5.04067 26.8434 6.49452 28.5983 6.49452Z" fill="#2956A3"/>
<path d="M41.0406 6.49452C42.7954 6.49452 44.218 5.04067 44.218 3.24726C44.218 1.45385 42.7954 0 41.0406 0C39.2858 0 37.8633 1.45385 37.8633 3.24726C37.8633 5.04067 39.2858 6.49452 41.0406 6.49452Z" fill="#2956A3"/>
<path d="M53.484 6.49452C55.2388 6.49452 56.6613 5.04067 56.6613 3.24726C56.6613 1.45385 55.2388 0 53.484 0C51.7292 0 50.3066 1.45385 50.3066 3.24726C50.3066 5.04067 51.7292 6.49452 53.484 6.49452Z" fill="#2956A3"/>
<path d="M65.9264 6.49452C67.6812 6.49452 69.1037 5.04067 69.1037 3.24726C69.1037 1.45385 67.6812 0 65.9264 0C64.1716 0 62.749 1.45385 62.749 3.24726C62.749 5.04067 64.1716 6.49452 65.9264 6.49452Z" fill="#2956A3"/>
<path d="M78.3561 6.49452C80.1109 6.49452 81.5334 5.04067 81.5334 3.24726C81.5334 1.45385 80.1109 0 78.3561 0C76.6013 0 75.1787 1.45385 75.1787 3.24726C75.1787 5.04067 76.6013 6.49452 78.3561 6.49452Z" fill="#2956A3"/>
<path d="M90.7984 6.49452C92.5533 6.49452 93.9758 5.04067 93.9758 3.24726C93.9758 1.45385 92.5533 0 90.7984 0C89.0436 0 87.6211 1.45385 87.6211 3.24726C87.6211 5.04067 89.0436 6.49452 90.7984 6.49452Z" fill="#2956A3"/>
<path d="M103.241 6.49452C104.996 6.49452 106.418 5.04067 106.418 3.24726C106.418 1.45385 104.996 0 103.241 0C101.486 0 100.063 1.45385 100.063 3.24726C100.063 5.04067 101.486 6.49452 103.241 6.49452Z" fill="#2956A3"/>
<path d="M115.683 6.49452C117.438 6.49452 118.861 5.04067 118.861 3.24726C118.861 1.45385 117.438 0 115.683 0C113.928 0 112.506 1.45385 112.506 3.24726C112.506 5.04067 113.928 6.49452 115.683 6.49452Z" fill="#2956A3"/>
<path d="M128.114 6.49452C129.869 6.49452 131.291 5.04067 131.291 3.24726C131.291 1.45385 129.869 0 128.114 0C126.359 0 124.937 1.45385 124.937 3.24726C124.937 5.04067 126.359 6.49452 128.114 6.49452Z" fill="#2956A3"/>
<path d="M140.555 6.49452C142.31 6.49452 143.733 5.04067 143.733 3.24726C143.733 1.45385 142.31 0 140.555 0C138.8 0 137.378 1.45385 137.378 3.24726C137.378 5.04067 138.8 6.49452 140.555 6.49452Z" fill="#2956A3"/>
<path d="M152.999 6.49452C154.753 6.49452 156.176 5.04067 156.176 3.24726C156.176 1.45385 154.753 0 152.999 0C151.244 0 149.821 1.45385 149.821 3.24726C149.821 5.04067 151.244 6.49452 152.999 6.49452Z" fill="#2956A3"/>
<path d="M165.428 6.49452C167.183 6.49452 168.606 5.04067 168.606 3.24726C168.606 1.45385 167.183 0 165.428 0C163.674 0 162.251 1.45385 162.251 3.24726C162.251 5.04067 163.674 6.49452 165.428 6.49452Z" fill="#2956A3"/>
<path d="M3.72618 18.3016C5.48099 18.3016 6.90354 16.8478 6.90354 15.0544C6.90354 13.261 5.48099 11.8071 3.72618 11.8071C1.97138 11.8071 0.548828 13.261 0.548828 15.0544C0.548828 16.8478 1.97138 18.3016 3.72618 18.3016Z" fill="#2956A3"/>
<path d="M16.1695 18.3016C17.9243 18.3016 19.3469 16.8478 19.3469 15.0544C19.3469 13.261 17.9243 11.8071 16.1695 11.8071C14.4147 11.8071 12.9922 13.261 12.9922 15.0544C12.9922 16.8478 14.4147 18.3016 16.1695 18.3016Z" fill="#2956A3"/>
<path d="M28.5983 18.3016C30.3531 18.3016 31.7756 16.8478 31.7756 15.0544C31.7756 13.261 30.3531 11.8071 28.5983 11.8071C26.8434 11.8071 25.4209 13.261 25.4209 15.0544C25.4209 16.8478 26.8434 18.3016 28.5983 18.3016Z" fill="#2956A3"/>
<path d="M41.0406 18.3016C42.7954 18.3016 44.218 16.8478 44.218 15.0544C44.218 13.261 42.7954 11.8071 41.0406 11.8071C39.2858 11.8071 37.8633 13.261 37.8633 15.0544C37.8633 16.8478 39.2858 18.3016 41.0406 18.3016Z" fill="#2956A3"/>
<path d="M53.484 18.3016C55.2388 18.3016 56.6613 16.8478 56.6613 15.0544C56.6613 13.261 55.2388 11.8071 53.484 11.8071C51.7292 11.8071 50.3066 13.261 50.3066 15.0544C50.3066 16.8478 51.7292 18.3016 53.484 18.3016Z" fill="#2956A3"/>
<path d="M65.9264 18.3016C67.6812 18.3016 69.1037 16.8478 69.1037 15.0544C69.1037 13.261 67.6812 11.8071 65.9264 11.8071C64.1716 11.8071 62.749 13.261 62.749 15.0544C62.749 16.8478 64.1716 18.3016 65.9264 18.3016Z" fill="#2956A3"/>
<path d="M78.3561 18.3016C80.1109 18.3016 81.5334 16.8478 81.5334 15.0544C81.5334 13.261 80.1109 11.8071 78.3561 11.8071C76.6013 11.8071 75.1787 13.261 75.1787 15.0544C75.1787 16.8478 76.6013 18.3016 78.3561 18.3016Z" fill="#2956A3"/>
<path d="M90.7984 18.3016C92.5533 18.3016 93.9758 16.8478 93.9758 15.0544C93.9758 13.261 92.5533 11.8071 90.7984 11.8071C89.0436 11.8071 87.6211 13.261 87.6211 15.0544C87.6211 16.8478 89.0436 18.3016 90.7984 18.3016Z" fill="#2956A3"/>
<path d="M103.241 18.3016C104.996 18.3016 106.418 16.8478 106.418 15.0544C106.418 13.261 104.996 11.8071 103.241 11.8071C101.486 11.8071 100.063 13.261 100.063 15.0544C100.063 16.8478 101.486 18.3016 103.241 18.3016Z" fill="#2956A3"/>
<path d="M115.683 18.3016C117.438 18.3016 118.861 16.8478 118.861 15.0544C118.861 13.261 117.438 11.8071 115.683 11.8071C113.928 11.8071 112.506 13.261 112.506 15.0544C112.506 16.8478 113.928 18.3016 115.683 18.3016Z" fill="#2956A3"/>
<path d="M128.114 18.3016C129.869 18.3016 131.291 16.8478 131.291 15.0544C131.291 13.261 129.869 11.8071 128.114 11.8071C126.359 11.8071 124.937 13.261 124.937 15.0544C124.937 16.8478 126.359 18.3016 128.114 18.3016Z" fill="#2956A3"/>
<path d="M140.555 18.3016C142.31 18.3016 143.733 16.8478 143.733 15.0544C143.733 13.261 142.31 11.8071 140.555 11.8071C138.8 11.8071 137.378 13.261 137.378 15.0544C137.378 16.8478 138.8 18.3016 140.555 18.3016Z" fill="#2956A3"/>
<path d="M152.999 18.3016C154.753 18.3016 156.176 16.8478 156.176 15.0544C156.176 13.261 154.753 11.8071 152.999 11.8071C151.244 11.8071 149.821 13.261 149.821 15.0544C149.821 16.8478 151.244 18.3016 152.999 18.3016Z" fill="#2956A3"/>
<path d="M165.428 18.3016C167.183 18.3016 168.606 16.8478 168.606 15.0544C168.606 13.261 167.183 11.8071 165.428 11.8071C163.674 11.8071 162.251 13.261 162.251 15.0544C162.251 16.8478 163.674 18.3016 165.428 18.3016Z" fill="#2956A3"/>
<path d="M3.72618 30.0956C5.48099 30.0956 6.90354 28.6417 6.90354 26.8483C6.90354 25.0549 5.48099 23.6011 3.72618 23.6011C1.97138 23.6011 0.548828 25.0549 0.548828 26.8483C0.548828 28.6417 1.97138 30.0956 3.72618 30.0956Z" fill="#2956A3"/>
<path d="M16.1695 30.0954C17.9243 30.0954 19.3469 28.6415 19.3469 26.8481C19.3469 25.0547 17.9243 23.6008 16.1695 23.6008C14.4147 23.6008 12.9922 25.0547 12.9922 26.8481C12.9922 28.6415 14.4147 30.0954 16.1695 30.0954Z" fill="#2956A3"/>
<path d="M28.5983 30.0956C30.3531 30.0956 31.7756 28.6417 31.7756 26.8483C31.7756 25.0549 30.3531 23.6011 28.5983 23.6011C26.8434 23.6011 25.4209 25.0549 25.4209 26.8483C25.4209 28.6417 26.8434 30.0956 28.5983 30.0956Z" fill="#2956A3"/>
<path d="M41.0406 30.0956C42.7954 30.0956 44.218 28.6417 44.218 26.8483C44.218 25.0549 42.7954 23.6011 41.0406 23.6011C39.2858 23.6011 37.8633 25.0549 37.8633 26.8483C37.8633 28.6417 39.2858 30.0956 41.0406 30.0956Z" fill="#2956A3"/>
<path d="M53.484 30.0954C55.2388 30.0954 56.6613 28.6415 56.6613 26.8481C56.6613 25.0547 55.2388 23.6008 53.484 23.6008C51.7292 23.6008 50.3066 25.0547 50.3066 26.8481C50.3066 28.6415 51.7292 30.0954 53.484 30.0954Z" fill="#2956A3"/>
<path d="M65.9264 30.0954C67.6812 30.0954 69.1037 28.6415 69.1037 26.8481C69.1037 25.0547 67.6812 23.6008 65.9264 23.6008C64.1716 23.6008 62.749 25.0547 62.749 26.8481C62.749 28.6415 64.1716 30.0954 65.9264 30.0954Z" fill="#2956A3"/>
<path d="M78.3561 30.0956C80.1109 30.0956 81.5334 28.6417 81.5334 26.8483C81.5334 25.0549 80.1109 23.6011 78.3561 23.6011C76.6013 23.6011 75.1787 25.0549 75.1787 26.8483C75.1787 28.6417 76.6013 30.0956 78.3561 30.0956Z" fill="#2956A3"/>
<path d="M90.7984 30.0956C92.5533 30.0956 93.9758 28.6417 93.9758 26.8483C93.9758 25.0549 92.5533 23.6011 90.7984 23.6011C89.0436 23.6011 87.6211 25.0549 87.6211 26.8483C87.6211 28.6417 89.0436 30.0956 90.7984 30.0956Z" fill="#2956A3"/>
<path d="M103.241 30.0954C104.996 30.0954 106.418 28.6415 106.418 26.8481C106.418 25.0547 104.996 23.6008 103.241 23.6008C101.486 23.6008 100.063 25.0547 100.063 26.8481C100.063 28.6415 101.486 30.0954 103.241 30.0954Z" fill="#2956A3"/>
<path d="M115.683 30.0956C117.438 30.0956 118.861 28.6417 118.861 26.8483C118.861 25.0549 117.438 23.6011 115.683 23.6011C113.928 23.6011 112.506 25.0549 112.506 26.8483C112.506 28.6417 113.928 30.0956 115.683 30.0956Z" fill="#2956A3"/>
<path d="M128.114 30.0954C129.869 30.0954 131.291 28.6415 131.291 26.8481C131.291 25.0547 129.869 23.6008 128.114 23.6008C126.359 23.6008 124.937 25.0547 124.937 26.8481C124.937 28.6415 126.359 30.0954 128.114 30.0954Z" fill="#2956A3"/>
<path d="M140.555 30.0956C142.31 30.0956 143.733 28.6417 143.733 26.8483C143.733 25.0549 142.31 23.6011 140.555 23.6011C138.8 23.6011 137.378 25.0549 137.378 26.8483C137.378 28.6417 138.8 30.0956 140.555 30.0956Z" fill="#2956A3"/>
<path d="M152.999 30.0956C154.753 30.0956 156.176 28.6417 156.176 26.8483C156.176 25.0549 154.753 23.6011 152.999 23.6011C151.244 23.6011 149.821 25.0549 149.821 26.8483C149.821 28.6417 151.244 30.0956 152.999 30.0956Z" fill="#2956A3"/>
<path d="M165.428 30.0954C167.183 30.0954 168.606 28.6415 168.606 26.8481C168.606 25.0547 167.183 23.6008 165.428 23.6008C163.674 23.6008 162.251 25.0547 162.251 26.8481C162.251 28.6415 163.674 30.0954 165.428 30.0954Z" fill="#2956A3"/>
<path d="M3.72618 41.9027C5.48099 41.9027 6.90354 40.4489 6.90354 38.6555C6.90354 36.8621 5.48099 35.4082 3.72618 35.4082C1.97138 35.4082 0.548828 36.8621 0.548828 38.6555C0.548828 40.4489 1.97138 41.9027 3.72618 41.9027Z" fill="#2956A3"/>
<path d="M16.1695 41.9025C17.9243 41.9025 19.3469 40.4486 19.3469 38.6552C19.3469 36.8618 17.9243 35.408 16.1695 35.408C14.4147 35.408 12.9922 36.8618 12.9922 38.6552C12.9922 40.4486 14.4147 41.9025 16.1695 41.9025Z" fill="#2956A3"/>
<path d="M28.5983 41.9027C30.3531 41.9027 31.7756 40.4489 31.7756 38.6555C31.7756 36.8621 30.3531 35.4082 28.5983 35.4082C26.8434 35.4082 25.4209 36.8621 25.4209 38.6555C25.4209 40.4489 26.8434 41.9027 28.5983 41.9027Z" fill="#2956A3"/>
<path d="M41.0406 41.9027C42.7954 41.9027 44.218 40.4489 44.218 38.6555C44.218 36.8621 42.7954 35.4082 41.0406 35.4082C39.2858 35.4082 37.8633 36.8621 37.8633 38.6555C37.8633 40.4489 39.2858 41.9027 41.0406 41.9027Z" fill="#2956A3"/>
<path d="M53.484 41.9025C55.2388 41.9025 56.6613 40.4486 56.6613 38.6552C56.6613 36.8618 55.2388 35.408 53.484 35.408C51.7292 35.408 50.3066 36.8618 50.3066 38.6552C50.3066 40.4486 51.7292 41.9025 53.484 41.9025Z" fill="#2956A3"/>
<path d="M65.9264 41.9025C67.6812 41.9025 69.1037 40.4486 69.1037 38.6552C69.1037 36.8618 67.6812 35.408 65.9264 35.408C64.1716 35.408 62.749 36.8618 62.749 38.6552C62.749 40.4486 64.1716 41.9025 65.9264 41.9025Z" fill="#2956A3"/>
<path d="M78.3561 41.9027C80.1109 41.9027 81.5334 40.4489 81.5334 38.6555C81.5334 36.8621 80.1109 35.4082 78.3561 35.4082C76.6013 35.4082 75.1787 36.8621 75.1787 38.6555C75.1787 40.4489 76.6013 41.9027 78.3561 41.9027Z" fill="#2956A3"/>
<path d="M90.7984 41.9027C92.5533 41.9027 93.9758 40.4489 93.9758 38.6555C93.9758 36.8621 92.5533 35.4082 90.7984 35.4082C89.0436 35.4082 87.6211 36.8621 87.6211 38.6555C87.6211 40.4489 89.0436 41.9027 90.7984 41.9027Z" fill="#2956A3"/>
<path d="M103.241 41.9025C104.996 41.9025 106.418 40.4486 106.418 38.6552C106.418 36.8618 104.996 35.408 103.241 35.408C101.486 35.408 100.063 36.8618 100.063 38.6552C100.063 40.4486 101.486 41.9025 103.241 41.9025Z" fill="#2956A3"/>
<path d="M115.683 41.9027C117.438 41.9027 118.861 40.4489 118.861 38.6555C118.861 36.8621 117.438 35.4082 115.683 35.4082C113.928 35.4082 112.506 36.8621 112.506 38.6555C112.506 40.4489 113.928 41.9027 115.683 41.9027Z" fill="#2956A3"/>
<path d="M128.114 41.9025C129.869 41.9025 131.291 40.4486 131.291 38.6552C131.291 36.8618 129.869 35.408 128.114 35.408C126.359 35.408 124.937 36.8618 124.937 38.6552C124.937 40.4486 126.359 41.9025 128.114 41.9025Z" fill="#2956A3"/>
<path d="M140.555 41.9027C142.31 41.9027 143.733 40.4489 143.733 38.6555C143.733 36.8621 142.31 35.4082 140.555 35.4082C138.8 35.4082 137.378 36.8621 137.378 38.6555C137.378 40.4489 138.8 41.9027 140.555 41.9027Z" fill="#2956A3"/>
<path d="M152.999 41.9027C154.753 41.9027 156.176 40.4489 156.176 38.6555C156.176 36.8621 154.753 35.4082 152.999 35.4082C151.244 35.4082 149.821 36.8621 149.821 38.6555C149.821 40.4489 151.244 41.9027 152.999 41.9027Z" fill="#2956A3"/>
<path d="M165.428 41.9025C167.183 41.9025 168.606 40.4486 168.606 38.6552C168.606 36.8618 167.183 35.408 165.428 35.408C163.674 35.408 162.251 36.8618 162.251 38.6552C162.251 40.4486 163.674 41.9025 165.428 41.9025Z" fill="#2956A3"/>
<path d="M3.72618 53.6969C5.48099 53.6969 6.90354 52.2431 6.90354 50.4497C6.90354 48.6562 5.48099 47.2024 3.72618 47.2024C1.97138 47.2024 0.548828 48.6562 0.548828 50.4497C0.548828 52.2431 1.97138 53.6969 3.72618 53.6969Z" fill="#2956A3"/>
<path d="M16.1695 53.6967C17.9243 53.6967 19.3469 52.2428 19.3469 50.4494C19.3469 48.656 17.9243 47.2021 16.1695 47.2021C14.4147 47.2021 12.9922 48.656 12.9922 50.4494C12.9922 52.2428 14.4147 53.6967 16.1695 53.6967Z" fill="#2956A3"/>
<path d="M28.5983 53.6969C30.3531 53.6969 31.7756 52.2431 31.7756 50.4497C31.7756 48.6562 30.3531 47.2024 28.5983 47.2024C26.8434 47.2024 25.4209 48.6562 25.4209 50.4497C25.4209 52.2431 26.8434 53.6969 28.5983 53.6969Z" fill="#2956A3"/>
<path d="M41.0406 53.6969C42.7954 53.6969 44.218 52.2431 44.218 50.4497C44.218 48.6562 42.7954 47.2024 41.0406 47.2024C39.2858 47.2024 37.8633 48.6562 37.8633 50.4497C37.8633 52.2431 39.2858 53.6969 41.0406 53.6969Z" fill="#2956A3"/>
<path d="M53.484 53.6967C55.2388 53.6967 56.6613 52.2428 56.6613 50.4494C56.6613 48.656 55.2388 47.2021 53.484 47.2021C51.7292 47.2021 50.3066 48.656 50.3066 50.4494C50.3066 52.2428 51.7292 53.6967 53.484 53.6967Z" fill="#2956A3"/>
<path d="M65.9264 53.6967C67.6812 53.6967 69.1037 52.2428 69.1037 50.4494C69.1037 48.656 67.6812 47.2021 65.9264 47.2021C64.1716 47.2021 62.749 48.656 62.749 50.4494C62.749 52.2428 64.1716 53.6967 65.9264 53.6967Z" fill="#2956A3"/>
<path d="M78.3561 53.6969C80.1109 53.6969 81.5334 52.2431 81.5334 50.4497C81.5334 48.6562 80.1109 47.2024 78.3561 47.2024C76.6013 47.2024 75.1787 48.6562 75.1787 50.4497C75.1787 52.2431 76.6013 53.6969 78.3561 53.6969Z" fill="#2956A3"/>
<path d="M90.7984 53.6969C92.5533 53.6969 93.9758 52.2431 93.9758 50.4497C93.9758 48.6562 92.5533 47.2024 90.7984 47.2024C89.0436 47.2024 87.6211 48.6562 87.6211 50.4497C87.6211 52.2431 89.0436 53.6969 90.7984 53.6969Z" fill="#2956A3"/>
<path d="M103.241 53.6967C104.996 53.6967 106.418 52.2428 106.418 50.4494C106.418 48.656 104.996 47.2021 103.241 47.2021C101.486 47.2021 100.063 48.656 100.063 50.4494C100.063 52.2428 101.486 53.6967 103.241 53.6967Z" fill="#2956A3"/>
<path d="M115.683 53.6969C117.438 53.6969 118.861 52.2431 118.861 50.4497C118.861 48.6562 117.438 47.2024 115.683 47.2024C113.928 47.2024 112.506 48.6562 112.506 50.4497C112.506 52.2431 113.928 53.6969 115.683 53.6969Z" fill="#2956A3"/>
<path d="M128.114 53.6967C129.869 53.6967 131.291 52.2428 131.291 50.4494C131.291 48.656 129.869 47.2021 128.114 47.2021C126.359 47.2021 124.937 48.656 124.937 50.4494C124.937 52.2428 126.359 53.6967 128.114 53.6967Z" fill="#2956A3"/>
<path d="M140.555 53.6969C142.31 53.6969 143.733 52.2431 143.733 50.4497C143.733 48.6562 142.31 47.2024 140.555 47.2024C138.8 47.2024 137.378 48.6562 137.378 50.4497C137.378 52.2431 138.8 53.6969 140.555 53.6969Z" fill="#2956A3"/>
<path d="M152.999 53.6969C154.753 53.6969 156.176 52.2431 156.176 50.4497C156.176 48.6562 154.753 47.2024 152.999 47.2024C151.244 47.2024 149.821 48.6562 149.821 50.4497C149.821 52.2431 151.244 53.6969 152.999 53.6969Z" fill="#2956A3"/>
<path d="M165.428 53.6967C167.183 53.6967 168.606 52.2428 168.606 50.4494C168.606 48.656 167.183 47.2021 165.428 47.2021C163.674 47.2021 162.251 48.656 162.251 50.4494C162.251 52.2428 163.674 53.6967 165.428 53.6967Z" fill="#2956A3"/>
<path d="M3.72618 65.5036C5.48099 65.5036 6.90354 64.0497 6.90354 62.2563C6.90354 60.4629 5.48099 59.009 3.72618 59.009C1.97138 59.009 0.548828 60.4629 0.548828 62.2563C0.548828 64.0497 1.97138 65.5036 3.72618 65.5036Z" fill="#2956A3"/>
<path d="M16.1695 65.5036C17.9243 65.5036 19.3469 64.0497 19.3469 62.2563C19.3469 60.4629 17.9243 59.009 16.1695 59.009C14.4147 59.009 12.9922 60.4629 12.9922 62.2563C12.9922 64.0497 14.4147 65.5036 16.1695 65.5036Z" fill="#2956A3"/>
<path d="M28.5983 65.5036C30.3531 65.5036 31.7756 64.0497 31.7756 62.2563C31.7756 60.4629 30.3531 59.009 28.5983 59.009C26.8434 59.009 25.4209 60.4629 25.4209 62.2563C25.4209 64.0497 26.8434 65.5036 28.5983 65.5036Z" fill="#2956A3"/>
<path d="M41.0406 65.5036C42.7954 65.5036 44.218 64.0497 44.218 62.2563C44.218 60.4629 42.7954 59.009 41.0406 59.009C39.2858 59.009 37.8633 60.4629 37.8633 62.2563C37.8633 64.0497 39.2858 65.5036 41.0406 65.5036Z" fill="#2956A3"/>
<path d="M53.484 65.5036C55.2388 65.5036 56.6613 64.0497 56.6613 62.2563C56.6613 60.4629 55.2388 59.009 53.484 59.009C51.7292 59.009 50.3066 60.4629 50.3066 62.2563C50.3066 64.0497 51.7292 65.5036 53.484 65.5036Z" fill="#2956A3"/>
<path d="M65.9264 65.5036C67.6812 65.5036 69.1037 64.0497 69.1037 62.2563C69.1037 60.4629 67.6812 59.009 65.9264 59.009C64.1716 59.009 62.749 60.4629 62.749 62.2563C62.749 64.0497 64.1716 65.5036 65.9264 65.5036Z" fill="#2956A3"/>
<path d="M78.3561 65.5038C80.1109 65.5038 81.5334 64.0499 81.5334 62.2565C81.5334 60.4631 80.1109 59.0093 78.3561 59.0093C76.6013 59.0093 75.1787 60.4631 75.1787 62.2565C75.1787 64.0499 76.6013 65.5038 78.3561 65.5038Z" fill="#2956A3"/>
<path d="M90.7984 65.5038C92.5533 65.5038 93.9758 64.0499 93.9758 62.2565C93.9758 60.4631 92.5533 59.0093 90.7984 59.0093C89.0436 59.0093 87.6211 60.4631 87.6211 62.2565C87.6211 64.0499 89.0436 65.5038 90.7984 65.5038Z" fill="#2956A3"/>
<path d="M103.241 65.5036C104.996 65.5036 106.418 64.0497 106.418 62.2563C106.418 60.4629 104.996 59.009 103.241 59.009C101.486 59.009 100.063 60.4629 100.063 62.2563C100.063 64.0497 101.486 65.5036 103.241 65.5036Z" fill="#2956A3"/>
<path d="M115.683 65.5038C117.438 65.5038 118.861 64.0499 118.861 62.2565C118.861 60.4631 117.438 59.0093 115.683 59.0093C113.928 59.0093 112.506 60.4631 112.506 62.2565C112.506 64.0499 113.928 65.5038 115.683 65.5038Z" fill="#2956A3"/>
<path d="M128.114 65.5036C129.869 65.5036 131.291 64.0497 131.291 62.2563C131.291 60.4629 129.869 59.009 128.114 59.009C126.359 59.009 124.937 60.4629 124.937 62.2563C124.937 64.0497 126.359 65.5036 128.114 65.5036Z" fill="#2956A3"/>
<path d="M140.555 65.5038C142.31 65.5038 143.733 64.0499 143.733 62.2565C143.733 60.4631 142.31 59.0093 140.555 59.0093C138.8 59.0093 137.378 60.4631 137.378 62.2565C137.378 64.0499 138.8 65.5038 140.555 65.5038Z" fill="#2956A3"/>
<path d="M152.999 65.5036C154.753 65.5036 156.176 64.0497 156.176 62.2563C156.176 60.4629 154.753 59.009 152.999 59.009C151.244 59.009 149.821 60.4629 149.821 62.2563C149.821 64.0497 151.244 65.5036 152.999 65.5036Z" fill="#2956A3"/>
<path d="M165.428 65.5036C167.183 65.5036 168.606 64.0497 168.606 62.2563C168.606 60.4629 167.183 59.009 165.428 59.009C163.674 59.009 162.251 60.4629 162.251 62.2563C162.251 64.0497 163.674 65.5036 165.428 65.5036Z" fill="#2956A3"/>
<path d="M3.72618 77.2977C5.48099 77.2977 6.90354 75.8439 6.90354 74.0505C6.90354 72.2571 5.48099 70.8032 3.72618 70.8032C1.97138 70.8032 0.548828 72.2571 0.548828 74.0505C0.548828 75.8439 1.97138 77.2977 3.72618 77.2977Z" fill="#2956A3"/>
<path d="M16.1695 77.2977C17.9243 77.2977 19.3469 75.8439 19.3469 74.0505C19.3469 72.2571 17.9243 70.8032 16.1695 70.8032C14.4147 70.8032 12.9922 72.2571 12.9922 74.0505C12.9922 75.8439 14.4147 77.2977 16.1695 77.2977Z" fill="#2956A3"/>
<path d="M28.5983 77.2977C30.3531 77.2977 31.7756 75.8439 31.7756 74.0505C31.7756 72.2571 30.3531 70.8032 28.5983 70.8032C26.8434 70.8032 25.4209 72.2571 25.4209 74.0505C25.4209 75.8439 26.8434 77.2977 28.5983 77.2977Z" fill="#2956A3"/>
<path d="M41.0406 77.2977C42.7954 77.2977 44.218 75.8439 44.218 74.0505C44.218 72.2571 42.7954 70.8032 41.0406 70.8032C39.2858 70.8032 37.8633 72.2571 37.8633 74.0505C37.8633 75.8439 39.2858 77.2977 41.0406 77.2977Z" fill="#2956A3"/>
<path d="M53.484 77.2977C55.2388 77.2977 56.6613 75.8439 56.6613 74.0505C56.6613 72.2571 55.2388 70.8032 53.484 70.8032C51.7292 70.8032 50.3066 72.2571 50.3066 74.0505C50.3066 75.8439 51.7292 77.2977 53.484 77.2977Z" fill="#2956A3"/>
<path d="M65.9264 77.2977C67.6812 77.2977 69.1037 75.8439 69.1037 74.0505C69.1037 72.2571 67.6812 70.8032 65.9264 70.8032C64.1716 70.8032 62.749 72.2571 62.749 74.0505C62.749 75.8439 64.1716 77.2977 65.9264 77.2977Z" fill="#2956A3"/>
<path d="M78.3561 77.2977C80.1109 77.2977 81.5334 75.8439 81.5334 74.0505C81.5334 72.2571 80.1109 70.8032 78.3561 70.8032C76.6013 70.8032 75.1787 72.2571 75.1787 74.0505C75.1787 75.8439 76.6013 77.2977 78.3561 77.2977Z" fill="#2956A3"/>
<path d="M90.7984 77.2977C92.5533 77.2977 93.9758 75.8439 93.9758 74.0505C93.9758 72.2571 92.5533 70.8032 90.7984 70.8032C89.0436 70.8032 87.6211 72.2571 87.6211 74.0505C87.6211 75.8439 89.0436 77.2977 90.7984 77.2977Z" fill="#2956A3"/>
<path d="M103.241 77.2977C104.996 77.2977 106.418 75.8439 106.418 74.0505C106.418 72.2571 104.996 70.8032 103.241 70.8032C101.486 70.8032 100.063 72.2571 100.063 74.0505C100.063 75.8439 101.486 77.2977 103.241 77.2977Z" fill="#2956A3"/>
<path d="M115.683 77.2977C117.438 77.2977 118.861 75.8439 118.861 74.0505C118.861 72.2571 117.438 70.8032 115.683 70.8032C113.928 70.8032 112.506 72.2571 112.506 74.0505C112.506 75.8439 113.928 77.2977 115.683 77.2977Z" fill="#2956A3"/>
<path d="M128.114 77.2977C129.869 77.2977 131.291 75.8439 131.291 74.0505C131.291 72.2571 129.869 70.8032 128.114 70.8032C126.359 70.8032 124.937 72.2571 124.937 74.0505C124.937 75.8439 126.359 77.2977 128.114 77.2977Z" fill="#2956A3"/>
<path d="M140.555 77.2977C142.31 77.2977 143.733 75.8439 143.733 74.0505C143.733 72.2571 142.31 70.8032 140.555 70.8032C138.8 70.8032 137.378 72.2571 137.378 74.0505C137.378 75.8439 138.8 77.2977 140.555 77.2977Z" fill="#2956A3"/>
<path d="M152.999 77.2977C154.753 77.2977 156.176 75.8439 156.176 74.0505C156.176 72.2571 154.753 70.8032 152.999 70.8032C151.244 70.8032 149.821 72.2571 149.821 74.0505C149.821 75.8439 151.244 77.2977 152.999 77.2977Z" fill="#2956A3"/>
<path d="M165.428 77.2977C167.183 77.2977 168.606 75.8439 168.606 74.0505C168.606 72.2571 167.183 70.8032 165.428 70.8032C163.674 70.8032 162.251 72.2571 162.251 74.0505C162.251 75.8439 163.674 77.2977 165.428 77.2977Z" fill="#2956A3"/>
<path d="M3.72618 89.1049C5.48099 89.1049 6.90354 87.651 6.90354 85.8576C6.90354 84.0642 5.48099 82.6104 3.72618 82.6104C1.97138 82.6104 0.548828 84.0642 0.548828 85.8576C0.548828 87.651 1.97138 89.1049 3.72618 89.1049Z" fill="#2956A3"/>
<path d="M16.1695 89.1049C17.9243 89.1049 19.3469 87.651 19.3469 85.8576C19.3469 84.0642 17.9243 82.6104 16.1695 82.6104C14.4147 82.6104 12.9922 84.0642 12.9922 85.8576C12.9922 87.651 14.4147 89.1049 16.1695 89.1049Z" fill="#2956A3"/>
<path d="M28.5983 89.1049C30.3531 89.1049 31.7756 87.651 31.7756 85.8576C31.7756 84.0642 30.3531 82.6104 28.5983 82.6104C26.8434 82.6104 25.4209 84.0642 25.4209 85.8576C25.4209 87.651 26.8434 89.1049 28.5983 89.1049Z" fill="#2956A3"/>
<path d="M41.0406 89.1049C42.7954 89.1049 44.218 87.651 44.218 85.8576C44.218 84.0642 42.7954 82.6104 41.0406 82.6104C39.2858 82.6104 37.8633 84.0642 37.8633 85.8576C37.8633 87.651 39.2858 89.1049 41.0406 89.1049Z" fill="#2956A3"/>
<path d="M53.484 89.1049C55.2388 89.1049 56.6613 87.651 56.6613 85.8576C56.6613 84.0642 55.2388 82.6104 53.484 82.6104C51.7292 82.6104 50.3066 84.0642 50.3066 85.8576C50.3066 87.651 51.7292 89.1049 53.484 89.1049Z" fill="#2956A3"/>
<path d="M65.9264 89.1049C67.6812 89.1049 69.1037 87.651 69.1037 85.8576C69.1037 84.0642 67.6812 82.6104 65.9264 82.6104C64.1716 82.6104 62.749 84.0642 62.749 85.8576C62.749 87.651 64.1716 89.1049 65.9264 89.1049Z" fill="#2956A3"/>
<path d="M78.3561 89.1051C80.1109 89.1051 81.5334 87.6513 81.5334 85.8579C81.5334 84.0644 80.1109 82.6106 78.3561 82.6106C76.6013 82.6106 75.1787 84.0644 75.1787 85.8579C75.1787 87.6513 76.6013 89.1051 78.3561 89.1051Z" fill="#2956A3"/>
<path d="M90.7984 89.1051C92.5533 89.1051 93.9758 87.6513 93.9758 85.8579C93.9758 84.0644 92.5533 82.6106 90.7984 82.6106C89.0436 82.6106 87.6211 84.0644 87.6211 85.8579C87.6211 87.6513 89.0436 89.1051 90.7984 89.1051Z" fill="#2956A3"/>
<path d="M103.241 89.1049C104.996 89.1049 106.418 87.651 106.418 85.8576C106.418 84.0642 104.996 82.6104 103.241 82.6104C101.486 82.6104 100.063 84.0642 100.063 85.8576C100.063 87.651 101.486 89.1049 103.241 89.1049Z" fill="#2956A3"/>
<path d="M115.683 89.1051C117.438 89.1051 118.861 87.6513 118.861 85.8579C118.861 84.0644 117.438 82.6106 115.683 82.6106C113.928 82.6106 112.506 84.0644 112.506 85.8579C112.506 87.6513 113.928 89.1051 115.683 89.1051Z" fill="#2956A3"/>
<path d="M128.114 89.1049C129.869 89.1049 131.291 87.651 131.291 85.8576C131.291 84.0642 129.869 82.6104 128.114 82.6104C126.359 82.6104 124.937 84.0642 124.937 85.8576C124.937 87.651 126.359 89.1049 128.114 89.1049Z" fill="#2956A3"/>
<path d="M140.555 89.1051C142.31 89.1051 143.733 87.6513 143.733 85.8579C143.733 84.0644 142.31 82.6106 140.555 82.6106C138.8 82.6106 137.378 84.0644 137.378 85.8579C137.378 87.6513 138.8 89.1051 140.555 89.1051Z" fill="#2956A3"/>
<path d="M152.999 89.1049C154.753 89.1049 156.176 87.651 156.176 85.8576C156.176 84.0642 154.753 82.6104 152.999 82.6104C151.244 82.6104 149.821 84.0642 149.821 85.8576C149.821 87.651 151.244 89.1049 152.999 89.1049Z" fill="#2956A3"/>
<path d="M165.428 89.1049C167.183 89.1049 168.606 87.651 168.606 85.8576C168.606 84.0642 167.183 82.6104 165.428 82.6104C163.674 82.6104 162.251 84.0642 162.251 85.8576C162.251 87.651 163.674 89.1049 165.428 89.1049Z" fill="#2956A3"/>
<path d="M3.72618 100.899C5.48099 100.899 6.90354 99.445 6.90354 97.6516C6.90354 95.8581 5.48099 94.4043 3.72618 94.4043C1.97138 94.4043 0.548828 95.8581 0.548828 97.6516C0.548828 99.445 1.97138 100.899 3.72618 100.899Z" fill="#2956A3"/>
<path d="M16.1695 100.899C17.9243 100.899 19.3469 99.445 19.3469 97.6516C19.3469 95.8581 17.9243 94.4043 16.1695 94.4043C14.4147 94.4043 12.9922 95.8581 12.9922 97.6516C12.9922 99.445 14.4147 100.899 16.1695 100.899Z" fill="#2956A3"/>
<path d="M28.5983 100.899C30.3531 100.899 31.7756 99.445 31.7756 97.6516C31.7756 95.8581 30.3531 94.4043 28.5983 94.4043C26.8434 94.4043 25.4209 95.8581 25.4209 97.6516C25.4209 99.445 26.8434 100.899 28.5983 100.899Z" fill="#2956A3"/>
<path d="M41.0406 100.899C42.7954 100.899 44.218 99.445 44.218 97.6516C44.218 95.8581 42.7954 94.4043 41.0406 94.4043C39.2858 94.4043 37.8633 95.8581 37.8633 97.6516C37.8633 99.445 39.2858 100.899 41.0406 100.899Z" fill="#2956A3"/>
<path d="M53.484 100.899C55.2388 100.899 56.6613 99.445 56.6613 97.6516C56.6613 95.8581 55.2388 94.4043 53.484 94.4043C51.7292 94.4043 50.3066 95.8581 50.3066 97.6516C50.3066 99.445 51.7292 100.899 53.484 100.899Z" fill="#2956A3"/>
<path d="M65.9264 100.899C67.6812 100.899 69.1037 99.445 69.1037 97.6516C69.1037 95.8581 67.6812 94.4043 65.9264 94.4043C64.1716 94.4043 62.749 95.8581 62.749 97.6516C62.749 99.445 64.1716 100.899 65.9264 100.899Z" fill="#2956A3"/>
<path d="M78.3561 100.899C80.1109 100.899 81.5334 99.445 81.5334 97.6516C81.5334 95.8581 80.1109 94.4043 78.3561 94.4043C76.6013 94.4043 75.1787 95.8581 75.1787 97.6516C75.1787 99.445 76.6013 100.899 78.3561 100.899Z" fill="#2956A3"/>
<path d="M90.7984 100.899C92.5533 100.899 93.9758 99.445 93.9758 97.6516C93.9758 95.8581 92.5533 94.4043 90.7984 94.4043C89.0436 94.4043 87.6211 95.8581 87.6211 97.6516C87.6211 99.445 89.0436 100.899 90.7984 100.899Z" fill="#2956A3"/>
<path d="M103.241 100.899C104.996 100.899 106.418 99.445 106.418 97.6516C106.418 95.8581 104.996 94.4043 103.241 94.4043C101.486 94.4043 100.063 95.8581 100.063 97.6516C100.063 99.445 101.486 100.899 103.241 100.899Z" fill="#2956A3"/>
<path d="M115.683 100.899C117.438 100.899 118.861 99.445 118.861 97.6516C118.861 95.8581 117.438 94.4043 115.683 94.4043C113.928 94.4043 112.506 95.8581 112.506 97.6516C112.506 99.445 113.928 100.899 115.683 100.899Z" fill="#2956A3"/>
<path d="M128.114 100.899C129.869 100.899 131.291 99.445 131.291 97.6516C131.291 95.8581 129.869 94.4043 128.114 94.4043C126.359 94.4043 124.937 95.8581 124.937 97.6516C124.937 99.445 126.359 100.899 128.114 100.899Z" fill="#2956A3"/>
<path d="M140.555 100.899C142.31 100.899 143.733 99.445 143.733 97.6516C143.733 95.8581 142.31 94.4043 140.555 94.4043C138.8 94.4043 137.378 95.8581 137.378 97.6516C137.378 99.445 138.8 100.899 140.555 100.899Z" fill="#2956A3"/>
<path d="M152.999 100.899C154.753 100.899 156.176 99.445 156.176 97.6516C156.176 95.8581 154.753 94.4043 152.999 94.4043C151.244 94.4043 149.821 95.8581 149.821 97.6516C149.821 99.445 151.244 100.899 152.999 100.899Z" fill="#2956A3"/>
<path d="M165.428 100.899C167.183 100.899 168.606 99.445 168.606 97.6516C168.606 95.8581 167.183 94.4043 165.428 94.4043C163.674 94.4043 162.251 95.8581 162.251 97.6516C162.251 99.445 163.674 100.899 165.428 100.899Z" fill="#2956A3"/>
<path d="M3.72618 112.706C5.48099 112.706 6.90354 111.252 6.90354 109.459C6.90354 107.665 5.48099 106.211 3.72618 106.211C1.97138 106.211 0.548828 107.665 0.548828 109.459C0.548828 111.252 1.97138 112.706 3.72618 112.706Z" fill="#2956A3"/>
<path d="M16.1695 112.706C17.9243 112.706 19.3469 111.252 19.3469 109.459C19.3469 107.665 17.9243 106.211 16.1695 106.211C14.4147 106.211 12.9922 107.665 12.9922 109.459C12.9922 111.252 14.4147 112.706 16.1695 112.706Z" fill="#2956A3"/>
<path d="M28.5983 112.706C30.3531 112.706 31.7756 111.252 31.7756 109.459C31.7756 107.665 30.3531 106.211 28.5983 106.211C26.8434 106.211 25.4209 107.665 25.4209 109.459C25.4209 111.252 26.8434 112.706 28.5983 112.706Z" fill="#2956A3"/>
<path d="M41.0406 112.706C42.7954 112.706 44.218 111.252 44.218 109.459C44.218 107.665 42.7954 106.211 41.0406 106.211C39.2858 106.211 37.8633 107.665 37.8633 109.459C37.8633 111.252 39.2858 112.706 41.0406 112.706Z" fill="#2956A3"/>
<path d="M53.484 112.706C55.2388 112.706 56.6613 111.252 56.6613 109.459C56.6613 107.665 55.2388 106.211 53.484 106.211C51.7292 106.211 50.3066 107.665 50.3066 109.459C50.3066 111.252 51.7292 112.706 53.484 112.706Z" fill="#2956A3"/>
<path d="M65.9264 112.706C67.6812 112.706 69.1037 111.252 69.1037 109.459C69.1037 107.665 67.6812 106.211 65.9264 106.211C64.1716 106.211 62.749 107.665 62.749 109.459C62.749 111.252 64.1716 112.706 65.9264 112.706Z" fill="#2956A3"/>
<path d="M78.3561 112.706C80.1109 112.706 81.5334 111.252 81.5334 109.459C81.5334 107.665 80.1109 106.211 78.3561 106.211C76.6013 106.211 75.1787 107.665 75.1787 109.459C75.1787 111.252 76.6013 112.706 78.3561 112.706Z" fill="#2956A3"/>
<path d="M90.7984 112.706C92.5533 112.706 93.9758 111.252 93.9758 109.459C93.9758 107.665 92.5533 106.211 90.7984 106.211C89.0436 106.211 87.6211 107.665 87.6211 109.459C87.6211 111.252 89.0436 112.706 90.7984 112.706Z" fill="#2956A3"/>
<path d="M103.241 112.706C104.996 112.706 106.418 111.252 106.418 109.459C106.418 107.665 104.996 106.211 103.241 106.211C101.486 106.211 100.063 107.665 100.063 109.459C100.063 111.252 101.486 112.706 103.241 112.706Z" fill="#2956A3"/>
<path d="M115.683 112.706C117.438 112.706 118.861 111.252 118.861 109.459C118.861 107.665 117.438 106.211 115.683 106.211C113.928 106.211 112.506 107.665 112.506 109.459C112.506 111.252 113.928 112.706 115.683 112.706Z" fill="#2956A3"/>
<path d="M128.114 112.706C129.869 112.706 131.291 111.252 131.291 109.459C131.291 107.665 129.869 106.211 128.114 106.211C126.359 106.211 124.937 107.665 124.937 109.459C124.937 111.252 126.359 112.706 128.114 112.706Z" fill="#2956A3"/>
<path d="M140.555 112.706C142.31 112.706 143.733 111.252 143.733 109.459C143.733 107.665 142.31 106.211 140.555 106.211C138.8 106.211 137.378 107.665 137.378 109.459C137.378 111.252 138.8 112.706 140.555 112.706Z" fill="#2956A3"/>
<path d="M152.999 112.706C154.753 112.706 156.176 111.252 156.176 109.459C156.176 107.665 154.753 106.211 152.999 106.211C151.244 106.211 149.821 107.665 149.821 109.459C149.821 111.252 151.244 112.706 152.999 112.706Z" fill="#2956A3"/>
<path d="M165.428 112.706C167.183 112.706 168.606 111.252 168.606 109.459C168.606 107.665 167.183 106.211 165.428 106.211C163.674 106.211 162.251 107.665 162.251 109.459C162.251 111.252 163.674 112.706 165.428 112.706Z" fill="#2956A3"/>
<path d="M3.72618 124.5C5.48099 124.5 6.90354 123.046 6.90354 121.253C6.90354 119.459 5.48099 118.006 3.72618 118.006C1.97138 118.006 0.548828 119.459 0.548828 121.253C0.548828 123.046 1.97138 124.5 3.72618 124.5Z" fill="#2956A3"/>
<path d="M16.1695 124.5C17.9243 124.5 19.3469 123.046 19.3469 121.253C19.3469 119.459 17.9243 118.006 16.1695 118.006C14.4147 118.006 12.9922 119.459 12.9922 121.253C12.9922 123.046 14.4147 124.5 16.1695 124.5Z" fill="#2956A3"/>
<path d="M28.5983 124.5C30.3531 124.5 31.7756 123.046 31.7756 121.253C31.7756 119.459 30.3531 118.006 28.5983 118.006C26.8434 118.006 25.4209 119.459 25.4209 121.253C25.4209 123.046 26.8434 124.5 28.5983 124.5Z" fill="#2956A3"/>
<path d="M41.0406 124.5C42.7954 124.5 44.218 123.046 44.218 121.253C44.218 119.459 42.7954 118.006 41.0406 118.006C39.2858 118.006 37.8633 119.459 37.8633 121.253C37.8633 123.046 39.2858 124.5 41.0406 124.5Z" fill="#2956A3"/>
<path d="M53.484 124.5C55.2388 124.5 56.6613 123.046 56.6613 121.253C56.6613 119.459 55.2388 118.006 53.484 118.006C51.7292 118.006 50.3066 119.459 50.3066 121.253C50.3066 123.046 51.7292 124.5 53.484 124.5Z" fill="#2956A3"/>
<path d="M65.9264 124.5C67.6812 124.5 69.1037 123.046 69.1037 121.253C69.1037 119.459 67.6812 118.006 65.9264 118.006C64.1716 118.006 62.749 119.459 62.749 121.253C62.749 123.046 64.1716 124.5 65.9264 124.5Z" fill="#2956A3"/>
<path d="M78.3561 124.5C80.1109 124.5 81.5334 123.046 81.5334 121.253C81.5334 119.459 80.1109 118.006 78.3561 118.006C76.6013 118.006 75.1787 119.459 75.1787 121.253C75.1787 123.046 76.6013 124.5 78.3561 124.5Z" fill="#2956A3"/>
<path d="M90.7984 124.5C92.5533 124.5 93.9758 123.046 93.9758 121.253C93.9758 119.459 92.5533 118.006 90.7984 118.006C89.0436 118.006 87.6211 119.459 87.6211 121.253C87.6211 123.046 89.0436 124.5 90.7984 124.5Z" fill="#2956A3"/>
<path d="M103.241 124.5C104.996 124.5 106.418 123.046 106.418 121.253C106.418 119.459 104.996 118.006 103.241 118.006C101.486 118.006 100.063 119.459 100.063 121.253C100.063 123.046 101.486 124.5 103.241 124.5Z" fill="#2956A3"/>
<path d="M115.683 124.5C117.438 124.5 118.861 123.046 118.861 121.253C118.861 119.459 117.438 118.006 115.683 118.006C113.928 118.006 112.506 119.459 112.506 121.253C112.506 123.046 113.928 124.5 115.683 124.5Z" fill="#2956A3"/>
<path d="M128.114 124.5C129.869 124.5 131.291 123.046 131.291 121.253C131.291 119.459 129.869 118.006 128.114 118.006C126.359 118.006 124.937 119.459 124.937 121.253C124.937 123.046 126.359 124.5 128.114 124.5Z" fill="#2956A3"/>
<path d="M140.555 124.5C142.31 124.5 143.733 123.046 143.733 121.253C143.733 119.459 142.31 118.006 140.555 118.006C138.8 118.006 137.378 119.459 137.378 121.253C137.378 123.046 138.8 124.5 140.555 124.5Z" fill="#2956A3"/>
<path d="M152.999 124.5C154.753 124.5 156.176 123.046 156.176 121.253C156.176 119.459 154.753 118.006 152.999 118.006C151.244 118.006 149.821 119.459 149.821 121.253C149.821 123.046 151.244 124.5 152.999 124.5Z" fill="#2956A3"/>
<path d="M165.428 124.5C167.183 124.5 168.606 123.046 168.606 121.253C168.606 119.459 167.183 118.006 165.428 118.006C163.674 118.006 162.251 119.459 162.251 121.253C162.251 123.046 163.674 124.5 165.428 124.5Z" fill="#2956A3"/>
<path d="M3.72618 136.307C5.48099 136.307 6.90354 134.853 6.90354 133.06C6.90354 131.266 5.48099 129.812 3.72618 129.812C1.97138 129.812 0.548828 131.266 0.548828 133.06C0.548828 134.853 1.97138 136.307 3.72618 136.307Z" fill="#2956A3"/>
<path d="M16.1695 136.307C17.9243 136.307 19.3469 134.853 19.3469 133.06C19.3469 131.266 17.9243 129.812 16.1695 129.812C14.4147 129.812 12.9922 131.266 12.9922 133.06C12.9922 134.853 14.4147 136.307 16.1695 136.307Z" fill="#2956A3"/>
<path d="M28.5983 136.307C30.3531 136.307 31.7756 134.853 31.7756 133.06C31.7756 131.266 30.3531 129.812 28.5983 129.812C26.8434 129.812 25.4209 131.266 25.4209 133.06C25.4209 134.853 26.8434 136.307 28.5983 136.307Z" fill="#2956A3"/>
<path d="M41.0406 136.307C42.7954 136.307 44.218 134.853 44.218 133.06C44.218 131.266 42.7954 129.812 41.0406 129.812C39.2858 129.812 37.8633 131.266 37.8633 133.06C37.8633 134.853 39.2858 136.307 41.0406 136.307Z" fill="#2956A3"/>
<path d="M53.484 136.307C55.2388 136.307 56.6613 134.853 56.6613 133.06C56.6613 131.266 55.2388 129.812 53.484 129.812C51.7292 129.812 50.3066 131.266 50.3066 133.06C50.3066 134.853 51.7292 136.307 53.484 136.307Z" fill="#2956A3"/>
<path d="M65.9264 136.307C67.6812 136.307 69.1037 134.853 69.1037 133.06C69.1037 131.266 67.6812 129.812 65.9264 129.812C64.1716 129.812 62.749 131.266 62.749 133.06C62.749 134.853 64.1716 136.307 65.9264 136.307Z" fill="#2956A3"/>
<path d="M78.3561 136.307C80.1109 136.307 81.5334 134.853 81.5334 133.06C81.5334 131.266 80.1109 129.812 78.3561 129.812C76.6013 129.812 75.1787 131.266 75.1787 133.06C75.1787 134.853 76.6013 136.307 78.3561 136.307Z" fill="#2956A3"/>
<path d="M90.7984 136.307C92.5533 136.307 93.9758 134.853 93.9758 133.06C93.9758 131.266 92.5533 129.812 90.7984 129.812C89.0436 129.812 87.6211 131.266 87.6211 133.06C87.6211 134.853 89.0436 136.307 90.7984 136.307Z" fill="#2956A3"/>
<path d="M103.241 136.307C104.996 136.307 106.418 134.853 106.418 133.06C106.418 131.266 104.996 129.812 103.241 129.812C101.486 129.812 100.063 131.266 100.063 133.06C100.063 134.853 101.486 136.307 103.241 136.307Z" fill="#2956A3"/>
<path d="M115.683 136.307C117.438 136.307 118.861 134.853 118.861 133.06C118.861 131.266 117.438 129.812 115.683 129.812C113.928 129.812 112.506 131.266 112.506 133.06C112.506 134.853 113.928 136.307 115.683 136.307Z" fill="#2956A3"/>
<path d="M128.114 136.307C129.869 136.307 131.291 134.853 131.291 133.06C131.291 131.266 129.869 129.812 128.114 129.812C126.359 129.812 124.937 131.266 124.937 133.06C124.937 134.853 126.359 136.307 128.114 136.307Z" fill="#2956A3"/>
<path d="M140.555 136.307C142.31 136.307 143.733 134.853 143.733 133.06C143.733 131.266 142.31 129.812 140.555 129.812C138.8 129.812 137.378 131.266 137.378 133.06C137.378 134.853 138.8 136.307 140.555 136.307Z" fill="#2956A3"/>
<path d="M152.999 136.307C154.753 136.307 156.176 134.853 156.176 133.06C156.176 131.266 154.753 129.812 152.999 129.812C151.244 129.812 149.821 131.266 149.821 133.06C149.821 134.853 151.244 136.307 152.999 136.307Z" fill="#2956A3"/>
<path d="M165.428 136.307C167.183 136.307 168.606 134.853 168.606 133.06C168.606 131.266 167.183 129.812 165.428 129.812C163.674 129.812 162.251 131.266 162.251 133.06C162.251 134.853 163.674 136.307 165.428 136.307Z" fill="#2956A3"/>
<path d="M3.72618 148.101C5.48099 148.101 6.90354 146.647 6.90354 144.854C6.90354 143.06 5.48099 141.606 3.72618 141.606C1.97138 141.606 0.548828 143.06 0.548828 144.854C0.548828 146.647 1.97138 148.101 3.72618 148.101Z" fill="#2956A3"/>
<path d="M16.1695 148.101C17.9243 148.101 19.3469 146.647 19.3469 144.854C19.3469 143.06 17.9243 141.606 16.1695 141.606C14.4147 141.606 12.9922 143.06 12.9922 144.854C12.9922 146.647 14.4147 148.101 16.1695 148.101Z" fill="#2956A3"/>
<path d="M28.5983 148.101C30.3531 148.101 31.7756 146.647 31.7756 144.854C31.7756 143.06 30.3531 141.606 28.5983 141.606C26.8434 141.606 25.4209 143.06 25.4209 144.854C25.4209 146.647 26.8434 148.101 28.5983 148.101Z" fill="#2956A3"/>
<path d="M41.0406 148.101C42.7954 148.101 44.218 146.647 44.218 144.854C44.218 143.06 42.7954 141.606 41.0406 141.606C39.2858 141.606 37.8633 143.06 37.8633 144.854C37.8633 146.647 39.2858 148.101 41.0406 148.101Z" fill="#2956A3"/>
<path d="M53.484 148.101C55.2388 148.101 56.6613 146.647 56.6613 144.854C56.6613 143.06 55.2388 141.606 53.484 141.606C51.7292 141.606 50.3066 143.06 50.3066 144.854C50.3066 146.647 51.7292 148.101 53.484 148.101Z" fill="#2956A3"/>
<path d="M65.9264 148.101C67.6812 148.101 69.1037 146.647 69.1037 144.854C69.1037 143.06 67.6812 141.606 65.9264 141.606C64.1716 141.606 62.749 143.06 62.749 144.854C62.749 146.647 64.1716 148.101 65.9264 148.101Z" fill="#2956A3"/>
<path d="M78.3561 148.101C80.1109 148.101 81.5334 146.647 81.5334 144.854C81.5334 143.061 80.1109 141.607 78.3561 141.607C76.6013 141.607 75.1787 143.061 75.1787 144.854C75.1787 146.647 76.6013 148.101 78.3561 148.101Z" fill="#2956A3"/>
<path d="M90.7984 148.101C92.5533 148.101 93.9758 146.647 93.9758 144.854C93.9758 143.061 92.5533 141.607 90.7984 141.607C89.0436 141.607 87.6211 143.061 87.6211 144.854C87.6211 146.647 89.0436 148.101 90.7984 148.101Z" fill="#2956A3"/>
<path d="M103.241 148.101C104.996 148.101 106.418 146.647 106.418 144.854C106.418 143.06 104.996 141.606 103.241 141.606C101.486 141.606 100.063 143.06 100.063 144.854C100.063 146.647 101.486 148.101 103.241 148.101Z" fill="#2956A3"/>
<path d="M115.683 148.101C117.438 148.101 118.861 146.647 118.861 144.854C118.861 143.061 117.438 141.607 115.683 141.607C113.928 141.607 112.506 143.061 112.506 144.854C112.506 146.647 113.928 148.101 115.683 148.101Z" fill="#2956A3"/>
<path d="M128.114 148.101C129.869 148.101 131.291 146.647 131.291 144.854C131.291 143.06 129.869 141.606 128.114 141.606C126.359 141.606 124.937 143.06 124.937 144.854C124.937 146.647 126.359 148.101 128.114 148.101Z" fill="#2956A3"/>
<path d="M140.555 148.101C142.31 148.101 143.733 146.647 143.733 144.854C143.733 143.061 142.31 141.607 140.555 141.607C138.8 141.607 137.378 143.061 137.378 144.854C137.378 146.647 138.8 148.101 140.555 148.101Z" fill="#2956A3"/>
<path d="M152.999 148.101C154.753 148.101 156.176 146.647 156.176 144.854C156.176 143.06 154.753 141.606 152.999 141.606C151.244 141.606 149.821 143.06 149.821 144.854C149.821 146.647 151.244 148.101 152.999 148.101Z" fill="#2956A3"/>
<path d="M165.428 148.101C167.183 148.101 168.606 146.647 168.606 144.854C168.606 143.06 167.183 141.606 165.428 141.606C163.674 141.606 162.251 143.06 162.251 144.854C162.251 146.647 163.674 148.101 165.428 148.101Z" fill="#2956A3"/>
<path d="M3.72618 159.908C5.48099 159.908 6.90354 158.454 6.90354 156.661C6.90354 154.867 5.48099 153.413 3.72618 153.413C1.97138 153.413 0.548828 154.867 0.548828 156.661C0.548828 158.454 1.97138 159.908 3.72618 159.908Z" fill="#2956A3"/>
<path d="M16.1695 159.908C17.9243 159.908 19.3469 158.454 19.3469 156.661C19.3469 154.867 17.9243 153.413 16.1695 153.413C14.4147 153.413 12.9922 154.867 12.9922 156.661C12.9922 158.454 14.4147 159.908 16.1695 159.908Z" fill="#2956A3"/>
<path d="M28.5983 159.908C30.3531 159.908 31.7756 158.454 31.7756 156.661C31.7756 154.867 30.3531 153.413 28.5983 153.413C26.8434 153.413 25.4209 154.867 25.4209 156.661C25.4209 158.454 26.8434 159.908 28.5983 159.908Z" fill="#2956A3"/>
<path d="M41.0406 159.908C42.7954 159.908 44.218 158.454 44.218 156.661C44.218 154.867 42.7954 153.413 41.0406 153.413C39.2858 153.413 37.8633 154.867 37.8633 156.661C37.8633 158.454 39.2858 159.908 41.0406 159.908Z" fill="#2956A3"/>
<path d="M53.484 159.908C55.2388 159.908 56.6613 158.454 56.6613 156.661C56.6613 154.867 55.2388 153.413 53.484 153.413C51.7292 153.413 50.3066 154.867 50.3066 156.661C50.3066 158.454 51.7292 159.908 53.484 159.908Z" fill="#2956A3"/>
<path d="M65.9264 159.908C67.6812 159.908 69.1037 158.454 69.1037 156.661C69.1037 154.867 67.6812 153.413 65.9264 153.413C64.1716 153.413 62.749 154.867 62.749 156.661C62.749 158.454 64.1716 159.908 65.9264 159.908Z" fill="#2956A3"/>
<path d="M78.3561 159.908C80.1109 159.908 81.5334 158.454 81.5334 156.661C81.5334 154.867 80.1109 153.413 78.3561 153.413C76.6013 153.413 75.1787 154.867 75.1787 156.661C75.1787 158.454 76.6013 159.908 78.3561 159.908Z" fill="#2956A3"/>
<path d="M90.7984 159.908C92.5533 159.908 93.9758 158.454 93.9758 156.661C93.9758 154.867 92.5533 153.413 90.7984 153.413C89.0436 153.413 87.6211 154.867 87.6211 156.661C87.6211 158.454 89.0436 159.908 90.7984 159.908Z" fill="#2956A3"/>
<path d="M103.241 159.908C104.996 159.908 106.418 158.454 106.418 156.661C106.418 154.867 104.996 153.413 103.241 153.413C101.486 153.413 100.063 154.867 100.063 156.661C100.063 158.454 101.486 159.908 103.241 159.908Z" fill="#2956A3"/>
<path d="M115.683 159.908C117.438 159.908 118.861 158.454 118.861 156.661C118.861 154.867 117.438 153.413 115.683 153.413C113.928 153.413 112.506 154.867 112.506 156.661C112.506 158.454 113.928 159.908 115.683 159.908Z" fill="#2956A3"/>
<path d="M128.114 159.908C129.869 159.908 131.291 158.454 131.291 156.661C131.291 154.867 129.869 153.413 128.114 153.413C126.359 153.413 124.937 154.867 124.937 156.661C124.937 158.454 126.359 159.908 128.114 159.908Z" fill="#2956A3"/>
<path d="M140.555 159.908C142.31 159.908 143.733 158.454 143.733 156.661C143.733 154.867 142.31 153.413 140.555 153.413C138.8 153.413 137.378 154.867 137.378 156.661C137.378 158.454 138.8 159.908 140.555 159.908Z" fill="#2956A3"/>
<path d="M152.999 159.908C154.753 159.908 156.176 158.454 156.176 156.661C156.176 154.867 154.753 153.413 152.999 153.413C151.244 153.413 149.821 154.867 149.821 156.661C149.821 158.454 151.244 159.908 152.999 159.908Z" fill="#2956A3"/>
<path d="M165.428 159.908C167.183 159.908 168.606 158.454 168.606 156.661C168.606 154.867 167.183 153.413 165.428 153.413C163.674 153.413 162.251 154.867 162.251 156.661C162.251 158.454 163.674 159.908 165.428 159.908Z" fill="#2956A3"/>
<path d="M3.72618 171.702C5.48099 171.702 6.90354 170.248 6.90354 168.455C6.90354 166.661 5.48099 165.208 3.72618 165.208C1.97138 165.208 0.548828 166.661 0.548828 168.455C0.548828 170.248 1.97138 171.702 3.72618 171.702Z" fill="#2956A3"/>
<path d="M16.1695 171.702C17.9243 171.702 19.3469 170.248 19.3469 168.455C19.3469 166.661 17.9243 165.208 16.1695 165.208C14.4147 165.208 12.9922 166.661 12.9922 168.455C12.9922 170.248 14.4147 171.702 16.1695 171.702Z" fill="#2956A3"/>
<path d="M28.5983 171.702C30.3531 171.702 31.7756 170.248 31.7756 168.455C31.7756 166.661 30.3531 165.208 28.5983 165.208C26.8434 165.208 25.4209 166.661 25.4209 168.455C25.4209 170.248 26.8434 171.702 28.5983 171.702Z" fill="#2956A3"/>
<path d="M41.0406 171.702C42.7954 171.702 44.218 170.248 44.218 168.455C44.218 166.661 42.7954 165.208 41.0406 165.208C39.2858 165.208 37.8633 166.661 37.8633 168.455C37.8633 170.248 39.2858 171.702 41.0406 171.702Z" fill="#2956A3"/>
<path d="M53.484 171.702C55.2388 171.702 56.6613 170.248 56.6613 168.455C56.6613 166.661 55.2388 165.208 53.484 165.208C51.7292 165.208 50.3066 166.661 50.3066 168.455C50.3066 170.248 51.7292 171.702 53.484 171.702Z" fill="#2956A3"/>
<path d="M65.9264 171.702C67.6812 171.702 69.1037 170.248 69.1037 168.455C69.1037 166.661 67.6812 165.208 65.9264 165.208C64.1716 165.208 62.749 166.661 62.749 168.455C62.749 170.248 64.1716 171.702 65.9264 171.702Z" fill="#2956A3"/>
<path d="M78.3561 171.702C80.1109 171.702 81.5334 170.248 81.5334 168.455C81.5334 166.661 80.1109 165.208 78.3561 165.208C76.6013 165.208 75.1787 166.661 75.1787 168.455C75.1787 170.248 76.6013 171.702 78.3561 171.702Z" fill="#2956A3"/>
<path d="M90.7984 171.702C92.5533 171.702 93.9758 170.248 93.9758 168.455C93.9758 166.661 92.5533 165.208 90.7984 165.208C89.0436 165.208 87.6211 166.661 87.6211 168.455C87.6211 170.248 89.0436 171.702 90.7984 171.702Z" fill="#2956A3"/>
<path d="M103.241 171.702C104.996 171.702 106.418 170.248 106.418 168.455C106.418 166.661 104.996 165.208 103.241 165.208C101.486 165.208 100.063 166.661 100.063 168.455C100.063 170.248 101.486 171.702 103.241 171.702Z" fill="#2956A3"/>
<path d="M115.683 171.702C117.438 171.702 118.861 170.248 118.861 168.455C118.861 166.661 117.438 165.208 115.683 165.208C113.928 165.208 112.506 166.661 112.506 168.455C112.506 170.248 113.928 171.702 115.683 171.702Z" fill="#2956A3"/>
<path d="M128.114 171.702C129.869 171.702 131.291 170.248 131.291 168.455C131.291 166.661 129.869 165.208 128.114 165.208C126.359 165.208 124.937 166.661 124.937 168.455C124.937 170.248 126.359 171.702 128.114 171.702Z" fill="#2956A3"/>
<path d="M140.555 171.702C142.31 171.702 143.733 170.248 143.733 168.455C143.733 166.661 142.31 165.208 140.555 165.208C138.8 165.208 137.378 166.661 137.378 168.455C137.378 170.248 138.8 171.702 140.555 171.702Z" fill="#2956A3"/>
<path d="M152.999 171.702C154.753 171.702 156.176 170.248 156.176 168.455C156.176 166.661 154.753 165.208 152.999 165.208C151.244 165.208 149.821 166.661 149.821 168.455C149.821 170.248 151.244 171.702 152.999 171.702Z" fill="#2956A3"/>
<path d="M165.428 171.702C167.183 171.702 168.606 170.248 168.606 168.455C168.606 166.661 167.183 165.208 165.428 165.208C163.674 165.208 162.251 166.661 162.251 168.455C162.251 170.248 163.674 171.702 165.428 171.702Z" fill="#2956A3"/>
<path d="M3.72618 183.509C5.48099 183.509 6.90354 182.055 6.90354 180.262C6.90354 178.468 5.48099 177.015 3.72618 177.015C1.97138 177.015 0.548828 178.468 0.548828 180.262C0.548828 182.055 1.97138 183.509 3.72618 183.509Z" fill="#2956A3"/>
<path d="M16.1695 183.509C17.9243 183.509 19.3469 182.055 19.3469 180.262C19.3469 178.468 17.9243 177.015 16.1695 177.015C14.4147 177.015 12.9922 178.468 12.9922 180.262C12.9922 182.055 14.4147 183.509 16.1695 183.509Z" fill="#2956A3"/>
<path d="M28.5983 183.509C30.3531 183.509 31.7756 182.055 31.7756 180.262C31.7756 178.468 30.3531 177.015 28.5983 177.015C26.8434 177.015 25.4209 178.468 25.4209 180.262C25.4209 182.055 26.8434 183.509 28.5983 183.509Z" fill="#2956A3"/>
<path d="M41.0406 183.509C42.7954 183.509 44.218 182.055 44.218 180.262C44.218 178.468 42.7954 177.015 41.0406 177.015C39.2858 177.015 37.8633 178.468 37.8633 180.262C37.8633 182.055 39.2858 183.509 41.0406 183.509Z" fill="#2956A3"/>
<path d="M53.484 183.509C55.2388 183.509 56.6613 182.055 56.6613 180.262C56.6613 178.468 55.2388 177.015 53.484 177.015C51.7292 177.015 50.3066 178.468 50.3066 180.262C50.3066 182.055 51.7292 183.509 53.484 183.509Z" fill="#2956A3"/>
<path d="M65.9264 183.509C67.6812 183.509 69.1037 182.055 69.1037 180.262C69.1037 178.468 67.6812 177.015 65.9264 177.015C64.1716 177.015 62.749 178.468 62.749 180.262C62.749 182.055 64.1716 183.509 65.9264 183.509Z" fill="#2956A3"/>
<path d="M78.3561 183.509C80.1109 183.509 81.5334 182.055 81.5334 180.262C81.5334 178.468 80.1109 177.015 78.3561 177.015C76.6013 177.015 75.1787 178.468 75.1787 180.262C75.1787 182.055 76.6013 183.509 78.3561 183.509Z" fill="#2956A3"/>
<path d="M90.7984 183.509C92.5533 183.509 93.9758 182.055 93.9758 180.262C93.9758 178.468 92.5533 177.015 90.7984 177.015C89.0436 177.015 87.6211 178.468 87.6211 180.262C87.6211 182.055 89.0436 183.509 90.7984 183.509Z" fill="#2956A3"/>
<path d="M103.241 183.509C104.996 183.509 106.418 182.055 106.418 180.262C106.418 178.468 104.996 177.015 103.241 177.015C101.486 177.015 100.063 178.468 100.063 180.262C100.063 182.055 101.486 183.509 103.241 183.509Z" fill="#2956A3"/>
<path d="M115.683 183.509C117.438 183.509 118.861 182.055 118.861 180.262C118.861 178.468 117.438 177.015 115.683 177.015C113.928 177.015 112.506 178.468 112.506 180.262C112.506 182.055 113.928 183.509 115.683 183.509Z" fill="#2956A3"/>
<path d="M128.114 183.509C129.869 183.509 131.291 182.055 131.291 180.262C131.291 178.468 129.869 177.015 128.114 177.015C126.359 177.015 124.937 178.468 124.937 180.262C124.937 182.055 126.359 183.509 128.114 183.509Z" fill="#2956A3"/>
<path d="M140.555 183.509C142.31 183.509 143.733 182.055 143.733 180.262C143.733 178.468 142.31 177.015 140.555 177.015C138.8 177.015 137.378 178.468 137.378 180.262C137.378 182.055 138.8 183.509 140.555 183.509Z" fill="#2956A3"/>
<path d="M152.999 183.509C154.753 183.509 156.176 182.055 156.176 180.262C156.176 178.468 154.753 177.015 152.999 177.015C151.244 177.015 149.821 178.468 149.821 180.262C149.821 182.055 151.244 183.509 152.999 183.509Z" fill="#2956A3"/>
<path d="M165.428 183.509C167.183 183.509 168.606 182.055 168.606 180.262C168.606 178.468 167.183 177.015 165.428 177.015C163.674 177.015 162.251 178.468 162.251 180.262C162.251 182.055 163.674 183.509 165.428 183.509Z" fill="#2956A3"/>
<path d="M3.72618 195.303C5.48099 195.303 6.90354 193.849 6.90354 192.056C6.90354 190.262 5.48099 188.809 3.72618 188.809C1.97138 188.809 0.548828 190.262 0.548828 192.056C0.548828 193.849 1.97138 195.303 3.72618 195.303Z" fill="#2956A3"/>
<path d="M16.1695 195.303C17.9243 195.303 19.3469 193.849 19.3469 192.056C19.3469 190.262 17.9243 188.808 16.1695 188.808C14.4147 188.808 12.9922 190.262 12.9922 192.056C12.9922 193.849 14.4147 195.303 16.1695 195.303Z" fill="#2956A3"/>
<path d="M28.5983 195.303C30.3531 195.303 31.7756 193.849 31.7756 192.056C31.7756 190.262 30.3531 188.809 28.5983 188.809C26.8434 188.809 25.4209 190.262 25.4209 192.056C25.4209 193.849 26.8434 195.303 28.5983 195.303Z" fill="#2956A3"/>
<path d="M41.0406 195.303C42.7954 195.303 44.218 193.849 44.218 192.056C44.218 190.262 42.7954 188.809 41.0406 188.809C39.2858 188.809 37.8633 190.262 37.8633 192.056C37.8633 193.849 39.2858 195.303 41.0406 195.303Z" fill="#2956A3"/>
<path d="M53.484 195.303C55.2388 195.303 56.6613 193.849 56.6613 192.056C56.6613 190.262 55.2388 188.808 53.484 188.808C51.7292 188.808 50.3066 190.262 50.3066 192.056C50.3066 193.849 51.7292 195.303 53.484 195.303Z" fill="#2956A3"/>
<path d="M65.9264 195.303C67.6812 195.303 69.1037 193.849 69.1037 192.056C69.1037 190.262 67.6812 188.808 65.9264 188.808C64.1716 188.808 62.749 190.262 62.749 192.056C62.749 193.849 64.1716 195.303 65.9264 195.303Z" fill="#2956A3"/>
<path d="M78.3561 195.303C80.1109 195.303 81.5334 193.849 81.5334 192.056C81.5334 190.262 80.1109 188.809 78.3561 188.809C76.6013 188.809 75.1787 190.262 75.1787 192.056C75.1787 193.849 76.6013 195.303 78.3561 195.303Z" fill="#2956A3"/>
<path d="M90.7984 195.303C92.5533 195.303 93.9758 193.849 93.9758 192.056C93.9758 190.262 92.5533 188.809 90.7984 188.809C89.0436 188.809 87.6211 190.262 87.6211 192.056C87.6211 193.849 89.0436 195.303 90.7984 195.303Z" fill="#2956A3"/>
<path d="M103.241 195.303C104.996 195.303 106.418 193.849 106.418 192.056C106.418 190.262 104.996 188.808 103.241 188.808C101.486 188.808 100.063 190.262 100.063 192.056C100.063 193.849 101.486 195.303 103.241 195.303Z" fill="#2956A3"/>
<path d="M115.683 195.303C117.438 195.303 118.861 193.849 118.861 192.056C118.861 190.262 117.438 188.809 115.683 188.809C113.928 188.809 112.506 190.262 112.506 192.056C112.506 193.849 113.928 195.303 115.683 195.303Z" fill="#2956A3"/>
<path d="M128.114 195.303C129.869 195.303 131.291 193.849 131.291 192.056C131.291 190.262 129.869 188.808 128.114 188.808C126.359 188.808 124.937 190.262 124.937 192.056C124.937 193.849 126.359 195.303 128.114 195.303Z" fill="#2956A3"/>
<path d="M140.555 195.303C142.31 195.303 143.733 193.849 143.733 192.056C143.733 190.262 142.31 188.809 140.555 188.809C138.8 188.809 137.378 190.262 137.378 192.056C137.378 193.849 138.8 195.303 140.555 195.303Z" fill="#2956A3"/>
<path d="M152.999 195.303C154.753 195.303 156.176 193.849 156.176 192.056C156.176 190.262 154.753 188.809 152.999 188.809C151.244 188.809 149.821 190.262 149.821 192.056C149.821 193.849 151.244 195.303 152.999 195.303Z" fill="#2956A3"/>
<path d="M165.428 195.303C167.183 195.303 168.606 193.849 168.606 192.056C168.606 190.262 167.183 188.808 165.428 188.808C163.674 188.808 162.251 190.262 162.251 192.056C162.251 193.849 163.674 195.303 165.428 195.303Z" fill="#2956A3"/>
</svg>
