<svg width="50" height="537" viewBox="0 0 50 537" fill="none" xmlns="http://www.w3.org/2000/svg">
<mask id="mask0_653_603" style="mask-type:luminance" maskUnits="userSpaceOnUse" x="-12" y="0" width="62" height="265">
<path d="M49.9015 0L-11.7422 0V264.565H49.9015V0Z" fill="white"/>
</mask>
<g mask="url(#mask0_653_603)">
<path d="M9.39052 8.7866C11.7646 8.7866 13.6892 6.81965 13.6892 4.3933C13.6892 1.96695 11.7646 0 9.39052 0C7.0164 0 5.0918 1.96695 5.0918 4.3933C5.0918 6.81965 7.0164 8.7866 9.39052 8.7866Z" fill="#E61A47"/>
<path d="M26.2069 8.7866C28.581 8.7866 30.5056 6.81965 30.5056 4.3933C30.5056 1.96695 28.581 0 26.2069 0C23.8328 0 21.9082 1.96695 21.9082 4.3933C21.9082 6.81965 23.8328 8.7866 26.2069 8.7866Z" fill="#E61A47"/>
<path d="M43.0409 8.7866C45.415 8.7866 47.3396 6.81965 47.3396 4.3933C47.3396 1.96695 45.415 0 43.0409 0C40.6668 0 38.7422 1.96695 38.7422 4.3933C38.7422 6.81965 40.6668 8.7866 43.0409 8.7866Z" fill="#E61A47"/>
<path d="M9.39052 24.7601C11.7646 24.7601 13.6892 22.7931 13.6892 20.3668C13.6892 17.9404 11.7646 15.9734 9.39052 15.9734C7.0164 15.9734 5.0918 17.9404 5.0918 20.3668C5.0918 22.7931 7.0164 24.7601 9.39052 24.7601Z" fill="#E61A47"/>
<path d="M26.2069 24.7601C28.581 24.7601 30.5056 22.7931 30.5056 20.3668C30.5056 17.9404 28.581 15.9734 26.2069 15.9734C23.8328 15.9734 21.9082 17.9404 21.9082 20.3668C21.9082 22.7931 23.8328 24.7601 26.2069 24.7601Z" fill="#E61A47"/>
<path d="M43.0409 24.7601C45.415 24.7601 47.3396 22.7931 47.3396 20.3668C47.3396 17.9404 45.415 15.9734 43.0409 15.9734C40.6668 15.9734 38.7422 17.9404 38.7422 20.3668C38.7422 22.7931 40.6668 24.7601 43.0409 24.7601Z" fill="#E61A47"/>
<path d="M9.39052 40.7164C11.7646 40.7164 13.6892 38.7495 13.6892 36.3231C13.6892 33.8968 11.7646 31.9298 9.39052 31.9298C7.0164 31.9298 5.0918 33.8968 5.0918 36.3231C5.0918 38.7495 7.0164 40.7164 9.39052 40.7164Z" fill="#E61A47"/>
<path d="M26.2069 40.7164C28.581 40.7164 30.5056 38.7495 30.5056 36.3231C30.5056 33.8968 28.581 31.9298 26.2069 31.9298C23.8328 31.9298 21.9082 33.8968 21.9082 36.3231C21.9082 38.7495 23.8328 40.7164 26.2069 40.7164Z" fill="#E61A47"/>
<path d="M43.0409 40.7164C45.415 40.7164 47.3396 38.7495 47.3396 36.3231C47.3396 33.8968 45.415 31.9298 43.0409 31.9298C40.6668 31.9298 38.7422 33.8968 38.7422 36.3231C38.7422 38.7495 40.6668 40.7164 43.0409 40.7164Z" fill="#E61A47"/>
<path d="M9.39052 56.6899C11.7646 56.6899 13.6892 54.723 13.6892 52.2966C13.6892 49.8703 11.7646 47.9033 9.39052 47.9033C7.0164 47.9033 5.0918 49.8703 5.0918 52.2966C5.0918 54.723 7.0164 56.6899 9.39052 56.6899Z" fill="#E61A47"/>
<path d="M26.2069 56.6899C28.581 56.6899 30.5056 54.723 30.5056 52.2966C30.5056 49.8703 28.581 47.9033 26.2069 47.9033C23.8328 47.9033 21.9082 49.8703 21.9082 52.2966C21.9082 54.723 23.8328 56.6899 26.2069 56.6899Z" fill="#E61A47"/>
<path d="M43.0409 56.6899C45.415 56.6899 47.3396 54.723 47.3396 52.2966C47.3396 49.8703 45.415 47.9033 43.0409 47.9033C40.6668 47.9033 38.7422 49.8703 38.7422 52.2966C38.7422 54.723 40.6668 56.6899 43.0409 56.6899Z" fill="#E61A47"/>
<path d="M9.39052 72.6471C11.7646 72.6471 13.6892 70.6801 13.6892 68.2538C13.6892 65.8274 11.7646 63.8605 9.39052 63.8605C7.0164 63.8605 5.0918 65.8274 5.0918 68.2538C5.0918 70.6801 7.0164 72.6471 9.39052 72.6471Z" fill="#E61A47"/>
<path d="M26.2069 72.6471C28.581 72.6471 30.5056 70.6801 30.5056 68.2538C30.5056 65.8274 28.581 63.8605 26.2069 63.8605C23.8328 63.8605 21.9082 65.8274 21.9082 68.2538C21.9082 70.6801 23.8328 72.6471 26.2069 72.6471Z" fill="#E61A47"/>
<path d="M43.0409 72.6471C45.415 72.6471 47.3396 70.6801 47.3396 68.2538C47.3396 65.8274 45.415 63.8605 43.0409 63.8605C40.6668 63.8605 38.7422 65.8274 38.7422 68.2538C38.7422 70.6801 40.6668 72.6471 43.0409 72.6471Z" fill="#E61A47"/>
<path d="M9.39052 88.6216C11.7646 88.6216 13.6892 86.6546 13.6892 84.2283C13.6892 81.8019 11.7646 79.835 9.39052 79.835C7.0164 79.835 5.0918 81.8019 5.0918 84.2283C5.0918 86.6546 7.0164 88.6216 9.39052 88.6216Z" fill="#E61A47"/>
<path d="M26.2069 88.6216C28.581 88.6216 30.5056 86.6546 30.5056 84.2283C30.5056 81.8019 28.581 79.835 26.2069 79.835C23.8328 79.835 21.9082 81.8019 21.9082 84.2283C21.9082 86.6546 23.8328 88.6216 26.2069 88.6216Z" fill="#E61A47"/>
<path d="M43.0409 88.6216C45.415 88.6216 47.3396 86.6546 47.3396 84.2283C47.3396 81.8019 45.415 79.835 43.0409 79.835C40.6668 79.835 38.7422 81.8019 38.7422 84.2283C38.7422 86.6546 40.6668 88.6216 43.0409 88.6216Z" fill="#E61A47"/>
<path d="M9.39052 104.577C11.7646 104.577 13.6892 102.61 13.6892 100.183C13.6892 97.757 11.7646 95.79 9.39052 95.79C7.0164 95.79 5.0918 97.757 5.0918 100.183C5.0918 102.61 7.0164 104.577 9.39052 104.577Z" fill="#E61A47"/>
<path d="M26.2069 104.577C28.581 104.577 30.5056 102.61 30.5056 100.183C30.5056 97.757 28.581 95.79 26.2069 95.79C23.8328 95.79 21.9082 97.757 21.9082 100.183C21.9082 102.61 23.8328 104.577 26.2069 104.577Z" fill="#E61A47"/>
<path d="M43.0409 104.577C45.415 104.577 47.3396 102.61 47.3396 100.183C47.3396 97.757 45.415 95.79 43.0409 95.79C40.6668 95.79 38.7422 97.757 38.7422 100.183C38.7422 102.61 40.6668 104.577 43.0409 104.577Z" fill="#E61A47"/>
<path d="M9.39052 120.552C11.7646 120.552 13.6892 118.585 13.6892 116.159C13.6892 113.732 11.7646 111.765 9.39052 111.765C7.0164 111.765 5.0918 113.732 5.0918 116.159C5.0918 118.585 7.0164 120.552 9.39052 120.552Z" fill="#E61A47"/>
<path d="M26.2069 120.552C28.581 120.552 30.5056 118.585 30.5056 116.159C30.5056 113.732 28.581 111.765 26.2069 111.765C23.8328 111.765 21.9082 113.732 21.9082 116.159C21.9082 118.585 23.8328 120.552 26.2069 120.552Z" fill="#E61A47"/>
<path d="M43.0409 120.552C45.415 120.552 47.3396 118.585 47.3396 116.159C47.3396 113.732 45.415 111.765 43.0409 111.765C40.6668 111.765 38.7422 113.732 38.7422 116.159C38.7422 118.585 40.6668 120.552 43.0409 120.552Z" fill="#E61A47"/>
<path d="M9.39052 136.509C11.7646 136.509 13.6892 134.542 13.6892 132.116C13.6892 129.69 11.7646 127.723 9.39052 127.723C7.0164 127.723 5.0918 129.69 5.0918 132.116C5.0918 134.542 7.0164 136.509 9.39052 136.509Z" fill="#E61A47"/>
<path d="M26.2069 136.509C28.581 136.509 30.5056 134.542 30.5056 132.116C30.5056 129.69 28.581 127.723 26.2069 127.723C23.8328 127.723 21.9082 129.69 21.9082 132.116C21.9082 134.542 23.8328 136.509 26.2069 136.509Z" fill="#E61A47"/>
<path d="M43.0409 136.509C45.415 136.509 47.3396 134.542 47.3396 132.116C47.3396 129.69 45.415 127.723 43.0409 127.723C40.6668 127.723 38.7422 129.69 38.7422 132.116C38.7422 134.542 40.6668 136.509 43.0409 136.509Z" fill="#E61A47"/>
<path d="M9.39052 152.482C11.7646 152.482 13.6892 150.515 13.6892 148.089C13.6892 145.662 11.7646 143.695 9.39052 143.695C7.0164 143.695 5.0918 145.662 5.0918 148.089C5.0918 150.515 7.0164 152.482 9.39052 152.482Z" fill="#E61A47"/>
<path d="M26.2069 152.482C28.581 152.482 30.5056 150.515 30.5056 148.089C30.5056 145.662 28.581 143.695 26.2069 143.695C23.8328 143.695 21.9082 145.662 21.9082 148.089C21.9082 150.515 23.8328 152.482 26.2069 152.482Z" fill="#E61A47"/>
<path d="M43.0409 152.482C45.415 152.482 47.3396 150.515 47.3396 148.089C47.3396 145.662 45.415 143.695 43.0409 143.695C40.6668 143.695 38.7422 145.662 38.7422 148.089C38.7422 150.515 40.6668 152.482 43.0409 152.482Z" fill="#E61A47"/>
<path d="M9.39052 168.439C11.7646 168.439 13.6892 166.472 13.6892 164.046C13.6892 161.619 11.7646 159.652 9.39052 159.652C7.0164 159.652 5.0918 161.619 5.0918 164.046C5.0918 166.472 7.0164 168.439 9.39052 168.439Z" fill="#E61A47"/>
<path d="M26.2069 168.439C28.581 168.439 30.5056 166.472 30.5056 164.046C30.5056 161.619 28.581 159.652 26.2069 159.652C23.8328 159.652 21.9082 161.619 21.9082 164.046C21.9082 166.472 23.8328 168.439 26.2069 168.439Z" fill="#E61A47"/>
<path d="M43.0409 168.439C45.415 168.439 47.3396 166.472 47.3396 164.046C47.3396 161.619 45.415 159.652 43.0409 159.652C40.6668 159.652 38.7422 161.619 38.7422 164.046C38.7422 166.472 40.6668 168.439 43.0409 168.439Z" fill="#E61A47"/>
<path d="M9.39052 184.413C11.7646 184.413 13.6892 182.446 13.6892 180.019C13.6892 177.593 11.7646 175.626 9.39052 175.626C7.0164 175.626 5.0918 177.593 5.0918 180.019C5.0918 182.446 7.0164 184.413 9.39052 184.413Z" fill="#E61A47"/>
<path d="M26.2069 184.413C28.581 184.413 30.5056 182.446 30.5056 180.019C30.5056 177.593 28.581 175.626 26.2069 175.626C23.8328 175.626 21.9082 177.593 21.9082 180.019C21.9082 182.446 23.8328 184.413 26.2069 184.413Z" fill="#E61A47"/>
<path d="M43.0409 184.413C45.415 184.413 47.3396 182.446 47.3396 180.019C47.3396 177.593 45.415 175.626 43.0409 175.626C40.6668 175.626 38.7422 177.593 38.7422 180.019C38.7422 182.446 40.6668 184.413 43.0409 184.413Z" fill="#E61A47"/>
<path d="M9.39052 200.37C11.7646 200.37 13.6892 198.403 13.6892 195.976C13.6892 193.55 11.7646 191.583 9.39052 191.583C7.0164 191.583 5.0918 193.55 5.0918 195.976C5.0918 198.403 7.0164 200.37 9.39052 200.37Z" fill="#E61A47"/>
<path d="M26.2069 200.37C28.581 200.37 30.5056 198.403 30.5056 195.976C30.5056 193.55 28.581 191.583 26.2069 191.583C23.8328 191.583 21.9082 193.55 21.9082 195.976C21.9082 198.403 23.8328 200.37 26.2069 200.37Z" fill="#E61A47"/>
<path d="M43.0409 200.37C45.415 200.37 47.3396 198.403 47.3396 195.976C47.3396 193.55 45.415 191.583 43.0409 191.583C40.6668 191.583 38.7422 193.55 38.7422 195.976C38.7422 198.403 40.6668 200.37 43.0409 200.37Z" fill="#E61A47"/>
<path d="M9.39052 216.343C11.7646 216.343 13.6892 214.376 13.6892 211.95C13.6892 209.524 11.7646 207.557 9.39052 207.557C7.0164 207.557 5.0918 209.524 5.0918 211.95C5.0918 214.376 7.0164 216.343 9.39052 216.343Z" fill="#E61A47"/>
<path d="M26.2069 216.343C28.581 216.343 30.5056 214.376 30.5056 211.95C30.5056 209.524 28.581 207.557 26.2069 207.557C23.8328 207.557 21.9082 209.524 21.9082 211.95C21.9082 214.376 23.8328 216.343 26.2069 216.343Z" fill="#E61A47"/>
<path d="M43.0409 216.343C45.415 216.343 47.3396 214.376 47.3396 211.95C47.3396 209.524 45.415 207.557 43.0409 207.557C40.6668 207.557 38.7422 209.524 38.7422 211.95C38.7422 214.376 40.6668 216.343 43.0409 216.343Z" fill="#E61A47"/>
<path d="M9.39052 232.299C11.7646 232.299 13.6892 230.332 13.6892 227.906C13.6892 225.48 11.7646 223.513 9.39052 223.513C7.0164 223.513 5.0918 225.48 5.0918 227.906C5.0918 230.332 7.0164 232.299 9.39052 232.299Z" fill="#E61A47"/>
<path d="M26.2069 232.299C28.581 232.299 30.5056 230.332 30.5056 227.906C30.5056 225.48 28.581 223.513 26.2069 223.513C23.8328 223.513 21.9082 225.48 21.9082 227.906C21.9082 230.332 23.8328 232.299 26.2069 232.299Z" fill="#E61A47"/>
<path d="M43.0409 232.299C45.415 232.299 47.3396 230.332 47.3396 227.906C47.3396 225.48 45.415 223.513 43.0409 223.513C40.6668 223.513 38.7422 225.48 38.7422 227.906C38.7422 230.332 40.6668 232.299 43.0409 232.299Z" fill="#E61A47"/>
<path d="M9.39052 248.274C11.7646 248.274 13.6892 246.307 13.6892 243.881C13.6892 241.454 11.7646 239.487 9.39052 239.487C7.0164 239.487 5.0918 241.454 5.0918 243.881C5.0918 246.307 7.0164 248.274 9.39052 248.274Z" fill="#E61A47"/>
<path d="M26.2069 248.274C28.581 248.274 30.5056 246.307 30.5056 243.881C30.5056 241.454 28.581 239.487 26.2069 239.487C23.8328 239.487 21.9082 241.454 21.9082 243.881C21.9082 246.307 23.8328 248.274 26.2069 248.274Z" fill="#E61A47"/>
<path d="M43.0409 248.274C45.415 248.274 47.3396 246.307 47.3396 243.881C47.3396 241.454 45.415 239.487 43.0409 239.487C40.6668 239.487 38.7422 241.454 38.7422 243.881C38.7422 246.307 40.6668 248.274 43.0409 248.274Z" fill="#E61A47"/>
<path d="M9.39052 264.23C11.7646 264.23 13.6892 262.263 13.6892 259.836C13.6892 257.41 11.7646 255.443 9.39052 255.443C7.0164 255.443 5.0918 257.41 5.0918 259.836C5.0918 262.263 7.0164 264.23 9.39052 264.23Z" fill="#E61A47"/>
<path d="M26.2069 264.23C28.581 264.23 30.5056 262.263 30.5056 259.836C30.5056 257.41 28.581 255.443 26.2069 255.443C23.8328 255.443 21.9082 257.41 21.9082 259.836C21.9082 262.263 23.8328 264.23 26.2069 264.23Z" fill="#E61A47"/>
<path d="M43.0409 264.23C45.415 264.23 47.3396 262.263 47.3396 259.836C47.3396 257.41 45.415 255.443 43.0409 255.443C40.6668 255.443 38.7422 257.41 38.7422 259.836C38.7422 262.263 40.6668 264.23 43.0409 264.23Z" fill="#E61A47"/>
</g>
<mask id="mask1_653_603" style="mask-type:luminance" maskUnits="userSpaceOnUse" x="-12" y="271" width="62" height="266">
<path d="M49.9015 271.564H-11.7422V536.129H49.9015V271.564Z" fill="white"/>
</mask>
<g mask="url(#mask1_653_603)">
<path d="M9.39052 280.351C11.7646 280.351 13.6892 278.384 13.6892 275.958C13.6892 273.531 11.7646 271.564 9.39052 271.564C7.0164 271.564 5.0918 273.531 5.0918 275.958C5.0918 278.384 7.0164 280.351 9.39052 280.351Z" fill="#E61A47"/>
<path d="M26.2069 280.351C28.581 280.351 30.5056 278.384 30.5056 275.958C30.5056 273.531 28.581 271.564 26.2069 271.564C23.8328 271.564 21.9082 273.531 21.9082 275.958C21.9082 278.384 23.8328 280.351 26.2069 280.351Z" fill="#E61A47"/>
<path d="M43.0409 280.351C45.415 280.351 47.3396 278.384 47.3396 275.958C47.3396 273.531 45.415 271.564 43.0409 271.564C40.6668 271.564 38.7422 273.531 38.7422 275.958C38.7422 278.384 40.6668 280.351 43.0409 280.351Z" fill="#E61A47"/>
<path d="M9.39052 296.325C11.7646 296.325 13.6892 294.358 13.6892 291.931C13.6892 289.505 11.7646 287.538 9.39052 287.538C7.0164 287.538 5.0918 289.505 5.0918 291.931C5.0918 294.358 7.0164 296.325 9.39052 296.325Z" fill="#E61A47"/>
<path d="M26.2069 296.325C28.581 296.325 30.5056 294.358 30.5056 291.931C30.5056 289.505 28.581 287.538 26.2069 287.538C23.8328 287.538 21.9082 289.505 21.9082 291.931C21.9082 294.358 23.8328 296.325 26.2069 296.325Z" fill="#E61A47"/>
<path d="M43.0409 296.325C45.415 296.325 47.3396 294.358 47.3396 291.931C47.3396 289.505 45.415 287.538 43.0409 287.538C40.6668 287.538 38.7422 289.505 38.7422 291.931C38.7422 294.358 40.6668 296.325 43.0409 296.325Z" fill="#E61A47"/>
<path d="M9.39052 312.281C11.7646 312.281 13.6892 310.314 13.6892 307.888C13.6892 305.461 11.7646 303.494 9.39052 303.494C7.0164 303.494 5.0918 305.461 5.0918 307.888C5.0918 310.314 7.0164 312.281 9.39052 312.281Z" fill="#E61A47"/>
<path d="M26.2069 312.281C28.581 312.281 30.5056 310.314 30.5056 307.888C30.5056 305.461 28.581 303.494 26.2069 303.494C23.8328 303.494 21.9082 305.461 21.9082 307.888C21.9082 310.314 23.8328 312.281 26.2069 312.281Z" fill="#E61A47"/>
<path d="M43.0409 312.281C45.415 312.281 47.3396 310.314 47.3396 307.888C47.3396 305.461 45.415 303.494 43.0409 303.494C40.6668 303.494 38.7422 305.461 38.7422 307.888C38.7422 310.314 40.6668 312.281 43.0409 312.281Z" fill="#E61A47"/>
<path d="M9.39052 328.254C11.7646 328.254 13.6892 326.287 13.6892 323.861C13.6892 321.435 11.7646 319.468 9.39052 319.468C7.0164 319.468 5.0918 321.435 5.0918 323.861C5.0918 326.287 7.0164 328.254 9.39052 328.254Z" fill="#E61A47"/>
<path d="M26.2069 328.254C28.581 328.254 30.5056 326.287 30.5056 323.861C30.5056 321.435 28.581 319.468 26.2069 319.468C23.8328 319.468 21.9082 321.435 21.9082 323.861C21.9082 326.287 23.8328 328.254 26.2069 328.254Z" fill="#E61A47"/>
<path d="M43.0409 328.254C45.415 328.254 47.3396 326.287 47.3396 323.861C47.3396 321.435 45.415 319.468 43.0409 319.468C40.6668 319.468 38.7422 321.435 38.7422 323.861C38.7422 326.287 40.6668 328.254 43.0409 328.254Z" fill="#E61A47"/>
<path d="M9.39052 344.212C11.7646 344.212 13.6892 342.245 13.6892 339.818C13.6892 337.392 11.7646 335.425 9.39052 335.425C7.0164 335.425 5.0918 337.392 5.0918 339.818C5.0918 342.245 7.0164 344.212 9.39052 344.212Z" fill="#E61A47"/>
<path d="M26.2069 344.212C28.581 344.212 30.5056 342.245 30.5056 339.818C30.5056 337.392 28.581 335.425 26.2069 335.425C23.8328 335.425 21.9082 337.392 21.9082 339.818C21.9082 342.245 23.8328 344.212 26.2069 344.212Z" fill="#E61A47"/>
<path d="M43.0409 344.212C45.415 344.212 47.3396 342.245 47.3396 339.818C47.3396 337.392 45.415 335.425 43.0409 335.425C40.6668 335.425 38.7422 337.392 38.7422 339.818C38.7422 342.245 40.6668 344.212 43.0409 344.212Z" fill="#E61A47"/>
<path d="M9.39052 360.186C11.7646 360.186 13.6892 358.219 13.6892 355.793C13.6892 353.366 11.7646 351.399 9.39052 351.399C7.0164 351.399 5.0918 353.366 5.0918 355.793C5.0918 358.219 7.0164 360.186 9.39052 360.186Z" fill="#E61A47"/>
<path d="M26.2069 360.186C28.581 360.186 30.5056 358.219 30.5056 355.793C30.5056 353.366 28.581 351.399 26.2069 351.399C23.8328 351.399 21.9082 353.366 21.9082 355.793C21.9082 358.219 23.8328 360.186 26.2069 360.186Z" fill="#E61A47"/>
<path d="M43.0409 360.186C45.415 360.186 47.3396 358.219 47.3396 355.793C47.3396 353.366 45.415 351.399 43.0409 351.399C40.6668 351.399 38.7422 353.366 38.7422 355.793C38.7422 358.219 40.6668 360.186 43.0409 360.186Z" fill="#E61A47"/>
<path d="M9.39052 376.141C11.7646 376.141 13.6892 374.174 13.6892 371.748C13.6892 369.321 11.7646 367.354 9.39052 367.354C7.0164 367.354 5.0918 369.321 5.0918 371.748C5.0918 374.174 7.0164 376.141 9.39052 376.141Z" fill="#E61A47"/>
<path d="M26.2069 376.141C28.581 376.141 30.5056 374.174 30.5056 371.748C30.5056 369.321 28.581 367.354 26.2069 367.354C23.8328 367.354 21.9082 369.321 21.9082 371.748C21.9082 374.174 23.8328 376.141 26.2069 376.141Z" fill="#E61A47"/>
<path d="M43.0409 376.141C45.415 376.141 47.3396 374.174 47.3396 371.748C47.3396 369.321 45.415 367.354 43.0409 367.354C40.6668 367.354 38.7422 369.321 38.7422 371.748C38.7422 374.174 40.6668 376.141 43.0409 376.141Z" fill="#E61A47"/>
<path d="M9.39052 392.116C11.7646 392.116 13.6892 390.15 13.6892 387.723C13.6892 385.297 11.7646 383.33 9.39052 383.33C7.0164 383.33 5.0918 385.297 5.0918 387.723C5.0918 390.15 7.0164 392.116 9.39052 392.116Z" fill="#E61A47"/>
<path d="M26.2069 392.116C28.581 392.116 30.5056 390.15 30.5056 387.723C30.5056 385.297 28.581 383.33 26.2069 383.33C23.8328 383.33 21.9082 385.297 21.9082 387.723C21.9082 390.15 23.8328 392.116 26.2069 392.116Z" fill="#E61A47"/>
<path d="M43.0409 392.116C45.415 392.116 47.3396 390.15 47.3396 387.723C47.3396 385.297 45.415 383.33 43.0409 383.33C40.6668 383.33 38.7422 385.297 38.7422 387.723C38.7422 390.15 40.6668 392.116 43.0409 392.116Z" fill="#E61A47"/>
<path d="M9.39052 408.074C11.7646 408.074 13.6892 406.107 13.6892 403.68C13.6892 401.254 11.7646 399.287 9.39052 399.287C7.0164 399.287 5.0918 401.254 5.0918 403.68C5.0918 406.107 7.0164 408.074 9.39052 408.074Z" fill="#E61A47"/>
<path d="M26.2069 408.074C28.581 408.074 30.5056 406.107 30.5056 403.68C30.5056 401.254 28.581 399.287 26.2069 399.287C23.8328 399.287 21.9082 401.254 21.9082 403.68C21.9082 406.107 23.8328 408.074 26.2069 408.074Z" fill="#E61A47"/>
<path d="M43.0409 408.074C45.415 408.074 47.3396 406.107 47.3396 403.68C47.3396 401.254 45.415 399.287 43.0409 399.287C40.6668 399.287 38.7422 401.254 38.7422 403.68C38.7422 406.107 40.6668 408.074 43.0409 408.074Z" fill="#E61A47"/>
<path d="M9.39052 424.046C11.7646 424.046 13.6892 422.079 13.6892 419.653C13.6892 417.227 11.7646 415.26 9.39052 415.26C7.0164 415.26 5.0918 417.227 5.0918 419.653C5.0918 422.079 7.0164 424.046 9.39052 424.046Z" fill="#E61A47"/>
<path d="M26.2069 424.046C28.581 424.046 30.5056 422.079 30.5056 419.653C30.5056 417.227 28.581 415.26 26.2069 415.26C23.8328 415.26 21.9082 417.227 21.9082 419.653C21.9082 422.079 23.8328 424.046 26.2069 424.046Z" fill="#E61A47"/>
<path d="M43.0409 424.046C45.415 424.046 47.3396 422.079 47.3396 419.653C47.3396 417.227 45.415 415.26 43.0409 415.26C40.6668 415.26 38.7422 417.227 38.7422 419.653C38.7422 422.079 40.6668 424.046 43.0409 424.046Z" fill="#E61A47"/>
<path d="M9.39052 440.004C11.7646 440.004 13.6892 438.037 13.6892 435.61C13.6892 433.184 11.7646 431.217 9.39052 431.217C7.0164 431.217 5.0918 433.184 5.0918 435.61C5.0918 438.037 7.0164 440.004 9.39052 440.004Z" fill="#E61A47"/>
<path d="M26.2069 440.004C28.581 440.004 30.5056 438.037 30.5056 435.61C30.5056 433.184 28.581 431.217 26.2069 431.217C23.8328 431.217 21.9082 433.184 21.9082 435.61C21.9082 438.037 23.8328 440.004 26.2069 440.004Z" fill="#E61A47"/>
<path d="M43.0409 440.004C45.415 440.004 47.3396 438.037 47.3396 435.61C47.3396 433.184 45.415 431.217 43.0409 431.217C40.6668 431.217 38.7422 433.184 38.7422 435.61C38.7422 438.037 40.6668 440.004 43.0409 440.004Z" fill="#E61A47"/>
<path d="M9.39052 455.977C11.7646 455.977 13.6892 454.01 13.6892 451.584C13.6892 449.157 11.7646 447.19 9.39052 447.19C7.0164 447.19 5.0918 449.157 5.0918 451.584C5.0918 454.01 7.0164 455.977 9.39052 455.977Z" fill="#E61A47"/>
<path d="M26.2069 455.977C28.581 455.977 30.5056 454.01 30.5056 451.584C30.5056 449.157 28.581 447.19 26.2069 447.19C23.8328 447.19 21.9082 449.157 21.9082 451.584C21.9082 454.01 23.8328 455.977 26.2069 455.977Z" fill="#E61A47"/>
<path d="M43.0409 455.977C45.415 455.977 47.3396 454.01 47.3396 451.584C47.3396 449.157 45.415 447.19 43.0409 447.19C40.6668 447.19 38.7422 449.157 38.7422 451.584C38.7422 454.01 40.6668 455.977 43.0409 455.977Z" fill="#E61A47"/>
<path d="M9.39052 471.934C11.7646 471.934 13.6892 469.967 13.6892 467.541C13.6892 465.115 11.7646 463.148 9.39052 463.148C7.0164 463.148 5.0918 465.115 5.0918 467.541C5.0918 469.967 7.0164 471.934 9.39052 471.934Z" fill="#E61A47"/>
<path d="M26.2069 471.934C28.581 471.934 30.5056 469.967 30.5056 467.541C30.5056 465.115 28.581 463.148 26.2069 463.148C23.8328 463.148 21.9082 465.115 21.9082 467.541C21.9082 469.967 23.8328 471.934 26.2069 471.934Z" fill="#E61A47"/>
<path d="M43.0409 471.934C45.415 471.934 47.3396 469.967 47.3396 467.541C47.3396 465.115 45.415 463.148 43.0409 463.148C40.6668 463.148 38.7422 465.115 38.7422 467.541C38.7422 469.967 40.6668 471.934 43.0409 471.934Z" fill="#E61A47"/>
<path d="M9.39052 487.908C11.7646 487.908 13.6892 485.941 13.6892 483.514C13.6892 481.088 11.7646 479.121 9.39052 479.121C7.0164 479.121 5.0918 481.088 5.0918 483.514C5.0918 485.941 7.0164 487.908 9.39052 487.908Z" fill="#E61A47"/>
<path d="M26.2069 487.908C28.581 487.908 30.5056 485.941 30.5056 483.514C30.5056 481.088 28.581 479.121 26.2069 479.121C23.8328 479.121 21.9082 481.088 21.9082 483.514C21.9082 485.941 23.8328 487.908 26.2069 487.908Z" fill="#E61A47"/>
<path d="M43.0409 487.908C45.415 487.908 47.3396 485.941 47.3396 483.514C47.3396 481.088 45.415 479.121 43.0409 479.121C40.6668 479.121 38.7422 481.088 38.7422 483.514C38.7422 485.941 40.6668 487.908 43.0409 487.908Z" fill="#E61A47"/>
<path d="M9.39052 503.864C11.7646 503.864 13.6892 501.897 13.6892 499.47C13.6892 497.044 11.7646 495.077 9.39052 495.077C7.0164 495.077 5.0918 497.044 5.0918 499.47C5.0918 501.897 7.0164 503.864 9.39052 503.864Z" fill="#E61A47"/>
<path d="M26.2069 503.864C28.581 503.864 30.5056 501.897 30.5056 499.47C30.5056 497.044 28.581 495.077 26.2069 495.077C23.8328 495.077 21.9082 497.044 21.9082 499.47C21.9082 501.897 23.8328 503.864 26.2069 503.864Z" fill="#E61A47"/>
<path d="M43.0409 503.864C45.415 503.864 47.3396 501.897 47.3396 499.47C47.3396 497.044 45.415 495.077 43.0409 495.077C40.6668 495.077 38.7422 497.044 38.7422 499.47C38.7422 501.897 40.6668 503.864 43.0409 503.864Z" fill="#E61A47"/>
<path d="M9.39052 519.838C11.7646 519.838 13.6892 517.871 13.6892 515.445C13.6892 513.019 11.7646 511.052 9.39052 511.052C7.0164 511.052 5.0918 513.019 5.0918 515.445C5.0918 517.871 7.0164 519.838 9.39052 519.838Z" fill="#E61A47"/>
<path d="M26.2069 519.838C28.581 519.838 30.5056 517.871 30.5056 515.445C30.5056 513.019 28.581 511.052 26.2069 511.052C23.8328 511.052 21.9082 513.019 21.9082 515.445C21.9082 517.871 23.8328 519.838 26.2069 519.838Z" fill="#E61A47"/>
<path d="M43.0409 519.838C45.415 519.838 47.3396 517.871 47.3396 515.445C47.3396 513.019 45.415 511.052 43.0409 511.052C40.6668 511.052 38.7422 513.019 38.7422 515.445C38.7422 517.871 40.6668 519.838 43.0409 519.838Z" fill="#E61A47"/>
<path d="M9.39052 535.794C11.7646 535.794 13.6892 533.827 13.6892 531.401C13.6892 528.975 11.7646 527.008 9.39052 527.008C7.0164 527.008 5.0918 528.975 5.0918 531.401C5.0918 533.827 7.0164 535.794 9.39052 535.794Z" fill="#E61A47"/>
<path d="M26.2069 535.794C28.581 535.794 30.5056 533.827 30.5056 531.401C30.5056 528.975 28.581 527.008 26.2069 527.008C23.8328 527.008 21.9082 528.975 21.9082 531.401C21.9082 533.827 23.8328 535.794 26.2069 535.794Z" fill="#E61A47"/>
<path d="M43.0409 535.794C45.415 535.794 47.3396 533.827 47.3396 531.401C47.3396 528.975 45.415 527.008 43.0409 527.008C40.6668 527.008 38.7422 528.975 38.7422 531.401C38.7422 533.827 40.6668 535.794 43.0409 535.794Z" fill="#E61A47"/>
</g>
</svg>
