<svg width="59" height="59" viewBox="0 0 59 59" fill="none" xmlns="http://www.w3.org/2000/svg">
<path d="M29.5 22.4753C28.1108 22.4758 26.7529 22.8883 25.598 23.6605C24.4432 24.4327 23.5432 25.53 23.0119 26.8136C22.4806 28.0972 22.3419 29.5096 22.6132 30.8721C22.8846 32.2345 23.5538 33.486 24.5364 34.4681C25.5189 35.4503 26.7706 36.1191 28.1332 36.3899C29.4957 36.6607 30.908 36.5215 32.1915 35.9897C33.4749 35.458 34.5719 34.5576 35.3436 33.4024C36.1154 32.2473 36.5273 30.8892 36.5273 29.5C36.5259 27.6369 35.785 25.8506 34.4674 24.5334C33.1497 23.2162 31.3631 22.476 29.5 22.4753ZM45.9239 17.0758C45.5662 16.1695 45.0262 15.3463 44.3373 14.6574C43.6484 13.9685 42.8253 13.4285 41.919 13.0709C39.1533 11.9791 32.5685 12.2241 29.5 12.2241C26.4315 12.2241 19.8532 11.9699 17.0797 13.0709C16.1734 13.4285 15.3503 13.9685 14.6614 14.6574C13.9725 15.3463 13.4324 16.1695 13.0748 17.0758C11.9844 19.8414 12.228 26.4328 12.228 29.4987C12.228 32.5646 11.9844 39.1481 13.0801 41.9229C13.4377 42.8292 13.9777 43.6523 14.6666 44.3413C15.3556 45.0302 16.1787 45.5702 17.085 45.9278C19.8506 47.0196 26.4354 46.7746 29.5053 46.7746C32.5751 46.7746 39.1507 47.0288 41.9242 45.9278C42.8305 45.5702 43.6537 45.0302 44.3426 44.3413C45.0315 43.6523 45.5715 42.8292 45.9291 41.9229C47.0288 39.1573 46.7759 32.5659 46.7759 29.5C46.7759 26.4341 47.0288 19.8519 45.9291 17.0771L45.9239 17.0758ZM29.5 40.2991C27.3641 40.2991 25.2762 39.6658 23.5003 38.4791C21.7244 37.2925 20.3403 35.6059 19.5229 33.6326C18.7056 31.6594 18.4917 29.488 18.9084 27.3932C19.3251 25.2984 20.3536 23.3742 21.8639 21.8639C23.3742 20.3536 25.2984 19.3251 27.3932 18.9084C29.488 18.4917 31.6594 18.7056 33.6326 19.5229C35.6059 20.3403 37.2925 21.7244 38.4791 23.5003C39.6658 25.2762 40.2991 27.3641 40.2991 29.5C40.3008 30.9186 40.0227 32.3237 39.4806 33.6347C38.9385 34.9457 38.1431 36.1369 37.14 37.14C36.1369 38.1431 34.9457 38.9385 33.6347 39.4806C32.3237 40.0227 30.9186 40.3008 29.5 40.2991ZM40.7442 20.7685C40.2456 20.7688 39.7582 20.6212 39.3435 20.3444C38.9288 20.0675 38.6055 19.674 38.4145 19.2134C38.2235 18.7528 38.1734 18.246 38.2705 17.7569C38.3676 17.2679 38.6076 16.8186 38.9601 16.4659C39.3125 16.1133 39.7617 15.8731 40.2507 15.7757C40.7397 15.6784 41.2466 15.7282 41.7072 15.9189C42.1679 16.1097 42.5617 16.4328 42.8387 16.8473C43.1157 17.2619 43.2636 17.7493 43.2636 18.2479C43.265 18.579 43.201 18.9071 43.0753 19.2134C42.9496 19.5197 42.7646 19.7982 42.5311 20.0329C42.2975 20.2675 42.0199 20.4538 41.7141 20.5809C41.4084 20.7081 41.0806 20.7736 40.7495 20.7738L40.7442 20.7685ZM52.6786 0H6.32143C4.64488 0 3.037 0.666006 1.8515 1.8515C0.666006 3.037 0 4.64488 0 6.32143L0 52.6786C0 54.3551 0.666006 55.963 1.8515 57.1485C3.037 58.334 4.64488 59 6.32143 59H52.6786C54.3551 59 55.963 58.334 57.1485 57.1485C58.334 55.963 59 54.3551 59 52.6786V6.32143C59 4.64488 58.334 3.037 57.1485 1.8515C55.963 0.666006 54.3551 0 52.6786 0ZM50.4239 38.192C50.254 41.5673 49.4836 44.5582 47.0196 47.0156C44.5555 49.4731 41.5673 50.2593 38.1959 50.42C34.7178 50.6162 24.2901 50.6162 20.812 50.42C17.4366 50.2501 14.4563 49.4783 11.9883 47.0156C9.52034 44.5529 8.74464 41.5608 8.58397 38.192C8.38775 34.7125 8.38775 24.2835 8.58397 20.808C8.75386 17.4327 9.51507 14.4418 11.9883 11.9844C14.4616 9.52692 17.4498 8.74991 20.812 8.58924C24.2901 8.39301 34.7178 8.39301 38.1959 8.58924C41.5713 8.75913 44.5608 9.53087 47.0196 11.9936C49.4783 14.4563 50.2633 17.4485 50.4239 20.8238C50.6202 24.2901 50.6202 34.7099 50.4239 38.192Z" fill="#F40044"/>
</svg>
