<svg width="58" height="59" viewBox="0 0 58 59" fill="none" xmlns="http://www.w3.org/2000/svg">
<path d="M52.7534 0H5.24657C2.349 0 0 2.3895 0 5.33703V53.6628C0 56.6105 2.349 59 5.24657 59H52.7533C55.651 59 58 56.6105 58 53.6628V5.33703C58 2.3895 55.651 0 52.7534 0ZM17.9477 50.9445C17.9477 51.8023 17.2641 52.4976 16.4208 52.4976H9.92149C9.07822 52.4976 8.39467 51.8023 8.39467 50.9445V23.2298C8.39467 22.372 9.07822 21.6766 9.92149 21.6766H16.4208C17.2641 21.6766 17.9477 22.372 17.9477 23.2298V50.9445ZM13.1712 19.0641C9.76116 19.0641 6.99674 16.252 6.99674 12.7832C6.99674 9.31443 9.76116 6.50236 13.1712 6.50236C16.5812 6.50236 19.3456 9.31443 19.3456 12.7832C19.3456 16.252 16.5813 19.0641 13.1712 19.0641ZM51.913 51.0696C51.913 51.8582 51.2845 52.4976 50.5092 52.4976H43.5349C42.7597 52.4976 42.1311 51.8582 42.1311 51.0696V38.0698C42.1311 36.1306 42.6903 29.5718 37.149 29.5718C32.8508 29.5718 31.979 34.0611 31.8039 36.0757V51.0696C31.8039 51.8582 31.1755 52.4976 30.4 52.4976H23.6547C22.8795 52.4976 22.2509 51.8582 22.2509 51.0696V23.1047C22.2509 22.3161 22.8795 21.6766 23.6547 21.6766H30.4C31.1753 21.6766 31.8039 22.3161 31.8039 23.1047V25.5226C33.3977 23.0895 35.7663 21.2116 40.8094 21.2116C51.977 21.2116 51.913 31.8248 51.913 37.6562V51.0696Z" fill="#F40044"/>
</svg>
