<svg width="59" height="59" viewBox="0 0 59 59" fill="none" xmlns="http://www.w3.org/2000/svg">
<path d="M51.0494 0H7.95043C3.55962 0 0 3.55944 0 7.95037V51.0493C0 55.4403 3.55947 58.9997 7.95043 58.9997H29.2067L29.2429 37.9164H23.7654C23.0536 37.9164 22.4758 37.3408 22.4731 36.629L22.4468 29.833C22.4441 29.1172 23.0235 28.5356 23.7393 28.5356H29.2068V21.9689C29.2068 14.3483 33.861 10.1989 40.6591 10.1989H46.2375C46.9512 10.1989 47.5299 10.7775 47.5299 11.4913V17.2218C47.5299 17.9353 46.9516 18.5138 46.2382 18.5142L42.8148 18.5158C39.1178 18.5158 38.4019 20.2726 38.4019 22.8508V28.5357H46.5255C47.2996 28.5357 47.9001 29.2116 47.8089 29.9803L47.0034 36.7764C46.9263 37.4267 46.3749 37.9167 45.72 37.9167H38.4382L38.4019 59H51.0497C55.4405 59 59 55.4406 59 51.0498V7.95037C58.9999 3.55944 55.4404 0 51.0494 0Z" fill="#F40044"/>
</svg>
