<svg width="31" height="30" viewBox="0 0 31 30" fill="none" xmlns="http://www.w3.org/2000/svg">
<mask id="mask0_594_624" style="mask-type:alpha" maskUnits="userSpaceOnUse" x="0" y="0" width="31" height="30">
<rect x="30.0459" width="30" height="30" transform="rotate(90 30.0459 0)" fill="#D9D9D9"/>
</mask>
<g mask="url(#mask0_594_624)">
<path d="M4.6709 23.625L11.6709 16.625C11.1709 16 10.7751 15.2812 10.4834 14.4687C10.1917 13.6562 10.0459 12.7917 10.0459 11.875C10.0459 9.60417 10.8322 7.6825 12.4047 6.11C13.978 4.53667 15.9001 3.75 18.1709 3.75C20.4417 3.75 22.3638 4.53667 23.9371 6.11C25.5096 7.6825 26.2959 9.60417 26.2959 11.875C26.2959 14.1458 25.5096 16.0679 23.9371 17.6412C22.3638 19.2137 20.4417 20 18.1709 20C17.2542 20 16.3896 19.8542 15.5771 19.5625C14.7647 19.2708 14.0459 18.875 13.4209 18.375L6.38965 25.4062C6.16049 25.6354 5.87923 25.75 5.5459 25.75C5.21257 25.75 4.9209 25.625 4.6709 25.375C4.44174 25.1458 4.32715 24.8542 4.32715 24.5C4.32715 24.1458 4.44174 23.8542 4.6709 23.625ZM12.5459 11.875C12.5459 13.4375 13.0926 14.7658 14.1859 15.86C15.2801 16.9533 16.6084 17.5 18.1709 17.5C19.7334 17.5 21.0617 16.9533 22.1559 15.86C23.2492 14.7658 23.7959 13.4375 23.7959 11.875C23.7959 10.3125 23.2492 8.98417 22.1559 7.89C21.0617 6.79667 19.7334 6.25 18.1709 6.25C16.6084 6.25 15.2801 6.79667 14.1859 7.89C13.0926 8.98417 12.5459 10.3125 12.5459 11.875Z" fill="#FCF1E3"/>
</g>
</svg>
