<svg width="36" height="75" viewBox="0 0 36 75" fill="none" xmlns="http://www.w3.org/2000/svg">
<path d="M24.1649 68.123L17.3134 73.7062L10.4619 68.123" stroke="#FCF1E3" stroke-width="2" stroke-linecap="round" stroke-linejoin="round"/>
<path d="M0.541768 38.9752L1.04169 38.9842L1.05074 38.4795L0.545998 38.4752L0.541768 38.9752ZM34.5603 16.9446H35.0603V16.4446H34.5603V16.9446ZM34.5539 16.9446L34.0541 16.9584L34.0675 17.4446H34.5539V16.9446ZM0.545499 16.9446V17.4446H1.03184L1.04531 16.9584L0.545499 16.9446ZM0.539062 16.9446V16.4446H0.0390625V16.9446H0.539062ZM0.539062 38.9752H0.0390625V39.471L0.534832 39.4752L0.539062 38.9752ZM0.0418483 38.9663C0.0399936 39.0696 0.0390625 39.1732 0.0390625 39.277H1.03906C1.03906 39.1792 1.03994 39.0816 1.04169 38.9842L0.0418483 38.9663ZM0.0390625 39.277C0.0390625 48.8108 7.88616 56.5263 17.5497 56.5263V55.5263C8.4238 55.5263 1.03906 48.244 1.03906 39.277H0.0390625ZM17.5497 56.5263C27.2132 56.5263 35.0603 48.8108 35.0603 39.277H34.0603C34.0603 48.244 26.6756 55.5263 17.5497 55.5263V56.5263ZM35.0603 39.277V17.4098H34.0603V39.277H35.0603ZM35.0603 17.4098V16.9446H34.0603V17.4098H35.0603ZM34.5603 16.4446H34.5539V17.4446H34.5603V16.4446ZM35.0537 16.9307C34.7957 7.61858 27.0509 0.160522 17.5497 0.160522V1.16052C26.5219 1.16052 33.8115 8.20002 34.0541 16.9584L35.0537 16.9307ZM17.5497 0.160522C8.04852 0.160522 0.303625 7.61858 0.0456903 16.9307L1.04531 16.9584C1.2879 8.20002 8.57747 1.16052 17.5497 1.16052V0.160522ZM0.545499 16.4446H0.539062V17.4446H0.545499V16.4446ZM0.0390625 16.9446V17.4098H1.03906V16.9446H0.0390625ZM0.0390625 17.4098V38.9752H1.03906V17.4098H0.0390625ZM0.534832 39.4752L0.537538 39.4752L0.545998 38.4752L0.543293 38.4752L0.534832 39.4752Z" fill="#FCF1E3"/>
<ellipse cx="17.5499" cy="8.56993" rx="2.8351" ry="2.79155" fill="#FCF1E3"/>
</svg>
