<svg width="211" height="652" viewBox="0 0 211 652" fill="none" xmlns="http://www.w3.org/2000/svg">
<path d="M352.876 403.623C342.923 285.681 478.946 295.391 451.157 215.942C423.369 136.493 332.112 211.125 293.775 132.127C255.438 53.1301 171.435 45.9789 124.074 115.618C63.0541 205.372 180.066 250.656 111.782 329.456C38.7908 413.692 171.839 501.163 225.377 507.772C278.916 514.382 361.004 500.094 352.876 403.623Z" fill="#FDC53C"/>
<path d="M427.323 451.105C389.462 338.094 525.044 313.648 478.882 242.785C432.721 171.921 361.1 267.785 304.712 199.997C248.323 132.209 164.317 146.176 134.514 226.192C96.121 329.316 221.555 344.45 173.436 438.66C121.999 539.369 273.2 591.811 327.229 584.919C381.259 578.026 458.279 543.544 427.323 451.105Z" fill="#E51449"/>
</svg>
