<svg width="350" height="592" viewBox="0 0 350 592" fill="none" xmlns="http://www.w3.org/2000/svg">
<path d="M450.49 271.77C361.311 352.338 470.421 449.428 394.478 487.526C318.535 525.623 301.536 399.8 217.966 429.468C134.395 459.135 66.2129 400.038 78.7965 311.626C95.0303 197.691 214.469 253.593 217.649 142.277C221.05 23.2853 381.778 59.9403 426.655 96.0704C471.531 132.2 523.424 205.861 450.49 271.77Z" fill="#FDC53C"/>
<path d="M257.124 241.312C341.85 253.111 345.478 142.976 400.898 167.947C456.318 192.919 395.054 264.218 449.319 297.692C503.585 331.165 502.181 399.217 447.981 435.234C378.125 481.639 354.471 385.719 291.987 438.337C225.194 494.583 172.213 384.369 171.62 340.932C171.027 297.494 187.822 231.671 257.124 241.312Z" fill="#E51449"/>
</svg>
