<svg width="247" height="642" viewBox="0 0 247 642" fill="none" xmlns="http://www.w3.org/2000/svg">
<path d="M-149.426 433.337C-97.8078 337.414 -216.43 293.506 -163.823 236.969C-111.216 180.431 -61.3545 278.509 0.010459 226.396C61.3754 174.282 135.056 200.422 149.612 277.458C168.357 376.738 52.7868 370.197 81.6877 462.997C112.58 562.198 -32.0076 585.187 -79.7184 570.262C-127.429 555.337 -191.637 511.801 -149.426 433.337Z" fill="#FDC53C"/>
<path d="M-105.205 130.296C-28.0642 194.293 30.7226 90.9027 72.5285 149.314C114.334 207.726 18.5215 238.028 54.9317 303.878C91.3418 369.727 55.8391 434.133 -15.3566 434.982C-107.108 436.062 -82.1931 329.344 -169.834 340.968C-263.518 353.391 -260.185 214.728 -238.983 172.692C-217.781 130.655 -168.308 77.9588 -105.205 130.296Z" fill="#2956A3"/>
</svg>
