<svg width="29" height="29" viewBox="0 0 29 29" fill="none" xmlns="http://www.w3.org/2000/svg">
<path d="M21.9853 29H22.0272C22.8155 29 23.5607 28.6826 24.1251 28.1054L28.1744 23.9645C28.313 23.8227 28.4232 23.6544 28.4982 23.4693C28.5735 23.284 28.612 23.0855 28.612 22.8848C28.612 22.6844 28.5735 22.4858 28.4982 22.3006C28.4232 22.1153 28.313 21.9472 28.1744 21.8054L23.5245 17.3341C23.3859 17.1922 23.2215 17.0796 23.0403 17.0028C22.8591 16.926 22.6649 16.8864 22.4689 16.8864C22.2727 16.8864 22.0786 16.926 21.8974 17.0028C21.7162 17.0796 21.5518 17.1922 21.4132 17.3341L17.4564 21.3804C16.353 21.0445 12.9713 18.6449 11.6664 17.3103C10.3614 15.9758 8.27589 12.501 7.94739 11.3727L11.9042 7.32635C12.043 7.18467 12.1531 7.0164 12.2282 6.83116C12.3033 6.64594 12.342 6.44737 12.342 6.24683C12.342 6.04631 12.3033 5.84774 12.2282 5.66252C12.1531 5.47728 12.043 5.30901 11.9042 5.16733L7.27071 0.429001C6.98527 0.153496 6.60759 0 6.21509 0C5.82256 0 5.44489 0.153496 5.15944 0.429001L1.11162 4.56992C0.544246 5.15015 0.224714 5.94718 0.236651 6.761C0.271008 8.93529 0.833904 16.4872 6.65406 22.4391C12.4742 28.3908 19.8592 28.965 21.9853 29Z" fill="#121212"/>
</svg>
